<svg xmlns="http://www.w3.org/2000/svg" viewBox="0 0 412 618.07"><defs><style>.cls-1{font-size:314.25px;font-family:Rajdhani-Bold, Rajdhani;font-weight:700;}.cls-2{fill:#fced9e;}.cls-3{fill:#e5eeea;}.cls-4{fill:#7ec8db;}.cls-5{fill:#c8e4ea;}.cls-6{fill:#fefbef;}.cls-7{fill:#be3f49;}.cls-8{fill:#f8c63c;}.cls-9{fill:#f9e4b1;}.cls-10{fill:#d87c42;}.cls-11{fill:#f1b63e;}</style></defs><g id="Layer_2" data-name="Layer 2"><text class="cls-1" transform="translate(-2061.96 -3037.27)"><tspan xml:space="preserve">Sidor att  fixa</tspan><tspan x="-494.14" y="418.99" xml:space="preserve">- Updates from  team</tspan><tspan x="383.21" y="837.99">- Footer</tspan><tspan x="-324.3" y="1256.98">- About the project</tspan><tspan x="261.13" y="2094.97">- Register</tspan><tspan x="439.46" y="2513.96">- E-day</tspan><tspan x="448.42" y="2932.96">- Rules</tspan><tspan x="324.45" y="3351.95">- Actions</tspan></text><path class="cls-2" d="M185.06,125.79c.65-2.07,1.27-4.15,1.95-6.21a104.08,104.08,0,0,1,7.1-16.37,1.41,1.41,0,0,0-.1-1.2,14.2,14.2,0,0,1-1.89-12.29c1.57-5.41,5.26-8.76,10.72-10.14.48-.12.94-.3,1.41-.45h3A34.54,34.54,0,0,1,212,80.55a13.9,13.9,0,0,1,8.37,11.26,14.26,14.26,0,0,1-2.42,10.3,1.28,1.28,0,0,0-.08,1.11A73.31,73.31,0,0,1,227,125.48a1.83,1.83,0,0,0,.14.32c.25,1.49.53,3,.76,4.48a1.84,1.84,0,0,1-1.77,2.25c-5.41.41-10.82.89-16.24,1.11-3.84.15-7.69,0-11.53-.18-4-.19-8-.54-12.06-.9-1.94-.17-2.51-1.11-2.07-3C184.54,128.29,184.8,127,185.06,125.79Z"/><path class="cls-3" d="M151.65,237a7.69,7.69,0,0,0,.22-1.33c0-8.46,0-16.93,0-25.39,0-4,.07-8,.25-12,.22-4.87.91-9.7,3.23-14.06a39.88,39.88,0,0,1,4.29-6.34,56.86,56.86,0,0,1,4.64-4.54,2.84,2.84,0,0,0,.45-.78l2.62.71-.74.72c-1.87,1.74-3.83,3.4-5.57,5.26a25.88,25.88,0,0,0-5.06,8.44c-1.76,4.49-1.94,9.22-2,13.88-.07,16.12.08,32.23.18,48.35,0,5.84.14,11.69.23,17.54q.11,6.88.23,13.79c.08,4.28.15,8.57.24,12.85q.11,5.61.23,11.21t.23,11.22c.08,3.85.18,7.71.22,11.57a1,1,0,0,0,.83,1.17c3.94,1.17,7.84,2.51,11.82,3.54a125.44,125.44,0,0,0,21.33,3.79c4.36.35,8.73.71,13.09.89,2.52.11,5.05-.09,7.57-.2s5.27-.18,7.89-.48c4.52-.53,9-1.12,13.54-1.85a129.9,129.9,0,0,0,24.63-6.78,1.51,1.51,0,0,0,.75-1.07c.14-2.13.21-4.27.26-6.41.09-4.17.16-8.33.24-12.5q.12-7.07.23-14.14c.08-5.54.18-11.07.23-16.61.1-9.43.22-18.87.22-28.31,0-7.95-.12-15.91-.21-23.86-.06-5.34-.12-10.68-.25-16-.08-3.61-.34-7.22-.44-10.83a30.54,30.54,0,0,0-1.61-8.43,33.07,33.07,0,0,0-11-15.49,9.77,9.77,0,0,0-2.85-1l4.42-.94a7.36,7.36,0,0,0,1,1.58,33.31,33.31,0,0,1,11.55,20.95,87.85,87.85,0,0,1,.7,9c.16,3.61.17,7.23.28,10.85,0,.31.29.6.44.9v.47a9.08,9.08,0,0,0-.22,1.45c0,15.92,0,31.84,0,47.76,0,6.94-.14,13.88-.23,20.82-.06,4.9-.15,9.81-.23,14.72l-.24,13.2c-.07,4.05-.14,8.1-.24,12.15a9.83,9.83,0,0,1-.26,2.3,1.62,1.62,0,0,1-.94.87c-3.63,1.25-7.28,2.45-10.93,3.67-.18.06-.36.15-.54.23l-6.42,1.73-3.14.72-8.86,1.71c-.42,0-.85,0-1.27.09a132.78,132.78,0,0,1-21.81,1.6c-4.53-.05-9.07-.33-13.61-.51-1-.13-2-.2-3-.41-2.19-.45-13.77-.54-24.57-4.74l-.27-.16-.93,0a2.43,2.43,0,0,0-.61-.47c-2.47-.82-4.94-1.65-7.43-2.4a1.3,1.3,0,0,1-1.1-1.59,14.75,14.75,0,0,0,0-1.76c-.08-5.46-.15-10.91-.24-16.37-.06-3.7-.16-7.4-.23-11.1q-.12-6.24-.23-12.5c-.08-4.25-.17-8.49-.24-12.74q-.12-7.89-.23-15.78c-.09-6.75-.15-13.49-.26-20.23a3.49,3.49,0,0,0-.44-1.14Z"/><path class="cls-4" d="M246.33,172.63l-4.42.94c-3.8.46-7.59,1-11.41,1.33-4,.31-8.06.48-12.1.48-9.68,0-19.37-.1-29.05-.19-2.88,0-5.75-.11-8.62-.27-2.16-.12-4.32-.38-6.47-.65s-4.59-.65-6.89-1l-2.62-.71c-1.33-.66-2.74-1.23-4-2a4.4,4.4,0,0,1-1.6-6.08c.76-1.42,1.89-2.63,2.79-4a2.21,2.21,0,0,0,.27-1.32c-.3-3.24-1-6.47-.91-9.69a45.63,45.63,0,0,1,3.39-16.61,6.51,6.51,0,0,1,4.23-3.78,57.66,57.66,0,0,1,12.92-2.88l3.22-.43c-.26,1.25-.52,2.5-.8,3.75-.44,1.91.13,2.85,2.07,3,4,.36,8,.71,12.06.9,3.84.18,7.69.33,11.53.18,5.42-.22,10.83-.7,16.24-1.11a1.84,1.84,0,0,0,1.77-2.25c-.23-1.5-.51-3-.76-4.48,3.33.53,6.69.9,10,1.65a60.81,60.81,0,0,1,7.94,2.59c1.46.54,2.06,1.79,2.25,3.39.27,2.29.86,4.54,1.19,6.82.36,2.56.65,5.13.83,7.7a69.12,69.12,0,0,1,.39,9.31,7.9,7.9,0,0,0,2.35,6.84c2.46,2.44,1.52,5.37-1.88,7C249,171.75,247.63,172.14,246.33,172.63Z"/><path class="cls-5" d="M167.37,173.29c2.3.33,4.59.7,6.89,1s4.31.53,6.47.65c2.87.16,5.74.24,8.62.27,9.68.09,19.37.2,29.05.19,4,0,8.08-.17,12.1-.48,3.82-.29,7.61-.87,11.41-1.33a9.77,9.77,0,0,1,2.85,1,33.07,33.07,0,0,1,11,15.49,30.54,30.54,0,0,1,1.61,8.43c.1,3.61.36,7.22.44,10.83.13,5.34.19,10.68.25,16,.09,7.95.22,15.91.21,23.86,0,9.44-.12,18.88-.22,28.31-.05,5.54-.15,11.07-.23,16.61q-.11,7.07-.23,14.14c-.08,4.17-.15,8.33-.24,12.5-.05,2.14-.12,4.28-.26,6.41a1.51,1.51,0,0,1-.75,1.07A129.9,129.9,0,0,1,231.67,335c-4.5.73-9,1.32-13.54,1.85-2.62.3-5.26.36-7.89.48s-5.05.31-7.57.2c-4.36-.18-8.73-.54-13.09-.89a125.44,125.44,0,0,1-21.33-3.79c-4-1-7.88-2.37-11.82-3.54a1,1,0,0,1-.83-1.17c0-3.86-.14-7.72-.22-11.57s-.15-7.48-.23-11.22-.16-7.47-.23-11.21c-.09-4.28-.16-8.57-.24-12.85q-.12-6.9-.23-13.79c-.09-5.85-.19-11.7-.23-17.54-.1-16.12-.25-32.23-.18-48.35,0-4.66.2-9.39,2-13.88a25.88,25.88,0,0,1,5.06-8.44c1.74-1.86,3.7-3.52,5.57-5.26ZM155.85,259h.47c0,3,0,6,0,9,.06,5.19.15,10.37.23,15.55s.17,10.14.23,15.2q.14,11.41.24,22.82c0,1.56,0,3.12,0,4.68a1.46,1.46,0,0,0,.76,1c2.52.9,5.06,1.77,7.63,2.53a114.27,114.27,0,0,0,18.48,4c4.72.59,9.44,1.36,14.19,1.52a126.75,126.75,0,0,0,21.42-.62c4-.55,8.07-1,12.06-1.72a146.38,146.38,0,0,0,23-6.48,1.35,1.35,0,0,0,1-1.44c0-5,.15-9.9.2-14.85q.14-14,.24-28.09.11-13.68.23-27.38c.09-11.74.15-23.48.26-35.22a1.49,1.49,0,0,0-1.23-1.74,144.49,144.49,0,0,0-24.8-5.62c-5.18-.63-10.37-1.37-15.58-1.56a136.25,136.25,0,0,0-24,.86c-4.28.61-8.58,1.17-12.84,2a153.21,153.21,0,0,0-21.42,5.86,1.44,1.44,0,0,0-1.2,1.64q.19,7.89.25,15.78C155.88,244.16,155.85,251.57,155.85,259Z"/><path class="cls-6" d="M155.85,259c0-7.41,0-14.82,0-22.23q0-7.89-.25-15.78a1.44,1.44,0,0,1,1.2-1.64,153.21,153.21,0,0,1,21.42-5.86c4.26-.8,8.56-1.36,12.84-2a136.25,136.25,0,0,1,24-.86c5.21.19,10.4.93,15.58,1.56a144.49,144.49,0,0,1,24.8,5.62,1.49,1.49,0,0,1,1.23,1.74c-.11,11.74-.17,23.48-.26,35.22q-.11,13.7-.23,27.38-.12,14.05-.24,28.09c-.05,4.95-.17,9.9-.2,14.85a1.35,1.35,0,0,1-1,1.44,146.38,146.38,0,0,1-23,6.48c-4,.76-8,1.17-12.06,1.72a126.75,126.75,0,0,1-21.42.62c-4.75-.16-9.47-.93-14.19-1.52a114.27,114.27,0,0,1-18.48-4c-2.57-.76-5.11-1.63-7.63-2.53a1.46,1.46,0,0,1-.76-1c-.09-1.56,0-3.12,0-4.68q-.11-11.42-.24-22.82c-.06-5.06-.15-10.13-.23-15.2s-.17-10.36-.23-15.55c0-3,0-6,0-9Z"/><path class="cls-7" d="M192.07,470c.87-3.15,1.92-6.26,2.55-9.45a48,48,0,0,0-.88-20.88,99.37,99.37,0,0,0-8.41-21.59,32.77,32.77,0,0,1,2.32-10.7c10.47,7.05,14.83,17.58,16.74,29.57a1.7,1.7,0,0,0,.22-.34A35.93,35.93,0,0,0,206,425.66a51.86,51.86,0,0,0-.88-8.32,42.42,42.42,0,0,0-4.62-13.27c.81-4.19,1.77-8.37,2.39-12.59a28.74,28.74,0,0,0-.39-10.33c-1-4.68-4.13-7.94-7.44-11-2.2-2.07-4.51-4-6.77-6.06.45-.9.89-1.81,1.36-2.71a23.63,23.63,0,0,1,6.61-7.86,23,23,0,0,1,14.07-4.7,40.4,40.4,0,0,1,4.48,4.49c3.53,4.84,3.67,10.31,2.47,15.94l-.24.2v0a13,13,0,0,0-1.76.84,29.21,29.21,0,0,0-9.4,10.24c-2.7,5-2.58,10.09-.4,15.11,1.65,3.81,3.78,7.41,5.65,11.12,2,4,4.17,8,6,12.14,3.68,8.46,2.7,16.72-1.54,24.74-4.35,8.22-10.43,15-17.25,21.2C196.34,466.6,194.17,468.25,192.07,470Z"/><path class="cls-8" d="M217.32,369.2c1.2-5.63,1.06-11.1-2.47-15.94a40.4,40.4,0,0,0-4.48-4.49,5.57,5.57,0,0,0-.87-.75q-4-2.08-8.09-4.13c-.34-.17-.71-.28-1.06-.42a2.15,2.15,0,0,1,1.1-.3c.38,0,.77,0,1.16-.05a37.86,37.86,0,0,1,16,1.69c4.86,1.73,8.24,4.94,9.58,10,.38,1.46.51,3,.76,4.46a45.44,45.44,0,0,1-1.5,12.12c-.18.7-.22,1.43-.33,2.15-.1.11-.25.21-.3.34-1.69,5.31-3.42,10.59-5,15.92-1.38,4.57-.44,9,1.05,13.39,2.61,7.65,6.84,14.4,11.57,20.87l.45.66-.19.24c-.88-.68-1.78-1.34-2.66-2a75.9,75.9,0,0,1-14.2-14.61c-5.9-8.11-6.95-17-4.25-26.43,1.06-3.74,2.26-7.44,3.38-11.17a7.65,7.65,0,0,0,.15-1.36v0Z"/><path class="cls-7" d="M227.11,373.57c.11-.72.15-1.45.33-2.15a45.44,45.44,0,0,0,1.5-12.12,10.35,10.35,0,0,1,1,1.14,31.6,31.6,0,0,1,3.78,9.27c.6,2.53.95,5.13,1.43,7.8.22-.41.42-.77.61-1.14,1.24-2.26,2.42-4.54,3.71-6.76a36.56,36.56,0,0,0,5-16.38,32.07,32.07,0,0,0-2.13-13.74,37.9,37.9,0,0,0-2.22-4.17l6.42-1.73a40,40,0,0,1,4.22,18.93,63.12,63.12,0,0,1-2.64,16.65c-.07.22-.1.46-.15.68-.25-.26-.52-.5-.74-.78-.76-.94-1.5-1.89-2.24-2.83a13.86,13.86,0,0,0-.23,3.26c.07,2.94.16,5.88.24,8.82a123.93,123.93,0,0,1-11.26,21.19c-.23.35-.48.68-.8,1.13-.29-3-.49-5.93-.85-8.81a57.61,57.61,0,0,0-4-16.28C227.81,374.88,227.45,374.23,227.11,373.57Z"/><path class="cls-9" d="M245,378.32c-.08-2.94-.17-5.88-.24-8.82a13.86,13.86,0,0,1,.23-3.26c.74.94,1.48,1.89,2.24,2.83.22.28.49.52.74.78.48,1.48,1,2.93,1.42,4.43a33.44,33.44,0,0,1-.11,15.91c-.77,3.52-1.81,7-2.73,10.46l-.41,0a6,6,0,0,1-.21-1c-.1-3.08-.17-6.15-.28-9.23-.13-3.84-.3-7.69-.47-11.54A2.21,2.21,0,0,0,245,378.32Z"/><path class="cls-8" d="M187.65,407.37a32.77,32.77,0,0,0-2.32,10.7,52.28,52.28,0,0,0-.43,5.42,54,54,0,0,0,1.89,13.85c1.12,3.88,2.53,7.68,3.81,11.52.12.35.22.71.33,1.06l-.48.38c-.17-.34-.33-.7-.53-1a113.35,113.35,0,0,1-13-26.95c-1.44-4.56-.16-8.51,2.18-12.33.38-.62.75-1.27,1.12-1.9l3.27-4.22a83.64,83.64,0,0,1,8.09-7.88,4,4,0,0,1-.25,1.29Z"/><path class="cls-7" d="M183.45,403.88l-3.27,4.22c-7.1-13-14.4-25.82-19.55-39.75-2-5.45-3.51-11-3.35-16.85a35.33,35.33,0,0,1,5-17.19c.14-.23.26-.48.38-.72l.93,0-1,2.12a31.08,31.08,0,0,0-3,11.21,58.53,58.53,0,0,0,2.88,22,88.49,88.49,0,0,0,14,27.18C178.58,398.86,181.11,401.29,183.45,403.88Z"/><path class="cls-8" d="M188.33,364c2.26,2,4.57,4,6.77,6.06,3.31,3.11,6.42,6.37,7.44,11a28.74,28.74,0,0,1,.39,10.33c-.62,4.22-1.58,8.4-2.39,12.59q-1.39,4.28-2.81,8.54a2.66,2.66,0,0,1-.23-1.34c.06-3.29.17-6.57.17-9.86a22.16,22.16,0,0,0-.46-3.21,56.66,56.66,0,0,0-1.42-5.49,15.72,15.72,0,0,0-7.44-9l-7.24-4.41a56,56,0,0,1-10-8.07c-1.3-1.42-2.51-2.93-3.77-4.4-.15-.27-.28-.56-.45-.82-5-7.76-5.92-16.24-4.5-25.14.38-2.37,1-4.71,1.48-7.07l5.57,1.42c.1.72,12,6.11,13.27,4.88-.41,2.21-.93,4.4-1.2,6.63a17.13,17.13,0,0,0,1,8.7,9.66,9.66,0,0,0,.29,1.12A19.31,19.31,0,0,0,188.33,364Zm-6.45,7.73H182l0-.1Z"/><path class="cls-10" d="M188.33,364a19.31,19.31,0,0,1-5.59-7.51,9.66,9.66,0,0,1-.29-1.12,34.23,34.23,0,0,1,4.07-10c1.46-2.26,3.24-4.33,4.87-6.48,4.54.18,9.08.46,13.61.51a132.78,132.78,0,0,0,21.81-1.6c.42-.06.85-.06,1.27-.09a1.6,1.6,0,0,0,.13.44,36.17,36.17,0,0,1,5.8,12.62c.46,1.69.85,3.4,1.27,5.11a20.51,20.51,0,0,0,.52-3.37c.25-2.77.5-5.55.73-8.33s.9-5.42.41-8.18l3.14-.72a37.9,37.9,0,0,1,2.22,4.17,32.07,32.07,0,0,1,2.13,13.74,36.56,36.56,0,0,1-5,16.38c-1.29,2.22-2.47,4.5-3.71,6.76-.19.37-.39.73-.61,1.14-.48-2.67-.83-5.27-1.43-7.8a31.6,31.6,0,0,0-3.78-9.27,10.35,10.35,0,0,0-1-1.14c-.25-1.49-.38-3-.76-4.46-1.34-5.09-4.72-8.3-9.58-10a37.86,37.86,0,0,0-16-1.69c-.39,0-.78,0-1.16.05a2.15,2.15,0,0,0-1.1.3c.35.14.72.25,1.06.42q4.05,2.06,8.09,4.13a5.57,5.57,0,0,1,.87.75,23,23,0,0,0-14.07,4.7,23.63,23.63,0,0,0-6.61,7.86C189.22,362.23,188.78,363.14,188.33,364Z"/><path class="cls-10" d="M181.11,379.28l7.24,4.41c.28.8.53,1.62.86,2.4,1.91,4.53,5.12,8.21,8,12.11a22.16,22.16,0,0,1,.46,3.21c0,3.29-.11,6.57-.17,9.86a2.66,2.66,0,0,0,.23,1.34q1.41-4.26,2.81-8.54a42.42,42.42,0,0,1,4.62,13.27,51.86,51.86,0,0,1,.88,8.32,35.93,35.93,0,0,1-1.43,10.94,1.7,1.7,0,0,1-.22.34c-1.91-12-6.27-22.52-16.74-29.57l3.64-10.08a4,4,0,0,0,.25-1.29,83.64,83.64,0,0,0-8.09,7.88c-2.34-2.59-4.87-5-7-7.78a88.49,88.49,0,0,1-14-27.18,58.53,58.53,0,0,1-2.88-22,31.08,31.08,0,0,1,3-11.21l1-2.12.27.16c-.5,2.36-1.1,4.7-1.48,7.07-1.42,8.9-.47,17.38,4.5,25.14.17.26.3.55.45.82a1.39,1.39,0,0,0,0,.46c1.61,3.49,3.13,7,4.89,10.44A55.38,55.38,0,0,0,180,388.3c.87,1,1.85,1.88,2.78,2.81a1.25,1.25,0,0,0,.09-.84Q182,384.78,181.11,379.28Z"/><path class="cls-11" d="M236.94,336c.49,2.76-.19,5.46-.41,8.18s-.48,5.56-.73,8.33a20.51,20.51,0,0,1-.52,3.37c-.42-1.71-.81-3.42-1.27-5.11a36.17,36.17,0,0,0-5.8-12.62,1.6,1.6,0,0,1-.13-.44Z"/><path class="cls-11" d="M191.39,338.93c-1.63,2.15-3.41,4.22-4.87,6.48a34.23,34.23,0,0,0-4.07,10,17.13,17.13,0,0,1-1-8.7c.27-2.23.79-4.42,1.2-6.63a7.07,7.07,0,0,1,5.73-1.56C189.39,338.73,190.4,338.8,191.39,338.93Z"/><path class="cls-11" d="M181.11,379.28q.87,5.49,1.75,11a1.25,1.25,0,0,1-.09.84c-.93-.93-1.91-1.82-2.78-2.81a55.38,55.38,0,0,1-7.75-10.59c-1.76-3.41-3.28-6.95-4.89-10.44a1.39,1.39,0,0,1,0-.46c1.26,1.47,2.47,3,3.77,4.4A56,56,0,0,0,181.11,379.28Z"/><path class="cls-7" d="M197.21,398.2c-2.88-3.9-6.09-7.58-8-12.11-.33-.78-.58-1.6-.86-2.4a15.72,15.72,0,0,1,7.44,9A56.66,56.66,0,0,1,197.21,398.2Z"/><polygon class="cls-3" points="181.88 371.77 181.92 371.68 181.95 371.78 181.88 371.77"/><path class="cls-9" d="M169.31,335.17c4.86,1.24,18.47,3.24,18.47,3.24s-8.22,5.24-9.79,12.15c-1.87,8.26,2.89,18.57,3.53,20.71s-6-5.95-9.84-15.87C168.13,346.3,169,335.09,169.31,335.17Z"/></g></svg>