<svg xmlns="http://www.w3.org/2000/svg" viewBox="0 0 412 618.07"><defs><style>.cls-1{font-size:314.25px;font-family:Rajdhani-Bold, Rajdhani;font-weight:700;}.cls-2{fill:#be3f49;}.cls-3{fill:#f8c63c;}.cls-4{fill:#f9e4b1;}.cls-5{fill:#f7cb68;}.cls-6{fill:#f1b63e;}.cls-7{fill:#d87c42;}.cls-8{fill:#f9e4af;}.cls-9{fill:#f76e01;}.cls-10{fill:#eb9f08;}.cls-11{fill:#a58a49;}.cls-12{fill:#d3b25f;}.cls-13{fill:#ba9d4c;}.cls-14{fill:#e7c35f;}.cls-15{fill:#e3fcfc;opacity:0.18;}.cls-16{fill:#6d4935;}.cls-17{fill:#347fad;}.cls-18{fill:#6e7c76;}.cls-19{fill:#a5ada4;}.cls-20{fill:#c3d4cf;}.cls-21{fill:#38779c;}.cls-22{fill:#4a7f58;}.cls-23{fill:#929184;}.cls-24{fill:#476675;}.cls-25{fill:#56544e;}.cls-26{fill:#647672;}.cls-27{fill:#677975;}.cls-28{fill:#e9f8f7;}.cls-29{fill:#298fd3;}.cls-30{fill:#41a06f;}.cls-31{fill:#44a371;}.cls-32{fill:#97b4b4;}.cls-33{fill:#bae9ef;}</style></defs><g id="Layer_2" data-name="Layer 2"><text class="cls-1" transform="translate(-2061.96 -3037.27)"><tspan xml:space="preserve">Sidor att  fixa</tspan><tspan x="-494.14" y="418.99" xml:space="preserve">- Updates from  team</tspan><tspan x="383.21" y="837.99">- Footer</tspan><tspan x="-324.3" y="1256.98">- About the project</tspan><tspan x="261.13" y="2094.97">- Register</tspan><tspan x="439.46" y="2513.96">- E-day</tspan><tspan x="448.42" y="2932.96">- Rules</tspan><tspan x="324.45" y="3351.95">- Actions</tspan></text><path class="cls-2" d="M199.43,391.41a45.66,45.66,0,0,0,.88-4.87,22.11,22.11,0,0,0-1.33-8.49c-.11-.35-.22-.68-.34-1l.63-2.93a6.67,6.67,0,0,1,2.16,3,17.22,17.22,0,0,1,1.23,5.35,15.81,15.81,0,0,0-.36-9.12c.22-1,.46-2,.65-3,.47-2.56.2-4.88-1.45-6.76-.47-.53-.89-1.12-1.33-1.68a4.86,4.86,0,0,1,.28-.7c1.17-2.13,2.75-3.29,4.87-3.14,1.45,1.49,1.86,3.42,1.25,5.87-2.65,1.21-3.89,4.49-2.86,7.71.57,1.78,1.26,3.49,1.87,5.25a9.78,9.78,0,0,1-.79,8.34,23.32,23.32,0,0,1-5.15,6.15s-.15,0-.22,0Z"/><path class="cls-3" d="M200.17,361.87c.44.56.86,1.15,1.33,1.68,1.65,1.88,1.92,4.2,1.45,6.76-.19,1-.43,2-.65,3l-.72,2v-3.89a14.05,14.05,0,0,0-.31-1.74,3.33,3.33,0,0,0-1.34-2.17l-1.64-1.47-2.82-3.44h0l-.11-.2a11.53,11.53,0,0,1-1-5.5c.12-1.22.34-2.42.51-3.62h0L195,353v-.35l.48-.88h.79l.09,2.64c-.07.17-.21.34-.2.51a21.33,21.33,0,0,0,.14,3.11,13.05,13.05,0,0,0,2.14,5.57l.05.21,0,0-.1-.17c0-.25-.06-.51-.1-.76a18,18,0,0,1-.41-5.63,2,2,0,0,1,1.15-1.83,8.22,8.22,0,0,0-.11.83c0,1,0,2,0,3A4.72,4.72,0,0,0,200.17,361.87Z"/><path class="cls-3" d="M206.57,363.9c.61-2.45.2-4.38-1.25-5.87l-2-1.72a9.84,9.84,0,0,1,2.42.18c2.09.4,3.7,1.85,3.65,4.91,0,.33-.06.67-.11,1-.17,1-.35,2-.53,3-.67,2-1.78,3.87-1.63,6.11a22.54,22.54,0,0,0,1,4.59,25.35,25.35,0,0,0,1.18,2.79,6,6,0,0,1,.2.64v0a17.13,17.13,0,0,1-3.77-5.56,10.24,10.24,0,0,1,0-7.45C206.05,365.67,206.3,364.78,206.57,363.9Z"/><path class="cls-2" d="M208.76,365.41c.18-1,.36-2,.53-3,.05-.33.07-.67.11-1a11.68,11.68,0,0,1,1.06,5.05c1.76-2.81,2.94-5.7,2.48-9.23a8.36,8.36,0,0,0-1.5-4.08l-.54-1.37h1.46c2.47,3.59,2.49,7.63,1.43,11.87-.07.3-.14.6-.22.9l-.72-1-.17,3.57-2.84,5.76-.17-.07c0-1.13,0-2.27-.17-3.38C209.32,368.09,209,366.76,208.76,365.41Z"/><path class="cls-3" d="M199.27,374.1l-.63,2.93a15.55,15.55,0,0,0,.09,5.73c.17,1,.38,2.08.57,3.12h0a17,17,0,0,1-.93-2c-.6-1.82-1.14-3.67-1.68-5.51a4.57,4.57,0,0,1,.56-3.71c.11-.2.19-.4.29-.61l.82-1.2,1.87-1.88.12.11Z"/><path class="cls-2" d="M198.37,372.8l-.82,1.2c-1.1-3.18-2.25-6.34-3.27-9.56a17.18,17.18,0,0,1-1-6.83,11.1,11.1,0,0,1,1.48-4.71l.09.11v.32h0a3,3,0,0,0-.25.43,13.88,13.88,0,0,0-.72,6.77,25.46,25.46,0,0,0,1.62,6.85A17.9,17.9,0,0,0,198.37,372.8Z"/><path class="cls-4" d="M212.68,367.14l.17-3.57.72,1c.1,1.06.25,2.12.27,3.18a17.22,17.22,0,0,1-1.16,5.56Z"/><path class="cls-5" d="M209.64,379.7l-.13-.14v0l.11.18Z"/><path class="cls-5" d="M209.63,379.72l.07,0h0s0,0,0-.06Z"/><path class="cls-5" d="M199.3,385.88l0,0,0,0Z"/><path class="cls-6" d="M206,351.77h1.83l2.49,2.15.13-.11-.57-2h1l.54,1.37c.38,2.5-.23,4.87-.51,7.19-.28-1.19-.47-2.47-.86-3.64-.76-2.28-2-3.87-4.18-3.88Z"/><path class="cls-3" d="M209.89,351.77l.57,2-.13.11-2.49-2.15.91-.05Z"/><path class="cls-4" d="M206,351.77l-.12,1a2.19,2.19,0,0,1-1.82,1.37c-.74.08-1.48.09-2.22.13a10.58,10.58,0,0,0-1.68.31,5.22,5.22,0,0,0-1.12.75,2,2,0,0,0-1.15,1.83,18,18,0,0,0,.41,5.63c0,.25.07.51.1.76h0a13.05,13.05,0,0,1-2.14-5.57,21.33,21.33,0,0,1-.14-3.11c0-.17.13-.34.2-.51.14.55.29,1.1.44,1.67l1-4.31,1.26-.05,1.29.05c1.1,1.68,3.06,1.68,3.81,0Z"/><path class="cls-7" d="M201.85,354.31c.74,0,1.48-.05,2.22-.13a2.19,2.19,0,0,0,1.82-1.37c2.17,0,3.42,1.6,4.18,3.88.39,1.17.58,2.45.86,3.64.28-2.32.89-4.69.51-7.19a8.36,8.36,0,0,1,1.5,4.08c.46,3.53-.72,6.42-2.48,9.23a11.68,11.68,0,0,0-1.06-5.05c0-3.06-1.56-4.51-3.65-4.91a9.84,9.84,0,0,0-2.42-.18l2,1.72c-2.12-.15-3.7,1-4.87,3.14a4.86,4.86,0,0,0-.28.7,4.72,4.72,0,0,1-1.25-2.7,3.49,3.49,0,0,0,.15-.34A9.39,9.39,0,0,1,201.85,354.31Z"/><path class="cls-7" d="M198.37,372.8a17.9,17.9,0,0,1-2.87-5.42,25.46,25.46,0,0,1-1.62-6.85,13.88,13.88,0,0,1,.72-6.77,3,3,0,0,1,.25-.43c-.17,1.2-.39,2.4-.51,3.62a11.53,11.53,0,0,0,1,5.5,2,2,0,0,0,.11.2h0c.14.57.23,1.17.41,1.72a16.86,16.86,0,0,0,2.55,4.91l-.14-3.19,1.64,1.47a4.26,4.26,0,0,0,.17.82c.47,1,1,2.06,1.48,3.09v3.89l.72-2a15.81,15.81,0,0,1,.36,9.12,17.22,17.22,0,0,0-1.23-5.35,6.67,6.67,0,0,0-2.16-3c.36-1,.73-2,1.09-3.07l-.12-.11Z"/><path class="cls-6" d="M198.29,366.08l.14,3.19a16.86,16.86,0,0,1-2.55-4.91c-.18-.55-.27-1.15-.41-1.72Z"/><path class="cls-6" d="M201.85,354.31a9.39,9.39,0,0,0-2.78,4.52,3.49,3.49,0,0,1-.15.34c0-1,0-2,0-3a8.22,8.22,0,0,1,.11-.83,5.22,5.22,0,0,1,1.12-.75A10.58,10.58,0,0,1,201.85,354.31Z"/><path class="cls-2" d="M201.58,371.46c-.5-1-1-2-1.48-3.09a4.26,4.26,0,0,1-.17-.82,3.33,3.33,0,0,1,1.34,2.17A14.05,14.05,0,0,1,201.58,371.46Z"/><path class="cls-8" d="M198.41,363.59l.1.17,0,0-.05-.21Z"/><path class="cls-9" d="M194.85,353H195l-.12.33Z"/><path class="cls-10" d="M195.48,362.65a2,2,0,0,1-.11-.2A2,2,0,0,0,195.48,362.65Z"/><path class="cls-11" d="M204.61,335.36a6.72,6.72,0,0,1,2.89.94,11.47,11.47,0,0,1,3.95,3.7,19.4,19.4,0,0,1,3.27,7.3c.55,2.71.8,5.42,1.19,8.12,0,.09.12.17.18.25v.57l-2.78.06h-2.85l-1.07,0c-.06-1.28-.12-2.56-.2-3.84,0-.73-.11-1.45-.18-2.18-.13-1.36-.24-2.72-.4-4.07a21.26,21.26,0,0,0-.4-2.62,30.71,30.71,0,0,0-1-3.56,22.71,22.71,0,0,0-1.41-3.12A11.18,11.18,0,0,0,204.61,335.36Z"/><path class="cls-11" d="M191.6,355.74c.12-1.39.17-2.78.36-4.17a24.75,24.75,0,0,1,4.78-12.38,9.63,9.63,0,0,1,3.66-3,19.11,19.11,0,0,1,2.66-.81,14.08,14.08,0,0,0-1.51,1.77,22.65,22.65,0,0,0-2.31,7.09c-.25,1.19-.44,2.39-.57,3.58-.17,1.63-.3,3.26-.38,4.89-.06,1.2,0,2.4,0,3.61l-1.72,0-1.53,0h-2.1C191.33,356.32,191.64,356.34,191.6,355.74Z"/><path class="cls-12" d="M198.27,356.28c0-1.21,0-2.41,0-3.61.08-1.63.21-3.26.38-4.89.13-1.19.32-2.39.57-3.58a22.65,22.65,0,0,1,2.31-7.09,14.08,14.08,0,0,1,1.51-1.77l.6,0,1,.07a11.18,11.18,0,0,1,1.24,1.52,22.71,22.71,0,0,1,1.41,3.12,30.71,30.71,0,0,1,1,3.56,21.26,21.26,0,0,1,.4,2.62c.16,1.35.27,2.71.4,4.07.07.73.14,1.45.18,2.18.08,1.28.14,2.56.2,3.84l-.73.05H200Z"/><path class="cls-2" d="M264.53,387.07c.09-1.64.32-3.29.25-4.94a22.18,22.18,0,0,0-2.42-8.25l-.46-1,.24-3a6.65,6.65,0,0,1,2.53,2.71,17.22,17.22,0,0,1,1.9,5.15,15.75,15.75,0,0,0-1.52-9c.08-1,.19-2.05.25-3.09.14-2.6-.43-4.87-2.3-6.52-.53-.46-1-1-1.54-1.49.06-.25.1-.51.18-.74.89-2.25,2.31-3.61,4.44-3.74,1.63,1.3,2.28,3.16,2,5.67-2.46,1.54-3.27,4.95-1.84,8,.79,1.69,1.7,3.3,2.53,5a9.75,9.75,0,0,1,.29,8.38,23.32,23.32,0,0,1-4.31,6.76c-.05.06-.14.05-.22.07Z"/><path class="cls-3" d="M261.46,357.69c.51.5,1,1,1.54,1.49,1.87,1.65,2.44,3.92,2.3,6.52-.06,1-.17,2.06-.25,3.09-.16.69-.31,1.39-.46,2.09l-.5-3.86a12.8,12.8,0,0,0-.53-1.69,3.38,3.38,0,0,0-1.6-2l-1.83-1.24-3.23-3.05h0l-.14-.18a11.58,11.58,0,0,1-1.72-5.33c0-1.22,0-2.43,0-3.65h0l.07-.34,0-.35.36-.93.79-.11.42,2.6a1.38,1.38,0,0,0-.13.54,22,22,0,0,0,.53,3.06,13.26,13.26,0,0,0,2.85,5.25l.07.2,0-.05-.11-.15c-.07-.25-.13-.5-.21-.74a18.2,18.2,0,0,1-1.12-5.53,2,2,0,0,1,.9-2,7.85,7.85,0,0,0,0,.84c.11,1,.24,2,.37,2.94A4.72,4.72,0,0,0,261.46,357.69Z"/><path class="cls-3" d="M268.06,358.88c.3-2.51-.35-4.37-2-5.67l-2.2-1.45a10.89,10.89,0,0,1,2.42-.13c2.13.13,3.91,1.36,4.25,4.4,0,.34,0,.67,0,1,0,1-.09,2-.13,3-.41,2.06-1.27,4.07-.83,6.27a21.8,21.8,0,0,0,1.59,4.42,23.5,23.5,0,0,0,1.52,2.62c.11.19.19.4.29.61l0,0a17.21,17.21,0,0,1-4.45-5,10.37,10.37,0,0,1-.93-7.39C267.78,360.7,267.92,359.79,268.06,358.88Z"/><path class="cls-2" d="M270.44,360.09c0-1,.09-2,.13-3,0-.34,0-.67,0-1a11.49,11.49,0,0,1,1.7,4.88c1.39-3,2.19-6,1.28-9.48a8.45,8.45,0,0,0-2-3.85l-.71-1.29,1.45-.19c2.91,3.23,3.45,7.24,2.95,11.58,0,.3-.07.61-.1.92l-.85-.85.29,3.55-2.07,6.09-.18-.06c-.2-1.11-.32-2.24-.61-3.32C271.34,362.68,270.86,361.4,270.44,360.09Z"/><path class="cls-3" d="M262.14,369.93l-.24,3a15.19,15.19,0,0,0,.82,5.67c.3,1,.64,2,1,3h0a17.69,17.69,0,0,1-1.18-1.9c-.82-1.73-1.6-3.5-2.37-5.26a4.58,4.58,0,0,1,.07-3.75c.08-.2.14-.42.21-.63.22-.44.44-.87.67-1.3l1.6-2.11.14.1Z"/><path class="cls-2" d="M261.09,368.76c-.23.43-.45.86-.67,1.3-1.49-3-3-6-4.47-9.07a17.19,17.19,0,0,1-1.87-6.65,11,11,0,0,1,.86-4.86l.1.11.05.31h0a3.76,3.76,0,0,0-.2.46,13.91,13.91,0,0,0,.16,6.81,25.7,25.7,0,0,0,2.49,6.58A17.66,17.66,0,0,0,261.09,368.76Z"/><path class="cls-4" d="M274.54,361.3l-.29-3.55.85.85c.22,1,.51,2.07.66,3.12a17.14,17.14,0,0,1-.43,5.67Z"/><path class="cls-5" d="M273.14,374.16,273,374l0,0,.13.16Z"/><path class="cls-5" d="M273.14,374.17l.07.05s0,0,0,0,0,0,0,0Z"/><path class="cls-5" d="M263.68,381.61h.06l-.05,0Z"/><path class="cls-6" d="M266,346.92l1.81-.24,2.74,1.8.11-.11-.82-1.95,1-.13c.24.43.48.86.71,1.29.7,2.43.4,4.86.42,7.2-.42-1.15-.78-2.39-1.31-3.5-1.05-2.17-2.5-3.59-4.66-3.31Z"/><path class="cls-3" d="M269.8,346.42l.82,1.95-.11.11-2.74-1.8.89-.17Z"/><path class="cls-4" d="M266,346.92V348a2.17,2.17,0,0,1-1.62,1.59c-.72.18-1.46.28-2.19.42a9.26,9.26,0,0,0-1.62.52,5.25,5.25,0,0,0-1,.89,2,2,0,0,0-.9,2,18.2,18.2,0,0,0,1.12,5.53c.08.24.14.49.21.74h0a13.26,13.26,0,0,1-2.85-5.25,22,22,0,0,1-.53-3.06,1.38,1.38,0,0,1,.13-.54c.21.53.43,1.06.65,1.6l.45-4.4,1.25-.21,1.28-.12c1.31,1.52,3.25,1.27,3.78-.48Z"/><path class="cls-7" d="M262.15,350c.73-.14,1.47-.24,2.19-.42A2.17,2.17,0,0,0,266,348c2.16-.28,3.61,1.14,4.66,3.31.53,1.11.89,2.35,1.31,3.5,0-2.34.28-4.77-.42-7.2a8.45,8.45,0,0,1,2,3.85c.91,3.45.11,6.47-1.28,9.48a11.49,11.49,0,0,0-1.7-4.88c-.34-3-2.12-4.27-4.25-4.4a10.89,10.89,0,0,0-2.42.13l2.2,1.45c-2.13.13-3.55,1.49-4.44,3.74-.08.23-.12.49-.18.74a4.72,4.72,0,0,1-1.58-2.52c0-.12.08-.23.1-.35A9.38,9.38,0,0,1,262.15,350Z"/><path class="cls-7" d="M261.09,368.76a17.66,17.66,0,0,1-3.55-5,25.7,25.7,0,0,1-2.49-6.58,13.91,13.91,0,0,1-.16-6.81,3.76,3.76,0,0,1,.2-.46c0,1.22-.08,2.43,0,3.65a11.58,11.58,0,0,0,1.72,5.33l.14.18h0c.21.55.37,1.13.62,1.64a17.26,17.26,0,0,0,3.17,4.55l-.56-3.14,1.83,1.24a3.66,3.66,0,0,0,.26.79c.61,1,1.24,1.92,1.87,2.88l.5,3.86c.15-.7.3-1.4.46-2.09a15.75,15.75,0,0,1,1.52,9,17.22,17.22,0,0,0-1.9-5.15,6.65,6.65,0,0,0-2.53-2.71l.69-3.18-.14-.1Z"/><path class="cls-6" d="M260.13,362.11l.56,3.14a17.26,17.26,0,0,1-3.17-4.55c-.25-.51-.41-1.09-.62-1.64Z"/><path class="cls-6" d="M262.15,350a9.38,9.38,0,0,0-2.17,4.84c0,.12-.07.23-.1.35-.13-1-.26-2-.37-2.94a7.85,7.85,0,0,1,0-.84,5.25,5.25,0,0,1,1-.89A9.26,9.26,0,0,1,262.15,350Z"/><path class="cls-2" d="M264.09,367c-.63-1-1.26-1.9-1.87-2.88a3.66,3.66,0,0,1-.26-.79,3.38,3.38,0,0,1,1.6,2A12.8,12.8,0,0,1,264.09,367Z"/><path class="cls-8" d="M259.94,359.62l.11.15,0,.05-.07-.2Z"/><path class="cls-9" d="M255,349.59l.12,0-.07.34Z"/><path class="cls-10" d="M256.91,359.06l-.14-.18Z"/><path class="cls-11" d="M262.45,330.83a6.59,6.59,0,0,1,3,.56,11.45,11.45,0,0,1,4.39,3.16,19.35,19.35,0,0,1,4.19,6.82c.89,2.61,1.49,5.27,2.22,7.9,0,.08.14.15.21.22l.08.56-2.76.43-1.78.23-1,.14-1.07.1c-.22-1.26-.44-2.52-.68-3.78-.14-.72-.31-1.43-.47-2.14-.3-1.33-.59-2.67-.91-4a23.15,23.15,0,0,0-.74-2.55,33,33,0,0,0-1.41-3.4,22,22,0,0,0-1.79-2.92A11.57,11.57,0,0,0,262.45,330.83Z"/><path class="cls-11" d="M252.17,352.71c-.06-1.39-.19-2.78-.17-4.18a24.55,24.55,0,0,1,3.15-12.89,9.63,9.63,0,0,1,3.23-3.49,18.35,18.35,0,0,1,2.54-1.14,14.48,14.48,0,0,0-1.28,1.95,22.58,22.58,0,0,0-1.37,7.33c-.1,1.21-.13,2.42-.11,3.62,0,1.64.12,3.27.25,4.89.09,1.2.29,2.39.44,3.58l-1.69.25-1.52.23-1.16.15-.93.1C252,353.32,252.29,353.3,252.17,352.71Z"/><path class="cls-12" d="M258.85,352.38c-.15-1.19-.35-2.38-.44-3.58-.13-1.62-.21-3.25-.25-4.89,0-1.2,0-2.41.11-3.62a22.58,22.58,0,0,1,1.37-7.33,14.48,14.48,0,0,1,1.28-1.95l.58-.13.95-.05a11.57,11.57,0,0,1,1.43,1.34,22,22,0,0,1,1.79,2.92,33,33,0,0,1,1.41,3.4,23.15,23.15,0,0,1,.74,2.55c.32,1.32.61,2.66.91,4,.16.71.33,1.42.47,2.14.24,1.26.46,2.52.68,3.78l-.72.14-2.82.37-2.34.3-3.43.45Z"/><path class="cls-2" d="M143.16,387.07a47.91,47.91,0,0,1-.24-4.94,22.17,22.17,0,0,1,2.41-8.25c.15-.32.31-.64.47-1-.09-1-.17-2-.25-3a6.65,6.65,0,0,0-2.53,2.71,17.22,17.22,0,0,0-1.9,5.15,15.75,15.75,0,0,1,1.52-9c-.08-1-.19-2.05-.25-3.09-.14-2.6.43-4.87,2.31-6.52.52-.46,1-1,1.53-1.49-.06-.25-.1-.51-.18-.74-.89-2.25-2.31-3.61-4.44-3.74-1.63,1.3-2.28,3.16-2,5.67,2.46,1.54,3.27,4.95,1.84,8-.79,1.69-1.7,3.3-2.53,5a9.75,9.75,0,0,0-.29,8.38A23.32,23.32,0,0,0,143,387c0,.06.14.05.22.07Z"/><path class="cls-3" d="M146.23,357.69c-.51.5-1,1-1.53,1.49-1.88,1.65-2.45,3.92-2.31,6.52.06,1,.17,2.06.25,3.09.16.69.31,1.39.46,2.09l.5-3.86a12.8,12.8,0,0,1,.53-1.69,3.38,3.38,0,0,1,1.6-2l1.83-1.24,3.23-3.05h0l.14-.18a11.58,11.58,0,0,0,1.72-5.33c0-1.22,0-2.43,0-3.65h0l-.07-.34,0-.35-.36-.93-.79-.11-.42,2.6a1.6,1.6,0,0,1,.14.54,23.57,23.57,0,0,1-.54,3.06,13.24,13.24,0,0,1-2.84,5.25l-.08.2,0-.05.11-.15c.07-.25.13-.5.21-.74a18.52,18.52,0,0,0,1.13-5.53,2,2,0,0,0-.91-2,7.85,7.85,0,0,1,0,.84c-.11,1-.24,2-.36,2.94A4.8,4.8,0,0,1,146.23,357.69Z"/><path class="cls-3" d="M139.63,358.88c-.3-2.51.35-4.37,2-5.67l2.2-1.45a10.89,10.89,0,0,0-2.42-.13c-2.13.13-3.91,1.36-4.25,4.4,0,.34,0,.67,0,1,0,1,.09,2,.13,3,.41,2.06,1.27,4.07.83,6.27a21.8,21.8,0,0,1-1.59,4.42A23.5,23.5,0,0,1,135,373.4c-.11.19-.19.4-.29.61l0,0a17.21,17.21,0,0,0,4.45-5,10.32,10.32,0,0,0,.93-7.39C139.91,360.7,139.78,359.79,139.63,358.88Z"/><path class="cls-2" d="M137.25,360.09c0-1-.09-2-.13-3,0-.34,0-.67,0-1a11.49,11.49,0,0,0-1.7,4.88c-1.39-3-2.19-6-1.28-9.48a8.45,8.45,0,0,1,2-3.85l.71-1.29-1.45-.19c-2.91,3.23-3.45,7.24-2.95,11.58,0,.3.07.61.11.92.26-.27.52-.54.84-.85l-.29,3.55,2.07,6.09.18-.06c.2-1.11.32-2.24.61-3.32C136.35,362.68,136.83,361.4,137.25,360.09Z"/><path class="cls-3" d="M145.55,369.93c.08,1,.16,2,.25,3a15.4,15.4,0,0,1-.83,5.67c-.3,1-.64,2-1,3h0a17.69,17.69,0,0,0,1.18-1.9c.83-1.73,1.6-3.5,2.37-5.26a4.54,4.54,0,0,0-.07-3.75c-.08-.2-.14-.42-.21-.63l-.66-1.3L145,366.65l-.14.1Z"/><path class="cls-2" d="M146.61,368.76l.66,1.3c1.49-3,3-6,4.47-9.07a17.19,17.19,0,0,0,1.87-6.65,11,11,0,0,0-.86-4.86l-.1.11-.05.31h0a3.76,3.76,0,0,1,.2.46,13.91,13.91,0,0,1-.16,6.81,25.7,25.7,0,0,1-2.49,6.58A17.83,17.83,0,0,1,146.61,368.76Z"/><path class="cls-4" d="M133.15,361.3l.29-3.55c-.32.31-.58.58-.84.85-.23,1-.52,2.07-.67,3.12a17.14,17.14,0,0,0,.43,5.67Z"/><path class="cls-5" d="M134.55,374.16l.15-.13,0,0-.13.16Z"/><path class="cls-5" d="M134.55,374.17l-.07.05s0,0,0,0a.1.1,0,0,0,0,0Z"/><path class="cls-5" d="M144,381.61H144l.05,0Z"/><path class="cls-6" d="M141.73,346.92l-1.81-.24-2.74,1.8-.11-.11.82-1.95-1-.13c-.24.43-.48.86-.71,1.29-.7,2.43-.4,4.86-.42,7.2.42-1.15.78-2.39,1.31-3.5,1.05-2.17,2.5-3.59,4.66-3.31Z"/><path class="cls-3" d="M137.89,346.42l-.82,1.95.11.11,2.74-1.8-.89-.17Z"/><path class="cls-4" d="M141.73,346.92V348a2.19,2.19,0,0,0,1.63,1.59c.71.18,1.45.28,2.18.42a9.26,9.26,0,0,1,1.62.52,5.25,5.25,0,0,1,1,.89,2,2,0,0,1,.91,2,18.52,18.52,0,0,1-1.13,5.53c-.08.24-.14.49-.21.74h0a13.24,13.24,0,0,0,2.84-5.25,23.57,23.57,0,0,0,.54-3.06,1.6,1.6,0,0,0-.14-.54c-.21.53-.43,1.06-.65,1.6l-.45-4.4-1.25-.21-1.28-.12c-1.3,1.52-3.25,1.27-3.78-.48Z"/><path class="cls-7" d="M145.54,350c-.73-.14-1.47-.24-2.18-.42a2.19,2.19,0,0,1-1.63-1.59c-2.16-.28-3.61,1.14-4.66,3.31-.53,1.11-.89,2.35-1.31,3.5,0-2.34-.28-4.77.42-7.2a8.45,8.45,0,0,0-2,3.85c-.91,3.45-.11,6.47,1.28,9.48a11.49,11.49,0,0,1,1.7-4.88c.34-3,2.12-4.27,4.25-4.4a10.89,10.89,0,0,1,2.42.13l-2.2,1.45c2.13.13,3.55,1.49,4.44,3.74.08.23.12.49.18.74a4.8,4.8,0,0,0,1.59-2.52c0-.12-.08-.23-.11-.35A9.38,9.38,0,0,0,145.54,350Z"/><path class="cls-7" d="M146.61,368.76a17.83,17.83,0,0,0,3.54-5,25.7,25.7,0,0,0,2.49-6.58,13.91,13.91,0,0,0,.16-6.81,3.76,3.76,0,0,0-.2-.46c0,1.22.08,2.43,0,3.65a11.58,11.58,0,0,1-1.72,5.33l-.14.18h0c-.21.55-.37,1.13-.62,1.64a17.26,17.26,0,0,1-3.17,4.55l.56-3.14-1.83,1.24a3.66,3.66,0,0,1-.26.79c-.61,1-1.24,1.92-1.87,2.88l-.5,3.86c-.15-.7-.3-1.4-.46-2.09a15.75,15.75,0,0,0-1.52,9,17.22,17.22,0,0,1,1.9-5.15,6.65,6.65,0,0,1,2.53-2.71l-.69-3.18.14-.1Z"/><path class="cls-6" d="M147.56,362.11l-.56,3.14a17.26,17.26,0,0,0,3.17-4.55c.25-.51.41-1.09.62-1.64Z"/><path class="cls-6" d="M145.54,350a9.38,9.38,0,0,1,2.17,4.84c0,.12.07.23.11.35.12-1,.25-2,.36-2.94a7.85,7.85,0,0,0,0-.84,5.25,5.25,0,0,0-1-.89A9.26,9.26,0,0,0,145.54,350Z"/><path class="cls-2" d="M143.6,367c.63-1,1.26-1.9,1.87-2.88a3.66,3.66,0,0,0,.26-.79,3.38,3.38,0,0,0-1.6,2A12.8,12.8,0,0,0,143.6,367Z"/><path class="cls-8" d="M147.75,359.62l-.11.15,0,.05.08-.2Z"/><path class="cls-9" d="M152.65,349.59l-.12,0,.07.34Z"/><path class="cls-10" d="M150.78,359.06l.14-.18Z"/><path class="cls-11" d="M145.24,330.83a6.61,6.61,0,0,0-3,.56,11.45,11.45,0,0,0-4.39,3.16,19.35,19.35,0,0,0-4.19,6.82c-.89,2.61-1.48,5.27-2.22,7.9,0,.08-.14.15-.21.22l-.08.56,2.76.43,1.78.23,1,.14,1.07.1c.22-1.26.44-2.52.69-3.78.13-.72.3-1.43.46-2.14.3-1.33.59-2.67.91-4a23.15,23.15,0,0,1,.74-2.55,33,33,0,0,1,1.41-3.4,22,22,0,0,1,1.79-2.92A11.57,11.57,0,0,1,145.24,330.83Z"/><path class="cls-11" d="M155.52,352.71c.06-1.39.19-2.78.18-4.18,0-4.24-.58-8.5-3.16-12.89a9.63,9.63,0,0,0-3.23-3.49,18.35,18.35,0,0,0-2.54-1.14,14.48,14.48,0,0,1,1.28,1.95,22.58,22.58,0,0,1,1.37,7.33c.1,1.21.13,2.42.11,3.62,0,1.64-.12,3.27-.25,4.89-.09,1.2-.29,2.39-.44,3.58l1.69.25,1.52.23,1.16.15.93.1C155.71,353.32,155.4,353.3,155.52,352.71Z"/><path class="cls-12" d="M148.84,352.38c.15-1.19.35-2.38.44-3.58.13-1.62.21-3.25.25-4.89,0-1.2,0-2.41-.11-3.62a22.58,22.58,0,0,0-1.37-7.33,14.48,14.48,0,0,0-1.28-1.95l-.58-.13-.95-.05a11.57,11.57,0,0,0-1.43,1.34,22,22,0,0,0-1.79,2.92,33,33,0,0,0-1.41,3.4,23.15,23.15,0,0,0-.74,2.55c-.32,1.32-.61,2.66-.91,4-.16.71-.33,1.42-.46,2.14-.25,1.26-.47,2.52-.69,3.78l.72.14,2.82.37,2.34.3,3.43.45Z"/><path class="cls-13" d="M85.57,314.09c3.74.6,7.46,1.24,11.21,1.77,3.2.46,6.43.79,9.64,1.19,2.72.34,5.44.76,8.17,1,3.16.32,6.34.52,9.5.8,3.71.33,7.42.71,11.13,1.05,1.71.16,3.41.3,5.12.39,3,.16,6,.24,9,.41,3.29.19,6.58.45,9.88.68l.55,0c4.84.13,9.69.21,14.53.4,18.3.71,36.61.25,54.92.32,4.41,0,8.83-.22,13.24-.36,2.69-.09,5.38-.23,8.07-.36,4.83-.24,9.66-.47,14.49-.75,3.67-.21,7.33-.44,11-.74s7.29-.72,10.94-1c3-.28,6.09-.48,9.13-.79,2.73-.28,5.45-.67,8.18-1,2.3-.28,4.61-.52,6.91-.83q4.54-.62,9.07-1.31c.66-.1,1.32-.38,1.88.23a15.37,15.37,0,0,1-4.37,4.17c-5,3.64-10.72,6-16.54,7.95A170,170,0,0,1,273.87,334c-6.65,1.09-13.34,2-20,2.86-4.75.58-9.54.88-14.31,1.27q-12.85,1-25.76,1.16c-1.18,0-7.89.19-8.46.18-5.83-.14-11.67-.11-17.5-.37-6.92-.31-13.84-.79-20.76-1.32-5.07-.39-10.13-.95-15.19-1.52a262.25,262.25,0,0,1-26.14-4.31,147.18,147.18,0,0,1-23.29-6.79c-4.75-1.89-9.39-4-13.36-7.32A40,40,0,0,1,85.57,314.09Z"/><ellipse class="cls-14" cx="206" cy="297.93" rx="160.05" ry="25.11"/><path class="cls-15" d="M335.58,301.48A3.94,3.94,0,0,0,336,300c-6.32-61.26-62.69-105.68-128.84-105.68S86.55,241.09,80.42,302.54l4.75,1.78a12.28,12.28,0,0,0,3,.7l11.52,1.1,38.3,1.77,68.11.68,42.57-.75,25-.74,18.92-.83L310.5,305l14.69-1.27c2.23-.23,9.4-1.58,9.07-1.72Z"/><path class="cls-16" d="M309.54,304.27a.93.93,0,0,0-.33.12l-14.39,0-19.55,0a3.31,3.31,0,0,0-.55-.08q-8.64,0-17.3.08a4.91,4.91,0,0,0-1.05.22l-1,.1h-14.4l-19.54,0H205.9l-4.11.18-1.08.15H171.56l-19.55,0-4.84.19-.71.14-23.24.06-15.12,0-11.07,0-4.11.18a1.28,1.28,0,0,0-.34.14H79.65l0-.12a2.08,2.08,0,0,1-.79-1.74,9.9,9.9,0,0,0-.12-1.62l.21-.54,14.27-.11.44,0c7.65-.09,15.3-.23,23-.27,8.94-.06,17.89,0,26.84,0h.39l.38-.06,2.21,0c1.29,0,2.58,0,3.86,0,7.24-.08,14.47-.21,21.7-.25,14.3-.08,28.6-.11,42.91-.19,5.45,0,10.91-.12,16.37-.18h1.52c.8,0,1.6-.06,2.39-.06l16.41-.1h7c4.34,0,8.68,0,13,0,2.14,0,4.28-.23,6.42-.24,5.7,0,11.41,0,17.11,0a.66.66,0,0,0,1.13,0l17.23-.08.56-.1,16.85-.14h1.55l.6,0,.13.56c0,.5,0,1,0,1.5s.28,1.32-.43,1.78l-13.22.09c-3.05,0-6.11,0-9.16,0A3.39,3.39,0,0,0,309.54,304.27Z"/><path class="cls-17" d="M257.68,300.94l.95.64h-7l.52-.38.55-.06h1.86l1.89,0,.82-.19Z"/><path class="cls-18" d="M143.84,223.78c-.64.28-1.13,1-2,.64C142.24,222.74,142.58,222.63,143.84,223.78Z"/><path class="cls-19" d="M183.36,240a4,4,0,0,1-3.69,0Z"/><path class="cls-20" d="M254.56,301.16h0Z"/><path class="cls-20" d="M257.27,301l-.82.19Z"/><path class="cls-20" d="M252.7,301.15l-.55.06a1.43,1.43,0,0,1-.13-.28Z"/><path class="cls-21" d="M144.26,302.37l1.14-.71.7,0,.37.63Z"/><path class="cls-22" d="M295.17,301.35c.38-.54.75-.54,1.13,0A.66.66,0,0,1,295.17,301.35Z"/><path class="cls-23" d="M330.94,301h0Z"/><path class="cls-24" d="M231.31,301.74h0Z"/><path class="cls-23" d="M313.53,301.27l.31-.63c.08.18.17.36.25.53Z"/><path class="cls-22" d="M93.38,302.42l.31.32-.44,0A.39.39,0,0,1,93.38,302.42Z"/><path class="cls-25" d="M143.49,302.43h0Z"/><path class="cls-26" d="M172.29,234.06a12.12,12.12,0,0,0-2,1.24,6.1,6.1,0,0,1-6.45,1.4,4.92,4.92,0,0,1-4.95,3c-2.15-.11-4.15-.28-5.82-1.94-.42.36-.81.64-1.14,1a3.44,3.44,0,0,1-4,.94,3.28,3.28,0,0,0-3.58.42,3.78,3.78,0,0,1-3.81.68,3.36,3.36,0,0,0-1.1,0c.49-3.11,1-6.21,1.47-9.33.35-2.34.63-4.68.94-7,.85.38,1.35-.36,2-.64l1.36-1.11c1.63-.25,3.23-.67,4.89-.08.27.1.79-.38,1.13-.68.95-.83,1.86-1.71,2.79-2.57,1.6,2.07,3.17,4.15,4.8,6.19.64.8,1.43,1.49,2.1,2.27s1.13,1.43,1.69,2.15a30.27,30.27,0,0,0,2.28,2.85,4.41,4.41,0,0,0,4.41,1.17A3.68,3.68,0,0,1,172.29,234.06Z"/><path class="cls-27" d="M154,219.34c-.93.86-1.84,1.74-2.79,2.57-.34.3-.86.78-1.13.68-1.66-.59-3.26-.17-4.89.08l2.55-7.26a3.32,3.32,0,0,1,3.38-2,2.74,2.74,0,0,1,2.31,2.48C153.6,217.05,153.81,218.2,154,219.34Z"/><path class="cls-28" d="M318.73,289.38c.24-2.54.51-5.07.72-7.61a22.32,22.32,0,0,0-.05-2.31A43.7,43.7,0,0,0,319,274c-1-4.84.7-8.92,3.42-12.77.06-.08.87-1.43,1.19-1.53,1.13,2.32,2.84,5.44,3.89,7.83,1.55,3.57,2.75,7.52,4.22,11.13a76,76,0,0,1,2.32,8.61c.35,2.34,2.08,10.75,2,12s-1.12,1.72-2.14,1.93c-2.75.59-5.51,1.13-8.29,1.53-3.08.45-6.19.74-9.29,1.05a24.66,24.66,0,0,1-2.58,0c-.8-.85-1.55-1.76-1.07-3,.7-1.85,1.56-3.59,3.48-4.62a3.38,3.38,0,0,0,1.41-1.58C318.16,292.9,319,291.24,318.73,289.38Z"/><path class="cls-28" d="M94.59,305.57a6.29,6.29,0,0,1-3,.08c-2.46-.46-5-.73-7.4-1.21a10.56,10.56,0,0,1-2.87-1.14,1.34,1.34,0,0,1-.78-1.69c.38-3.05.73-6,1.33-9,.72-3.56,2.69-11.1,2.78-11.45,1.05-2.19,1.18-4.33,2.23-6.53,1.61-3.36,2.1-5.8,3.72-9.15.39-.81,1.67-3.5,2.1-4.28.14,0,2.8-1.3,2.93-1.26-.19,1-.81,4.44-1,5.45s-.42,2-.51,3.05a7.15,7.15,0,0,0,.57,3.39A24.82,24.82,0,0,1,96,279.58c0,1.83-.12,3.66-.13,5.48,0,2.31,0,4.61,0,6.91-.25,3.62.61,7.29-.38,10.88C95.25,303.77,94.9,304.67,94.59,305.57Z"/><path class="cls-13" d="M273.69,275l-.35,0A.69.69,0,0,1,273.69,275Z"/><path class="cls-26" d="M172.29,234.06a12.3,12.3,0,0,1,2.07,1.77,15.5,15.5,0,0,0,5.3,4.18,4,4,0,0,0,3.68,0l4.88-1.66a4.58,4.58,0,0,1,.53-.14c3.78-.75,5.31.51,5.28,4.35a8.59,8.59,0,0,1-.14,1.83,8.06,8.06,0,0,0,1.91,7.73c2.48,2.64,3.52,5.85,4.49,9.16a33.79,33.79,0,0,1,1.58,11.61,25.51,25.51,0,0,0,.32,4.77,7.24,7.24,0,0,0,2.11,4.75c1.09,1,1.65,2.58,2.59,3.79,1.46,1.88,3.07,3.66,4.56,5.52,1.15,1.43,2.24,2.91,3.35,4.37h-2.65l-.4-.21-2.57-.06-.38,0c-1.52.07-3,.09-4.55.21-1.27.11-2.51.4-3.78.49s-2.57,0-3.85,0l-4.42,0c-5.21.1-10.43.17-15.65.31-2.51.06-5,.26-7.53.41a6,6,0,0,0-.72.12c-2.35.44-4.69.93-7,1.31-3.74.61-7.55.8-11.14,2.2,0-2.83,0-5.66,0-8.49a11.64,11.64,0,0,0-1.33-5.65,58.43,58.43,0,0,1-2.59-5.27,22.36,22.36,0,0,1-.73-3.21c-.66-2.73-1.26-5.48-2-8.18a10.38,10.38,0,0,0-1.7-3.81,13.05,13.05,0,0,0-3.64-2.74c-2.17-1.25-2.83-3.24-3.11-5.5,1.79-4.18,2.12-8.73,3.3-13.06.39-1.41.77-2.82,1.15-4.23a3.36,3.36,0,0,1,1.1,0,3.78,3.78,0,0,0,3.81-.68,3.28,3.28,0,0,1,3.58-.42,3.44,3.44,0,0,0,4-.94c.33-.34.72-.62,1.14-1,1.67,1.66,3.67,1.83,5.82,1.94a4.92,4.92,0,0,0,4.95-3,6.1,6.1,0,0,0,6.45-1.4A12.12,12.12,0,0,1,172.29,234.06Z"/><path class="cls-18" d="M135,258.06c.28,2.26.94,4.25,3.11,5.5a13.05,13.05,0,0,1,3.64,2.74,10.38,10.38,0,0,1,1.7,3.81c.77,2.7,1.37,5.45,2,8.18a22.36,22.36,0,0,0,.73,3.21,58.43,58.43,0,0,0,2.59,5.27,11.64,11.64,0,0,1,1.33,5.65c0,2.83,0,5.66,0,8.49-1.24.79-2.66.68-4,.8l-.7,0c-.42-.48-.83-1.36-1.27-1.37-1.93-.07-3.35-1.35-5.08-1.86s-3.12-1.07-4.53.39c-.16.15-.46.15-.66.27a10.34,10.34,0,0,1-3.5.82,8.44,8.44,0,0,1-4.15-.07,7.09,7.09,0,0,0-5.17.56,13.82,13.82,0,0,0-1.83-.77c-1.1-.29-2.22-.49-3.34-.71-.41-.07-1-.27-1.22-.08-.81.7-1.53.38-2.31-.12l-1.24,1.74a3.16,3.16,0,0,0-3.85-1,4.63,4.63,0,0,1-3.13.08c-1.56-.74-2.67-.17-3.89.55-.33.19-.7.31-1.1.49-.12-.68-.06-1.3-.34-1.66s-.89-.46-1.27-.63c-.16-1.13-.32-2.22-.48-3.3a1.19,1.19,0,0,0-1.43-1.09c.4-.32,1-.57,1.18-1,1.93-4.07,4.1-8,4.92-12.54.17-.9.3-1.8.45-2.7l0-.74a25,25,0,0,1,2-8.55c.49-1.06,1.07-2.07,1.62-3.1a2.7,2.7,0,0,1,2-1.48,3.31,3.31,0,0,0,2.56-2.13c1.29-2.85,2.6-5.69,3.9-8.54.85-1.84,1.66-3.7,2.56-5.51a23.68,23.68,0,0,0,2.33-7.33,6.19,6.19,0,0,1,.52-1.95c.18-.38.65-.85,1-.85s.74.49,1,.85a7.1,7.1,0,0,1,.5,1.43l5-6.41a3.32,3.32,0,0,1,2.58,2.59c.54,2.51,1.06,5,1.42,7.58a91.36,91.36,0,0,0,2.74,13.31C134.1,257.35,134,258.17,135,258.06Z"/><path class="cls-29" d="M146.08,301.71c1.38-.12,2.8,0,4-.8,3.59-1.4,7.4-1.59,11.14-2.2,2.35-.38,4.69-.87,7-1.31a6,6,0,0,1,.72-.12c2.51-.15,5-.35,7.53-.41,5.22-.14,10.44-.21,15.65-.31a6.76,6.76,0,0,0,4.42,0c1.28,0,2.57.05,3.85,0s2.51-.38,3.78-.49c1.51-.12,3-.14,4.55-.21l.38,0,2.57.06.4.21h2.65c2.2-.09,4.41-.13,6.6-.29a22.67,22.67,0,0,1,11.67,1.78,8.23,8.23,0,0,0,1.22.38l2.16.27h2.65l2.13-.27c2-.16,3.84.73,5.72,1.26,1.71.48,3.37,1.13,5.05,1.71a1.43,1.43,0,0,0,.13.28l-.52.38-16.4.1c-.8,0-1.6,0-2.4.06h-1.52c-5.45.06-10.91.16-16.37.19-14.3.07-28.6.1-42.91.18-7.23.05-14.46.17-21.69.25-1.29,0-2.58,0-3.87,0C146.33,302.13,146.21,301.92,146.08,301.71Z"/><path class="cls-30" d="M95.59,293.9A1.19,1.19,0,0,1,97,295c.16,1.08.32,2.17.48,3.3.38.17,1,.27,1.27.63s.22,1,.34,1.66c.4-.18.77-.3,1.1-.49,1.22-.72,2.33-1.29,3.89-.55a4.63,4.63,0,0,0,3.13-.08,3.16,3.16,0,0,1,3.85,1l1.24-1.74c.78.5,1.5.82,2.31.12.22-.19.81,0,1.22.08,1.12.22,2.24.42,3.34.71a13.82,13.82,0,0,1,1.83.77,7.09,7.09,0,0,1,5.17-.56,8.44,8.44,0,0,0,4.15.07,10.34,10.34,0,0,0,3.5-.82c.2-.12.5-.12.66-.27,1.41-1.46,2.92-.87,4.53-.39s3.15,1.79,5.08,1.86c.44,0,.85.89,1.27,1.37l-1.14.71-.38.06h-.39c-8.94,0-17.89,0-26.84,0-7.65,0-15.31.18-23,.28l-.3-.32c.12-1.74-.33-3.55.73-5.15.22-.55.41-1.11.65-1.65S95.31,294.48,95.59,293.9Z"/><path class="cls-31" d="M315.52,297.58a3.6,3.6,0,0,1-1.69,3.06l-.32.63-17.23.08c-.38-.54-.75-.54-1.13,0-5.7,0-11.4,0-17.11,0-2.14,0-4.27.22-6.41.24-4.34,0-8.68,0-13,0l-.95-.64.94-1.19,3,.05c.2.15.4.42.59.42,1.85,0,3.71-.12,5.56-.18a19.44,19.44,0,0,1,3,0,4.57,4.57,0,0,0,3.24-.42,6.18,6.18,0,0,1,4.74-.72c1.22.31,2.44.58,3.68.79a9.91,9.91,0,0,0,4.23-.1,10.39,10.39,0,0,1,3.2-.22,21.5,21.5,0,0,0,4.74-.34,6.65,6.65,0,0,1,2.11.39,3.27,3.27,0,0,1,3.06-.6c.24.09.59-.11.88-.17l4.12,0a12,12,0,0,0,1.92.42c1.35.07,2.7.06,4,0a2,2,0,0,0,1.23-.25C313,297.88,314.31,297.91,315.52,297.58Z"/><path class="cls-32" d="M304.78,298.64l-4.12,0A6.32,6.32,0,0,1,304.78,298.64Z"/><path class="cls-32" d="M261.58,299.8l-3-.05A3,3,0,0,1,261.58,299.8Z"/><path class="cls-33" d="M241.23,298l-2.13.27Z"/><path class="cls-33" d="M236.45,298.24l-2.16-.27Z"/><path class="cls-32" d="M102.18,276.93l0,.74Z"/><path class="cls-17" d="M196.62,296.53a6.76,6.76,0,0,1-4.42,0Z"/><path class="cls-17" d="M212.15,296.09l-.4-.21Z"/><path class="cls-17" d="M209.18,295.82l-.38,0Z"/></g></svg>