<svg xmlns="http://www.w3.org/2000/svg" viewBox="0 0 239.44 239.91"><defs><style>.cls-1{fill:#fff;}</style></defs><g id="Layer_2" data-name="Layer 2"><path class="cls-1" d="M118.57.26h2.72a.67.67,0,0,0,.47.18l3.93,0A120.42,120.42,0,0,1,138,1.7,114.42,114.42,0,0,1,170,11.32q38.76,18.32,57.73,56.81a112.75,112.75,0,0,1,11.48,43.74c0,.23-.05.5.19.67v13.83a6.68,6.68,0,0,0-.18,2.52,86.2,86.2,0,0,1-1.15,10.39,115.22,115.22,0,0,1-9.83,31.89,119.85,119.85,0,0,1-53.55,55.52,114.07,114.07,0,0,1-30.27,10.75A120.32,120.32,0,0,1,128,239.7c-.65,0-1.3,0-1.95,0a5.16,5.16,0,0,0-2,.2h-9a11.09,11.09,0,0,0-3.35-.22,120,120,0,0,1-11.94-1.42,117.27,117.27,0,0,1-31.9-10.18,118.61,118.61,0,0,1-39.65-31A117.58,117.58,0,0,1,.36,126.41a13.26,13.26,0,0,0-.36-4V118a13.35,13.35,0,0,0,.35-4,110.15,110.15,0,0,1,1.51-14A117.08,117.08,0,0,1,11.58,69a119.53,119.53,0,0,1,30.5-39.86A118.09,118.09,0,0,1,87.47,4.77a119.49,119.49,0,0,1,26.7-4.3l3.93,0A.71.71,0,0,0,118.57.26ZM103.86,235.14a5.44,5.44,0,0,0-3.48-.74c-.9,0-1.8,0-2.7,0l-5.93.05a16.92,16.92,0,0,0-2.79-.07,2.88,2.88,0,0,0,.35.25c1.81.47,3.61,1,5.45,1.29a5.44,5.44,0,0,0,2,.23,43,43,0,0,0,7.47,1.42c2,.26,3.94.45,5.91.64.35,0,.77.2,1-.2a37.19,37.19,0,0,0,8.59.6l-.31-4.06a1.82,1.82,0,0,0-1-.15l-14.65,0s-.06,0-.08.07a.81.81,0,0,0,0,.11l.3.26ZM137.07,5.65a2.74,2.74,0,0,0,1.2.27l9.62,0h2.66a27.65,27.65,0,0,0-4.89-1.38.66.66,0,0,0-.49.13,77.36,77.36,0,0,0-15.93-2.55.84.84,0,0,0-1,0,44.54,44.54,0,0,0-7.94-.4c.09,1.47.16,2.78.25,4.2h15.87A1.78,1.78,0,0,0,137.07,5.65Zm7.26,230.28a.46.46,0,0,0,.39.08c2-.33,3.89-.83,5.8-1.34a.32.32,0,0,0,.29-.36c-.83-.15-1.66.19-2.48.1-3.17,0-6.33,0-9.5,0a4.34,4.34,0,0,0-2.28.56,10.39,10.39,0,0,1-3.11,1.4c.18-.45.65-.47,1-.68a14,14,0,0,0,2-1.2H120.49l-.2,4a2.77,2.77,0,0,0,1.27.12c1.5,0,3-.13,4.5-.16a8.54,8.54,0,0,0,2.56-.43,1.26,1.26,0,0,0,1,.19c.55,0,1.1-.11,1.66-.16A79.09,79.09,0,0,0,144.33,235.93Zm8.17-2.31a8.38,8.38,0,0,0,2.17-.22,118.88,118.88,0,0,0,27.16-12.35,1.3,1.3,0,0,0,.65-.61c-1.76,0-3.42,0-5.08,0a3.42,3.42,0,0,0-2.31.73,54.29,54.29,0,0,1-5.56,3.71l-.28-.27a44,44,0,0,0,5.49-4.16h-.91c-6.45,0-12.91,0-19.36,0a2.32,2.32,0,0,0-2,1,57.4,57.4,0,0,1-12.82,11.77c-.13.09-.33.15-.27.41l.4,0h10.89a6.41,6.41,0,0,0,1.23-.18A.66.66,0,0,0,152.5,233.62Zm0-226.87c-.29-.26-.36,0-.42.2a6.18,6.18,0,0,0-1.43-.22c-3.53,0-7.05,0-10.57,0-.25,0-.54-.09-.79.16l.64.46a51.21,51.21,0,0,1,7.39,6,64.47,64.47,0,0,1,5.31,5.77,1.54,1.54,0,0,0,1.29.72c6.7,0,13.4,0,20.1,0,.22,0,.5.11.64-.29l-1-.73c-2.51-1.84-5.14-3.5-7.78-5.12l.25-.26a80.23,80.23,0,0,1,8.8,5.65,3.82,3.82,0,0,0,2.6.82c1.28-.06,2.58,0,3.87,0a1.36,1.36,0,0,0,1-.17,5.61,5.61,0,0,0-1.36-.94A119.47,119.47,0,0,0,155.58,7.19,7.54,7.54,0,0,0,152.5,6.75ZM87.55,233.62a.64.64,0,0,0,.64-.2,5.72,5.72,0,0,0,1.23.19H100c.21,0,.49.14.64-.23-.88-.62-1.77-1.22-2.64-1.85A60.15,60.15,0,0,1,87.15,221.1a1.65,1.65,0,0,0-1.41-.67c-6.6,0-13.19,0-19.79,0-.22,0-.49-.1-.72.19,1.2,1.11,2.66,1.88,3.92,2.9l-.29.28a46.81,46.81,0,0,1-4.32-2.93,2.3,2.3,0,0,0-1.45-.46c-1.64,0-3.28,0-4.92,0h-.85a1.73,1.73,0,0,0,.88.75A118.33,118.33,0,0,0,83.88,233,9.42,9.42,0,0,0,87.55,233.62ZM68.44,16.76l.29.29c-1.1.92-2.41,1.58-3.49,2.62a2.25,2.25,0,0,0,1.2.15c6.31,0,12.62,0,18.93,0a2.43,2.43,0,0,0,2.11-1A57.42,57.42,0,0,1,100.11,7.32c.18-.12.46-.17.47-.5a2.35,2.35,0,0,0-1-.08H89.73A5.76,5.76,0,0,0,88,7c0-.25-.12-.45-.41-.21a9.36,9.36,0,0,0-3.88.62A118.9,118.9,0,0,0,58.4,19c-.33.2-.74.33-.91.68a.26.26,0,0,0,.29.2h5.64a1.92,1.92,0,0,0,1.13-.47C65.83,18.49,67.08,17.54,68.44,16.76ZM96.36,4.24a8.1,8.1,0,0,0-2.85.4A41.29,41.29,0,0,0,89,5.81a3.64,3.64,0,0,0,1.35.12c.34,0,.65-.22,1-.1A3.72,3.72,0,0,0,93,5.89l8.86,0a2.4,2.4,0,0,0,1.17-.36A14.87,14.87,0,0,1,106,4.19l.11.15a22.76,22.76,0,0,0-2.41,1.46c1.35.2,15,.15,15.86-.07.09-1.28.19-2.59.28-3.84A1,1,0,0,0,119,1.7c-1.39,0-2.79,0-4.19.08a10.46,10.46,0,0,0-3,.4,1.14,1.14,0,0,0-1.25-.05l-.62,0-.63,0a38.28,38.28,0,0,0-3.85.37A56.94,56.94,0,0,0,96.36,4.24Zm81.7,132a250.08,250.08,0,0,0,0-32.16H121.39c-.2,1.3-.13,31.49.07,32.16Zm-60-32.15c-2.17-.23-55.78-.13-56.58.12a237.16,237.16,0,0,0,0,32c1.58.22,55.78.15,56.57-.07Zm3.23-2.93a2.09,2.09,0,0,0,.43.12l55.41,0a4.43,4.43,0,0,0,.51-.06.24.24,0,0,0,.08-.06l.08-.08c.13-4.59-3.34-27.55-4.48-29.6-1.94-.22-51.24-.12-52,.12Zm0,67.7h52.08c1.36-3.61,4.78-27.29,4.29-29.73H121.31ZM61.7,101.2H118a3.33,3.33,0,0,0,.11-1.19c0-2.27,0-4.54,0-6.81q0-10.32.09-20.63c0-.37.12-.78-.2-1.09-1.91-.22-51.16-.12-52,.13A211.24,211.24,0,0,0,61.7,101.2Zm4.39,67.63h52V139.22c-1.08-.27-55.46-.24-56.39,0A211.27,211.27,0,0,0,66.09,168.83Zm155-64.78H180.91c.27,5.4.52,10.72.52,16s-.25,10.71-.5,16c1.19.24,39.36.21,40.23,0A139.65,139.65,0,0,0,221.14,104.05Zm-202.4,0c-1.32,7.26-1.28,27.69.06,32.14a.83.83,0,0,0,.28.08l38.74,0a4.5,4.5,0,0,0,.63-.07s0,0,.07-.06l.13-.12a232.33,232.33,0,0,1,0-32Zm154.15,67.41c-1.62-.25-50.91-.17-51.65,0-.2,1.28-.23,24.71,0,25.41h43.59A163.08,163.08,0,0,0,172.89,171.46Zm0-102.54a162.29,162.29,0,0,0-8.1-25.56H122.19c-.31,0-.62,0-.94.05l-.08.07-.13.13c.07,8.37,0,16.8.17,25.3Zm-98.05,128a3.58,3.58,0,0,0,.47.07h42.61a3,3,0,0,0,.42-.06s.05,0,.07-.06l.16-.17c-.22-8.34-.21-16.78-.29-25.18-1.18-.26-50.7-.21-51.57,0A162.91,162.91,0,0,0,74.85,196.88Zm43.26-128c.18-.83.46-24.67.3-25.49H75c-2.14,3.85-8.22,23-8.07,25.49Zm95.1,2.62c-1.25-.23-36.24-.18-37.07.06a214.4,214.4,0,0,1,4.52,29.57c1.54.22,39.33.15,40.11-.08A133.34,133.34,0,0,0,213.21,71.54ZM180.66,139.1c-.42,5.07-1,10-1.75,15s-1.72,9.85-2.79,14.81h37a131.93,131.93,0,0,0,7.6-29.76ZM63.49,71.46H26.66a131.58,131.58,0,0,0-7.61,29.68c1.23.22,39,.18,39.82,0,.46-4.94,1-9.89,1.77-14.82S62.34,76.48,63.49,71.46Zm-4.62,67.71c-1.47-.26-39-.18-39.82.08a131.93,131.93,0,0,0,7.6,29.55c1.35.2,36,.14,36.81-.07-1.1-4.86-2.05-9.75-2.81-14.67S59.34,144.18,58.87,139.17Zm108.22,57.6a1.79,1.79,0,0,0,1.13.19q14.44,0,28.9,0a1.55,1.55,0,0,0,1.46-.74,124.15,124.15,0,0,0,13.15-23.77c.13-.31.37-.61.21-1.06H175.49A164.29,164.29,0,0,1,167.09,196.77ZM212,68.84c.11-.3-.07-.54-.17-.79a124.05,124.05,0,0,0-13.22-24,1.59,1.59,0,0,0-1.47-.74c-9.67,0-19.34,0-29,0a1.24,1.24,0,0,0-1,.22,164.55,164.55,0,0,1,8.37,25.28C176.76,69.06,211.19,69,212,68.84Zm-139.36,128a163,163,0,0,1-8.41-25,3,3,0,0,0-.17-.36c-1.41-.23-35.45-.15-36.18.09a2,2,0,0,0,.32,1.08,124.84,124.84,0,0,0,13,23.39A2,2,0,0,0,43,197c9.43,0,18.85,0,28.27,0A3.16,3.16,0,0,0,72.62,196.81ZM64,68.93c.09-.27.19-.49.25-.72a160.45,160.45,0,0,1,8-24c.11-.24.31-.49.09-.77a2.25,2.25,0,0,0-.93-.08c-9.56,0-19.13,0-28.69,0a1.56,1.56,0,0,0-1.47.74c-1.51,2.18-3,4.38-4.39,6.64a124.46,124.46,0,0,0-8.8,17.11c-.14.33-.41.66-.2,1.09Zm99.71-27.69c.11-.37-.14-.66-.27-1-.3-.71-.62-1.4-.95-2.1a104.55,104.55,0,0,0-9.19-16,1.5,1.5,0,0,0-1.33-.8q-15.18,0-30.35,0a.9.9,0,0,0-.85.29c.1,6.48,0,13.05.24,19.6C122.14,41.39,162.86,41.38,163.75,41.24Zm0,157.87c-1.14-.24-41.91-.18-42.64.07-.23,1.5-.34,18.93-.13,19.72a2.1,2.1,0,0,0,.93.09q15,0,29.95,0a1.57,1.57,0,0,0,1.46-.75,106.67,106.67,0,0,0,10.27-18.45C163.68,199.59,163.84,199.38,163.74,199.11ZM75.79,41.25c2,.23,42,.14,42.71-.08.17-1.4.45-19.19.31-19.73a3,3,0,0,0-1.24-.1c-9.73,0-19.47,0-29.21,0a2.29,2.29,0,0,0-2.12,1.13,108.16,108.16,0,0,0-9.56,16.81C76.39,39.88,76.12,40.52,75.79,41.25ZM118.55,199H75.91a8.63,8.63,0,0,0,.94,2.36,103.19,103.19,0,0,0,9.67,16.86,1.51,1.51,0,0,0,1.36.75q15.06,0,30.14,0c.3,0,.63.1.93-.24C118.82,212.25,118.69,205.7,118.55,199Zm78-157.74c-1.41-1.91-2.78-3.58-4.18-5.23A109.24,109.24,0,0,0,177.79,21.9a2.31,2.31,0,0,0-1.52-.57c-6.94,0-13.89,0-20.84,0-.25,0-.55-.09-.83.25a106.13,106.13,0,0,1,11.49,19.7ZM154.69,219c.23,0,.44,0,.64,0,7,0,14,0,20.95,0a2.27,2.27,0,0,0,1.5-.59,109,109,0,0,0,18-18.47c.19-.23.46-.43.44-.84a1.86,1.86,0,0,0-1-.12c-9.36,0-18.71,0-28.07,0a1.46,1.46,0,0,0-1.56,1,102.57,102.57,0,0,1-10.71,18.31A.65.65,0,0,0,154.69,219ZM85.24,21.59a.78.78,0,0,0-.77-.25H63.65a2,2,0,0,0-1.33.48A109.76,109.76,0,0,0,44,40.53c-.16.2-.43.38-.33.75h30A106.07,106.07,0,0,1,85.24,21.59Zm.06,197.24c-.83-1.15-1.61-2.22-2.37-3.3a104.32,104.32,0,0,1-8.88-15.63c-.27-.57-.53-.94-1.28-.94-9.46,0-18.91,0-28.37,0a1.13,1.13,0,0,0-.75.12c0,.34.19.5.33.68a109.9,109.9,0,0,0,18.18,18.59A2.64,2.64,0,0,0,64,219c6.73,0,13.47,0,20.2,0A2.18,2.18,0,0,0,85.3,218.83ZM2.62,104a117.56,117.56,0,0,0,0,32.18H17c-.2-2.74-.51-5.39-.66-8.06s-.21-5.37-.21-8.06.06-5.37.21-8,.5-5.31.64-8ZM237,136.17c1.61-4.31,1.59-28.25,0-32.11H222.83a152,152,0,0,1,.91,16,158.43,158.43,0,0,1-.88,16C223.81,136.33,236,136.36,237,136.17ZM3.18,139.05c-.13,4.88,6.16,25.7,9,29.81h13a134,134,0,0,1-7.77-29.81Zm211.6,29.7c.16.08.22.13.28.13l12.14,0a.73.73,0,0,0,.79-.52c.09-.23.21-.45.3-.67a117.33,117.33,0,0,0,8-25.82,14.19,14.19,0,0,0,.41-2.84H222.46A133.8,133.8,0,0,1,214.78,168.75ZM25,71.65a1.7,1.7,0,0,0-1.23-.24c-3.56,0-7.12,0-10.67,0a1.5,1.5,0,0,0-1.61,1.09A119.56,119.56,0,0,0,3.2,100.15a1.5,1.5,0,0,0,0,1.06H17.38A133.61,133.61,0,0,1,25,71.65Zm211.59,29.58a1.84,1.84,0,0,0,0-.85c-.4-2.3-.85-4.59-1.37-6.87a118.68,118.68,0,0,0-7.12-21.3,1.17,1.17,0,0,0-1.25-.82c-3.69,0-7.39,0-11.09,0a1,1,0,0,0-1,.29,133.44,133.44,0,0,1,7.63,29.53ZM120.47,233.39a1.24,1.24,0,0,0,.93.21h15.81a2.42,2.42,0,0,0,1.45-.45,57.08,57.08,0,0,0,12.53-12.1c.12-.15.31-.31.14-.56H120.78C120.58,224.86,120.72,229.17,120.47,233.39Zm-32-12.9a1,1,0,0,0,.35.74c.77,1,1.53,1.9,2.34,2.82a54,54,0,0,0,10.11,9,2.45,2.45,0,0,0,1.43.52h16a.7.7,0,0,0,.73-.28c-.15-4.21-.31-8.51-.47-12.83Zm32-213.61c.26,4.28.16,8.56.3,12.87h30.58a.64.64,0,0,0-.23-.62A57.27,57.27,0,0,0,138.9,7.3a3,3,0,0,0-1.84-.57c-5.12,0-10.25,0-15.38,0A3,3,0,0,0,120.45,6.88Zm-1-.14h-1.25c-5.06,0-10.12,0-15.17,0a3.35,3.35,0,0,0-2,.66A57.75,57.75,0,0,0,88.73,19.15c-.12.15-.31.3-.22.54,1,.2,29.56.17,30.47-.05C119.13,15.4,119.28,11.13,119.44,6.74ZM13.4,171.38a2.09,2.09,0,0,0,.37,1.2,119.55,119.55,0,0,0,15.48,23.67,1.74,1.74,0,0,0,1.5.73c2.93,0,5.86,0,8.79,0a1,1,0,0,0,.87-.2,123.28,123.28,0,0,1-14.26-25.37ZM40.47,43.46a5.32,5.32,0,0,0-.58-.09c-3.14,0-6.28,0-9.42,0a1.37,1.37,0,0,0-1.13.6A119,119,0,0,0,13.51,68.26c-.1.2-.3.4-.12.66H26.15A123.87,123.87,0,0,1,40.47,43.46Zm185.92,128a2.23,2.23,0,0,0-.95-.1c-3.56,0-7.12,0-10.68,0a1.33,1.33,0,0,0-1.45,1,121.27,121.27,0,0,1-13.37,23.87c-.15.21-.41.39-.32.72a2.06,2.06,0,0,0,.92.08c2.8,0,5.59,0,8.38,0a2,2,0,0,0,1.68-.8,119.29,119.29,0,0,0,15.55-23.88A1.24,1.24,0,0,0,226.39,171.43ZM199.5,43.53a123.91,123.91,0,0,1,14.21,25.38,100.44,100.44,0,0,0,12.75-.14,21.82,21.82,0,0,0-1.45-3,118.32,118.32,0,0,0-14.42-21.64,1.92,1.92,0,0,0-1.68-.78c-2.72,0-5.44,0-8.16,0A2.73,2.73,0,0,0,199.5,43.53Zm-138-22c-.07-.2-.23-.18-.36-.18h-6a1.91,1.91,0,0,0-1.14.45A119.81,119.81,0,0,0,32.24,40.64c-.15.17-.4.31-.27.71h1c2.68,0,5.37,0,8.06,0a1.92,1.92,0,0,0,1.73-.87A109.3,109.3,0,0,1,60.89,22.16C61.12,22,61.43,21.84,61.5,21.53ZM31.81,199.16c.42.48.78.89,1.15,1.29,2.74,2.93,5.59,5.76,8.59,8.42A121.39,121.39,0,0,0,54,218.52a2.24,2.24,0,0,0,1.35.48c1.91,0,3.83,0,5.75,0,.17,0,.43.12.51-.24l-.23-.18a110.29,110.29,0,0,1-18.82-18.95,1.46,1.46,0,0,0-1.32-.64c-2.86,0-5.72,0-8.58,0A1.45,1.45,0,0,0,31.81,199.16Zm176.06,0c-.13-.21-.32-.17-.48-.17-3,0-5.93,0-8.89,0a1.5,1.5,0,0,0-1.26.78,109.43,109.43,0,0,1-18.33,18.55c-.2.16-.46.29-.54.58a1.64,1.64,0,0,0,1,.11c1.57,0,3.14,0,4.71,0a3,3,0,0,0,1.84-.56,119.54,119.54,0,0,0,21.47-18.57C207.55,199.65,207.83,199.47,207.87,199.15ZM178.43,21.5c0,.3.35.4.55.56a109.59,109.59,0,0,1,18.37,18.66,1.48,1.48,0,0,0,1.32.64c2.86,0,5.72,0,8.57,0,.23,0,.49.11.69-.2-.16-.2-.32-.42-.5-.62-.93-1-1.86-2-2.8-3A118.07,118.07,0,0,0,185.8,21.82a2.22,2.22,0,0,0-1.34-.49c-1.85,0-3.69,0-5.54,0C178.76,21.34,178.57,21.3,178.43,21.5Z"/><path class="cls-1" d="M0,114,.35,114A13.35,13.35,0,0,1,0,118Z"/><path class="cls-1" d="M.36,126.41l-.36,0v-4A13.26,13.26,0,0,1,.36,126.41Z"/><path class="cls-1" d="M114.17.47V.26h4.4a.71.71,0,0,1-.47.18Z"/><path class="cls-1" d="M125.69.26V.47l-3.93,0a.67.67,0,0,1-.47-.18Z"/><path class="cls-1" d="M128,239.7v.21h-4a5.16,5.16,0,0,1,2-.2C126.69,239.67,127.34,239.7,128,239.7Z"/><path class="cls-1" d="M111.65,239.91v-.22a11.09,11.09,0,0,1,3.35.22Z"/><path class="cls-1" d="M239.44,128.88h-.18a6.68,6.68,0,0,1,.18-2.52Z"/><path class="cls-1" d="M169.53,224.87a43.52,43.52,0,0,1-5.08,3,95.49,95.49,0,0,1-10.65,5,2.44,2.44,0,0,1-1.1.3c.06-.25.29-.3.47-.37A96.55,96.55,0,0,0,169,224.71a1,1,0,0,1,.29-.11Z"/><path class="cls-1" d="M68.44,16.76a22.71,22.71,0,0,1,3-2A91.12,91.12,0,0,1,81.77,9.32c.31-.13.61-.36,1-.27-.08.33-.39.37-.63.48a98.94,98.94,0,0,0-13,7.34,2.64,2.64,0,0,1-.38.18Z"/><path class="cls-1" d="M153.75,7.59a1.26,1.26,0,0,1,.91.15,92.82,92.82,0,0,1,11.18,5.41,2.78,2.78,0,0,1,.32.26l-.25.26a4.5,4.5,0,0,1-1.19-.62,100.92,100.92,0,0,0-10.17-5A1.5,1.5,0,0,1,153.75,7.59Z"/><path class="cls-1" d="M77,228.63a59.83,59.83,0,0,1-8.18-4.81l.29-.28c1.09.54,2,1.29,3.1,1.91l5,2.94Z"/><path class="cls-1" d="M77,228.63l.25-.24c1.44.71,2.87,1.42,4.32,2.11,2,.95,4,1.83,6,2.61a1.13,1.13,0,0,1,.54.31.64.64,0,0,1-.64.2c-.16-.43-.6-.44-.94-.57a94.86,94.86,0,0,1-9.13-4.14A4.73,4.73,0,0,1,77,228.63Z"/><path class="cls-1" d="M91.75,234.46a39.5,39.5,0,0,0,3.81,1.26c.41.14.9.09,1.24.44a5.44,5.44,0,0,1-2-.23c-1.84-.34-3.64-.82-5.45-1.29a2.88,2.88,0,0,1-.35-.25A16.92,16.92,0,0,1,91.75,234.46Z"/><path class="cls-1" d="M96.36,4.24a15.25,15.25,0,0,1-2.64.91c-.35.15-.78.19-.7.74a3.72,3.72,0,0,1-1.66-.06c-.37-.12-.68.1-1,.1A3.64,3.64,0,0,1,89,5.81a41.29,41.29,0,0,1,4.52-1.17A8.1,8.1,0,0,1,96.36,4.24Z"/><path class="cls-1" d="M144.33,235.93a31.46,31.46,0,0,1,3.1-1.06c.31-.13.69-.13.9-.46.82.09,1.65-.25,2.48-.1a.32.32,0,0,1-.29.36c-1.91.51-3.83,1-5.8,1.34A.46.46,0,0,1,144.33,235.93Z"/><path class="cls-1" d="M111.25,238a7.25,7.25,0,0,1-2.39-.65,22.26,22.26,0,0,1-5-2.25l.24-.24c1.58.73,3.12,1.55,4.74,2.19A11.09,11.09,0,0,1,111.25,238Z"/><path class="cls-1" d="M147.89,5.89c-.12-.48-.57-.45-.91-.56a5.39,5.39,0,0,1-1.81-.69.66.66,0,0,1,.49-.13,27.65,27.65,0,0,1,4.89,1.38Z"/><path class="cls-1" d="M82.74,9.06c.08-.33.39-.35.63-.45l3.42-1.42c.28-.12.6-.16.78-.45s.37,0,.41.21a7.13,7.13,0,0,1-1.77.82c-.82.37-1.65.71-2.49,1.05C83.41,8.94,83.12,9.18,82.74,9.06Z"/><path class="cls-1" d="M132.59,3.61a1,1,0,0,1,.7.12,22.38,22.38,0,0,1,3.78,1.92,1.78,1.78,0,0,1-.69.27,10.8,10.8,0,0,0-2.78-1.68C133.25,4.05,132.8,4,132.59,3.61Z"/><path class="cls-1" d="M129.24,2.09l0,.27a1.22,1.22,0,0,1-1.06-.24A.84.84,0,0,1,129.24,2.09Z"/><path class="cls-1" d="M152.72,233.2l-.22.42a.66.66,0,0,1-.62-.19A.92.92,0,0,1,152.72,233.2Z"/><path class="cls-1" d="M152.5,6.75c0,.16.26.23.22.43a.68.68,0,0,1-.64-.23C152.14,6.7,152.21,6.49,152.5,6.75Z"/><path class="cls-1" d="M152.7,7.17c.44,0,.84,0,1.07.43A1.43,1.43,0,0,1,152.7,7.17Z"/><path class="cls-1" d="M107.25,3.61a1.06,1.06,0,0,1,.77-.3.69.69,0,0,0,.11.13,1.61,1.61,0,0,1-.88.37Z"/><path class="cls-1" d="M106.64,4c-.13.22-.37.22-.57.3L106,4.19a.65.65,0,0,1,.62-.21Z"/><path class="cls-1" d="M107.05,3.82a.38.38,0,0,1-.41.22L106.58,4a.35.35,0,0,1,.46-.16Z"/><path class="cls-1" d="M108,3.31c.1-.09.28-.19.34-.06s-.13.15-.23.19A.69.69,0,0,1,108,3.31Z"/><path class="cls-1" d="M107.25,3.61v.2l-.1,0H107C107,3.66,107.14,3.63,107.25,3.61Z"/><path class="cls-1" d="M129.66,2.56a4.59,4.59,0,0,1,2.93,1A7.54,7.54,0,0,1,129.66,2.56Z"/><path class="cls-1" d="M129.25,2.35c.18,0,.36,0,.42.22C129.49,2.57,129.32,2.57,129.25,2.35Z"/><path class="cls-1" d="M132.6,236.77a3.29,3.29,0,0,1-1.68.63,3.1,3.1,0,0,1,1.69-.82A1.21,1.21,0,0,1,132.6,236.77Z"/><path class="cls-1" d="M130.94,237.39a.85.85,0,0,1-.76.22A.75.75,0,0,1,130.94,237.39Z"/><path class="cls-1" d="M133.45,236.34a.5.5,0,0,1-.65.22A.57.57,0,0,1,133.45,236.34Z"/><path class="cls-1" d="M132.6,236.77a1.21,1.21,0,0,0,0-.19l.21,0C132.84,236.71,132.73,236.75,132.6,236.77Z"/><path class="cls-1" d="M130.2,237.6l-.27.19A.32.32,0,0,1,130.2,237.6Z"/></g></svg>