<svg xmlns="http://www.w3.org/2000/svg" viewBox="0 0 412 618.07"><defs><style>.cls-1{font-size:314.25px;font-family:Rajdhani-Bold, Rajdhani;font-weight:700;}.cls-2{fill:#d0eaf7;opacity:0.5;}.cls-3{fill:#3d5b80;}.cls-4{fill:#2d465b;}.cls-5{fill:#c8a805;}.cls-6{fill:#c3ab13;}.cls-7{fill:#6d7870;}.cls-8{fill:#677173;}.cls-9{fill:#a8a31d;}.cls-10{fill:#1f4073;}.cls-11{fill:#fff;}.cls-12{fill:#feffff;}.cls-13{fill:#cba904;}.cls-14{fill:#ccaa03;}.cls-15{fill:#cdaa03;}.cls-16{fill:#caa904;}.cls-17{fill:#c5a607;}</style></defs><g id="Layer_2" data-name="Layer 2"><text class="cls-1" transform="translate(-2061.96 -3037.27)"><tspan xml:space="preserve">Sidor att  fixa</tspan><tspan x="-494.14" y="418.99" xml:space="preserve">- Updates from  team</tspan><tspan x="383.21" y="837.99">- Footer</tspan><tspan x="-324.3" y="1256.98">- About the project</tspan><tspan x="261.13" y="2094.97">- Register</tspan><tspan x="439.46" y="2513.96">- E-day</tspan><tspan x="448.42" y="2932.96">- Rules</tspan><tspan x="324.45" y="3351.95">- Actions</tspan></text><path class="cls-2" d="M118.66,251.15c.39-1.22.85-2.42,1.17-3.66A114.36,114.36,0,0,1,126.14,230a99.65,99.65,0,0,1,9.43-17c2.15-3.11,4.58-6,6.88-9a67.26,67.26,0,0,1,8.11-8.67,82.26,82.26,0,0,1,14-10.76c2.88-1.68,5.71-3.48,8.71-4.94a77.84,77.84,0,0,1,20.55-6.77c2.42-.42,4.87-.58,7.3-.95,4-.61,7.91-.28,11.87-.24a55.07,55.07,0,0,1,7.3.88,68.06,68.06,0,0,1,11.92,2.94,79.43,79.43,0,0,1,20.57,10.34A70.24,70.24,0,0,1,263,194.16c2.05,2.09,4.24,4.05,6.17,6.23a80,80,0,0,1,8.18,10.77c1.79,2.88,3.46,5.83,5.17,8.76a97.63,97.63,0,0,1,7.12,16.19,123.77,123.77,0,0,1,3.84,13.77,9.38,9.38,0,0,0,.34,1,7.6,7.6,0,0,0,0,1.07c.52,3.52,1.14,7,1.55,10.55.37,3.27.53,6.57.75,9.86.08,1.17-.06,1.32-1.17,1.63-.84.24-1.69.45-2.54.65a162.73,162.73,0,0,1-20.56,3.44q-12.75,1.32-25.54,2.35c-4.72.39-9.46.54-14.2.72-5.92.23-11.84.51-17.76.53q-16.09,0-32.17-.2-9.11-.13-18.22-.75c-6.94-.45-13.86-1.09-20.78-1.74a157,157,0,0,1-18.93-2.88c-2.51-.55-5-1.29-7.44-2-1.28-.39-1.39-.71-1.32-2a109.41,109.41,0,0,1,2.09-15.61C118,254.69,118.32,252.92,118.66,251.15Zm61-60.59c-.34-.65-.68-.76-1.22-.6-1.32.41-2.64.85-4,1.13a27.33,27.33,0,0,0-11.83,5.66c-2.42,2-4.9,3.88-7.33,5.85a25.6,25.6,0,0,0-2.63,2.36,39.57,39.57,0,0,0-2.74,3.32c-1.56,2.09-3.24,4.16-4,6.72-1.19,4.14-2.26,8.31-3.34,12.47-.16.63-.38,1.44.35,1.82s1.14-.43,1.59-.87a2.26,2.26,0,0,0,.16-.26c1.24-1.77,2.43-3.56,3.73-5.28,1.43-1.88,2.93-3.7,4.45-5.5s3.25-3.7,4.88-5.55c2.17-2.46,4.28-5,6.51-7.38,2-2.11,4.11-4.06,6.1-6.15a57.87,57.87,0,0,1,7.93-6.57C178.78,191.38,179.2,191,179.65,190.56Zm9.71-6.31a4.44,4.44,0,0,0-3.43,1.61c-.39.41-.62.92-.24,1.35a1.38,1.38,0,0,0,1.18.42,25.47,25.47,0,0,0,3.54-1.68c.54-.3.44-.92,0-1.28A3.71,3.71,0,0,0,189.36,184.25Z"/><path class="cls-3" d="M118.66,251.15c-.34,1.77-.67,3.54-1,5.3a109.41,109.41,0,0,0-2.09,15.61c-.07,1.32,0,1.64,1.32,2,2.46.75,4.93,1.49,7.44,2A157,157,0,0,0,143.24,279c6.92.65,13.84,1.29,20.78,1.74q9.1.6,18.22.75,16.08.25,32.17.2c5.92,0,11.84-.3,17.76-.53,4.74-.18,9.48-.33,14.2-.72q12.78-1,25.54-2.35a162.73,162.73,0,0,0,20.56-3.44c.85-.2,1.7-.41,2.54-.65,1.11-.31,1.25-.46,1.17-1.63-.22-3.29-.38-6.59-.75-9.86-.41-3.53-1-7-1.55-10.55a7.6,7.6,0,0,1,0-1.07c3.69.89,7.4,1.73,11.08,2.69a142.77,142.77,0,0,1,26.15,9.3A60.67,60.67,0,0,1,342.63,270a30.7,30.7,0,0,1,5.6,5.73,15.47,15.47,0,0,1,3.12,8.43,11.11,11.11,0,0,1-1.31,5.67,28.58,28.58,0,0,1-2.35,3.8c-1,1.37-2.14,2.63-3.23,3.93-.47,0-.88.06-.78.7l0,0a4.51,4.51,0,0,0-1.07.47,68,68,0,0,1-11.54,7.09c-2.11,1.06-4.34,1.88-6.5,2.83a131.17,131.17,0,0,1-18.38,6.22c-4.94,1.35-10,2.47-14.94,3.59-3,.68-6,1.17-9,1.73-2.77.51-5.53,1-8.31,1.48-1.51.26-3,.46-4.55.66-2,.25-4,.45-5.95.69-2.13.27-4.25.62-6.38.85-2.5.26-5,.41-7.5.65-2.95.28-5.9.65-8.86.89-3.32.27-6.64.44-10,.63-2.2.13-4.41.24-6.61.31-4.27.13-8.54.33-12.8.29-5.46-.05-10.91.26-16.37-.24-3.73-.34-7.5.14-11.25-.32-2.39-.29-4.82-.24-7.23-.34s-4.82-.19-7.23-.33c-1.38-.07-2.76-.21-4.13-.35-1.78-.17-3.56-.39-5.34-.55-1.48-.14-3-.23-4.45-.36-1-.08-1.93-.2-2.89-.32-2.18-.29-4.36-.6-6.54-.87-1.93-.24-3.87-.38-5.79-.68q-5.24-.83-10.43-1.79c-5-.94-10-1.82-14.91-3-5.09-1.18-10.17-2.48-15.16-4a115.19,115.19,0,0,1-22.12-9c-5.13-2.84-9.86-6.11-13.53-10.77a2.92,2.92,0,0,0-.9-.52c-.59-1.48-1.26-2.94-1.75-4.44a12.52,12.52,0,0,1,.58-9.33,21,21,0,0,1,4.26-6,48.06,48.06,0,0,1,12.14-8.68,119.27,119.27,0,0,1,23.51-9.24C107.36,253.89,113,252.59,118.66,251.15Z"/><path class="cls-4" d="M63,293.21a2.92,2.92,0,0,1,.9.52c3.67,4.66,8.4,7.93,13.53,10.77a115.19,115.19,0,0,0,22.12,9c5,1.55,10.07,2.85,15.16,4,4.93,1.14,9.93,2,14.91,3q5.19,1,10.43,1.79c1.92.3,3.86.44,5.79.68,2.18.27,4.36.58,6.54.87,1,.12,1.93.24,2.89.32,1.48.13,3,.22,4.45.36,1.78.16,3.56.38,5.34.55,1.37.14,2.75.28,4.13.35,2.41.14,4.82.22,7.23.33s4.84.05,7.23.34c3.75.46,7.52,0,11.25.32,5.46.5,10.91.19,16.37.24,4.26,0,8.53-.16,12.8-.29,2.2-.07,4.41-.18,6.61-.31,3.33-.19,6.65-.36,10-.63,3-.24,5.91-.61,8.86-.89,2.5-.24,5-.39,7.5-.65,2.13-.23,4.25-.58,6.38-.85,2-.24,4-.44,5.95-.69,1.52-.2,3-.4,4.55-.66,2.78-.47,5.54-1,8.31-1.48,3-.56,6-1,9-1.73,5-1.12,10-2.24,14.94-3.59a131.17,131.17,0,0,0,18.38-6.22c2.16-.95,4.39-1.77,6.5-2.83a68,68,0,0,0,11.54-7.09,4.51,4.51,0,0,1,1.07-.47,17,17,0,0,1-1.12,1.77c-.61.76-1.3,1.44-2,2.16a2.3,2.3,0,0,0-1.77,1.58A6.43,6.43,0,0,1,338,305c-2.9,2.49-5.84,5-8.76,7.42h-.69c.58-1.42.22-2-1.21-1.77a13.54,13.54,0,0,0-7.1,3.75c-.4.4-.79.88-.5,1.5s1,.65,1.62.5c.94-.23,1.85-.58,2.78-.89l.32.27a121.42,121.42,0,0,1-17.26,9.63,204.87,204.87,0,0,1-38.94,13.35,272,272,0,0,1-31.31,5.63c-7.21.88-14.44,1.47-21.7,1.88a284.62,284.62,0,0,1-29.21.15,260.55,260.55,0,0,1-57.49-8.64,156.85,156.85,0,0,1-35.78-14.25,81.86,81.86,0,0,1-19.67-14.87c-1.62-1.71-3-3.64-4.5-5.47.1-.36.39-.8.27-1.05A3,3,0,0,0,66.45,300,27.19,27.19,0,0,1,63,293.21Zm84.39,43.1c1.07-.14,2.14-.23,3.2-.43a1.72,1.72,0,0,0,1.46-1.41,1.84,1.84,0,0,0-.91-1.84,10.65,10.65,0,0,0-1.47-.83,21.46,21.46,0,0,0-8.37-1.92,10,10,0,0,0-3,.34c-1.66.47-2,1.85-.75,3a6.06,6.06,0,0,0,1.51,1A21.57,21.57,0,0,0,147.42,336.31Zm77,3.39a24.42,24.42,0,0,0,8.3-1.55,6.24,6.24,0,0,0,1.81-1.12,1.15,1.15,0,0,0-.2-2,5.12,5.12,0,0,0-1.85-.69,22.67,22.67,0,0,0-11.64,1.3,4.29,4.29,0,0,0-1.41.9,1.33,1.33,0,0,0,.21,2.22,3.44,3.44,0,0,0,1.28.49C222.06,339.47,223.23,339.57,224.4,339.7Zm-38.31-.07c1,0,1.95,0,2.92,0a9.31,9.31,0,0,0,2-.38c.72-.2,1.38-.56,1.45-1.41a1.78,1.78,0,0,0-1.11-1.7,7.49,7.49,0,0,0-1.26-.57,23.08,23.08,0,0,0-10-1.07,7.22,7.22,0,0,0-2.35.69,1.41,1.41,0,0,0-.29,2.51,5.94,5.94,0,0,0,1.75.95A18.27,18.27,0,0,0,186.09,339.63Zm77-5c1.1-.1,2-.14,2.94-.26a20.27,20.27,0,0,0,7.19-2.13c.85-.47,1.87-1,1.62-2.18s-1.3-1.17-2.22-1.27a20.57,20.57,0,0,0-8.93,1.25,18.49,18.49,0,0,0-3.17,1.53,1.46,1.46,0,0,0-.76,1.7,1.57,1.57,0,0,0,1.38,1.09C261.89,334.46,262.61,334.52,263.14,334.59Zm-147.5-6.14h.62a1.77,1.77,0,0,0,1.69-.88,1.83,1.83,0,0,0-.36-2,3.64,3.64,0,0,0-.64-.66,19.18,19.18,0,0,0-9.79-3.84c-1-.09-2.21-.29-2.68,1s.42,2,1.23,2.61A18.36,18.36,0,0,0,115.64,328.45Zm188.54-8.05a20.22,20.22,0,0,0-9.69,3.17c-.71.52-1.55,1.06-1.22,2.1s1.34,1,2.21.94a19.43,19.43,0,0,0,9.65-3.32,3.1,3.1,0,0,0,.86-.87,1.15,1.15,0,0,0-.74-1.9A5.45,5.45,0,0,0,304.18,320.4ZM80.45,310.06c-.44.21-1,.3-1.27.64-.37.53.07,1.06.42,1.51a2.57,2.57,0,0,0,.33.33,19.64,19.64,0,0,0,7.28,3.94c.77.23,1.65.53,2.26-.33.39-.55,0-1.48-.92-2.25A16.07,16.07,0,0,0,83.63,311C82.62,310.68,81.58,310.41,80.45,310.06Z"/><path class="cls-5" d="M324.13,315.46c-.93.31-1.84.66-2.78.89-.58.15-1.28.21-1.62-.5s.1-1.1.5-1.5a13.54,13.54,0,0,1,7.1-3.75c1.43-.26,1.79.35,1.21,1.77l-1.85,1.57-.48.54Z"/><path class="cls-6" d="M66.45,300a3,3,0,0,1,2.41,2.07c.12.25-.17.69-.27,1.05Z"/><path class="cls-7" d="M326.69,313.94l1.85-1.57h.69C328.44,313,327.81,313.87,326.69,313.94Z"/><path class="cls-8" d="M324.13,315.46l2.08-1-1.76,1.25Z"/><path class="cls-9" d="M338.85,303.73a2.3,2.3,0,0,1,1.77-1.58Z"/><path class="cls-10" d="M343.68,298.24c-.1-.64.31-.71.78-.7Z"/><path class="cls-11" d="M179.65,190.56c-.45.39-.87.82-1.35,1.17a57.87,57.87,0,0,0-7.93,6.57c-2,2.09-4.13,4-6.1,6.15-2.23,2.4-4.34,4.92-6.51,7.38-1.63,1.85-3.29,3.67-4.88,5.55s-3,3.62-4.45,5.5c-1.3,1.72-2.49,3.51-3.73,5.28a2.26,2.26,0,0,1-.16.26c-.45.44-.78,1.29-1.59.87s-.51-1.19-.35-1.82c1.08-4.16,2.15-8.33,3.34-12.47.73-2.56,2.41-4.63,4-6.72a39.57,39.57,0,0,1,2.74-3.32,25.6,25.6,0,0,1,2.63-2.36c2.43-2,4.91-3.87,7.33-5.85a27.33,27.33,0,0,1,11.83-5.66c1.35-.28,2.67-.72,4-1.13C179,189.8,179.31,189.91,179.65,190.56Z"/><path class="cls-12" d="M189.36,184.25a3.71,3.71,0,0,1,1,.42c.49.36.59,1,0,1.28a25.47,25.47,0,0,1-3.54,1.68,1.38,1.38,0,0,1-1.18-.42c-.38-.43-.15-.94.24-1.35A4.44,4.44,0,0,1,189.36,184.25Z"/><path class="cls-13" d="M147.42,336.31a21.57,21.57,0,0,1-8.37-2,6.06,6.06,0,0,1-1.51-1c-1.23-1.19-.91-2.57.75-3a10,10,0,0,1,3-.34,21.46,21.46,0,0,1,8.37,1.92,10.65,10.65,0,0,1,1.47.83,1.84,1.84,0,0,1,.91,1.84,1.72,1.72,0,0,1-1.46,1.41C149.56,336.08,148.49,336.17,147.42,336.31Z"/><path class="cls-14" d="M224.4,339.7c-1.17-.13-2.34-.23-3.5-.41a3.44,3.44,0,0,1-1.28-.49,1.33,1.33,0,0,1-.21-2.22,4.29,4.29,0,0,1,1.41-.9,22.67,22.67,0,0,1,11.64-1.3,5.12,5.12,0,0,1,1.85.69,1.15,1.15,0,0,1,.2,2,6.24,6.24,0,0,1-1.81,1.12A24.42,24.42,0,0,1,224.4,339.7Z"/><path class="cls-14" d="M186.09,339.63a18.27,18.27,0,0,1-7-1,5.94,5.94,0,0,1-1.75-.95,1.41,1.41,0,0,1,.29-2.51,7.22,7.22,0,0,1,2.35-.69,23.08,23.08,0,0,1,10,1.07,7.49,7.49,0,0,1,1.26.57,1.78,1.78,0,0,1,1.11,1.7c-.07.85-.73,1.21-1.45,1.41a9.31,9.31,0,0,1-2,.38C188,339.67,187.06,339.63,186.09,339.63Z"/><path class="cls-15" d="M263.14,334.59c-.53-.07-1.25-.13-1.95-.27a1.57,1.57,0,0,1-1.38-1.09,1.46,1.46,0,0,1,.76-1.7,18.49,18.49,0,0,1,3.17-1.53,20.57,20.57,0,0,1,8.93-1.25c.92.1,2,.16,2.22,1.27s-.77,1.71-1.62,2.18a20.27,20.27,0,0,1-7.19,2.13C265.17,334.45,264.24,334.49,263.14,334.59Z"/><path class="cls-16" d="M115.64,328.45a18.36,18.36,0,0,1-9.93-3.83c-.81-.65-1.66-1.44-1.23-2.61s1.69-1.05,2.68-1a19.18,19.18,0,0,1,9.79,3.84,3.64,3.64,0,0,1,.64.66,1.83,1.83,0,0,1,.36,2,1.77,1.77,0,0,1-1.69.88Z"/><path class="cls-13" d="M304.18,320.4a5.45,5.45,0,0,1,1.07.12,1.15,1.15,0,0,1,.74,1.9,3.1,3.1,0,0,1-.86.87,19.43,19.43,0,0,1-9.65,3.32c-.87.07-1.87.11-2.21-.94s.51-1.58,1.22-2.1A20.22,20.22,0,0,1,304.18,320.4Z"/><path class="cls-17" d="M80.45,310.06c1.13.35,2.17.62,3.18,1a16.07,16.07,0,0,1,4.92,2.86c.93.77,1.31,1.7.92,2.25-.61.86-1.49.56-2.26.33a19.64,19.64,0,0,1-7.28-3.94,2.57,2.57,0,0,1-.33-.33c-.35-.45-.79-1-.42-1.51C79.41,310.36,80,310.27,80.45,310.06Z"/></g></svg>