<svg xmlns="http://www.w3.org/2000/svg" viewBox="0 0 249.75 274.65"><defs><style>.cls-1{fill:none;stroke:#fff;stroke-miterlimit:10;stroke-width:3px;}</style></defs><g id="Layer_2" data-name="Layer 2"><circle class="cls-1" cx="124.68" cy="29.34" r="27.67"/><circle class="cls-1" cx="124.68" cy="245.42" r="27.67"/><circle class="cls-1" cx="29.55" cy="188.6" r="27.67"/><circle class="cls-1" cx="219.81" cy="86.16" r="27.67"/><circle class="cls-1" cx="219.81" cy="188.6" r="27.67"/><circle class="cls-1" cx="29.55" cy="86.16" r="27.67"/><line class="cls-1" x1="148.44" y1="43.53" x2="196.05" y2="71.97"/><line class="cls-1" x1="196.38" y1="203.33" x2="148.75" y2="231.78"/><line class="cls-1" x1="101.26" y1="44.07" x2="53.63" y2="72.52"/><line class="cls-1" x1="52.98" y1="203.33" x2="100.61" y2="231.78"/><line class="cls-1" x1="29.55" y1="114.17" x2="29.55" y2="160.92"/><line class="cls-1" x1="219.81" y1="113.84" x2="219.81" y2="160.59"/><path class="cls-1" d="M99.53,159.67c-3.83-7.51-12.35-19-9.77-22.29,2.41-3,11,3.7,17.87,8.94a.46.46,0,0,0,.74-.36V101.24a6.33,6.33,0,0,1,6.33-6.33h0a6.32,6.32,0,0,1,6.33,6.33v32.65a.47.47,0,0,0,.47.46h0A.47.47,0,0,0,122,134c.63-3.38,3.35-4.63,6.46-4.63,2.63,0,4.8.83,5.78,3.18a.46.46,0,0,0,.85,0c1-2.36,3.4-3.19,6-3.19s4.81.83,5.79,3.18a.46.46,0,0,0,.85,0c1-2.36,3.39-3.19,6-3.19,3.57,0,6.33,2,6.33,6.21,0,.25,0,.51,0,.75v.11a2,2,0,0,1,0,.35v24.64a18.52,18.52,0,0,1-18.47,18.47H110.78c-1.33,0-1.82-1.09-2.41-2.41Z"/></g></svg>