<svg xmlns="http://www.w3.org/2000/svg" viewBox="0 0 412 618.07"><defs><style>.cls-1{fill:#efd7ac;}.cls-2,.cls-5{fill:#fff;}.cls-3{fill:none;stroke:#000;stroke-miterlimit:10;stroke-width:0.57px;}.cls-4{fill:#b3a181;opacity:0.55;}.cls-5{opacity:0.34;}</style></defs><g id="Layer_2" data-name="Layer 2"><circle class="cls-1" cx="206" cy="291.03" r="149.72"/><path class="cls-2" d="M206,141.6a149.42,149.42,0,1,1-105.67,43.77A148.45,148.45,0,0,1,206,141.6m0-.57A150,150,0,1,0,356,291,150,150,0,0,0,206,141Z"/><path class="cls-2" d="M161.48,268.05a4.11,4.11,0,0,1,1.16.16c1.35.47,1.75,2.22,1.52,3.63-.88,5.49-7.23,8.07-12.71,9a74.67,74.67,0,0,1-27.95-.76,37.27,37.27,0,0,1-11.65-4.35,20,20,0,0,1-4.76-4c-2.26-2.65,1.19-2.45,3.25-2.61q16.26-1.23,32.58-1.33Q152.21,267.75,161.48,268.05Z"/><path class="cls-2" d="M317.29,267.3c-.12,4.34-.78,9.55-4.7,11.38a11.06,11.06,0,0,1-4.24.8,109,109,0,0,1-40.22-5.66c-1.52-.52-9.76-2.75-9.74-4.34,3.66-.49,7.63-.14,11.34-.21s7.69-.17,11.53-.29q11.53-.35,23.05-.94Q310.8,267.71,317.29,267.3Z"/><path class="cls-3" d="M276.5,308.45a138.72,138.72,0,0,0-99.79-5c-6.7,2.24-13.41,5.12-18.39,10.13"/><path d="M290.2,267.81c-2.39.9-5.16,2.24-5.48,4.77a4.46,4.46,0,0,0,2,4.06,8.29,8.29,0,0,0,4.55,1.21c2.59,0,5.35-.75,6.95-2.78s1.45-5.47-.76-6.82a6.39,6.39,0,0,0-2.54-.75,19.17,19.17,0,0,0-8,.75"/><path d="M136.1,267.88c-2.39.89-5.16,2.24-5.48,4.77a4.43,4.43,0,0,0,2,4.05,8.21,8.21,0,0,0,4.55,1.22c2.59,0,5.35-.75,6.95-2.78s1.45-5.48-.76-6.82a6.24,6.24,0,0,0-2.54-.75,18.85,18.85,0,0,0-8,.75"/><path class="cls-4" d="M63.45,280.37c16.61,34.63,46.3,61.31,78.11,82.82,12.91,8.73,26.35,16.81,40.85,22.52,14.94,5.89,59.5,20.81,111.35,5.88a165.5,165.5,0,0,0,35-14.64,249.72,249.72,0,0,1-33.87,33.67,124.71,124.71,0,0,1-20.57,14,135.88,135.88,0,0,1-17,7.37C201.61,451.26,149,429.69,149,429.69c-10.29-4.21-56.37-24.44-80-77.12-20-44.54-11.61-85-8.5-97.55"/><path class="cls-5" d="M231.2,163.93a100.11,100.11,0,0,1,72,30.37c1.73,1.79,3.44,3.76,4,6.18s-.41,5.38-2.74,6.24c-1.74.64-3.65,0-5.49-.28-12-1.75-22.3,13.06-34,10.05-1.34-.35-2.78-1.12-3-2.47a4.28,4.28,0,0,1,.65-2.62c3.28-6.51,7.33-13.46,5.89-20.61s-8.11-12.18-14.26-16.35c-10.65-7.23-22.31-14.75-35.16-14.16"/><path class="cls-3" d="M258.59,258.25a18.68,18.68,0,0,1,3.29-13.63"/><path class="cls-3" d="M260.57,256.53a17.53,17.53,0,0,1,3.35-10.16"/><path class="cls-3" d="M263.5,255.67a21,21,0,0,1,5.22-12.89"/><path class="cls-3" d="M266.09,253.38a16.51,16.51,0,0,1,6.52-9.06"/><path class="cls-3" d="M269.54,252.8a18,18,0,0,1,5-6.84"/><path class="cls-3" d="M274.4,251a22.76,22.76,0,0,1,7.23-6.65"/><path class="cls-3" d="M282.22,248.73a32.69,32.69,0,0,1,6.9-4.15"/><path class="cls-3" d="M291.18,247.85a39.05,39.05,0,0,1,7-2.84"/><path class="cls-3" d="M298.18,249.93a11.18,11.18,0,0,1,9.2-2.3c2.59.52,5.55,2,8.12,2.55"/><path class="cls-3" d="M317.82,251.34a34.8,34.8,0,0,1,5.83,1.63"/><path class="cls-3" d="M262.44,245.49a26.92,26.92,0,0,0-3.33,12.2C259.81,254,260.5,248.69,262.44,245.49Z"/><path class="cls-3" d="M266,244.64a29.28,29.28,0,0,0-3.12,10.16C261.72,250.89,263.48,247.87,266,244.64Z"/><path class="cls-3" d="M266.17,253.32a11.94,11.94,0,0,1,4.41-10.73"/><path class="cls-3" d="M264.27,253.94a31.41,31.41,0,0,1,7.79-9"/><path class="cls-3" d="M277.76,244.27a25.17,25.17,0,0,0-4.78,6.49"/><path class="cls-3" d="M281.07,248.73c1.39-2.13,2-5.51,4-7.06a19.54,19.54,0,0,0-7.69,8.24"/><path class="cls-3" d="M284.38,249.6A10.39,10.39,0,0,1,289.1,242"/><path class="cls-3" d="M287.77,248.47a18,18,0,0,1,6.84-5.93"/><path class="cls-3" d="M291.2,248.73a24.67,24.67,0,0,1,5.75-5"/><path class="cls-3" d="M295,248.45a29,29,0,0,1,5.39-4.5"/><path class="cls-3" d="M297.3,248.76a18.51,18.51,0,0,1,8.06-3.3c2.32-.36,6.1,1.07,8.42,1.43"/><path class="cls-3" d="M311.45,248.73a24.61,24.61,0,0,1,5.54,1.34"/><path class="cls-3" d="M307.11,251.08a52,52,0,0,0,13-1"/><path class="cls-3" d="M267.79,254.52a21.1,21.1,0,0,1,5.67-9.63"/><path class="cls-3" d="M256.61,247.81a19.64,19.64,0,0,0-.09,10.43A26.73,26.73,0,0,1,256.61,247.81Z"/><path class="cls-3" d="M297.35,248.79a16,16,0,0,1,3-3.38,5.52,5.52,0,0,1,4.2-1.28"/><path class="cls-3" d="M287.86,248.42a10.16,10.16,0,0,1,2.84-7.14"/><path class="cls-3" d="M289.75,248.15a18.34,18.34,0,0,1,4-4.68"/><path class="cls-3" d="M274.21,251.08c1.2-3.52,2.78-7.45,6.25-8.77"/><path class="cls-3" d="M265.26,254.23a16.49,16.49,0,0,1,8.82-12.79"/><path class="cls-3" d="M268.07,253.66a22,22,0,0,1,7.13-9.36"/><path class="cls-3" d="M281.65,241a10.23,10.23,0,0,0-7.8,9.74C275,247.49,278.47,242.29,281.65,241Z"/><path class="cls-3" d="M301.9,247.87a32.67,32.67,0,0,1,8.68-1.23"/><path class="cls-3" d="M303.94,249.64a22.59,22.59,0,0,1,13.3-.32"/><path class="cls-3" d="M316.37,252.21a45.88,45.88,0,0,1,7.27,2.22"/><path class="cls-3" d="M161.7,261.08a18.72,18.72,0,0,0-3.3-13.63"/><path class="cls-3" d="M159.71,259.36a17.54,17.54,0,0,0-3.35-10.17"/><path class="cls-3" d="M156.78,258.49a21,21,0,0,0-5.22-12.89"/><path class="cls-3" d="M154.19,256.2a16.44,16.44,0,0,0-6.52-9"/><path class="cls-3" d="M150.74,255.63a18,18,0,0,0-5-6.85"/><path class="cls-3" d="M145.88,253.87a22.8,22.8,0,0,0-7.23-6.66"/><path class="cls-3" d="M138.06,251.56a32.44,32.44,0,0,0-6.9-4.15"/><path class="cls-3" d="M129.1,250.67a38,38,0,0,0-7-2.83"/><path class="cls-3" d="M122.1,252.76a11.22,11.22,0,0,0-9.2-2.31c-2.59.52-5.55,2-8.12,2.55"/><path class="cls-3" d="M102.46,254.17a35,35,0,0,0-5.83,1.62"/><path class="cls-3" d="M157.85,248.31a27,27,0,0,1,3.32,12.21C160.47,256.84,159.78,251.52,157.85,248.31Z"/><path class="cls-3" d="M154.32,247.47a29.28,29.28,0,0,1,3.12,10.16C158.56,253.71,156.8,250.7,154.32,247.47Z"/><path class="cls-3" d="M154.11,256.15a12,12,0,0,0-4.41-10.74"/><path class="cls-3" d="M156,256.76a31.37,31.37,0,0,0-7.79-9"/><path class="cls-3" d="M142.52,247.1a25.17,25.17,0,0,1,4.78,6.49"/><path class="cls-3" d="M139.21,251.56c-1.38-2.13-2-5.51-4-7.06a19.42,19.42,0,0,1,7.69,8.24"/><path class="cls-3" d="M135.91,252.42a10.41,10.41,0,0,0-4.73-7.62"/><path class="cls-3" d="M132.52,251.29a18.05,18.05,0,0,0-6.85-5.92"/><path class="cls-3" d="M129.08,251.56a24.44,24.44,0,0,0-5.75-5"/><path class="cls-3" d="M125.31,251.27a28.64,28.64,0,0,0-5.39-4.49"/><path class="cls-3" d="M123,251.59a18.74,18.74,0,0,0-8.07-3.31c-2.32-.35-6.1,1.07-8.42,1.44"/><path class="cls-3" d="M108.83,251.56a23.38,23.38,0,0,0-5.53,1.34"/><path class="cls-3" d="M113.18,253.9a51.65,51.65,0,0,1-13-1"/><path class="cls-3" d="M152.49,257.35a21.08,21.08,0,0,0-5.66-9.64"/><path class="cls-3" d="M163.67,250.64a19.64,19.64,0,0,1,.09,10.43A26.73,26.73,0,0,0,163.67,250.64Z"/><path class="cls-3" d="M122.94,251.62a16.37,16.37,0,0,0-3-3.39,5.45,5.45,0,0,0-4.2-1.27"/><path class="cls-3" d="M132.42,251.25a10.14,10.14,0,0,0-2.83-7.14"/><path class="cls-3" d="M130.53,251a18.34,18.34,0,0,0-4-4.68"/><path class="cls-3" d="M146.07,253.91c-1.2-3.52-2.78-7.45-6.25-8.78"/><path class="cls-3" d="M155,257.06a16.49,16.49,0,0,0-8.82-12.8"/><path class="cls-3" d="M152.21,256.48a21.86,21.86,0,0,0-7.13-9.35"/><path class="cls-3" d="M138.64,243.82a10.23,10.23,0,0,1,7.79,9.75C145.32,250.32,141.82,245.12,138.64,243.82Z"/><path class="cls-3" d="M118.38,250.7a32.68,32.68,0,0,0-8.68-1.24"/><path class="cls-3" d="M116.34,252.46a22.64,22.64,0,0,0-13.29-.31"/><path class="cls-3" d="M103.91,255a47.24,47.24,0,0,0-7.27,2.21"/></g></svg>