<svg xmlns="http://www.w3.org/2000/svg" viewBox="0 0 412.97 618.07"><defs><style>.cls-1,.cls-2,.cls-3{fill:#699;}.cls-1{opacity:0.3;}.cls-2{opacity:0.6;}.cls-4{fill:#4d7775;}.cls-5{fill:#c90;}.cls-6{fill:#8cad58;}.cls-7{fill:#2c8cb9;}.cls-8{fill:#628e8a;}.cls-9{fill:#960;}</style></defs><g id="Layer_2" data-name="Layer 2"><circle class="cls-1" cx="206.49" cy="291.04" r="164.19"/><circle class="cls-2" cx="206.49" cy="291.04" r="150.08"/><path class="cls-3" d="M77.59,327.78c-.81-3.15-1.78-6.27-2.39-9.45A134,134,0,0,1,73,304.56a152.5,152.5,0,0,1-.52-16.42c.14-5.63.8-11.23,1.25-16.85a8.82,8.82,0,0,1,.26-1.24,1.37,1.37,0,0,0,.28.26c.51.26,1.24.86,1.5.7.76-.47.44-1.21,0-1.89s-.76-1.51-1.14-2.26c.29-1.4.57-2.8.86-4.2.25.49.53,1,.73,1.47.42,1.06.5,2.46,1.24,3.14a18.91,18.91,0,0,1,3.25,4.53,3.33,3.33,0,0,1,.35,3.26,2.38,2.38,0,0,0,.56,2.82,11.75,11.75,0,0,0,2.5,2c2.47,1.31,5,2.48,7.49,3.75a4.28,4.28,0,0,0,3.66.24,2.33,2.33,0,0,1,2.94.89,9.25,9.25,0,0,0,6.41,3.83c2.29.34,3.31,1.67,3.67,3.77a3.28,3.28,0,0,0,2,2.52A3.7,3.7,0,0,1,112,296a3,3,0,0,0,2.24,1.48,2.7,2.7,0,0,1,1,.44c1.63,1.09,1.78,1.05,2.43-.8.57-1.64.47-1.77-1.29-1.63s-4.19-2.07-3.87-3.65.81-3.39,1.31-5.06c.42-1.37.23-2.35-1.11-2.81a13.28,13.28,0,0,0-3.84-.51c-1.91-.06-2.52-1.14-1.65-2.9.71-1.44,1.24-3,1.85-4.45a11.17,11.17,0,0,1,.43-1.06c.54-1,.31-1.55-.82-1.56a15.51,15.51,0,0,0-3,.32,2.32,2.32,0,0,0-2.05,2.07c-.55,2.63-1.1,2.95-3.75,2.95H98.57a3.61,3.61,0,0,1-3.56-2,8.39,8.39,0,0,1-.83-6.05c.56-2.25,1.24-4.48,1.9-6.71a1.52,1.52,0,0,1,.57-.82c2.67-1.69,5.07-4.21,8.76-2.87a8.87,8.87,0,0,0,2,.28,2.56,2.56,0,0,0,1.9-.66,8.4,8.4,0,0,1,3.48-1.28c.52-.09,1.16.61,1.77.91a3,3,0,0,0,1.06.29c1.51.08,1.8.48,1.94,1.91a15.62,15.62,0,0,0,.88,3.94c.26.7,1,1.21,1.58,1.81a10.91,10.91,0,0,0,1.71-2.24,4.65,4.65,0,0,0,0-2.26c-.1-.8-.36-1.58-.52-2.37a4.91,4.91,0,0,1,2-5.41,51.53,51.53,0,0,1,5.43-3.36,5.74,5.74,0,0,0,3.11-3.24c.85-2.84,2.83-4.81,4.73-6.88a7,7,0,0,1,3.92-2.22c1.16-.22,2.6-.41,2.63-2.21a1.73,1.73,0,0,1,.81-1.09,10.7,10.7,0,0,1,3-1.6c.88-.21,2.33-.16,2.78.39.9,1.08,1.47.78,2.16.06a3.32,3.32,0,0,1,2.4-1.2,12.82,12.82,0,0,0,3-.6,1.19,1.19,0,0,0,.75-.83c0-.3-.41-.65-.71-.89s-.52-.06-.74-.17c-.7-.33-1.69-.53-2-1.1a2.32,2.32,0,0,1,.67-2.67,2.45,2.45,0,0,0,.72-1.55c-.1-1.37.61-1.58,1.7-1.58,1.53,0,3.06-.11,4.6-.14a7.53,7.53,0,0,1,1.14.19,4,4,0,0,1-.3,1.18c-.36.57-.93,1-1.25,1.6-.66,1.23-.36,1.86,1,1.73a11.11,11.11,0,0,1,5.42.85,2,2,0,0,0,.49.15c1.17.19,1.82-.53,1.66-1.73a5.24,5.24,0,0,1,0-2.09c.23-.76.22-1.18-.58-1.5a1.53,1.53,0,0,1-.91-2.09c.23-.78.45-1.56.69-2.33a2.75,2.75,0,0,0-.45-2.48,6.69,6.69,0,0,0-2.28-2.18,3.09,3.09,0,0,1-.86-1.88c-.15-.74.08-1.56-.08-2.29a15.75,15.75,0,0,0-1.08-3.21c-.38-.82-1-.85-1.78-.27a15.61,15.61,0,0,1-3,1.94,2.44,2.44,0,0,1-1.84-.25c-.24-.12-.38-1-.21-1.31.63-1.19.54-2.07-.74-2.7a1.74,1.74,0,0,1-.56-.52,3.61,3.61,0,0,0-3.38-1.42,16,16,0,0,0-2.3,0,3.19,3.19,0,0,0-1.68.88,4.38,4.38,0,0,0-1.12,2.12,3.07,3.07,0,0,1-2.17,2.7,1.28,1.28,0,0,0-.4,1.17c.62,1.54.66,2.14-.68,3.15a18.91,18.91,0,0,1-3.7,1.95c-.88.39-1.51.78-1.53,1.91a7.69,7.69,0,0,1-.63,2.34,2.72,2.72,0,0,1-2.62,1.41c-.82-.32-1-1.56-.37-2.69.48-.88,1-1.77,1.45-2.71-.32-.17-.53-.38-.76-.39a9.89,9.89,0,0,1-6.62-2.88.63.63,0,0,0-.32-.19,3,3,0,0,1-2.66-2.78c-.14-.82-.23-1.39.4-1.92a15,15,0,0,1,6.63-3.68,7,7,0,0,0,2.84-1.31,3.25,3.25,0,0,1,4.13-.31,2.24,2.24,0,0,0,2.78,0,2.13,2.13,0,0,1,2.26-.38c.46.24,1.16,0,1.75,0a7.07,7.07,0,0,0-.53-1.37c-.82-1.31-.52-1.66.86-2.25a15.24,15.24,0,0,0,3.72-2.54c.93-.78,1.51-2,2.5-2.66,1.18-.75,4,.07,5.06,1.11a4.7,4.7,0,0,0,1,.8c.88.51.76,1,.06,1.57s-1.72.84-2.17,1.52c-1,1.5-2.11,1.45-3.52.93a1.92,1.92,0,0,0-2.43.88c-.32.49-.35,1.09.38,1.17a17.83,17.83,0,0,0,3.5.12c.86-.06,1.48.18,1.74.94.83,2.35,3,2.34,4.88,2.87a1.71,1.71,0,0,0,1.19-.34,13.43,13.43,0,0,0,2.51-2,3.16,3.16,0,0,0,.51-1.93c0-.46-.39-.93-.55-1.41a3.1,3.1,0,0,1,0-.81,4.1,4.1,0,0,1,.87.21c.22.11.36.36.53.55,1.22,1.36,1.54,1.38,2.95.24.2-.16.38-.34.58-.5,1.59-1.26,1.53-2.57-.2-3.58a2.67,2.67,0,0,1-1.56-2.58,2,2,0,0,0-1.26-2c-.72-.35-1.53-.53-2.24-.9s-1.58-.74-1.88-1.36a3,3,0,0,0-3.22-1.77c-2.43.08-4.86.34-7.28.18a7.73,7.73,0,0,0-6.18,2.46,1.85,1.85,0,0,0-.62,2.14c.37,1.12-.33,1.9-1.52,1.88-1.34,0-1.52-1.07-1.8-2-.67-2.1-.94-2.26-3-1.4a3.92,3.92,0,0,0-1.62,1,4.22,4.22,0,0,0-.94,2.17c-.05,1.13-.56,1.75-1.73,1.77-2.4.06-4.8.29-7.2.29a10.66,10.66,0,0,1-2.72-.65,6.25,6.25,0,0,0-2-.59,32.84,32.84,0,0,0-4.25.82c-1.81.43-3.53.5-5.1-.73a4.47,4.47,0,0,0-1.05-.44c2.11-2,4.1-4.1,6.37-5.88,4.14-3.25,8.31-6.5,12.7-9.4A129.9,129.9,0,0,1,170.36,162a117.36,117.36,0,0,1,18.81-3.78c4.26-.45,8.54-.7,12.81-1a34.9,34.9,0,0,1,4.33-.23c5.08.28,10.17.55,15.24,1a122.72,122.72,0,0,1,30.81,7.16A125.83,125.83,0,0,1,280,179c.18.12.33.26.5.39a2.45,2.45,0,0,0-.12.79c.23,1,.55,2,.75,3.08.66,3.31,1.29,6.62,1.93,9.93-1.11-.41-2.22-.84-3.34-1.23a10.19,10.19,0,0,0-2.42-.73c-2.25-.17-4.51-.2-6.77-.27a3.06,3.06,0,0,0-1,.16c-1.11.35-2.22.72-3.33,1.08a3.28,3.28,0,0,0-1.16.43c-2.47,2.21-4.91,4.46-7.37,6.69a22.31,22.31,0,0,1-2.89,2.45c-1.43.9-3,1.52-4.49,2.39a2.14,2.14,0,0,0-1,1.52,22.53,22.53,0,0,0,.7,3.86,2,2,0,0,0,2.76,1.66,6.06,6.06,0,0,0,1.88-1,1.2,1.2,0,0,1,1.81.08c.61.66,1.16,1.37,1.77,2,.81.87.73,1.52-.32,2.14-.32.19-.44.72-.64,1.1.43.13.92.45,1.3.35a30.49,30.49,0,0,1,3.37-1.06c1.7-.21,2.06-1.33,2.15-2.66a2.25,2.25,0,0,1,1.39-2.18c1.51-.72,1.58-1.88.37-3.06-1.7-1.64-1.54-2.51.47-3.7a9.1,9.1,0,0,0,2.61-2.15c1.12-1.5,2-1.9,4.07-1.09-1,.8-1.92,1.58-2.89,2.23a2.41,2.41,0,0,0-1.25,3.11,4.07,4.07,0,0,0,2.76,3.08,2.17,2.17,0,0,1,1.1,1.5,1.62,1.62,0,0,1-.91,1.3c-1.7.29-2.13,1.41-2.37,2.88a2.43,2.43,0,0,1-2,2.18c-1.79.33-3.56.74-5.35,1.08-.38.07-.95.15-1.15-.06-1-1-1.9-.84-3-.35a1.5,1.5,0,0,1-2-1.72,12.61,12.61,0,0,0,0-2c0-.39-.16-1.07-.32-1.09a2.11,2.11,0,0,0-1.4.27c-1.29.89-1.43,2.27-1.31,3.67a1.57,1.57,0,0,1-1.23,1.92c-3,.82-4.41,3.82-7.12,5-.1,0-.17.19-.24.29a3,3,0,0,1-3.43,1.49c-.34-.09-.94-.06-1.07.15-.79,1.2-2,1.09-3.17,1.26-.45.07-.83.55-1.24.84.37.43.65,1.08,1.11,1.25,3.24,1.22,4.1,2.8,3.08,6.2a1.64,1.64,0,0,1-1.18,1c-2.32-.05-4.65-.2-7-.43a2.39,2.39,0,0,0-2.59,2.39c0,1.72.22,3.49-.82,5.07a2.25,2.25,0,0,0-.23,1.37c.07.61.39,1.2.43,1.82,0,.79.33,1,1.14,1.17a31.68,31.68,0,0,1,3.2,1,7.18,7.18,0,0,0,1.93.34c.83,0,1.66-.28,2.5-.34,1.83-.12,4.46-2.55,4.49-4.19a4.22,4.22,0,0,1,2.52-3.55c1.24-.45,2.28-1.07,2.23-2.7a1.48,1.48,0,0,1,2-1.47,5.34,5.34,0,0,0,5-.86c1.24-.79,1.87-.66,2.58.61,1.16,2.08,3,3.27,5,4.4a10.83,10.83,0,0,1,2.46,2c1,1.09.62,2.16-.88,2.44-.87.16-1.77.17-2.65.29-.25,0-.46.27-.7.41.13.2.22.48.41.58a18.89,18.89,0,0,0,2.72,1.4c.27.1.81-.27,1.1-.55a16.29,16.29,0,0,0,1.18-1.43c.3-.36.78-.64.9-1a25.94,25.94,0,0,0,.5-2.76,8.69,8.69,0,0,0,1.08.32,1.13,1.13,0,0,0,.78-.07c.13-.08.15-.5.06-.68a2,2,0,0,0-.66-.75c-1.42-.86-2.87-1.65-4.28-2.53a7.52,7.52,0,0,1-1.51-1.31c-.46-.49-.79-1.1-1.24-1.6s-.95-1.18-.39-1.91,1.36-.36,1.85.16a25.53,25.53,0,0,0,5.58,4.13,3.87,3.87,0,0,1,1.83,3.05,6,6,0,0,0,.61,1.87,44,44,0,0,0,2.6,4.59,3.1,3.1,0,0,0,1.88,1.05c.27.06,1-.68,1-1.13a25.54,25.54,0,0,0,.29-4.1c0-1,.16-1.8,1.12-2a1.54,1.54,0,0,1,2,1.2,11,11,0,0,1,.2,2.15,3.69,3.69,0,0,0,2.59,3.56l-2.3,8.37a21.29,21.29,0,0,1-3.66-1.45,4.35,4.35,0,0,0-4.14-.09,1.9,1.9,0,0,0-1.19,2.06c0,.47-.07,1.25-.34,1.37s-1-.06-1.5-.22c-1-.33-2-.69-2.93-1.12-.46-.2-1.08-.49-1.24-.9a2.56,2.56,0,0,0-2.73-1.65c-.51,0-1,0-1.53,0-1.58-.13-2.88-1.16-2.82-2.25s.17-2.45.35-3.66c.2-1.42,0-1.81-1.44-1.77-1.65,0-3.3.17-4.95.32-.66.06-1.3.33-2,.38-.83.08-1.67,0-2.5.06-1,.1-2,.43-3,.46a4.58,4.58,0,0,0-2.55.94,8,8,0,0,1-6.56,1.19c-1.68-.42-1.88-.47-2.84,1a9.68,9.68,0,0,1-2.23,2.33,8.83,8.83,0,0,0-2.88,3.49,16.69,16.69,0,0,1-2.74,4.66c-1.29,1.36-3.06,2.27-4.09,4-.28.46-.74.82-1,1.28-.83,1.49-1.53,3-2.41,4.49a6.84,6.84,0,0,0-.8,6.54,6.21,6.21,0,0,1-1,6.69,2.82,2.82,0,0,0-.54,1c-.57,2.14.82,5.24,2.5,6.74a26.84,26.84,0,0,1,3.32,4.26,26.94,26.94,0,0,0,2.63,3.69,49.24,49.24,0,0,0,4.88,3.7,2.86,2.86,0,0,0,3,.24,7.75,7.75,0,0,1,5.94-.55,4.23,4.23,0,0,0,2.44-.22c2.48-.82,4.7-2.4,7.54-2.09,1.17.13,2.05.46,2.37,1.54a2.34,2.34,0,0,0,3,1.84,2.92,2.92,0,0,1,.51,0c-.87,1-1.7,2-2.62,3a156.4,156.4,0,0,1-14.94,13.71,134.68,134.68,0,0,1-20.78,13.58,127.07,127.07,0,0,1-24.83,10c-2.65.75-5.35,1.33-8,2a39.06,39.06,0,0,0,.71-4,19,19,0,0,0,0-4.64,4,4,0,0,1,.35-3c1.23-1.88,2.48-3.77,3.82-5.58a7.55,7.55,0,0,0,1.27-7.56,2.86,2.86,0,0,0-1.62-1.58,7.06,7.06,0,0,1-3.51-2.19,4.89,4.89,0,0,0-4.22-1.69,6.22,6.22,0,0,1-2.83-.57q-4.38-1.9-8.68-4a4.15,4.15,0,0,1-1.84-1.64c-.78-1.58-1.3-3.29-1.93-5a2.85,2.85,0,0,0-.44-.91c-1.75-1.89-3.77-3.37-6.49-3.22a4.63,4.63,0,0,1-4.29-2.22,9.76,9.76,0,0,0-2.29-2.1c-.73-.52-1.22-1-1.06-2,.32-1.87-.22-2.47-2.1-2.17-1.36.22-2.67.65-4,.93a2.48,2.48,0,0,1-1.24-.05,25.65,25.65,0,0,1-6-2.46,7.93,7.93,0,0,0-2.88-.93,2.62,2.62,0,0,0-1.42.31,31.56,31.56,0,0,1-3,1.37,3.61,3.61,0,0,0-2.81,2.47,2.4,2.4,0,0,1-2.47,1.67c-.43,0-.86-.06-1.28,0-1,.06-1.26.76-.8,1.6a17.9,17.9,0,0,1,1.56,3.28,6.69,6.69,0,0,1-.68,5.54,17.53,17.53,0,0,1-3.08,3.54,6.25,6.25,0,0,0-1.42,6.33,2.67,2.67,0,0,1-.18,2.23,3,3,0,0,0-.21,4.1,32.87,32.87,0,0,1,4.23,6.7c.71,1.3,1.68,2.45,2.43,3.73s1.24,2.52,1.94,3.74c1.15,2,3.14,2.83,5.1,3.82,4.4,2.22,5.2,3.87,5.15,8.46-1.13-.17-2.27-.3-3.39-.51-4.28-.82-8.62-1.44-12.83-2.55-4.92-1.29-9.78-2.88-14.59-4.58A112.45,112.45,0,0,1,84.7,332C82.32,330.61,80,329.18,77.59,327.78ZM234.88,177.86v-.61a9.51,9.51,0,0,0-2-.35,20.58,20.58,0,0,1-6.43-.77,21.49,21.49,0,0,0-5.64-1c-4.25,0-8.5.3-12.75.49a4.37,4.37,0,0,0-.5.09c-2.87.31-5.74.66-8.62.9s-5.54.19-8.27.55c-2.56.34-5.07,1.05-7.59,1.61a3.33,3.33,0,0,0-.65.38,7.6,7.6,0,0,1-2,1c-1.7.34-3.44.45-5.15.76-1.19.2-1.47.94-.91,2a3.62,3.62,0,0,0,3.53,1.58,33,33,0,0,1,4.56,0c2.5.22,3.72,1.7,2.87,4-.66,1.76-.09,2.95.69,4.28s.71,1.33-.65,1.68c-1.79.47-3.08,1.78-3,3.5.15,2.52.07,5.11,1.53,7.39.48.76.95,1.28,1.9,1.15a2.59,2.59,0,0,1,2.39.89,1.39,1.39,0,0,0,2.24.09c1.81-2,3.61-4,5.31-6.15a4,4,0,0,1,2.92-1.78c3-.24,5.9-.89,8.28-3a2.2,2.2,0,0,1,1.11-.57,39.37,39.37,0,0,0,10.34-2.67c1.94-.75,2.43-1.19,2.1-3.24-.17-1.1.26-1.6,1.22-2a7.53,7.53,0,0,0,2.71-1.82,9.09,9.09,0,0,0,2.29-4.71,1.63,1.63,0,0,1,.77-1.17c1.6-.67,3.25-1.21,4.89-1.78C233.23,178.39,234.05,178.13,234.88,177.86ZM237.19,210a4.84,4.84,0,0,0-1.25.74c-1.76,1.75-1.38,4.3.83,5.75a7.83,7.83,0,0,1,1.17.76c.75.73.53,1.25-.4,1.69a2.89,2.89,0,0,0-1.28,1.33,11.42,11.42,0,0,0-.68,2.72,5.78,5.78,0,0,0,.11,1.42,11.62,11.62,0,0,0,1.32-.17c.85-.21,1.69-.52,2.55-.71s1.59-.19,2.38-.3c1.6-.23,2.13-1.65,2.7-2.77s-1-.89-1.38-1.44c-.07-.1-.19-.17-.25-.28-.74-1.27-1.53-2.52-2.18-3.83a6.16,6.16,0,0,1-.56-2.2C240.13,211,239.2,210,237.19,210Zm-19.07-12.32c-.73.41-1.46.79-2.16,1.22a.61.61,0,0,0-.21.54c.67,1,1.19,2.25,2.12,2.74a6.53,6.53,0,0,0,3.94.6,25.26,25.26,0,0,0,5.4-1.88c1.17-.5,1.27-1.53.24-2.25a4.73,4.73,0,0,0-2.21-.74C222.91,197.68,220.57,199.16,218.12,197.66Zm-99.84,73c-2.41,0-4.29.69-5.16,1.78a3,3,0,0,0-.28,1,3.61,3.61,0,0,0,.92,0,8.7,8.7,0,0,1,2.55-.7c2.9.23,5.57,1.06,7.16,3.83a1.1,1.1,0,0,0,.7.42,10.58,10.58,0,0,0,2.53.4,6.78,6.78,0,0,0,1.92-.64,5.52,5.52,0,0,0-1-1.26c-1.3-.94-2.67-1.78-4-2.67A13.57,13.57,0,0,0,118.28,270.64ZM233.91,215.4c-.82.19-1.46.16-1.78.46-1.14,1.07-3.6,1.14-2.91,3.67,0,.16-.26.39-.24.57.05.57,0,1.31.34,1.67a1.6,1.6,0,0,0,1.56.19c1.58-.91,4.08-.88,4-3.63,0-.07.1-.14.13-.22.18-.55.67-1.32.46-1.63C235.14,215.94,234.36,215.68,233.91,215.4Zm-103.83,63-2.32.63,0,.35a10.42,10.42,0,0,0,1,.49c2.4.9,4.78.37,7.15-.16A3.91,3.91,0,0,0,137,279a7.66,7.66,0,0,0-.83-1,2,2,0,0,0-.92-.41c-1.78-.4-3.57-.77-5.73-1.23Z"/><path class="cls-4" d="M338.34,267.25c.62,5.36,1.4,10.71,1.81,16.08a93.73,93.73,0,0,1,.22,12.65c-.32,5.5-1,11-1.68,16.47a111.68,111.68,0,0,1-5.48,22.27,134.87,134.87,0,0,1-35.11,54.17,135.9,135.9,0,0,1-25.79,19,129,129,0,0,1-33.38,13.26c-5.52,1.33-11.18,2.12-16.8,3a102.38,102.38,0,0,1-19.87.94c-4.46-.17-8.9-.69-13.33-1.17a122.74,122.74,0,0,1-27.25-6.46,131.11,131.11,0,0,1-26.42-12.77A115.39,115.39,0,0,1,116,389.9c-4.45-4.33-8.63-8.95-12.91-13.45a3.25,3.25,0,0,1-.45-1c.43.16.87.3,1.29.49,2.32,1.06,4.61,2.2,7,3.19a210.22,210.22,0,0,0,23.87,8.48c1.83.53,3.69.94,5.54,1.4l.22.28a25.93,25.93,0,0,1,1,3.89c.31,2.87,1.81,5.2,3.15,7.6a11.8,11.8,0,0,0,1.83,2.44,2.93,2.93,0,0,0,3,.93c1.43-.35,2.21.18,2.89,1.48.2.38.56.86.93.93a30.65,30.65,0,0,0,4.27.58c.46,0,.94-.42,1.42-.65a11.11,11.11,0,0,0-1.3-1.08,27.27,27.27,0,0,1-3.79-2.22,14.71,14.71,0,0,1-2.39-3.1,1.51,1.51,0,0,1-.3-1.15,19.36,19.36,0,0,1,1.62-3.37c.7-1.09.65-1.76-.44-2.58a9.4,9.4,0,0,1-1.1-1.17,6.92,6.92,0,0,1,1,0c5,.78,9.94,1.68,14.94,2.32a121.21,121.21,0,0,0,13.3,1.19c7.91.15,15.85.42,23.73-.71,5.07-.73,10.17-1.35,15.19-2.34a117.34,117.34,0,0,0,32.71-11.66c5.39-2.89,10.47-6.36,15.69-9.56a4.85,4.85,0,0,0,3.62.77,29.75,29.75,0,0,1,4.38-.77c3.26-.26,6.18-1.13,8.27-3.86.9-1.17,1.81-2.33,2.72-3.5a6.53,6.53,0,0,1,.95-1.19,6.7,6.7,0,0,0,2.3-4.15,4.91,4.91,0,0,1,2.3-3.21A5.17,5.17,0,0,0,294,353.3c1-2,.3-4.06-.15-6.08a6.66,6.66,0,0,1,.8-2c.9-1,2-2,2.95-2.92,3.66-1.2,5.33-3.7,5.11-7.64l.07-.29c1.81-3.13,3.74-6.18,5.39-9.38a114.41,114.41,0,0,0,8.29-21.2c.76-2.68,1.27-5.43,1.9-8.14.19-.85.37-1.69.56-2.53.5-3.13,1-6.26,1.51-9.39l0-.27c1.11-.62,2.28-1.17,3.33-1.89a17.79,17.79,0,0,0,4.12-3.17,23.56,23.56,0,0,0,2.61-5.07,1.68,1.68,0,0,0,0-1.44c-.77-1.06-1.33-2.44-3-2.4-.33,0-.7-.43-1-.73s-.66-.89-1-1.28c-.91-1-1.53-.93-2.5,0a17.72,17.72,0,0,1-1.48,1.1l-.2-3.65a14.9,14.9,0,0,0,3.08-.26c.87-.25,1.2-.11,1.58.66.26.52.76,1.2,1.26,1.29a70.31,70.31,0,0,0,7.52,1.14A15.84,15.84,0,0,0,338.34,267.25Zm-33,83.42.24.12c0,.55.05,1.1.14,1.65a9.57,9.57,0,0,0,.45,1.73,2.76,2.76,0,0,0,3.47,1.72c2.06-.51,2.59-2.15,3.15-3.83,1.28-3.82,2.25-7.8,3.94-11.43,1.26-2.72.75-5-.15-7.46-.4-1.08-.95-1.13-1.6-.16s-1,1.76-1.52,2.66c-.82,1.51-1.84,2.86-3.64,3.13a2.94,2.94,0,0,0-2.53,2.49,5.81,5.81,0,0,0,0,2.78,4.84,4.84,0,0,1-.79,3.86A18.79,18.79,0,0,0,305.32,350.67Z"/><path class="cls-5" d="M114.21,194a4.47,4.47,0,0,1,1.05.44c1.57,1.23,3.29,1.16,5.1.73a32.84,32.84,0,0,1,4.25-.82,6.25,6.25,0,0,1,2,.59,10.66,10.66,0,0,0,2.72.65c2.4,0,4.8-.23,7.2-.29,1.17,0,1.68-.64,1.73-1.77a4.22,4.22,0,0,1,.94-2.17,3.92,3.92,0,0,1,1.62-1c2.1-.86,2.37-.7,3,1.4.28.92.46,2,1.8,2,1.19,0,1.89-.76,1.52-1.88a1.85,1.85,0,0,1,.62-2.14A7.73,7.73,0,0,1,154,187.3c2.42.16,4.85-.1,7.28-.18a3,3,0,0,1,3.22,1.77c.3.62,1.19,1,1.88,1.36s1.52.55,2.24.9a2,2,0,0,1,1.26,2,2.67,2.67,0,0,0,1.56,2.58c1.73,1,1.79,2.32.2,3.58-.2.16-.38.34-.58.5-1.41,1.14-1.73,1.12-2.95-.24-.17-.19-.31-.44-.53-.55a4.1,4.1,0,0,0-.87-.21,3.1,3.1,0,0,0,0,.81c.16.48.56,1,.55,1.41a3.16,3.16,0,0,1-.51,1.93,13.43,13.43,0,0,1-2.51,2,1.71,1.71,0,0,1-1.19.34c-1.85-.53-4-.52-4.88-2.87-.26-.76-.88-1-1.74-.94a17.83,17.83,0,0,1-3.5-.12c-.73-.08-.7-.68-.38-1.17a1.92,1.92,0,0,1,2.43-.88c1.41.52,2.55.57,3.52-.93.45-.68,1.46-1,2.17-1.52s.82-1.06-.06-1.57a4.7,4.7,0,0,1-1-.8c-1-1-3.88-1.86-5.06-1.11-1,.64-1.57,1.88-2.5,2.66a15.24,15.24,0,0,1-3.72,2.54c-1.38.59-1.68.94-.86,2.25a7.07,7.07,0,0,1,.53,1.37c-.59,0-1.29.24-1.75,0a2.13,2.13,0,0,0-2.26.38,2.24,2.24,0,0,1-2.78,0,3.25,3.25,0,0,0-4.13.31,7,7,0,0,1-2.84,1.31,15,15,0,0,0-6.63,3.68c-.63.53-.54,1.1-.4,1.92a3,3,0,0,0,2.66,2.78.63.63,0,0,1,.32.19,9.89,9.89,0,0,0,6.62,2.88c.23,0,.44.22.76.39-.5.94-1,1.83-1.45,2.71-.61,1.13-.45,2.37.37,2.69a2.72,2.72,0,0,0,2.62-1.41,7.69,7.69,0,0,0,.63-2.34c0-1.13.65-1.52,1.53-1.91a18.91,18.91,0,0,0,3.7-1.95c1.34-1,1.3-1.61.68-3.15a1.28,1.28,0,0,1,.4-1.17,3.07,3.07,0,0,0,2.17-2.7,4.38,4.38,0,0,1,1.12-2.12,3.19,3.19,0,0,1,1.68-.88,16,16,0,0,1,2.3,0,3.61,3.61,0,0,1,3.38,1.42,1.74,1.74,0,0,0,.56.52c1.28.63,1.37,1.51.74,2.7-.17.33,0,1.19.21,1.31a2.44,2.44,0,0,0,1.84.25,15.61,15.61,0,0,0,3-1.94c.76-.58,1.4-.55,1.78.27a15.75,15.75,0,0,1,1.08,3.21c.16.73-.07,1.55.08,2.29a3.09,3.09,0,0,0,.86,1.88,6.69,6.69,0,0,1,2.28,2.18,2.75,2.75,0,0,1,.45,2.48c-.24.77-.46,1.55-.69,2.33a1.53,1.53,0,0,0,.91,2.09c.8.32.81.74.58,1.5a5.24,5.24,0,0,0,0,2.09c.16,1.2-.49,1.92-1.66,1.73a2,2,0,0,1-.49-.15,11.11,11.11,0,0,0-5.42-.85c-1.37.13-1.67-.5-1-1.73.32-.59.89-1,1.25-1.6a4,4,0,0,0,.3-1.18,7.53,7.53,0,0,0-1.14-.19c-1.54,0-3.07.13-4.6.14-1.09,0-1.8.21-1.7,1.58a2.45,2.45,0,0,1-.72,1.55,2.32,2.32,0,0,0-.67,2.67c.31.57,1.3.77,2,1.1.22.11.56,0,.74.17s.71.59.71.89a1.19,1.19,0,0,1-.75.83,12.82,12.82,0,0,1-3,.6,3.32,3.32,0,0,0-2.4,1.2c-.69.72-1.26,1-2.16-.06-.45-.55-1.9-.6-2.78-.39a10.7,10.7,0,0,0-3,1.6,1.73,1.73,0,0,0-.81,1.09c0,1.8-1.47,2-2.63,2.21a7,7,0,0,0-3.92,2.22c-1.9,2.07-3.88,4-4.73,6.88a5.74,5.74,0,0,1-3.11,3.24,51.53,51.53,0,0,0-5.43,3.36,4.91,4.91,0,0,0-2,5.41c.16.79.42,1.57.52,2.37a4.65,4.65,0,0,1,0,2.26,10.91,10.91,0,0,1-1.71,2.24c-.55-.6-1.32-1.11-1.58-1.81a15.62,15.62,0,0,1-.88-3.94c-.14-1.43-.43-1.83-1.94-1.91a3,3,0,0,1-1.06-.29c-.61-.3-1.25-1-1.77-.91a8.4,8.4,0,0,0-3.48,1.28,2.56,2.56,0,0,1-1.9.66,8.87,8.87,0,0,1-2-.28c-3.69-1.34-6.09,1.18-8.76,2.87a1.52,1.52,0,0,0-.57.82c-.66,2.23-1.34,4.46-1.9,6.71a8.39,8.39,0,0,0,.83,6.05,3.61,3.61,0,0,0,3.56,2h1.28c2.65,0,3.2-.32,3.75-2.95a2.32,2.32,0,0,1,2.05-2.07,15.51,15.51,0,0,1,3-.32c1.13,0,1.36.57.82,1.56a11.17,11.17,0,0,0-.43,1.06c-.61,1.48-1.14,3-1.85,4.45-.87,1.76-.26,2.84,1.65,2.9a13.28,13.28,0,0,1,3.84.51c1.34.46,1.53,1.44,1.11,2.81-.5,1.67-1,3.35-1.31,5.06s2.08,3.78,3.87,3.65,1.86,0,1.29,1.63c-.65,1.85-.8,1.89-2.43.8a2.7,2.7,0,0,0-1-.44A3,3,0,0,1,112,296a3.7,3.7,0,0,0-1.62-1.17,3.28,3.28,0,0,1-2-2.52c-.36-2.1-1.38-3.43-3.67-3.77a9.25,9.25,0,0,1-6.41-3.83,2.33,2.33,0,0,0-2.94-.89,4.28,4.28,0,0,1-3.66-.24c-2.48-1.27-5-2.44-7.49-3.75a11.75,11.75,0,0,1-2.5-2,2.38,2.38,0,0,1-.56-2.82,3.33,3.33,0,0,0-.35-3.26,18.91,18.91,0,0,0-3.25-4.53c-.74-.68-.82-2.08-1.24-3.14-.2-.5-.48-1-.73-1.47.54-2.36,1-4.74,1.63-7.07A131,131,0,0,1,87.9,228.54a125.83,125.83,0,0,1,16.68-24.46C107.65,200.6,111,197.37,114.21,194Z"/><path class="cls-5" d="M320.5,283.51l0,.27a8.54,8.54,0,0,1-1.84,1.49c-2.77,1.19-5.61,2.23-8.4,3.38-1.72.71-2.43.48-3.18-1.23-.83-1.87-1.53-3.8-2.47-5.61a24.2,24.2,0,0,0-3.24-5.13,6.94,6.94,0,0,1-1.93-3.16,10.68,10.68,0,0,0-1.18-3.07c-1-1.58-2.26-3-3.18-4.56a60.45,60.45,0,0,1-3.58-7,5.53,5.53,0,0,1,.11-3c.42-2.12,1.15-4.18,1.41-6.31.2-1.6-1-2.25-2.4-1.48a3,3,0,0,1-2.91.09c-.66-.31-1.63-.68-2.15-.41a2.8,2.8,0,0,1-2.54-.1,10.79,10.79,0,0,0-1.73-.32,3.69,3.69,0,0,1-2.59-3.56,11,11,0,0,0-.2-2.15,1.54,1.54,0,0,0-2-1.2c-1,.23-1.13,1.08-1.12,2a25.54,25.54,0,0,1-.29,4.1c-.07.45-.76,1.19-1,1.13a3.1,3.1,0,0,1-1.88-1.05,44,44,0,0,1-2.6-4.59,6,6,0,0,1-.61-1.87,3.87,3.87,0,0,0-1.83-3.05,25.53,25.53,0,0,1-5.58-4.13c-.49-.52-1.21-1-1.85-.16s-.15,1.33.39,1.91.78,1.11,1.24,1.6a7.52,7.52,0,0,0,1.51,1.31c1.41.88,2.86,1.67,4.28,2.53a2,2,0,0,1,.66.75c.09.18.07.6-.06.68a1.13,1.13,0,0,1-.78.07,8.69,8.69,0,0,1-1.08-.32,25.94,25.94,0,0,1-.5,2.76c-.12.39-.6.67-.9,1a16.29,16.29,0,0,1-1.18,1.43c-.29.28-.83.65-1.1.55a18.89,18.89,0,0,1-2.72-1.4c-.19-.1-.28-.38-.41-.58.24-.14.45-.37.7-.41.88-.12,1.78-.13,2.65-.29,1.5-.28,1.91-1.35.88-2.44a10.83,10.83,0,0,0-2.46-2c-2-1.13-3.86-2.32-5-4.4-.71-1.27-1.34-1.4-2.58-.61a5.34,5.34,0,0,1-5,.86,1.48,1.48,0,0,0-2,1.47c.05,1.63-1,2.25-2.23,2.7a4.22,4.22,0,0,0-2.52,3.55c0,1.64-2.66,4.07-4.49,4.19-.84.06-1.67.32-2.5.34a7.18,7.18,0,0,1-1.93-.34,31.68,31.68,0,0,0-3.2-1c-.81-.13-1.1-.38-1.14-1.17,0-.62-.36-1.21-.43-1.82a2.25,2.25,0,0,1,.23-1.37c1-1.58.85-3.35.82-5.07a2.39,2.39,0,0,1,2.59-2.39c2.32.23,4.65.38,7,.43a1.64,1.64,0,0,0,1.18-1c1-3.4.16-5-3.08-6.2-.46-.17-.74-.82-1.11-1.25.41-.29.79-.77,1.24-.84,1.17-.17,2.38-.06,3.17-1.26.13-.21.73-.24,1.07-.15a3,3,0,0,0,3.43-1.49c.07-.1.14-.24.24-.29,2.71-1.2,4.15-4.2,7.12-5a1.57,1.57,0,0,0,1.23-1.92c-.12-1.4,0-2.78,1.31-3.67a2.11,2.11,0,0,1,1.4-.27c.16,0,.3.7.32,1.09a12.61,12.61,0,0,1,0,2,1.5,1.5,0,0,0,2,1.72c1.13-.49,2.07-.61,3,.35.2.21.77.13,1.15.06,1.79-.34,3.56-.75,5.35-1.08a2.43,2.43,0,0,0,2-2.18c.24-1.47.67-2.59,2.37-2.88a1.62,1.62,0,0,0,.91-1.3,2.17,2.17,0,0,0-1.1-1.5,4.07,4.07,0,0,1-2.76-3.08,2.41,2.41,0,0,1,1.25-3.11c1-.65,1.86-1.43,2.89-2.23-2.06-.81-2.95-.41-4.07,1.09a9.1,9.1,0,0,1-2.61,2.15c-2,1.19-2.17,2.06-.47,3.7,1.21,1.18,1.14,2.34-.37,3.06a2.25,2.25,0,0,0-1.39,2.18c-.09,1.33-.45,2.45-2.15,2.66a30.49,30.49,0,0,0-3.37,1.06c-.38.1-.87-.22-1.3-.35.2-.38.32-.91.64-1.1,1.05-.62,1.13-1.27.32-2.14-.61-.65-1.16-1.36-1.77-2a1.2,1.2,0,0,0-1.81-.08,6.06,6.06,0,0,1-1.88,1,2,2,0,0,1-2.76-1.66,22.53,22.53,0,0,1-.7-3.86,2.14,2.14,0,0,1,1-1.52c1.45-.87,3.06-1.49,4.49-2.39a22.31,22.31,0,0,0,2.89-2.45c2.46-2.23,4.9-4.48,7.37-6.69a3.28,3.28,0,0,1,1.16-.43c1.11-.36,2.22-.73,3.33-1.08a3.06,3.06,0,0,1,1-.16c2.26.07,4.52.1,6.77.27a10.19,10.19,0,0,1,2.42.73c1.12.39,2.23.82,3.34,1.23,2.43.72,4.85,1.46,7.28,2.16,1.51.43,3,.8,4.39-.5a2.47,2.47,0,0,1,2.29,0,3,3,0,0,0,3,.38l1,.94.26.36v0l.26.52v0a2.32,2.32,0,0,0,.18.6,75.15,75.15,0,0,1,7.78,14.21c2.17,5.4,4.29,10.84,6,16.39a112.72,112.72,0,0,1,4.68,23c.44,4.47.68,9,1,13.45-2-1-4.35-1.57-5-4.18a2,2,0,0,0-.57-.83c-.66-.67-1.43-1.21-2.36-.59s-.62,1.62-.09,2.25a25.15,25.15,0,0,0,3.15,3c.82.67,1.86,1.13,1.82,2.4-.07,2-.15,2,2.18,2,.3,0,.6,0,.89,0,0,.56,0,1.11,0,1.66Q320.87,277,320.5,283.51Z"/><path class="cls-5" d="M74.72,266.86c.38.75.71,1.53,1.14,2.26s.71,1.42,0,1.89c-.26.16-1-.44-1.5-.7a1.37,1.37,0,0,1-.28-.26Z"/><path class="cls-6" d="M301.52,197.1l-.26-.52Z"/><path class="cls-7" d="M102.16,375.17l.52.27Z"/><path class="cls-6" d="M301.26,196.6l-.26-.36Z"/><path class="cls-5" d="M319,293.17c-.19.84-.37,1.68-.56,2.53-1,2.15-2,4.31-3.09,6.44-1.31,2.64-3,5-5.75,6.29a4.15,4.15,0,0,0-1.34,1.17,36.52,36.52,0,0,1-3.67,4.57c-1.89,1.69-2.5,4-3.69,6.06a2.12,2.12,0,0,0-.06,1.13q.19,2.28.45,4.56a3.64,3.64,0,0,0,.38,1.57,6.85,6.85,0,0,1,1.17,6,3,3,0,0,0,0,.89l-.07.29q-2.56,3.81-5.11,7.64c-1,1-2.05,1.87-2.95,2.92a6.66,6.66,0,0,0-.8,2c-.47.42-1,.81-1.41,1.27-1.93,2.15-3.69,4.46-5.77,6.44-4.25,4-8.62,7.92-13,11.76-1.78,1.54-3.82,2.77-5.74,4.15-.25-1.1-.58-2.19-.74-3.3-.37-2.55-.87-5.07-2.74-7a5.89,5.89,0,0,1-1.63-3.91c-.14-1.94-.33-3.88-.53-5.82a2.82,2.82,0,0,0-.31-1c-1-1.88-1.85-3.83-3-5.6a6,6,0,0,1-.69-4.54,45.41,45.41,0,0,1,1.33-5.19,3.13,3.13,0,0,1,.79-1.14c1.12-1.12,1-2.45.72-3.81-.11-.5-.44-.95-.52-1.44-.37-2.38-.59-4.79-1.82-7-.59-1.06-1-2.24-1.62-3.26s-1.55-1.83-2.18-2.84a4.75,4.75,0,0,1-.95-2.54,45.51,45.51,0,0,1,1.08-5.34,2.39,2.39,0,0,0-1.92-3.17,6.51,6.51,0,0,0-1.4,0,2.92,2.92,0,0,0-.51,0,2.34,2.34,0,0,1-3-1.84c-.32-1.08-1.2-1.41-2.37-1.54-2.84-.31-5.06,1.27-7.54,2.09a4.23,4.23,0,0,1-2.44.22,7.75,7.75,0,0,0-5.94.55,2.86,2.86,0,0,1-3-.24,49.24,49.24,0,0,1-4.88-3.7,26.94,26.94,0,0,1-2.63-3.69,26.84,26.84,0,0,0-3.32-4.26c-1.68-1.5-3.07-4.6-2.5-6.74a2.82,2.82,0,0,1,.54-1,6.21,6.21,0,0,0,1-6.69,6.84,6.84,0,0,1,.8-6.54c.88-1.45,1.58-3,2.41-4.49.26-.46.72-.82,1-1.28,1-1.68,2.8-2.59,4.09-4a16.69,16.69,0,0,0,2.74-4.66,8.83,8.83,0,0,1,2.88-3.49,9.68,9.68,0,0,0,2.23-2.33c1-1.43,1.16-1.38,2.84-1a8,8,0,0,0,6.56-1.19,4.58,4.58,0,0,1,2.55-.94c1,0,2-.36,3-.46.83-.09,1.67,0,2.5-.06.66-.05,1.3-.32,2-.38,1.65-.15,3.3-.29,4.95-.32,1.42,0,1.64.35,1.44,1.77-.18,1.21-.29,2.44-.35,3.66s1.24,2.12,2.82,2.25c.5,0,1,0,1.53,0a2.56,2.56,0,0,1,2.73,1.65c.16.41.78.7,1.24.9,1,.43,1.94.79,2.93,1.12.49.16,1.11.4,1.5.22s.37-.9.34-1.37a1.9,1.9,0,0,1,1.19-2.06,4.35,4.35,0,0,1,4.14.09,21.29,21.29,0,0,0,3.66,1.45,26.26,26.26,0,0,1,3.34.82,3.35,3.35,0,0,0,3.1-.23,3.54,3.54,0,0,1,2.63.09,4.22,4.22,0,0,1,2.65,3.36,40.81,40.81,0,0,0,1.13,4.92,15.83,15.83,0,0,0,1.52,3.09c.75,1.33,1.62,2.58,2.35,3.92a10.93,10.93,0,0,1,1.39,3.23,9.82,9.82,0,0,0,2,4.47,6,6,0,0,1,1.12,2.48,4.52,4.52,0,0,0,2.48,3.28,9.26,9.26,0,0,1,4.38,5.26c.46,1.54,1.41,2.23,3,1.82,1.89-.48,3.77-1,5.67-1.5.93-.23,1.88-.36,2.82-.53Z"/><path class="cls-5" d="M180.6,346.23c-.43,1.08-.92,2.15-1.28,3.25a4.13,4.13,0,0,1-2.89,2.35c-2.58.12-4.69,1.43-6.77,2.74a2.88,2.88,0,0,0-1.09,3.07c.12,1.05.15,2.11.21,3.17a1.11,1.11,0,0,1-.06.63c-.65,1.12-1.34,2.23-2,3.34a40.25,40.25,0,0,0-2.18,3.67,12.3,12.3,0,0,1-3,4.53,6.05,6.05,0,0,0-1.68,3.21,3.62,3.62,0,0,1-2.71,3.05,3.59,3.59,0,0,0-2.73,2.66,41.35,41.35,0,0,1-2.34,5.18,3.19,3.19,0,0,0-.21.59c-.21.92-.42,1.85-.61,2.77-.08.37-.12.75-.18,1.13-.37-.06-.75-.09-1.12-.18-3.15-.69-6.29-1.4-9.43-2.1l-.22-.28a13,13,0,0,0-1.38-3.37,12.29,12.29,0,0,1-2.17-5.23c-.26-1.19-.94-2.29-1.11-3.47a10,10,0,0,1,.2-3.61,15.14,15.14,0,0,0-.43-7.65,20.86,20.86,0,0,1-.56-6.37c.14-3.58-.28-7.18-.46-10.78.05-4.59-.75-6.24-5.15-8.46-2-1-4-1.83-5.1-3.82-.7-1.22-1.23-2.54-1.94-3.74s-1.72-2.43-2.43-3.73a32.87,32.87,0,0,0-4.23-6.7,3,3,0,0,1,.21-4.1,2.67,2.67,0,0,0,.18-2.23,6.25,6.25,0,0,1,1.42-6.33,17.53,17.53,0,0,0,3.08-3.54,6.69,6.69,0,0,0,.68-5.54,17.9,17.9,0,0,0-1.56-3.28c-.46-.84-.17-1.54.8-1.6.42,0,.85.05,1.28,0a2.4,2.4,0,0,0,2.47-1.67,3.61,3.61,0,0,1,2.81-2.47,31.56,31.56,0,0,0,3-1.37,2.62,2.62,0,0,1,1.42-.31,7.93,7.93,0,0,1,2.88.93,25.65,25.65,0,0,0,6,2.46,2.48,2.48,0,0,0,1.24.05c1.35-.28,2.66-.71,4-.93,1.88-.3,2.42.3,2.1,2.17-.16.94.33,1.46,1.06,2a9.76,9.76,0,0,1,2.29,2.1,4.63,4.63,0,0,0,4.29,2.22c2.72-.15,4.74,1.33,6.49,3.22a2.85,2.85,0,0,1,.44.91c.63,1.66,1.15,3.37,1.93,5a4.15,4.15,0,0,0,1.84,1.64q4.29,2.11,8.68,4a6.22,6.22,0,0,0,2.83.57,4.89,4.89,0,0,1,4.22,1.69,7.06,7.06,0,0,0,3.51,2.19,2.86,2.86,0,0,1,1.62,1.58,7.55,7.55,0,0,1-1.27,7.56c-1.34,1.81-2.59,3.7-3.82,5.58a4,4,0,0,0-.35,3,19,19,0,0,1,0,4.64A39.06,39.06,0,0,1,180.6,346.23Z"/><path class="cls-5" d="M234.88,177.86c-.83.27-1.65.53-2.47.82-1.64.57-3.29,1.11-4.89,1.78a1.63,1.63,0,0,0-.77,1.17,9.09,9.09,0,0,1-2.29,4.71,7.53,7.53,0,0,1-2.71,1.82c-1,.44-1.39.94-1.22,2,.33,2.05-.16,2.49-2.1,3.24a39.37,39.37,0,0,1-10.34,2.67,2.2,2.2,0,0,0-1.11.57c-2.38,2.07-5.26,2.72-8.28,3a4,4,0,0,0-2.92,1.78c-1.7,2.11-3.5,4.14-5.31,6.15a1.39,1.39,0,0,1-2.24-.09,2.59,2.59,0,0,0-2.39-.89c-1,.13-1.42-.39-1.9-1.15-1.46-2.28-1.38-4.87-1.53-7.39-.1-1.72,1.19-3,3-3.5,1.36-.35,1.38-.45.65-1.68s-1.35-2.52-.69-4.28c.85-2.3-.37-3.78-2.87-4a33,33,0,0,0-4.56,0,3.62,3.62,0,0,1-3.53-1.58c-.56-1.09-.28-1.83.91-2,1.71-.31,3.45-.42,5.15-.76a7.6,7.6,0,0,0,2-1,3.33,3.33,0,0,1,.65-.38c2.52-.56,5-1.27,7.59-1.61,2.73-.36,5.52-.32,8.27-.55s5.75-.59,8.62-.9a4.37,4.37,0,0,1,.5-.09c4.25-.19,8.5-.49,12.75-.49a21.49,21.49,0,0,1,5.64,1,20.58,20.58,0,0,0,6.43.77,9.51,9.51,0,0,1,2,.35Z"/><path class="cls-5" d="M237.19,210c2,.05,2.94,1,3.08,2.71a6.16,6.16,0,0,0,.56,2.2c.65,1.31,1.44,2.56,2.18,3.83.06.11.18.18.25.28.42.55,1.9.4,1.38,1.44s-1.1,2.54-2.7,2.77c-.79.11-1.6.14-2.38.3s-1.7.5-2.55.71a11.62,11.62,0,0,1-1.32.17,5.78,5.78,0,0,1-.11-1.42,11.42,11.42,0,0,1,.68-2.72,2.89,2.89,0,0,1,1.28-1.33c.93-.44,1.15-1,.4-1.69a7.83,7.83,0,0,0-1.17-.76c-2.21-1.45-2.59-4-.83-5.75A4.84,4.84,0,0,1,237.19,210Z"/><path class="cls-5" d="M218.12,197.66c2.45,1.5,4.79,0,7.12.23a4.73,4.73,0,0,1,2.21.74c1,.72.93,1.75-.24,2.25a25.26,25.26,0,0,1-5.4,1.88,6.53,6.53,0,0,1-3.94-.6c-.93-.49-1.45-1.78-2.12-2.74a.61.61,0,0,1,.21-.54C216.66,198.45,217.39,198.07,218.12,197.66Z"/><path class="cls-5" d="M118.28,270.64a13.57,13.57,0,0,1,5.37,2.2c1.34.89,2.71,1.73,4,2.67a5.52,5.52,0,0,1,1,1.26,6.78,6.78,0,0,1-1.92.64,10.58,10.58,0,0,1-2.53-.4,1.1,1.1,0,0,1-.7-.42c-1.59-2.77-4.26-3.6-7.16-3.83a8.7,8.7,0,0,0-2.55.7,3.61,3.61,0,0,1-.92,0,3,3,0,0,1,.28-1C114,271.33,115.87,270.63,118.28,270.64Z"/><path class="cls-5" d="M233.91,215.4c.45.28,1.23.54,1.58,1.08.21.31-.28,1.08-.46,1.63,0,.08-.13.15-.13.22.06,2.75-2.44,2.72-4,3.63a1.6,1.6,0,0,1-1.56-.19c-.34-.36-.29-1.1-.34-1.67,0-.18.28-.41.24-.57-.69-2.53,1.77-2.6,2.91-3.67C232.45,215.56,233.09,215.59,233.91,215.4Z"/><path class="cls-5" d="M130.08,278.42l-.59-2.09c2.16.46,3.95.83,5.73,1.23a2,2,0,0,1,.92.41,7.66,7.66,0,0,1,.83,1,3.91,3.91,0,0,1-1.09.71c-2.37.53-4.75,1.06-7.15.16a10.42,10.42,0,0,1-1-.49l0-.35Z"/><path class="cls-8" d="M140.33,389c-1.85-.46-3.71-.87-5.54-1.4a210.22,210.22,0,0,1-23.87-8.48c-2.35-1-4.64-2.13-7-3.19-.42-.19-.86-.33-1.29-.49h0l-.52-.27c-3-4-6.09-8-8.79-12.16A151.65,151.65,0,0,1,86,349.78a126.81,126.81,0,0,1-8.28-21.37,3.29,3.29,0,0,1-.08-.63c2.37,1.4,4.73,2.83,7.11,4.21a112.45,112.45,0,0,0,18.91,8.9c4.81,1.7,9.67,3.29,14.59,4.58,4.21,1.11,8.55,1.73,12.83,2.55,1.12.21,2.26.34,3.39.51.18,3.6.6,7.2.46,10.78a20.86,20.86,0,0,0,.56,6.37,15.14,15.14,0,0,1,.43,7.65,10,10,0,0,0-.2,3.61c.17,1.18.85,2.28,1.11,3.47a12.29,12.29,0,0,0,2.17,5.23A13,13,0,0,1,140.33,389Z"/><path class="cls-8" d="M300,195.3a3,3,0,0,1-3-.38,2.47,2.47,0,0,0-2.29,0c-1.43,1.3-2.88.93-4.39.5-2.43-.7-4.85-1.44-7.28-2.16-.64-3.31-1.27-6.62-1.93-9.93-.2-1-.52-2.05-.75-3.08a2.45,2.45,0,0,1,.12-.79A111.62,111.62,0,0,1,300,195.3Z"/><path class="cls-8" d="M251.79,304a6.51,6.51,0,0,1,1.4,0,2.39,2.39,0,0,1,1.92,3.17,45.51,45.51,0,0,0-1.08,5.34,4.75,4.75,0,0,0,.95,2.54c.63,1,1.55,1.83,2.18,2.84s1,2.2,1.62,3.26c1.23,2.17,1.45,4.58,1.82,7,.08.49.41.94.52,1.44.31,1.36.4,2.69-.72,3.81a3.13,3.13,0,0,0-.79,1.14,45.41,45.41,0,0,0-1.33,5.19,6,6,0,0,0,.69,4.54c1.16,1.77,2,3.72,3,5.6a2.82,2.82,0,0,1,.31,1c.2,1.94.39,3.88.53,5.82a5.89,5.89,0,0,0,1.63,3.91c1.87,1.92,2.37,4.44,2.74,7,.16,1.11.49,2.2.74,3.3a1.93,1.93,0,0,0,0,.24c-5.22,3.2-10.3,6.67-15.69,9.56a117.34,117.34,0,0,1-32.71,11.66c-5,1-10.12,1.61-15.19,2.34-7.88,1.13-15.82.86-23.73.71a121.21,121.21,0,0,1-13.3-1.19c-5-.64-10-1.54-14.94-2.32a6.92,6.92,0,0,0-1,0l-.26-.25c.06-.38.1-.76.18-1.13.19-.92.4-1.85.61-2.77a3.19,3.19,0,0,1,.21-.59,41.35,41.35,0,0,0,2.34-5.18,3.59,3.59,0,0,1,2.73-2.66,3.62,3.62,0,0,0,2.71-3.05,6.05,6.05,0,0,1,1.68-3.21,12.3,12.3,0,0,0,3-4.53,40.25,40.25,0,0,1,2.18-3.67c.67-1.11,1.36-2.22,2-3.34a1.11,1.11,0,0,0,.06-.63c-.06-1.06-.09-2.12-.21-3.17a2.88,2.88,0,0,1,1.09-3.07c2.08-1.31,4.19-2.62,6.77-2.74a4.13,4.13,0,0,0,2.89-2.35c.36-1.1.85-2.17,1.28-3.25,2.67-.66,5.37-1.24,8-2a127.07,127.07,0,0,0,24.83-10,134.68,134.68,0,0,0,20.78-13.58A156.4,156.4,0,0,0,249.17,307C250.09,306,250.92,305,251.79,304Z"/><path class="cls-8" d="M319,293.17l-.37-2.95c-.94.17-1.89.3-2.82.53-1.9.48-3.78,1-5.67,1.5-1.61.41-2.56-.28-3-1.82a9.26,9.26,0,0,0-4.38-5.26,4.52,4.52,0,0,1-2.48-3.28,6,6,0,0,0-1.12-2.48,9.82,9.82,0,0,1-2-4.47,10.93,10.93,0,0,0-1.39-3.23c-.73-1.34-1.6-2.59-2.35-3.92a15.83,15.83,0,0,1-1.52-3.09,40.81,40.81,0,0,1-1.13-4.92,4.22,4.22,0,0,0-2.65-3.36,3.54,3.54,0,0,0-2.63-.09,3.35,3.35,0,0,1-3.1.23,26.26,26.26,0,0,0-3.34-.82q1.16-4.19,2.3-8.37a10.79,10.79,0,0,1,1.73.32,2.8,2.8,0,0,0,2.54.1c.52-.27,1.49.1,2.15.41a3,3,0,0,0,2.91-.09c1.41-.77,2.6-.12,2.4,1.48-.26,2.13-1,4.19-1.41,6.31a5.53,5.53,0,0,0-.11,3,60.45,60.45,0,0,0,3.58,7c.92,1.6,2.21,3,3.18,4.56a10.68,10.68,0,0,1,1.18,3.07,6.94,6.94,0,0,0,1.93,3.16,24.2,24.2,0,0,1,3.24,5.13c.94,1.81,1.64,3.74,2.47,5.61.75,1.71,1.46,1.94,3.18,1.23,2.79-1.15,5.63-2.19,8.4-3.38a8.54,8.54,0,0,0,1.84-1.49C320,286.91,319.46,290,319,293.17Z"/><path class="cls-8" d="M302.82,334.42a3,3,0,0,1,0-.89,6.85,6.85,0,0,0-1.17-6,3.64,3.64,0,0,1-.38-1.57q-.25-2.28-.45-4.56a2.12,2.12,0,0,1,.06-1.13c1.19-2,1.8-4.37,3.69-6.06a36.52,36.52,0,0,0,3.67-4.57,4.15,4.15,0,0,1,1.34-1.17c2.79-1.31,4.44-3.65,5.75-6.29,1.06-2.13,2.06-4.29,3.09-6.44-.63,2.71-1.14,5.46-1.9,8.14a114.41,114.41,0,0,1-8.29,21.2C306.56,328.24,304.63,331.29,302.82,334.42Z"/><path class="cls-8" d="M321.47,268.6l-.25.24c-.29,0-.59,0-.89,0-2.33,0-2.25,0-2.18-2,0-1.27-1-1.73-1.82-2.4a25.15,25.15,0,0,1-3.15-3c-.53-.63-.87-1.6.09-2.25s1.7-.08,2.36.59a2,2,0,0,1,.57.83c.67,2.61,3,3.2,5,4.18a1.05,1.05,0,0,1,0,.19C321.34,266.17,321.4,267.38,321.47,268.6Z"/><path class="cls-9" d="M321.22,264.76c-.33-4.49-.57-9-1-13.45a112.72,112.72,0,0,0-4.68-23c-1.75-5.55-3.87-11-6-16.39a75.15,75.15,0,0,0-7.78-14.21,2.32,2.32,0,0,1-.18-.6,5.9,5.9,0,0,1,1,.65,132.29,132.29,0,0,1,32.05,54.16c1.48,5.05,2.51,10.24,3.74,15.36a15.84,15.84,0,0,1-3.63.53,70.31,70.31,0,0,1-7.52-1.14c-.5-.09-1-.77-1.26-1.29-.38-.77-.71-.91-1.58-.66a14.9,14.9,0,0,1-3.08.26A1.05,1.05,0,0,0,321.22,264.76Z"/><path class="cls-9" d="M267.94,371.08a1.93,1.93,0,0,1,0-.24c1.92-1.38,4-2.61,5.74-4.15,4.42-3.84,8.79-7.74,13-11.76,2.08-2,3.84-4.29,5.77-6.44.42-.46.94-.85,1.41-1.27.45,2,1.18,4.06.15,6.08a5.17,5.17,0,0,1-1.56,1.87,4.91,4.91,0,0,0-2.3,3.21,6.7,6.7,0,0,1-2.3,4.15,6.53,6.53,0,0,0-.95,1.19c-.91,1.17-1.82,2.33-2.72,3.5-2.09,2.73-5,3.6-8.27,3.86a29.75,29.75,0,0,0-4.38.77A4.85,4.85,0,0,1,267.94,371.08Z"/><path class="cls-9" d="M305.32,350.67a18.79,18.79,0,0,1,1.13-2.74,4.84,4.84,0,0,0,.79-3.86,5.81,5.81,0,0,1,0-2.78,2.94,2.94,0,0,1,2.53-2.49c1.8-.27,2.82-1.62,3.64-3.13.48-.9,1-1.81,1.52-2.66s1.2-.92,1.6.16c.9,2.45,1.41,4.74.15,7.46-1.69,3.63-2.66,7.61-3.94,11.43-.56,1.68-1.09,3.32-3.15,3.83a2.76,2.76,0,0,1-3.47-1.72,9.57,9.57,0,0,1-.45-1.73c-.09-.55-.1-1.1-.14-1.65Z"/><path class="cls-9" d="M140.55,389.29c3.14.7,6.28,1.41,9.43,2.1.37.09.75.12,1.12.18l.26.25a9.4,9.4,0,0,0,1.1,1.17c1.09.82,1.14,1.49.44,2.58a19.36,19.36,0,0,0-1.62,3.37,1.51,1.51,0,0,0,.3,1.15,14.71,14.71,0,0,0,2.39,3.1,27.27,27.27,0,0,0,3.79,2.22,11.11,11.11,0,0,1,1.3,1.08c-.48.23-1,.67-1.42.65a30.65,30.65,0,0,1-4.27-.58c-.37-.07-.73-.55-.93-.93-.68-1.3-1.46-1.83-2.89-1.48a2.93,2.93,0,0,1-3-.93,11.8,11.8,0,0,1-1.83-2.44c-1.34-2.4-2.84-4.73-3.15-7.6A25.93,25.93,0,0,0,140.55,389.29Z"/><path class="cls-9" d="M320.5,283.51q.36-6.51.73-13c0-.55,0-1.1,0-1.66l.25-.24a17.72,17.72,0,0,0,1.48-1.1c1-.9,1.59-.93,2.5,0,.38.39.66.88,1,1.28s.66.73,1,.73c1.71,0,2.27,1.34,3,2.4a1.68,1.68,0,0,1,0,1.44,23.56,23.56,0,0,1-2.61,5.07,17.79,17.79,0,0,1-4.12,3.17C322.78,282.34,321.61,282.89,320.5,283.51Z"/><path class="cls-9" d="M297.64,342.35q2.55-3.83,5.11-7.64C303,338.65,301.3,341.15,297.64,342.35Z"/></g></svg>