<svg xmlns="http://www.w3.org/2000/svg" viewBox="0 0 412.97 618.07"><defs><style>.cls-1{fill:#8b659a;}.cls-2{fill:#f5f6f0;}.cls-3{fill:#3e1a44;}.cls-4{fill:#814895;}.cls-5{fill:#a880b7;}.cls-6{fill:#5e2364;}.cls-7{fill:#2c1837;}.cls-8{fill:#351d49;}</style></defs><g id="Layer_2" data-name="Layer 2"><circle class="cls-1" cx="202.64" cy="291.04" r="149.96"/><path class="cls-2" d="M231.3,238.41a20.85,20.85,0,0,0-2.32,1.38,9.35,9.35,0,0,0-1.88,1.55,12.12,12.12,0,0,0-1.47,2.14c-1.27,2.15-2.58,4.4-2.77,6.89a.84.84,0,0,0,.1.59c.23.3.68.2,1,.11,1.36-.38,2.79-.37,4.17-.68a15.59,15.59,0,0,0,3.81-1.56,47.24,47.24,0,0,0,4.94-3.06,2.53,2.53,0,0,0,1.3-3.35,9,9,0,0,0-1.51-3.33,3.85,3.85,0,0,0-3.2-1.52c-1.22.12-2.24,1-3.39,1.41"/><path class="cls-2" d="M271.92,225a1.42,1.42,0,0,0,.74-.08,1,1,0,0,0,.49-.88,3.35,3.35,0,0,0-.19-1,14.65,14.65,0,0,1-.45-2.62,13.87,13.87,0,0,0-.28-2.5c-.21-.75-.77-1.55-1.56-1.53a2.21,2.21,0,0,0-1.51,1l-1.07,1.32a10.36,10.36,0,0,0-1.35,1.94,3.79,3.79,0,0,0-.48,1.71c0,.54.69.87,1.09,1.12a10.63,10.63,0,0,0,2.07,1A10.23,10.23,0,0,0,271.92,225Z"/><path class="cls-3" d="M296,286c1.08,3.37,5.41,5.55,8.22,3.33,2.64-2.09,3.36-7.14,6.63-7.14,1.72,0,3,1.69,3.33,3.42a22.67,22.67,0,0,1-.09,5.33,2.71,2.71,0,0,0,1.59,2.93c2.08,1.38,4.26,2.8,5.52,5s1.27,5.45-.69,7.15a8.8,8.8,0,0,1-3.15,1.49c-3.4,1.13-7,2.93-8.55,6.27-2.17,4.62.41,10-.34,15-.3,2-1.12,3.9-1.17,5.91-.09,4.06,2.94,7.3,5.95,9.81a36,36,0,0,0,11.26,6.82,18,18,0,0,0,13-.27c4.58-2.06,8-6.39,10-11.11s2.87-9.83,3.62-14.9c.58-3.9,1.08-8.1-.65-11.54-1.59-3.15-4.74-5-7.13-7.55a54.37,54.37,0,0,1-4.55-6.08,106.58,106.58,0,0,0-10.22-11.72c-4.68-4.88-9.39-9.78-14.85-13.72-2.74-2-5.84-3.75-9.24-3.7a8.46,8.46,0,0,0-6.84,3.83,7.08,7.08,0,0,0-.87,2.65c-.27,1.36-.77,2.67-1,4A9.66,9.66,0,0,0,296,286Z"/><path class="cls-3" d="M296.37,322c4.09,2,9.14,2.34,12.87.37a21.76,21.76,0,0,1,3.41-1.8,3.86,3.86,0,0,1,3.84.67,4.57,4.57,0,0,1,1,2.69l.67,4.94c.49,3.63,1,7.32.34,10.83s-2.6,6.9-6,8.48c-4.79,2.23-11.28.22-15.4-3.56s-6.3-8.92-7.81-14a34.57,34.57,0,0,1-1.74-12.75c.07-.72,0-2.14,1.07-2.18s1.63,1.41,2.16,2A18.89,18.89,0,0,0,296.37,322Z"/><path class="cls-3" d="M162.14,316.3c-1.59-1.05-3.34-2.36-3.49-4.26-.18-2.29,2.29-4.09,4.58-4.06s4.37,1.31,6.27,2.61c17.56,12,31.79,28.39,49.4,40.33a12,12,0,0,0,4.66,2.22,12.53,12.53,0,0,0,5.43-.75c5.68-1.66,11.42-3.34,16.58-6.24,7.67-4.33,14.28-11.41,23-12.42,2.21-.26,4.73-.22,6.25-1.84,1.33-1.43,1.34-3.58,1.39-5.53a56.65,56.65,0,0,1,5.68-23.53c2-4.06,4.48-8,5.12-12.47a22,22,0,0,1,.85-5.07c1.74-4.44,8.94-5.17,11.54-1.18s.26,9.21-2.15,13.28c-4.82,8.14-10.16,16.55-10.51,26a8.45,8.45,0,0,0,1,5c2.28,3.53,7.48,2.87,11.62,3.62,11.17,2,17.32,16.39,28.64,17.33,8.12.68,15.22-6.44,17.41-14.29s.67-16.2-.86-24.2c9.86,3.35,15.47,14.35,15.74,24.76.32,11.88-5,23.44-12.92,32.32s-18.21,15.29-28.94,20.39c-13.42,6.39-28,10.94-42.89,10.61-19.42-.42-38.11-9.1-57.53-8.48-3.64.11-7.44.53-10.8-.87a17,17,0,0,1-6.07-4.87c-9.2-10.64-11.33-35.9-23.39-52.35A52.42,52.42,0,0,0,164,319.43"/><path class="cls-4" d="M242.25,247.35a37,37,0,0,1-6.43,5.33,22.59,22.59,0,0,1-5.32,3.11c-3.85,1.38-8.12.61-12-.56a3,3,0,0,1-1.28-.62c-.89-.87-.45-2.36.1-3.47a49.59,49.59,0,0,1,16.1-18.86c-4.66-.29-9.16,2.09-12.45,5.39s-5.54,7.48-7.69,11.61a14.64,14.64,0,0,0-1.53,3.77,11.26,11.26,0,0,0,.37,5.28,8.63,8.63,0,0,0,1.63,3.41c1.54,1.77,4.07,2.32,6.42,2.4a23.39,23.39,0,0,0,14.34-4.37c3-2.19,5.62-5.33,6.14-9a2.91,2.91,0,0,1-1.38-1"/><path class="cls-4" d="M262.65,229.11c2.63,2.44,6.49,2.85,9.88,4a41.48,41.48,0,0,1,8,4.26l16.58,10.38c1.81,1.14,4.26,2.26,5.93.92.7-.56,1.3-1.55,2.18-1.38a1.77,1.77,0,0,1,1,.76,9,9,0,0,1-.71,11.31,1.38,1.38,0,0,1-.72.47,1.29,1.29,0,0,1-.88-.26c-1.81-1.23-2-3.86-3.49-5.48a6.55,6.55,0,0,0-4.83-1.81c-1.77,0-3.52.36-5.29.48a4.84,4.84,0,0,1-1.82-.16,5.93,5.93,0,0,1-2.46-2.08,75.44,75.44,0,0,0-6.76-6.74,56.28,56.28,0,0,0-6.3-5.24c-4.77-3.25-10.77-5.28-13.77-10.22a14.25,14.25,0,0,1,7.08,2.57"/><path class="cls-4" d="M232.55,218c2.76-2.9,5.77-5.84,9.61-7s8.7.14,10.3,3.81a34.35,34.35,0,0,1,1.09,4.16c1.4,4.8,6,7.77,10.16,10.57a124.8,124.8,0,0,1,19.2,16c1.57,1.61,3.47,3.4,5.7,3.11a18.43,18.43,0,0,0,2.3-.69,8.3,8.3,0,0,1,7,1.59,22.31,22.31,0,0,1,4.9,5.52.84.84,0,0,1,.21.74.81.81,0,0,1-.37.36l-3,1.93a5.5,5.5,0,0,0-3.88-3.4,8.61,8.61,0,0,0-5.27.46,12.44,12.44,0,0,0-7.7,10.26c-.2,2.26-.69,3.11-.6,3.55.21,1,.63,1.3.45,1.89-.37,1.2-2.62,1.48-3.38,1.57a6.67,6.67,0,0,1-4.08-.53,7.14,7.14,0,0,1-3.23-4.11c-.93-2.38-.76-4.45-.48-7.73s.81-4.35.46-7a11.3,11.3,0,0,0-.81-3.34c-.66-1.53-1.73-1.69-4.86-5.73-4.24-5.47-6.3-3.49-10.33-8.69-3-3.83-5.4-4.75-6.93-8.57-.36-.89-1.25-2-2-1.45-.44.3-.46.93-.47,1.46a12.68,12.68,0,0,1-.78,4.18,2.83,2.83,0,0,1-.9,1.38c-1,.69-2.31.1-3.34-.49L229.51,225a1.29,1.29,0,0,1-.67-.65,1.24,1.24,0,0,1,.08-.8c.39-1.14,6.45-8.7,6.73-9.06"/><path class="cls-4" d="M193.08,283.39a15.78,15.78,0,0,0,14.83,4.26c4.23-1,7.79-3.8,11.47-6.13s8-4.35,12.25-3.66,7.69,3.91,10.19,7.43,4.37,7.49,7.15,10.79,6.44,5.87,10,8.35c2.71,1.88,6.39,3.78,9.05,1.83,1.45-1.06,2.82-3.22,4.42-2.41a2.63,2.63,0,0,1,1.15,2,11.59,11.59,0,0,1-2.24,8.29,34.76,34.76,0,0,1-6.16,6.26c-7.94,6.82-16.12,13.78-25.95,17.39A15.54,15.54,0,0,1,232,339c-4-.53-7.21-3.53-10.34-6.13-8.13-6.78-17.64-11.66-27.06-16.48-7.65-3.91-15.35-7.85-23.61-10.23-1.52-.44-3.29-1-3.82-2.52a4.3,4.3,0,0,1-.16-1.6c.17-5.77,2.37-11.26,4.54-16.61,2.56-6.31,5.36-12.91,10.76-17.05a2.77,2.77,0,0,1,2.19-.75,11.83,11.83,0,0,1,2.42.86,2.69,2.69,0,0,1,1.76,2.09c.22,1.4,0,2.83.23,4.24a16.28,16.28,0,0,0,1.28,4.32A15.31,15.31,0,0,0,193.08,283.39Z"/><path class="cls-4" d="M153.55,304.21c.86-1.83,3.1-2.54,5.12-2.61s4.07.31,6-.17c4.12-1,6.42-5.41,7.55-9.5s1.73-8.58,4.51-11.79c2.17-2.51,5.44-3.94,7.38-6.62,1.44-2,2.13-4.59,4.14-6,.86-.58,1.89-.89,2.72-1.52,2.75-2.1,2-6.31,1.7-9.77-.65-8.68,3.86-16.8,7.93-24.49a2.15,2.15,0,0,0-.4-3.12c-5.14-5.49-11.67-9.44-18.11-13.31-13-7.78-26.15-15.67-40.82-19.28-4-1-8.16-1.63-12.19-.85-5,1-9.37,4.08-12.67,7.94a54.46,54.46,0,0,0-7.73,13.08,178.07,178.07,0,0,0-9.06,24.63c-2.25,7.86-4,16-3.53,24.15s3.21,16.43,8.93,22.27c7.29,7.46,18.07,10,27.79,13.74,3.71,1.43,7.38,3.11,11.33,3.6s8.31-.39,10.94-3.37"/><path class="cls-3" d="M293.15,260.07a11.29,11.29,0,0,0-5.22,4.45,11.92,11.92,0,0,0-2,5.12,2.79,2.79,0,0,0,.28,1.89,2.05,2.05,0,0,0,1.94.77,4.36,4.36,0,0,0,2-.9c1.52-1.12,2.67-2.66,4.09-3.9,1.91-1.66,4.34-2.81,5.83-4.91.45-.63,1.22-1.75.31-2.32a7.42,7.42,0,0,0-2.85-.6A8.49,8.49,0,0,0,293.15,260.07Z"/><path class="cls-3" d="M222.19,231.78a42.47,42.47,0,0,0-5.71,8.15q-2.4,4.17-4.51,8.48a7.14,7.14,0,0,0-1,3.85c2.63-4.38,5.27-8.78,8.29-12.91,2.23-3.06,4.91-6.12,8.56-7.11,2.71-.73,5.58-.21,8.33.31-.07,0-.55-1.6-.64-1.78a10.07,10.07,0,0,0-1-1.64,8.55,8.55,0,0,0-2.79-2.53,2.49,2.49,0,0,0-2.41.28,28.56,28.56,0,0,0-3.51,1.84A20.67,20.67,0,0,0,222.19,231.78Z"/><path class="cls-3" d="M261.05,214.23a3.71,3.71,0,0,1-.07-.67,3.38,3.38,0,0,1,.85-2.47,3.91,3.91,0,0,1,2.51-1,8.16,8.16,0,0,1,6.78,2.83,26.26,26.26,0,0,0-4.92,5c-.61.82-1.18,1.67-1.83,2.46a1,1,0,0,1-.47.35c-.28.06-.54-.16-.75-.36a4.09,4.09,0,0,1-1.24-1.79,4.51,4.51,0,0,1-.1-1.1,23.07,23.07,0,0,0-.05-3.9,5,5,0,0,1-.17-1.08,2.66,2.66,0,0,1,3.62-2.38c2.41.69,4.61,2.13,7.1,2.42a2.51,2.51,0,0,0-.82-1.22,11.5,11.5,0,0,0-4.75-3.08,5.48,5.48,0,0,0-5.34,1.13,5.69,5.69,0,0,0-1.36,4.5,9.79,9.79,0,0,0,.33,1.78c.07.25.31,1.5.57,1.56s.48-1,.46-1.29C261.34,215.32,261.16,214.79,261.05,214.23Z"/><path class="cls-3" d="M263.68,206.94a12.8,12.8,0,0,1,3.17-2.32,4.32,4.32,0,0,1,3.81-.06,5.23,5.23,0,0,1,1.82,1.94,13.22,13.22,0,0,1,1.79,5.18.57.57,0,0,1,0,.26c-.11.3-.53.25-.82.14-3.26-1.27-6.14-3.49-9.52-4.36-.42-.11-.95-.49-.68-.82a.63.63,0,0,1,.31-.17c.85-.26,1.7-.51,2.57-.73"/><path class="cls-3" d="M266.82,268.58c1.23,4.35,5.21,8.06,9.72,8a3.4,3.4,0,0,0,1.93-.49,1.56,1.56,0,0,0,.65-1.75,1.77,1.77,0,0,0-.66-.75c-1.68-1.17-4.18-.62-5.75-1.92a5.27,5.27,0,0,1-1.54-3.23,20.19,20.19,0,0,1,.27-8.37,19.81,19.81,0,0,1,1.42-4c.43-.89,1.19-2,1-3-.51-2.43-4.53.61-5.33,1.53-1.2,1.36-1.34,3.23-1.58,5-.38,2.7-.89,5.29-.34,8C266.66,268,266.74,268.27,266.82,268.58Z"/><path class="cls-5" d="M130.26,178.35c8.65-5.1,18.86-6.95,28.9-7.31,6.1-.21,12.31.11,18.08,2.09,10.49,3.59,18.34,12.15,26.54,19.62S222,207.2,233.09,206.38a23.55,23.55,0,0,0,8.85-2.46c1-.51,2.16-1.1,3.18-.65.87.39,1.27,1.37,1.71,2.21,1.66,3.19,4.83,5.31,7,8.19,3.41,4.54,4.14,10.72,7.77,15.08,2.46,2.94,6,4.74,9.44,6.44,7,3.46,14.1,6.87,20.17,11.76,1.94,1.57,3.83,3.31,6.19,4.12s5.38.36,6.69-1.76a106.67,106.67,0,0,0-21.2-14.1c-8.31-4.2-18.18-8.38-20.86-17.31-.86-2.87-.87-6-2.37-8.63A31.5,31.5,0,0,1,268,194.1c-9.45-2-16-10.3-22.88-17-19.92-19.48-48.75-28.59-76.57-27.09-6.05.32-12.16,1.13-17.78,3.4-6.53,2.62-12.13,7.08-17.63,11.48-3.1,2.48-6.56,6.29-4.83,9.88,1.6,3.32,6.24,3.36,9.9,2.91"/><path class="cls-5" d="M257,263.24c2.74,5.2,5.53,10.47,9.52,14.78,2.72,2.94,6.07,5.57,7.31,9.37a1.7,1.7,0,0,1,0,1.38c-.51.88-1.86.37-2.68-.22l-13.59-9.7a11.7,11.7,0,0,0-3.46-1.93,12,12,0,0,0-4.1-.2l-21.93,1.52a27.69,27.69,0,0,1-8.43-.27c-1.4-.33-3-1.67-2.26-2.88a2.33,2.33,0,0,1,1.25-.79c3.51-1.18,7.27-.8,10.86-1.55a12.68,12.68,0,0,0,4.76-2A8.16,8.16,0,0,0,236,269.1c.57-.78,1-1.34.22-2.09-1.61-1.56-4.31-2.48-3.46-5.26.71-2.31,3-4.16,4.65-5.79,1.25-1.23,2.5-2.46,3.64-3.79a39.23,39.23,0,0,0,3.69-5.66c2.22,1.26,4.14,3.72,5.66,5.72a57.59,57.59,0,0,1,4.4,6.9C255.52,260.49,256.24,261.86,257,263.24Z"/><path class="cls-4" d="M121,310c-3.1,0-6.43.68-8.54,2.95s-2.47,5.23-2.78,8.13a36,36,0,0,0-.15,8.16c1.09,8.54,7.45,15.41,14.12,20.85,5.32,4.34,11.14,8.23,17.69,10.31,6,1.9,12.32,2.21,18.59,2.52a43.75,43.75,0,0,0,10-.29,11.06,11.06,0,0,0,6.12-2.95,9.58,9.58,0,0,0,1.93-3.31,9,9,0,0,0,.57-4.74c-.47-2.49-2.33-4.46-4.11-6.26L146.2,316.61a32.19,32.19,0,0,0-7.12-6,11.86,11.86,0,0,0-6.83-1.59,5.17,5.17,0,0,0-1.7.36,4.09,4.09,0,0,1-1.21.53,23.45,23.45,0,0,1-3.93.15C123.93,310.05,122.44,310,121,310Z"/><path class="cls-3" d="M143.51,325.14a5.39,5.39,0,0,1,2.3,2.5c.45,1.4-.28,2.92-.16,4.39a3.12,3.12,0,0,0,1.58,2.51,2.24,2.24,0,0,0,2.77-.6,3.9,3.9,0,0,1,.68-.95,1.32,1.32,0,0,1,1.51.12,5.36,5.36,0,0,1,1,1.24,10.28,10.28,0,0,0,2.67,2.59c3.13,2.09,7.41,2.45,9.89,5.28a1.11,1.11,0,0,1,.34.67,1.2,1.2,0,0,1-.56.84c-1.77,1.49-3.86,3.07-6.15,2.71-1.63-.26-3-1.49-4.66-1.64a8.27,8.27,0,0,0-2.65.36,63.83,63.83,0,0,1-8.71,1.22l4.79-2.5a3.79,3.79,0,0,0,1.72-1.38,3.48,3.48,0,0,0,.28-1.92,16.79,16.79,0,0,0-.31-2.35c-.08-.4-.23-.86-.62-1a1.31,1.31,0,0,0-.9.25c-2.18,1.14-4.84.34-7.17-.48l-3.33-1.18a4.22,4.22,0,0,1-3.78-4.6,8,8,0,0,1,.16-2.93c.53-1.71,2-2.89,2.7-4.52.22-.53.29-1.32,1-1.3a6.85,6.85,0,0,1,2.68.89A23.32,23.32,0,0,1,143.51,325.14Z"/><path class="cls-3" d="M133.12,320a4.79,4.79,0,0,1,1.35.46,1.45,1.45,0,0,1,0,2.65,4.84,4.84,0,0,1-1.8.51,6.32,6.32,0,0,1-2.87,0,4.84,4.84,0,0,1-2.1-1.56c-.31-.36-.6-.74-.88-1.12a3.17,3.17,0,0,1-.64-1c-.11-.61.51-1,1-1.11a2.62,2.62,0,0,1,1.11.11l1.49.35Z"/><path class="cls-5" d="M122.27,309.63c-3.46.06-7.24.24-9.81,2.56a10.65,10.65,0,0,0-2.71,4.38c-3.15,8.54-.34,18.45,5.34,25.56s13.86,11.8,22.23,15.37c9.45,4,19.63,6.88,29.89,6.26a11.79,11.79,0,0,0,6.18-1.7c-5,.53-10.06,1.05-15.06.49-7.05-.79-13.66-3.7-20.1-6.67-9.68-4.46-19.74-9.58-25.45-18.58-3.69-5.82-5.08-13.71-1.38-19.52,2.37-3.72,6.5-6.06,10.79-7a37.65,37.65,0,0,1,13.14-.13c-.94-1.32-2.83-1.45-4.46-1.45H120.46"/><path class="cls-5" d="M138.81,349c2.19.51,4.82.57,6.33-1.09a16.94,16.94,0,0,1-13.7-7.56c-1.05-1.62-1.92-3.6-3.73-4.53-.27-.14-.78-.39-1-.08s-.08.84,0,1.15a19.47,19.47,0,0,0,1.77,4.12,15.18,15.18,0,0,0,3.39,4.67,16,16,0,0,0,6.14,3.11Z"/><path class="cls-6" d="M110.84,326.26c0,2.94,1.32,5.71,2.76,8.28a44.62,44.62,0,0,0,3.42,5.29,35.4,35.4,0,0,0,4.62,4.94,26.43,26.43,0,0,0,4.55,3.33,37.92,37.92,0,0,0,5.61,2.38q11.46,4.11,23,7.87c-1.13-1.88-3.22-2.94-5.25-3.77-5.29-2.15-10.93-3.37-16.08-5.82s-10-6.48-11.44-12a7.48,7.48,0,0,1,.18-5c.43-.92,1.12-1.7,1.59-2.6a2.89,2.89,0,0,0,.07-2.91c-.93-1.32-3.31-1.16-3.92-2.66-.5-1.22.52-2.46.81-3.6.11-.46.2-1.11-.28-1.38a2.56,2.56,0,0,0-1.55,0c-.71.12-1.42.27-2.14.37a7.51,7.51,0,0,0-2.23.59,6.13,6.13,0,0,0-2.68,2.58A8.22,8.22,0,0,0,110.84,326.26Z"/><circle class="cls-7" cx="228.8" cy="243.92" r="2.33"/><circle class="cls-8" cx="272.31" cy="221.27" r="1.58"/></g></svg>