<svg xmlns="http://www.w3.org/2000/svg" xmlns:xlink="http://www.w3.org/1999/xlink" viewBox="0 0 412.97 618.07"><defs><style>.cls-1{fill:#f9cdbf;}.cls-2,.cls-3{stroke-miterlimit:10;stroke-width:0.98px;}.cls-2{fill:url(#Namnlös_övertoning_2);stroke:url(#Namnlös_övertoning_3);}.cls-3{fill:url(#Namnlös_övertoning_2-2);stroke:url(#Namnlös_övertoning_3-2);}.cls-4{fill:#821624;}.cls-5{fill:#9b2344;}.cls-6{fill:#ed7896;}.cls-7{fill:#d0aba1;}.cls-8{fill:#d9cbca;}.cls-9{fill:#f4aba0;}.cls-10{fill:#3b2d2a;}.cls-11{fill:none;}.cls-12{fill:#fbdacb;}.cls-13{fill:#efbeb1;}</style><radialGradient id="Namnlös_övertoning_2" cx="78.73" cy="287.59" r="12.64" gradientUnits="userSpaceOnUse"><stop offset="0.07" stop-color="#95504c"/><stop offset="0.5" stop-color="#a2735d"/><stop offset="0.89" stop-color="#f5c198"/></radialGradient><radialGradient id="Namnlös_övertoning_3" cx="78.73" cy="287.59" r="12.94" gradientUnits="userSpaceOnUse"><stop offset="0.4" stop-color="#703c37"/><stop offset="0.88" stop-color="#934f4b"/></radialGradient><radialGradient id="Namnlös_övertoning_2-2" cx="78.73" cy="284.35" r="8.78" xlink:href="#Namnlös_övertoning_2"/><radialGradient id="Namnlös_övertoning_3-2" cx="78.73" cy="284.35" r="8.79" xlink:href="#Namnlös_övertoning_3"/></defs><g id="Layer_2" data-name="Layer 2"><circle class="cls-1" cx="206.49" cy="290.26" r="150"/><line class="cls-2" x1="70.09" y1="271.93" x2="87.37" y2="303.24"/><line class="cls-3" x1="78.73" y1="296.76" x2="78.73" y2="271.93"/><path class="cls-1" d="M221.41,161.4c-28.27-1.47-57,6.09-79.93,21a188.06,188.06,0,0,0-21.57,16.87c-9.67,8.55-19.14,17.88-23.62,29.37-7,17.89-.8,37.43,2,56.22,2.4,16.31,2.14,32.86,4.37,49.2s7.25,32.9,18.74,45.74c4.64,5.18,10.22,9.63,15.76,14l24.58,19.56c18.32,14.58,39.63,30.1,64,28.25,5.53-.42,11.09-1.81,15.53-4.79a32.45,32.45,0,0,0,8.22-8.56c7.57-10.81,12.08-23.78,23-32,6.5-4.87,14.75-7.57,21.28-12.42,9.41-7,14.35-17.79,16.5-28.57s1.86-21.81,2.79-32.72c1.71-20.08,7.52-39.7,10.31-59.69s2.35-41.12-7.74-59.12c-9.55-17.05-27.32-29.89-47.38-36.27s-42.23-6.56-63-2.2"/><path class="cls-4" d="M215.53,386a33.06,33.06,0,0,0,8.35,1,42,42,0,0,0,9.61-1.81,57.42,57.42,0,0,0,9.88-3.34,42.38,42.38,0,0,0,5.83-3.52,93.52,93.52,0,0,0,24.37-24.67c-.52,6.08-3.53,11.74-6.75,17.11-6.63,11-15.35,22.21-28.58,26.31-8,2.49-16.81,2-25.23.95-6.83-.88-13.87-2.27-19.28-6.11a42,42,0,0,1-7.27-7.14c-4.2-4.85-8.48-9.83-11-15.61a16.18,16.18,0,0,1-1.58-5c2.55-1.18,6.68.83,8.5,2.49,1.52,1.38,2.39,3.23,3.74,4.74a35.25,35.25,0,0,0,8,6,71.49,71.49,0,0,0,21.38,8.6Z"/><path class="cls-5" d="M210.09,374.36c6-.78,12.15-2.94,17.78-.24,1.27.6,2.52,1.45,3.86,1.37a7.18,7.18,0,0,0,3.39-1.68c9.46-6.66,20.43-8.11,31.08-9.43-9,8.53-18.34,17.24-29.08,20.93a39.68,39.68,0,0,1-17.84,1.7,62.48,62.48,0,0,1-17.68-5.15c-2.89-1.28-5.74-2.74-8.54-4.33-2.56-1.45-5.38-2.91-7.55-5.28-1-1.08-.42-1.39.61-1.28a30.52,30.52,0,0,1,5.33,1.32c5.43,1.6,10.82,2.7,16.41,2.3C208.6,374.54,209.35,374.46,210.09,374.36Z"/><path class="cls-6" d="M251.82,380.23a31.38,31.38,0,0,1-14.81,5.4,3.08,3.08,0,0,0-2,.68,1.41,1.41,0,0,0,.06,1.81,3.2,3.2,0,0,0,1.82,1c2.56.58,5.18-.53,7.54-1.61l4.51-2.06a12.92,12.92,0,0,0,3.91-2.39,3.57,3.57,0,0,0,1-3.95,8.8,8.8,0,0,0-5,1.83"/><path class="cls-6" d="M211.49,387.94c1.46.41,3,0,4.55-.14a13.49,13.49,0,0,1,7.16,1.3,1,1,0,0,1,.44.32c.32.44-.19,1-.72,1.24-1.64.76-3.64.43-5.42,0a90.6,90.6,0,0,1-11.16-3.94c-.64-.26-4.92-2.36-2.79-3,1.87-.56,3.79,1.36,5,2.36A8.11,8.11,0,0,0,211.49,387.94Z"/><path class="cls-7" d="M269.12,327.13a123.63,123.63,0,0,1,15.46,12.72,7.94,7.94,0,0,1,2.35,3.25,7.33,7.33,0,0,1-.47,4.29c-2.23,6.94-4.63,14.94-.1,20.91,1.39-7.53,3.27-15.82,10.08-20.4,1.54-1,3.38-1.93,4.17-3.51,1-1.94,0-4.31-1.72-5.8a22.35,22.35,0,0,0-6.12-3.23c-10.43-4.37-19.44-11-28.39-17.47-1-.71-2.27-1.6-3.61-1.37a1.65,1.65,0,0,0-1.36,2.35,15.55,15.55,0,0,0,2.59,2.74,26.27,26.27,0,0,0,3.18,2.75C266.46,325.32,267.8,326.22,269.12,327.13Z"/><path class="cls-7" d="M205,252.05c5.58,3.32,11.57,7.12,13.34,12.91.83,2.74.61,5.63.36,8.45q-1,11.5-2.63,22.95c-.12.86-.66,2-1.59,1.78a1.62,1.62,0,0,1-.94-.84c-6.39-10.33-3.33-24.08-10.84-33.8-2.18-2.82-5.35-6.05-3.79-9.19a5.58,5.58,0,0,1,5.28-2.64,8.65,8.65,0,0,1,5.54,2.63"/><path class="cls-7" d="M155.25,368.25l0,1.74a23.47,23.47,0,0,1-6.43-3.31c-3.69-2.42-7.38-4.85-11-7.37-1.82-1.28-3.62-2.59-5.38-3.93-.31-.24-2.45-1.48-2.07-2.09.61-1,5.18,1,5.86,1.24a17.79,17.79,0,0,1,3.59,2c1.78,1.29,3.68,2.39,5.54,3.58C149.05,362.41,151.43,366.07,155.25,368.25Z"/><path class="cls-7" d="M171.29,386.65a22,22,0,0,0,3.23,5c1.31,1.38,3,2.46,4.39,3.76s2.62,2.95,2.62,4.76a5.09,5.09,0,0,1-4.9-1.28,13,13,0,0,1-2.64-4.2,143.08,143.08,0,0,0-7.85-14.56c-.38-.62-3.89-5.41-2.58-5.74.53-.13,1.39.94,1.64,1.22a12.26,12.26,0,0,1,1.66,2.59Q169.07,382.41,171.29,386.65Z"/><path class="cls-7" d="M117.92,377.8A125.88,125.88,0,0,1,149.27,402c2.31,2.47,4.51,5,6.92,7.43,7.4,7.38,16.7,13.13,23.76,20.78a8.89,8.89,0,0,1,2.5,4.1c-7.43-.64-13.21-5.82-18.32-10.7l-45.6-43.52c-.88-.85-1.83-2-1.26-3.05.89-1.61,3.61-.52,5.06.73"/><path class="cls-7" d="M94,244.81A52.69,52.69,0,0,1,93.92,270a5.86,5.86,0,0,1-1,2.38c-1.77,2.12-5.82,1.77-7.54,3.93-1,1.32-.83,3.09-.58,4.68,2.53,15.92,5.34,32.5,15.67,45.66,3.39,4.31,7.7,8.54,8.11,13.8.11,1.37-.21,3-1.55,3.65a5.86,5.86,0,0,1-2.29.42,36.6,36.6,0,0,0-9.65,1.88A4.21,4.21,0,0,0,92.56,348a3.7,3.7,0,0,0-.14,2.26,82.82,82.82,0,0,1,.35,21.45,1.94,1.94,0,0,1-.6,1.41,2.27,2.27,0,0,1-2,0c-4.67-1.62-7-6.25-8.62-10.49a167.66,167.66,0,0,1-11.14-72.43c.57-8.2,1.75-16.35,2.36-24.54.74-9.93.66-19.93,2-29.8s4.38-19.8,10.68-28a3.11,3.11,0,0,1,1.84-1.38,3,3,0,0,1,1.59.27c4,1.6,6.35,5.5,7,9.38s0,7.83-.52,11.73a102.16,102.16,0,0,0,.2,26.32"/><path class="cls-7" d="M200.61,416.86a10.59,10.59,0,0,0,4.3,13.15,21.6,21.6,0,0,0,6.09,2c5.86,1.31,11.84,2.54,17.87,2.28a16.13,16.13,0,0,0,6.45-1.39,14.53,14.53,0,0,0,3.84-3,29,29,0,0,0,7.1-12,6.23,6.23,0,0,0,0-4.67c-.78-1.48-2.48-2.39-4-3.2a34.36,34.36,0,0,0-5.61-2.38,48.09,48.09,0,0,0-9.06-2.28,37.24,37.24,0,0,0-8.82.4,28.9,28.9,0,0,0-10.89,3.31,17.05,17.05,0,0,0-6.79,6.65C200.92,416.16,200.76,416.51,200.61,416.86Z"/><path class="cls-8" d="M283.73,264.51a13.4,13.4,0,0,0,2.61-1.9c.88-.63,2.25-1,3.07-.29a1.73,1.73,0,0,1-.23,2.58,7,7,0,0,1-2.88,1.23,3.1,3.1,0,0,0-2,1.12c-.46.79,0,1.76-.17,2.64-.27,1.29-1.85,2-3.31,2.15s-2.92-.22-4.38-.14a38.8,38.8,0,0,0-4.86,1,3.84,3.84,0,0,1-2.56-.23c-1.75-1-.83-3.56-1.91-5.16-.85-1.28-3-1.94-3-3.43,0-.89.78-1.61,1.52-2.2a30.61,30.61,0,0,1,8.52-5.19c2.38-.86,5.54-1.46,8.05-.68,2.05.65,2.14,2.31,1.75,4a12,12,0,0,0-.35,2.32C283.59,262.5,283.75,264.5,283.73,264.51Z"/><path class="cls-8" d="M183.5,261.9a20.11,20.11,0,0,0-1.42,4.52c1.44,1.06,3.73.29,4.88-1a3.56,3.56,0,0,0,.73-4,2.81,2.81,0,0,0-4-.77"/><path class="cls-8" d="M177.65,268.42a3.3,3.3,0,0,1-1.55,2.29,3.93,3.93,0,0,1-1.37.27,51.61,51.61,0,0,1-9.69-.59l-6.85-.86a9.65,9.65,0,0,1-4-1.08,4.78,4.78,0,0,1-1.35-6.33c1.16-2.1,3.46-3.51,5.84-4.46,4.63-1.84,9.75-2.26,14.76-2.2,1.63,0,3.54,0,4.73,1.16a4.75,4.75,0,0,1,1,3.87A40,40,0,0,1,177.65,268.42Z"/><path class="cls-9" d="M317,299.57a40.32,40.32,0,0,1-15,14.23c-3.54,2-7.69,3.72-9.29,7.15-1.43,3.09-.35,6.61.88,9.76s2.59,6.2,5,8.62a11.34,11.34,0,0,0,9.74,3.35c5.19-1,7.85-6.08,9.49-10.6,4.18-11.49,6.81-23.55,6.27-35.63-.06-1.36-.74-3.18-2.25-3A2.72,2.72,0,0,0,320,295l-7,11.85"/><path class="cls-9" d="M157.88,313.82c3.93,1.43,8.26,3,10.16,6.4,1.79,3.21.75,7.23-1.55,10.16s-5.7,5-9,7.05a7.2,7.2,0,0,1-2.32,1.06,7.42,7.42,0,0,1-3.45-.41,37.8,37.8,0,0,1-9.39-3.52c-4.14-2.47-6.94-6.34-9.53-10.15a71.73,71.73,0,0,1-6.37-10.79c-1.43-3.19-2.51-7.36.48-10.17,1.9-1.78,4.73-1.1,7-.25,3.32,1.26,6.36,3.07,9.54,4.57Q150.48,311.12,157.88,313.82Z"/><path class="cls-10" d="M262.25,263.86a34.42,34.42,0,0,1,12.55-7.14,22.1,22.1,0,0,1,14.63.51c-1.48.72-3.2,2-2.62,3.38.66,1.6,3.42,1.3,4.79,2.48a3.29,3.29,0,0,1-2.54,1.72,16.8,16.8,0,0,0-1.89.15,2.46,2.46,0,0,0-1.25,3.7,5.88,5.88,0,0,0,4.18,2.12c7,1,13.91-4.43,14.84-10.72a7.07,7.07,0,0,0-1-5.16c-1.24-1.75-3.48-2.7-5.67-3.38a39.26,39.26,0,0,0-24.37.17c-7.72,2.73-14.2,8.41-16.86,15.45a89.08,89.08,0,0,1,9.87-5.07"/><path class="cls-10" d="M173.89,254.24c4.39-.32,9.18.91,11.81,4.07-.61,1.34-3.61.53-4,1.92-.3,1,1.26,1.61,2.42,1.53s2.56-.34,3.28.48-.16,2.3-1.39,2.54a5.28,5.28,0,0,1-3.53-.95,4.64,4.64,0,0,0-3.05-1,2.44,2.44,0,0,0-1.81,2.77c.27,1.9,2.16,3.35,4.2,3.9a18.32,18.32,0,0,0,6.36.21l8.46-.7c-1.12-2.61-2.33-5.2-3.61-7.75a22.42,22.42,0,0,0-4.4-6.5c-3.64-3.42-9.2-4.65-14.47-4.75a42.53,42.53,0,0,0-13.52,2,41.1,41.1,0,0,0-12,6.08c-.58.43-2.87,1.74-2.57,2.67.22.69,1.64.6,2.23.59a28.83,28.83,0,0,0,9.25-2c4.72-1.8,9.36-4.06,14.47-4.86C172.6,254.37,173.24,254.29,173.89,254.24Z"/><path class="cls-11" d="M251.94,379l-7,3.77a19,19,0,0,1-3.37,1.55c-2.07.64-4.57.72-5.93,2.25a1.5,1.5,0,0,0-.23,2,2.06,2.06,0,0,0,1.14.51,10.48,10.48,0,0,0,5.87-.74,29.46,29.46,0,0,0,5.07-2.9c2.34-1.56,4.86-3.38,5.29-6,.06-.34,0-.77-.3-.94a1.12,1.12,0,0,0-.58-.07,6.45,6.45,0,0,0-3.38,1.28"/><path class="cls-11" d="M225.6,389.8c0-.69-.66-1.23-1.28-1.63-3.18-2.05-7.26-2.52-11-3.55-4-1.08-7.62-2.81-11.45-4.17a35.38,35.38,0,0,0-5.87-1.62c-.73-.13-2-.49-2.68-.15-1.08.51.21,1.39.71,1.77a49.94,49.94,0,0,0,6.5,4.38,57,57,0,0,0,10.73,4.66,26.2,26.2,0,0,0,12.8.72C224.57,390.09,225.09,390,225.6,389.8Z"/><path class="cls-12" d="M301.16,290.8c-5.32,4.68-13.93,3.83-21.27,2.66-9.28-1.48-18.94-3.1-26.49-8.15a28.47,28.47,0,0,1-8.55-8.88c-2.45-4.07-3.71-8.64-6.09-12.74-.34-.59-.83-1.24-1.57-1.26-1,0-1.49,1.09-1.68,2l-3.77,17.85a81.72,81.72,0,0,0-2,12.86,82.36,82.36,0,0,0,.49,11.74l1.86,20.62c.15,1.69.74,3.82,2.61,4.07a42.26,42.26,0,0,0,6.17-16.32,17,17,0,0,1,1.17-5,5.45,5.45,0,0,1,4.2-3.15,7.6,7.6,0,0,1,3.56.74c6.42,2.61,11.61,7.36,18.21,9.58a50.45,50.45,0,0,0,10.42,1.95q6.27.71,12.55,1.31a18.13,18.13,0,0,0,7.05-.25c4.32-1.31,6.61-5.46,8.12-9.31a76.51,76.51,0,0,0,4.64-18.5,7.63,7.63,0,0,0-.19-3.74,3.43,3.43,0,0,0-3.06-2.25,5.09,5.09,0,0,0-2.88,1.21,33,33,0,0,0-7.16,7"/><path class="cls-12" d="M257.58,324.42c-3.2.91-5.46,4-5.1,7a2.43,2.43,0,0,0,1.15,2,3.82,3.82,0,0,0,2.74-.08,12.48,12.48,0,0,0,4.35-1.87,3.42,3.42,0,0,0,1.36-3.89c-.57-1.26-2.09-1.92-3.48-2.47s-3.25-.87-3.89.29"/><path class="cls-12" d="M233.89,357.24a12.59,12.59,0,0,0-3.16,1.83,1.36,1.36,0,0,0-.56.58c-.19.5.33,1,.9,1.13a3.45,3.45,0,0,0,1.7-.3l5.23-1.87,9-3.23a3.74,3.74,0,0,0,2.07-1.3,2.43,2.43,0,0,0,.19-1.74c-.34-1.92-1.64-4.31-4-2.8s-3.86,3.62-6,5.21A18.23,18.23,0,0,1,233.89,357.24Z"/><path class="cls-12" d="M152.76,296.22c-2.49-.37-5.84-.39-6.66,1.75a4.2,4.2,0,0,0,.17,2.66,86.64,86.64,0,0,0,6.83,16.72,11.53,11.53,0,0,0,3.65,4.55,10.67,10.67,0,0,0,5.27,1.47,23.58,23.58,0,0,0,16.68-6.1,30.25,30.25,0,0,0,8.64-14.48c.55-1.94,1-5-1.62-6-1.47-.55-3.18.86-4.66,1a76.34,76.34,0,0,1-8.95.06q-4.58-.11-9.13-.48Q157.85,297,152.76,296.22Z"/><path class="cls-12" d="M203.08,273.77l-4,3.18a4.48,4.48,0,0,0,2.61,1.55,3.89,3.89,0,0,0,3.05-1.6,3,3,0,0,0,1-2.43,1.59,1.59,0,0,0-2.19-1.08"/><path class="cls-12" d="M284.51,277.8c3.27-.35,6.71-1.07,9.76,0-2.3,2.77-6.45,3.72-10.3,3.9A36.31,36.31,0,0,1,270.69,280c-.47-.16-1.66-.45-1.56-1.07s1-.77,1.46-.89c1.9-.53,4.18,0,6.13,0A56.24,56.24,0,0,0,284.51,277.8Z"/><path class="cls-12" d="M157.64,352.74a9.33,9.33,0,0,0-1.25-4.46,4.66,4.66,0,0,0-4.25-2.15,9,9,0,0,0-2.7,1,20.26,20.26,0,0,1-5,1.6c-1,.19-2.19.42-2.62,1.26a2.52,2.52,0,0,0,.39,2.25c1.68,3.18,3.65,6.51,7,8.52,2.21,1.33,7.65,3.24,8.3-.5A29.49,29.49,0,0,0,157.64,352.74Z"/><path class="cls-12" d="M131.33,360.73c-.56-.35-1.31-.7-1.88-.36a1.46,1.46,0,0,0-.56,1C127.9,366.7,131,372,135,376s8.93,7.21,12.82,11.31c.87.91,2.06,2,3.31,1.55,1-.32,1.34-1.36,1.58-2.27.65-2.53,1.34-5.15.94-7.76-.27-1.77-1-3.82-2.79-4.83-.67-.38-1.41-.66-2.07-1.05a33.41,33.41,0,0,1-3-2.24q-3.28-2.52-6.7-4.89Q135.28,363.17,131.33,360.73Z"/><path class="cls-12" d="M286.35,224c2.24-.74,4.63-1.24,6.61-2.46a10.13,10.13,0,0,0,4.1-11.47c-1.2-4.14-4.56-7.55-8.39-10.1s-8.2-4.38-12.37-6.47a90.55,90.55,0,0,1-18.72-12.4c-4.41-3.83-9.15-8.41-15.29-8.37-3,0-5.8,1.18-8.5,2.31-5.09,2.14-10.26,4.33-14.42,7.71a32.45,32.45,0,0,0-6.9,7.93c-3.52,5.54-5.6,12.42-2.77,18.27,1.18,2.43,3.13,4.51,4.52,6.85,1.17,2,2,4.12,3.43,5.9s3.72,3.21,5.68,4.72c4.4,3.37,7.82,7.64,12,11.17a25.44,25.44,0,0,0,10.74,5.62c4.41.95,8.6-.11,12.47-2a64.34,64.34,0,0,0,8.56-5c2.25-1.6,4.34-3.36,6.53-5A44.29,44.29,0,0,1,286.35,224Z"/><path class="cls-12" d="M220.57,418.65a6.43,6.43,0,0,0,2.25,2,8,8,0,0,0,3.68.59c2.36-.08,5-.84,5.73-3.06a5.76,5.76,0,0,0-1.23-5.26,5.48,5.48,0,0,0-3.91-1.63c-2.06-.15-4.77-.2-6.42,1.06C218.56,413.91,219.21,416.82,220.57,418.65Z"/><path class="cls-13" d="M268.27,295.37a58,58,0,0,0,24.8-2.83c1.22-.42,2.66-1.26,2.37-2.4s-1.91-1.35-3.17-1.27c-6.94.4-13.77,3.1-20.63,2.1a32.55,32.55,0,0,1-9.71-3.47c-1.63-.82-3.24-1.66-4.86-2.5l-2.52-1.29a2.81,2.81,0,0,0-1.29-.48c-1.65.07-.55,2.82-.25,3.54a11.45,11.45,0,0,0,4.74,5.56A22,22,0,0,0,268.27,295.37Z"/><path class="cls-13" d="M279,208.56a68.09,68.09,0,0,0-9.54,4.08,119.23,119.23,0,0,1-26.61,8.87c.51-3.23,4.28-5.08,7.6-6.42l13.67-5.52c4.86-2,9.78-3.94,15-4.77,4.9-.78,11.24-.65,15.41,2.14a7.43,7.43,0,0,1-3.11.15,15.62,15.62,0,0,0-3.68,0A42.31,42.31,0,0,0,279,208.56Z"/><path class="cls-13" d="M132.93,219.7l-7.1,11.4a20.17,20.17,0,0,0-2.9,6.07c3.18.38,5.71-2.23,7.59-4.56q10.23-12.75,20.48-25.48a4,4,0,0,0-2.88.45,49.76,49.76,0,0,0-20.55,16.93"/><path class="cls-13" d="M132,236.89a8.19,8.19,0,0,0-2,3.86c-.06.59.21,1.37.87,1.38a1.4,1.4,0,0,0,.85-.37c4.82-3.61,6.95-9.33,11-13.64,1.35-1.45,2.94-2.77,3.8-4.48a2.14,2.14,0,0,0-.13-2.58,2.29,2.29,0,0,0-2.41-.14,6,6,0,0,0-2.23,2.29c-.74,1.12-1.5,2.24-2.27,3.35-1.54,2.24-3.12,4.47-4.74,6.67C133.83,234.46,132.92,235.67,132,236.89Z"/><path class="cls-13" d="M150.61,202.45c5.23-1.5,10.9-.76,16.31.06,15.54,2.36,31,5.3,46.66,6.85s31.68,1.69,47-1.53c-17.77,6.6-37.85,5.87-56.88,3.32s-37.9-6.81-57.14-6.92a8.6,8.6,0,0,1,8.93-1.85"/><path class="cls-13" d="M151.22,195.75l16.52-.07c5.77,0,11.61,0,17.24,1.09a125.66,125.66,0,0,1,13.07,3.87,130,130,0,0,0,62.63,3.66,254,254,0,0,0,27.11-7.24c-21.58-.9-43,6.59-64.46,4.6-15.77-1.46-30.55-7.95-46.32-9.39a145.81,145.81,0,0,0-19.94,0c-4.4.2-9.1.49-12.61,2.88a43.79,43.79,0,0,0,12.45,1.31"/><path class="cls-13" d="M190.12,178l4.93,1.79a1.55,1.55,0,0,0-1-1.88,5.7,5.7,0,0,0-2.51-.29,7.15,7.15,0,0,0-3.49.71,3,3,0,0,0-1.38,3.08,3.67,3.67,0,0,0,2.39,2.58,4.65,4.65,0,0,0,4.73-1,3.53,3.53,0,0,0,.48-4.33"/><path class="cls-13" d="M284.37,205.25c2.55-.3,5.7-.06,6.89,2-4.25,1.42-8.9,1.54-13.32,2.47a72.5,72.5,0,0,0-12.37,4.15c-2,.82-4.06,1.64-6.13,2.36-1,.35-2,.67-3,1a9.87,9.87,0,0,1-2.9.72c-1.18-.12.21-1.27.63-1.63A13.94,13.94,0,0,1,258.6,214c4-1.54,7.9-3.32,11.88-4.9A55.51,55.51,0,0,1,284.37,205.25Z"/><path class="cls-13" d="M140.32,298.3c.88.94,1.63,2.25,1.06,3.36a3,3,0,0,1-2.9,1.27,7.67,7.67,0,0,1-3.12-1.22c-5.18-3.09-9.28-7.38-13.6-11.39-1.35-1.25-3.11-2.59-5-2.18.1-1.61,2-2.78,3.8-2.81a9.5,9.5,0,0,1,5,1.69,21.81,21.81,0,0,0,4.64,2.49c2.47.77,5.18.38,7.8.21a45.4,45.4,0,0,1,12.9,1,2.69,2.69,0,0,0,1.51.05,1.36,1.36,0,0,0,.58-1.91,4.45,4.45,0,0,0-1.75-1.53c-2.26-1.36-4.61-2.76-7.3-3.16-2.19-.32-4.44.06-6.66,0-4.3-.05-8.38-1.58-12.59-2.36a9.7,9.7,0,0,0-4.22-.08c-2.13.56-3.45,2.52-2.24,4.34a8.34,8.34,0,0,0,5.3,3.14c1.71.29,3.34.18,4.91,1,2,1,3.88,2.53,5.85,3.7A26.56,26.56,0,0,1,140.32,298.3Z"/></g></svg>