<svg xmlns="http://www.w3.org/2000/svg" viewBox="0 0 412 618.07"><defs><style>.cls-1{fill:#d6d3d0;}.cls-2{fill:#dcd8d6;}.cls-3{fill:#e3e0dd;}.cls-4{fill:#e9e5e3;}.cls-5{fill:#f1edeb;}.cls-6{fill:#f6f2f0;}.cls-7{fill:#151514;}.cls-8{fill:#181818;}.cls-9{fill:#1a1a19;}.cls-10{fill:#171716;}.cls-11{fill:#1d1d1c;}</style></defs><g id="Layer_2" data-name="Layer 2"><circle class="cls-1" cx="206" cy="291.03" r="149.88"/><circle class="cls-2" cx="206" cy="290.64" r="133.59"/><circle class="cls-3" cx="206" cy="290.64" r="120.02"/><circle class="cls-4" cx="206" cy="290.64" r="106.39"/><circle class="cls-5" cx="206" cy="290.64" r="92.14"/><circle class="cls-6" cx="206" cy="290.64" r="77.11"/><path class="cls-7" d="M301.85,175.47a150,150,0,0,1,51.64,88.23,157.51,157.51,0,0,1,2.35,20.78,138.31,138.31,0,0,1-.49,20c-.41,4.29-1.13,8.56-1.72,12.84a3.28,3.28,0,0,1-.22.67,22.48,22.48,0,0,1-1.8-1.57c-1.09-1.18-2.12-2.43-3.18-3.64A35.65,35.65,0,0,1,342,303c-1.1-2.67-2.15-5.36-3.2-8.05a15.15,15.15,0,0,0-3.79-5.43,7.2,7.2,0,0,0-3.45-1.88,24.94,24.94,0,0,0-6.33-.7h0c-1.58-.12-3.15-.3-4.74-.34-1.82,0-3.64.07-5.46.11l-7.25,1.09c-1.62.26-3.26.46-4.87.79a16.36,16.36,0,0,1-7.13.36l-2.2-.49-2-.64-.57-.25a20.84,20.84,0,0,1-7.61-6c-.46-.6-.94-1.18-1.41-1.77a30.32,30.32,0,0,1-3.15-6.51,45.15,45.15,0,0,1-2-12.9,75,75,0,0,1,.79-12.34,25.7,25.7,0,0,0,.28-6.95,20.36,20.36,0,0,0-1.86-7,8.35,8.35,0,0,0-3.93-4,41.33,41.33,0,0,1-10.46-6.77h0l-.29-.29a2.12,2.12,0,0,0-.23-.35c-3-2.92-4.11-6.62-4.34-10.66a22.56,22.56,0,0,1,1.47-9.19c.58-1.09,1.24-2.15,1.73-3.29a18.77,18.77,0,0,1,2.9-4.1c1.32-1.65,3.19-2.61,4.76-3.94q4.14-2.35,8.26-4.73c1.34-.79,2.65-1.63,4-2.45,2-1,4.09-1.91,6.12-2.9a113.75,113.75,0,0,1,12.66-5.27C299.72,175.89,300.8,175.72,301.85,175.47Z"/><path class="cls-7" d="M56,288c.07-1.47.15-2.94.22-4.4A149.34,149.34,0,0,1,79,211.05c.71.54,1.46,1,2.13,1.6,3.65,3.09,6.25,7.09,9.29,10.71a17.73,17.73,0,0,0,6.29,4.95,19.33,19.33,0,0,0,7,1.62,35.81,35.81,0,0,1,10.63,2.27,17.69,17.69,0,0,1,8.74,9,10.35,10.35,0,0,1,.52,8.1c-.7,1.91-1.22,3.89-1.75,5.86a8.76,8.76,0,0,0,.37,6.52c1,1.93,2.15,3.78,3.24,5.67,1,2.4,2,4.8,2.88,7.22a10.27,10.27,0,0,1,.55,2.33,19.75,19.75,0,0,1-.33,5.79l-.14.33-.43,1.68-.14.32-.43,1.37-.17.35-.09.3-.14.25-.46,1.1a14.12,14.12,0,0,1-4.34,4.94c-.63.42-1.21.91-1.81,1.37a12.19,12.19,0,0,0-3.24,3.69c-.82,1.26-1.67,2.51-2.45,3.8-1.21,2-2.39,4.08-3.56,6.13a11.91,11.91,0,0,1-6.51,5.8,8.9,8.9,0,0,1-4.74-.39,13.62,13.62,0,0,1-6.34-5.27c-.91-1.5-1.85-3-2.69-4.51a14,14,0,0,0-5.34-5.55c-1.07-.61-2.11-1.27-3.18-1.87a65.39,65.39,0,0,0-11.88-5h0L69.05,291a.15.15,0,0,0-.21-.06l-.63-.21-.28-.06-.87-.24a.18.18,0,0,0-.24-.05l-.89-.23-1.69-.37c-1.95-.36-3.89-.71-5.83-1.1C57.59,288.51,56.8,288.25,56,288Z"/><path class="cls-8" d="M176.2,209.5l-.43-.07a10.32,10.32,0,0,0-1.48-.43c-3-.42-5.92-.39-8.38,1.9a10.18,10.18,0,0,1-2.59,1.32l-2.23.07a8,8,0,0,1-4.81-2.28l-.31-.25,0,0-.27-.23,0,0-.22-.21-1-1-.49-.68c-1.54-2.13-3.47-4-4.77-6.29a10.07,10.07,0,0,0-4.51-4.12l-.31-.2-.28-.12c-.75-.25-1.48-.56-2.25-.75a62,62,0,0,0-12.36-1.57,3,3,0,0,1-2-.83,7.67,7.67,0,0,0-.83-.51l-.29-.23,0,0-.21-.17-.54-.43c-.18-.22-.34-.45-.54-.65a12,12,0,0,1-3.47-6.68,27.83,27.83,0,0,1-.17-8.2,39.52,39.52,0,0,1,3.42-10.92c.16-.39.27-.79.4-1.18.53-.4,1-.84,1.58-1.19a148.51,148.51,0,0,1,46.26-19c3.27,3.13,4.58,7.26,5.68,11.44a46.82,46.82,0,0,1,1.53,12.26c0,3.41-.06,6.83-.08,10.24,0,1.09,0,2.19,0,3.28a15.94,15.94,0,0,0,5.09,11.38c.74.73,1.52,1.43,2.25,2.18a4.2,4.2,0,0,1,1.29,3.49c-.39,3.44-1.49,6.55-4.3,8.83a8.81,8.81,0,0,1-3.8,1.84c-.37.08-.73.19-1.09.29h-2l-.43,0Z"/><path class="cls-9" d="M118.06,389.9l-.22-.34c-.6-1.17-1.22-2.34-1.81-3.52a25,25,0,0,1-2.94-13.27c.07-.51.12-1,.22-1.51s.22-.94.33-1.41l.18-.8c.37-.93.68-1.88,1.1-2.79,1-2.1,1.86-4.24,3-6.26,1.3-2.35,2.81-4.59,4.22-6.87l.5-.64.2-.23,1.23-1.5.17-.21,1.25-1.48.23-.26,0-.05.2-.23.07,0v-.08l.17-.19c.08,0,.12,0,.12-.13l.11,0,0-.12a.15.15,0,0,0,.15-.17h.09l0-.09.25-.26,0,0,0,0,.28-.29.29-.28.28-.29,0,0,0,0,.27-.27,0,0,0-.05.22-.21.11,0,0-.11a.21.21,0,0,0,.18-.19l.08,0v-.09a.19.19,0,0,0,.19-.18h.1v-.1a.18.18,0,0,0,.17-.17h.12l0-.11c.08,0,.13,0,.13-.12l.18-.17a.1.1,0,0,0,.11-.11l.18-.17c.07,0,.1,0,.1-.11l.19-.18.08,0,0-.08.16-.17.16-.25.19-.31,1.78-1.73.25-.28,0,0,.21-.25a.15.15,0,0,0,.12-.21l.18-.35.35-.42L134,340l.63-.61.22-.25,0-.07.19-.21a.1.1,0,0,0,.1-.13l.11,0v-.12a.16.16,0,0,0,.15-.17l.3-.39,1.4-2a5.79,5.79,0,0,0,.43-.55,51.57,51.57,0,0,0,6.51-16,13,13,0,0,1,4-7.33h0l.83-.61c.5-.35,1-.67,1.51-1.05,5.24-4.09,11-4.4,16.91-1.95A33.24,33.24,0,0,1,179,317.36a98.2,98.2,0,0,1,8,10.21q1.25,1.81,2.58,3.58a28,28,0,0,0,7,6.57c1.55,1,3.09,2,4.69,3a32,32,0,0,1,13.18,15.07,42.87,42.87,0,0,1,3.75,12.34A37.84,37.84,0,0,1,215.3,389c-2.37,5.12-5.72,9.55-10.8,12.32a46.34,46.34,0,0,1-7.84,3.68c-2.48.8-5,1.58-7.38,2.54a38.67,38.67,0,0,0-6,2.83,43,43,0,0,1-15.62,5.87,27.32,27.32,0,0,1-10.47,0c-1.8-.41-3.63-.67-5.45-1l-2.56-.85h0c-.64-.27-1.27-.59-1.94-.8a48,48,0,0,1-8.36-3.78c-1.47-.83-2.82-1.88-4.22-2.83-.91-.89-1.8-1.79-2.72-2.67l-10.14-9.7c-.17-.16-.36-.3-.53-.45l-.3-.25-2.34-3.17-.21-.3-.14-.28Z"/><path class="cls-10" d="M289,397.25l-.11,0-.1.07c-3.6.24-7.2.7-10.81.29h0l-1.12-.26-1.14-.3-.07-.08-.09,0-.69-.24h0l-1.7-.72-.3-.13-.25-.16-.26-.14-.33-.24,0,0-.23-.18c-.78-.8-1.56-1.59-2.35-2.38l-.23-.28L264.82,387a16.62,16.62,0,0,0-1.05-1.66,45.92,45.92,0,0,0-4.26-4.94,13.53,13.53,0,0,0-7.18-3.74,34.22,34.22,0,0,1-6.5-2,7.81,7.81,0,0,1-3.64-3.09,6.77,6.77,0,0,1,.32-8.2,9.2,9.2,0,0,1,5.71-3.46c2-.34,3.94-.55,5.91-.84.46-.06.92-.17,1.38-.26l1.07-.19.32-.12a10.29,10.29,0,0,0,4.69-2.18c.85-.67,1.59-1.48,2.37-2.22l.22-.2,3.21-2.65.23-.19.33-.28c2.35-1.57,4.68-3.19,7.07-4.69a12.77,12.77,0,0,1,6-1.86c.94-.07,1.89-.07,2.83-.11l2.44.13.66.13,1.13.15.6.16,1.66.42.33.13.53.15.33.14.56.18c3.27,1.5,6.52,3,9.8,4.48,1.38.62,2.79,1.16,4.19,1.73l3.14,1.42.1.1.13,0,.38.21.24.15a.15.15,0,0,0,.2.1l.38.23,0,.08h.09a.13.13,0,0,0,.13.16l1,.7.73.53.05,0,.23.18,0,.09h.1c0,.11,0,.16.13.17l1.2,1c1.08,1.06,2.15,2.13,3.24,3.18a13.41,13.41,0,0,1,2.76,3.94,38.18,38.18,0,0,1,3.18,9.57c.95,5.42-.68,9.89-5.27,13a15.91,15.91,0,0,1-8.61,2.59c-1,0-2.09,0-3.13.14A8.73,8.73,0,0,0,305,390l-.57.21-.55.24-.32.14-.21.16-.05,0L303,391,299,393.54a27.83,27.83,0,0,1-6.63,2.85l-.13,0-.11.08-.9.23-.13,0-.11.08-.9.23-.13,0-.1.08Z"/><path class="cls-11" d="M237.35,315.6a9.91,9.91,0,0,1-7.09-2.49,18.31,18.31,0,0,1-1.9-1.72,18,18,0,0,0-6.51-4.48,10.53,10.53,0,0,0-1-.45c-3.27-1.16-5.21-3.51-6.6-6.65-1.21-2.73-.24-9.28,1.81-11.51a31,31,0,0,1,4.46-4l5.15-3.81a11.43,11.43,0,0,0,3.15-3.63,24,24,0,0,1,5.52-6.28c4-3.43,10-1.24,11.83,2a14.5,14.5,0,0,1,2,9.7c-.58,3.56-1.31,7.09-2,10.64a27.73,27.73,0,0,0-.71,8.61c.17,1.42.41,2.83.48,4.25a18.11,18.11,0,0,1-.13,3.68,6.61,6.61,0,0,1-5.87,5.87C239.05,315.48,238.2,315.52,237.35,315.6Z"/></g></svg>