<svg xmlns="http://www.w3.org/2000/svg" viewBox="0 0 412 618.07"><defs><style>.cls-1{fill:#b3e1e8;}.cls-2{fill:#a0dae0;}.cls-3{fill:#85d0d3;}.cls-4{fill:#74c7d9;}.cls-5{fill:#fff;}</style></defs><g id="Layer_2" data-name="Layer 2"><circle class="cls-1" cx="205.25" cy="289.05" r="152.42"/><path class="cls-2" d="M182,138.53c-22.44,63.27-9.43,132.22,34,177.68,46.27,48.37,107.86,50.08,120.59,50.16,0,0-43.07,68.55-116.83,75.6-60.54,5.79-103.27-28.25-113.72-37.18a155.57,155.57,0,0,1-48.54-75.91c-12.09-44.7.53-81.11,5.08-93.67,4.3-11.89,13.95-37.6,39.11-60.52C133,146.21,168.33,140.15,182,138.53Z"/><path class="cls-3" d="M115,166.23c.18,10,3.69,111.78,88.74,168.6,56,37.43,114.65,33.5,132.92,31.54,0,0-43.07,68.55-116.83,75.6-60.54,5.79-103.27-28.25-113.72-37.18a155.57,155.57,0,0,1-48.54-75.91c-11.51-42.58-.85-78.13,5.08-93.67A155.6,155.6,0,0,1,115,166.23Z"/><path class="cls-4" d="M54.13,270.54s93,181.46,282.52,97.15c0,0-43.07,68.55-116.83,75.61-60.54,5.79-103.27-28.25-113.72-37.18-35.78-30.55-46.53-68.37-48.54-75.91A149.13,149.13,0,0,1,54.13,270.54Z"/><circle class="cls-2" cx="152.48" cy="136.28" r="12.49"/><path class="cls-4" d="M123,415.34l-8.18,3.76a2.1,2.1,0,0,0-1.65,2.74l.69,4.37c.32,2.05.54,4.44-.92,5.92-.78.79-1.93,1.17-2.6,2.05a.74.74,0,0,0-.18.39c0,.35.41.57.76.51a3.53,3.53,0,0,0,.94-.45,8.15,8.15,0,0,1,2.56-.51,2.22,2.22,0,0,0,2-1.47,2.77,2.77,0,0,0-.15-1.27,18.52,18.52,0,0,1-.12-8.88A42,42,0,0,0,129,419.38"/><path class="cls-1" d="M351,328.07q7.94-2.86,16.08-5.13c1.11-.31,2.43-.57,3.3.19a3.54,3.54,0,0,1,.9,1.71l1.85,6c.56,1.83,1.48,4,3.37,4.23.91.12,1.84-.26,2.76-.11s1.73,1.32,1.05,1.94a9.16,9.16,0,0,0-5.48-.22,3.91,3.91,0,0,1-2.37.25c-1-.36-1.38-1.56-1.7-2.58a19,19,0,0,0-4.47-7.41A29.89,29.89,0,0,1,342.68,336"/><path class="cls-3" d="M70.18,221.76a32.41,32.41,0,0,1-7.26-3,5.07,5.07,0,0,1-2.31-2.12,5.47,5.47,0,0,1,0-3.35l.91-4.36a2.21,2.21,0,0,1,.27-.77,3.94,3.94,0,0,1,.65-.64A2.25,2.25,0,1,0,58.8,205a4.58,4.58,0,0,0-.27,1.42L57.64,217a6.31,6.31,0,0,0,.31,3.32c.78,1.59,2.68,2.21,4.34,2.85a25.4,25.4,0,0,1,9.61,6.62"/><path class="cls-1" d="M289.46,167.37c1.19-3.31,3.89-5.8,6.14-8.49s4.22-6.13,3.49-9.56c1.42-.28,2.72,1.15,2.88,2.59a8,8,0,0,1-1.13,4.16l-8.48,17.71"/><circle class="cls-5" cx="156.05" cy="131.99" r="2.5"/><circle class="cls-5" cx="144.62" cy="133.42" r="1.78"/><circle class="cls-5" cx="157.12" cy="131.64" r="0.36"/><path d="M157.12,130.92a.72.72,0,1,0,.71.71.71.71,0,0,0-.71-.71Z"/><path class="cls-5" d="M145.7,133.42a.36.36,0,1,1,0-.71.36.36,0,0,1,0,.71Z"/><path d="M145.7,132.35a.72.72,0,1,0,.71.71.71.71,0,0,0-.71-.71Z"/></g></svg>