<svg xmlns="http://www.w3.org/2000/svg" viewBox="0 0 412 618.07"><defs><style>.cls-1{font-size:314.25px;font-family:Rajdhani-Bold, Rajdhani;font-weight:700;}.cls-2{fill:#3d5b80;}.cls-3{fill:#1f2e40;}.cls-4{fill:#7ab6ff;}.cls-5{fill:#5c89bf;}.cls-6{fill:#afd3ff;}.cls-10,.cls-7{fill:#fff;}.cls-7{stroke:#000;}.cls-11,.cls-17,.cls-18,.cls-7,.cls-8{stroke-miterlimit:10;}.cls-11,.cls-17,.cls-7,.cls-8{stroke-width:0.42px;}.cls-16,.cls-17,.cls-18,.cls-8{fill:none;}.cls-8{stroke:#242328;}.cls-9{fill:#736357;opacity:0.34;}.cls-10{opacity:0.69;}.cls-11,.cls-15{fill:#c69c6d;}.cls-11{stroke:#957552;}.cls-12{fill:#957552;}.cls-13{fill:#ddc4a7;}.cls-14,.cls-19{fill:#70583e;}.cls-17{stroke:#ffd1a2;}.cls-18{stroke:#70583e;stroke-width:1.27px;}.cls-19{opacity:0.33;}</style></defs><g id="Layer_2" data-name="Layer 2"><text class="cls-1" transform="translate(-2061.96 -3037.27)"><tspan xml:space="preserve">Sidor att  fixa</tspan><tspan x="-494.14" y="418.99" xml:space="preserve">- Updates from  team</tspan><tspan x="383.21" y="837.99">- Footer</tspan><tspan x="-324.3" y="1256.98">- About the project</tspan><tspan x="261.13" y="2094.97">- Register</tspan><tspan x="439.46" y="2513.96">- E-day</tspan><tspan x="448.42" y="2932.96">- Rules</tspan><tspan x="324.45" y="3351.95">- Actions</tspan></text><path class="cls-2" d="M280.07,111.4a2.38,2.38,0,0,1-.43-.54c-.1-.16-.19-.32-.28-.48a74.85,74.85,0,0,0-22.85-21.49,93.51,93.51,0,0,0-45-12.14c-2.18,0-4.23,0-6.1,0-12.18.16-36.46.47-56.65,16.76a86.16,86.16,0,0,0-22.34,26.56c-1.61,3.43-3.07,6.93-4.44,10.47a2.12,2.12,0,0,1-.35.61,70.83,70.83,0,0,0-3.11,13.33c-2.2,16.55,2,29.5,4.36,36.44,9,26.63,16.1,32.08,47.52,64.07,23.34,23.76,27.9,47.1,27.9,47.1h4.59a17.15,17.15,0,0,1,4.47,0h.8a220.52,220.52,0,0,1,20.16-33.31c13.64-18.6,21.78-23.53,35.43-40.1,5.34-6.47,9.94-12,13.86-17.07a1.77,1.77,0,0,1,.21-.41c.95-1.29,2-2.51,3-3.76,7.65-10.36,12.1-18.82,13.73-29.46C297.46,148.6,291.3,127.73,280.07,111.4Z"/><path class="cls-3" d="M209.62,74.25s-2.12-4.67-1.27-7.64-8-3.82-7,0,0,9.67-2.89,10.14,13,0,13,0Z"/><path class="cls-4" d="M121.35,143.8a248.64,248.64,0,0,1,45.4-11.46c54.35-8.35,99.95,3.28,127.35,13.08a58.21,58.21,0,0,1-1.1,30,56.6,56.6,0,0,1-8.07,16.12,141,141,0,0,0-19.32-7.72s-10.22-2.9-21.87-5.09c-49.2-9.28-91.64-2.91-120.09,4.32a56.48,56.48,0,0,1-5.17-38.59Z"/><path class="cls-5" d="M270.62,119.47c.32.91.6,1.83.92,2.74a1.56,1.56,0,0,0,.49.78,1.07,1.07,0,0,0,1.47-.65,3,3,0,0,0-.12-1.83,47.14,47.14,0,0,0-6.26-13.19,35.61,35.61,0,0,0-8.93-9.54,20.71,20.71,0,0,0-4.38-2.39c-.53-.2-1.91-.67-1.62.37A6.18,6.18,0,0,0,253.81,98c.86.91,1.81,1.75,2.72,2.61,1.8,1.7,3.56,3.43,5.24,5.24a42.32,42.32,0,0,1,8.2,12C270.2,118.35,270.42,118.91,270.62,119.47Z"/><path class="cls-5" d="M250.2,118.83c1.19-2.76-.19-5.79-1.57-8.19-1.65-2.88-3.46-5.67-5.19-8.5a60.77,60.77,0,0,1-3.22-5.94,20.85,20.85,0,0,0-2.36-4,20,20,0,0,0-2.31-2.38,17.88,17.88,0,0,0-3.92-3c-.48.93.45,2.2.91,3l1.92,3.14,3.82,6.29,7.65,12.58,2.16,3.56,1.07,1.76C249.29,117.33,250.28,118.66,250.2,118.83Z"/><path class="cls-5" d="M234.14,109.42c1.22,3.63,1.91,7.63,4.49,10.46,1.65-1.63,1.15-4.37.46-6.59-1.57-5.05-3.63-9.86-5.69-14.73-1.1-2.6-2-5.34-3.93-7.48a20.26,20.26,0,0,0-4.8-4.06c.32,3,1.81,6.16,3.11,8.88,1.38,2.88,2.94,5.67,4.31,8.55A44.77,44.77,0,0,1,234.14,109.42Z"/><path class="cls-5" d="M218.72,98.17l5.82,17.63a2.31,2.31,0,0,0,.57,1,.77.77,0,0,0,1.07,0,1.1,1.1,0,0,0,.13-.82,66,66,0,0,0-1.65-9.48c-.62-2.46-1.34-4.88-1.9-7.35a38.71,38.71,0,0,0-1.53-5.3c-.51-1.38-1-2.77-1.68-4.09a5.07,5.07,0,0,0-1-1.47c-.25-.24-1.07-.87-1.45-.61s-.23,2.1-.21,2.58a18.41,18.41,0,0,0,.33,2.66A44.86,44.86,0,0,0,218.72,98.17Z"/><path class="cls-5" d="M212.75,104c-.33-5.15-.7-10.44-3-15.06-.36-.73-1.19-1.55-1.85-1.07a1.45,1.45,0,0,0-.45.8c-1.18,4.25-.05,8.74.71,13.08a77.89,77.89,0,0,1,1.15,12.75c0,1.29.14,2.84,1.28,3.44,1.5-1.54,1.77-3.86,1.85-6a62.86,62.86,0,0,0-.79-12.7"/><path class="cls-5" d="M201.92,87.64c0-.73-.27-1.72-1-1.64a1.18,1.18,0,0,0-.57.28c-1.78,1.38-2.5,3.7-3,5.89a60.31,60.31,0,0,0-.51,23.94,1.35,1.35,0,0,0,.43.9c.64.44,1.38-.43,1.66-1.17a40.7,40.7,0,0,0,2.28-12.17c.16-2.84.34-5.68.48-8.52C201.83,92.65,201.91,90.14,201.92,87.64Z"/><path class="cls-5" d="M192.51,92.35a9.11,9.11,0,0,0,.77-4.43,1,1,0,0,0-.33-.69c-.49-.39-1.16.16-1.53.67-5,7-6.83,15.81-8.23,24.34-.4,2.43-.68,5.23,1,7.08,2.12-2.93,2.63-6.61,3.13-10.1a51.15,51.15,0,0,1,1-5.37c.41-1.56,1.17-2.88,1.72-4.37C190.84,97.11,191.66,94.72,192.51,92.35Z"/><path class="cls-5" d="M167.66,121.69c2.92-1.9,4.4-5.33,5.72-8.56l4.06-9.9c.67-1.63,1.34-3.27,2-4.9.39-.94.63-1.81-.72-1.74s-1.75,1-2.35,2c-.83,1.33-1.61,2.7-2.33,4.09a63.82,63.82,0,0,0-6.38,19Z"/><path class="cls-5" d="M171.71,91.7a50.1,50.1,0,0,0-16.88,31.67c6.74-5.41,7.43-15.37,12.22-22.56,1.87-2.8,4.37-5.18,5.85-8.19a1.1,1.1,0,0,0,.17-.74c-.16-.72-1.24-.52-1.85-.1a12.59,12.59,0,0,0-2.62,2.43"/><path class="cls-5" d="M159.15,96.47a80.62,80.62,0,0,0-7.7,10.5c-3,4.84-5.49,10.3-5.07,16,2.9-1.22,4.37-4.39,5.66-7.26a166.73,166.73,0,0,1,10.64-19.91,7.45,7.45,0,0,0-7,5.18"/><path class="cls-5" d="M152.32,96.13a114.5,114.5,0,0,0-11.65,19.5c-.33.71-.55,1.74.14,2.09a1.39,1.39,0,0,0,1.39-.32,13.38,13.38,0,0,0,3.15-3.66q4.82-7.2,9.55-14.46c1-1.5,2-3.12,2-4.91a1.21,1.21,0,0,0-.31-.94c-.42-.36-1.06-.11-1.53.19a14.11,14.11,0,0,0-6.14,8.39"/><path class="cls-6" d="M288.21,173.29a39.46,39.46,0,0,0,1.73-7.58,3.43,3.43,0,0,0-.53-2.87c-1.63,1.13-2.2,3.23-2.65,5.16-.55,2.36-1.09,4.85-.4,7.18a12.71,12.71,0,0,0,3.06-5.17"/><path class="cls-6" d="M283.54,167.84a59.23,59.23,0,0,0,2-16.17,1.25,1.25,0,0,0-1.47.46,3.49,3.49,0,0,0-.56,1.55L282.3,160a12.87,12.87,0,0,0-.43-6.28c-1.3,1.2-1.3,3.22-1.2,5l.32,5.67a6.37,6.37,0,0,0,1.88-3l-2,9.29a10.34,10.34,0,0,0-.26,4.87c1.83-2.15,2.57-5,3-7.81s.69-5.65,1.71-8.28"/><path class="cls-6" d="M272,149.92c-.06-.36-.18-.79-.52-.92-.6-.23-1,.6-1.13,1.23a55.06,55.06,0,0,0-.51,13.63c0,.34,0,.89.33,1.13.48.38.62-.38.79-.75a22.71,22.71,0,0,0,1.07-2.73,15.78,15.78,0,0,0,.37-4A35.71,35.71,0,0,0,272,149.92Z"/><path class="cls-6" d="M264.74,159c.38-4,.71-8.24-1.19-11.77a18.32,18.32,0,0,0-.52,3.29c-.58,6.42-1.17,12.84-1.38,19.28.41.28.84-.32,1-.8a81.37,81.37,0,0,0,2.44-13.68"/><path class="cls-6" d="M246,153.35q-.17,5.75-.65,11.48c-.1,1.17-.29,2.84.57,3.8,1.15-1.31,1.4-3.31,1.64-4.95.2-1.4.45-2.78.67-4.17a37,37,0,0,0,.39-7.29c-.07-1.89-.22-4.17-1.37-5.76C246,148.35,246.09,151.18,246,153.35Z"/><path class="cls-6" d="M234.42,146.46a4.33,4.33,0,0,0-1-2.5c-.66.23-.89,1-1,1.71a116.2,116.2,0,0,0-2.3,22.08c0,.6.17,1.4.76,1.43s.84-.59,1-1.11a67.77,67.77,0,0,0,2.14-8.73c.32-2.32.54-4.73.68-7.06A28.32,28.32,0,0,0,234.42,146.46Z"/><path class="cls-6" d="M177.66,152.69a47.52,47.52,0,0,0,.63-5,2.23,2.23,0,0,0-.12-1.15.8.8,0,0,0-.94-.49,1.08,1.08,0,0,0-.5.47,9.09,9.09,0,0,0-1.08,4.22,58,58,0,0,0,.21,10.7,3.07,3.07,0,0,0,.77,2A5,5,0,0,0,178,160a35.66,35.66,0,0,0,.06-3.87l-.17-7.72"/><path class="cls-6" d="M163.38,146.84l-.19,3.94a1.37,1.37,0,0,0,1.87-.58,3.53,3.53,0,0,0,.25-2.16,1.5,1.5,0,0,0-.6-1.26,1,1,0,0,0-1.24.42,3.05,3.05,0,0,0-.42,1.36"/><path class="cls-6" d="M181.79,147.71l.59-3a1.4,1.4,0,0,0,0-1,1,1,0,0,0-1.4-.21,2.47,2.47,0,0,0-.84,1.33,13.62,13.62,0,0,0,.18,9.17c.09.22.22.48.46.5s.42-.22.53-.44c1.31-2.5,1.1-5.49.86-8.3"/><path class="cls-6" d="M165.11,169.83l-1.88-23.37a6.89,6.89,0,0,0-.61-2.74c-.93.45-1.17,1.65-1.28,2.68a66.66,66.66,0,0,0,.11,14.4c.47,4,1.36,8.14,3.74,11.42a6.11,6.11,0,0,0-.49-6.16"/><path class="cls-6" d="M148.77,147.68a10.89,10.89,0,0,0-1.28,8.69l-.24-2c0-.36-.12-.8-.46-.95a.75.75,0,0,0-.92.38,2.19,2.19,0,0,0-.19,1.08c0,3.41.1,6.83.32,10.24a4.55,4.55,0,0,0,1,3.17c1.11-1.64,1.12-3.79.9-5.76s-.64-4-.22-5.93a31.89,31.89,0,0,0,3.37,14.19c.43.87,1.19,1.15,1.74.2a4,4,0,0,0,.28-2.66c-.32-1.88-1-3.72-1.48-5.57a61.86,61.86,0,0,1-1.32-8.45C150.06,152.19,150.16,149.41,148.77,147.68Z"/><path class="cls-6" d="M139.14,148.08c0-.74-.33-1.77-1-1.6a1.12,1.12,0,0,0-.52.35,7.84,7.84,0,0,0-1.58,4.72A44.08,44.08,0,0,0,139.17,172c.11.27.26.57.55.61.48.06.65-.62.63-1.11a82,82,0,0,0-1.06-10,34.16,34.16,0,0,1-.29-7.63C139.07,151.93,139.11,150,139.14,148.08Z"/><path class="cls-6" d="M126.22,155.5c-.15-1.36-.43-2.91-1.62-3.58a24.71,24.71,0,0,0,.81,15.25,7.63,7.63,0,0,0,1.4-4.45c.1,3.27.39,6.72,2,9.64.43.8,2.25,3.6,2.72,1.36a7.87,7.87,0,0,0-.16-2.6c-.14-1-.33-2-.51-3-.5-2.69-1.09-5.38-1.38-8.11s-.28-5.57-.32-8.35c0-.67-.12-3.86-1.63-2.71-.58.45-.62,1.48-.72,2.14q-.24,1.5-.42,3A7,7,0,0,0,126.22,155.5Z"/><path class="cls-7" d="M205,291.92a33.24,33.24,0,0,0-4.11.15,34.18,34.18,0,0,0-3.55.55c0,.71.9,1,1.6,1.13a27.28,27.28,0,0,0,9.45-.3c.55-.11,1.24-.49,1.06-1-.1-.3-.67-.45-.91-.5-1.87-.4-8.4.25-10.85.5"/><path class="cls-8" d="M204.12,291.48c.2-24.81,7-48.57,9.95-73.6,2.55-20.37,4.67-39.89,5.52-59.83.42-14.85-.42-30.13-1.27-45C217,100.34,214.07,88,208,77.17"/><path class="cls-8" d="M211.27,77.18c7,5.34,12.14,13,15.53,21.46a130.57,130.57,0,0,1,7.64,31.4c3.82,40.31-8.91,78.08-19.52,117.11-4.24,15.28-8.91,29.28-10.66,44.36"/><path class="cls-8" d="M214,77a75.39,75.39,0,0,1,27.78,32.22c5.93,13.08,8.27,27.59,8,41.89-.27,15.5-3.66,30.77-8.48,45.45-5,15.17-11.47,29.77-18,44.33-6.59,14.81-13.18,29.66-18.13,45.1q-.9,2.82-1.73,5.65"/><path class="cls-8" d="M215.81,77.3c7.78-.3,14.13,5.43,19.42,10.4,6,5.61,12,11.27,17.07,17.73,9.95,12.62,14.38,28,14.09,44-.31,16.32-5.27,32-12.24,46.68-7.31,15.35-16.68,29.57-25.49,44.07s-17.08,29.3-22.09,45.48c-.61,1.95-1.16,3.93-1.66,5.92"/><path class="cls-8" d="M215.09,76.39C230,82.26,245,88.6,255.12,101.6c10.49,13.5,17.67,29.85,18.06,47.07s-4.91,34-12.71,49.2c-7.88,15.34-18.17,29.24-28.23,43.18-5.11,7.08-10.17,14.19-14.86,21.54s-9.41,15-12.46,23.12a35.06,35.06,0,0,0-1.71,5.94"/><path class="cls-8" d="M208.35,76.78c26.52-.2,48.58,15.5,65.13,35.44,6.36,8.49,9.76,17.82,11.45,28,1.28,12.3-.42,24.18-4.24,36.06-5.51,16.13-14.85,29.71-25.46,43.28-18.67,23.77-39.46,44.13-50,72"/><path class="cls-8" d="M204.12,76.22c-8.46,9.75-10.52,23.72-12.21,36.06a264,264,0,0,0-2,43.18c.41,14.47,1.72,28.91,3.4,43.29,1.7,14.62,3.77,29.2,5.63,43.8s3.49,29.12,4.33,43.76c.11,1.8.2,3.6.28,5.4"/><path class="cls-8" d="M201.89,292c-4.28-16.27-12.85-31-22.16-44.83s-19.8-27.41-28.24-42.06c-8.32-14.44-14.82-30.28-15.7-47.09a79.87,79.87,0,0,1,46.5-76.92Q184.84,80,187.47,79"/><path class="cls-8" d="M196.68,77c-8.06,5.48-15.28,11.85-20.79,20.33l-1.28,1.27c-25.46,39-15.27,85.29,3.4,123.9.42.85,0,1.28.42,2.13,11,21.64,18.25,43.7,23.45,67.2"/><path class="cls-8" d="M200.43,76.59c-5.67,3.08-9.68,8.4-12.76,13.93a95.55,95.55,0,0,0-7.92,19,132.43,132.43,0,0,0-5.08,41.77c.41,15.13,2.94,30.12,6.3,44.85,3.44,15,7.76,29.87,11.76,44.77s7.66,29.89,9.76,45.17q.39,2.84.71,5.69"/><path class="cls-8" d="M177.47,80.44c-8.95,2.82-16.57,8.75-23.57,15-13,11.63-25,25.53-29.2,42.45-4,16.25-.4,33.65,6.79,48.78s17.73,28.36,28.17,41.46c12.58,15.79,16.93,19,25,31.41a173.15,173.15,0,0,1,16.43,31.94"/><path class="cls-8" d="M196.45,76.31a73.05,73.05,0,0,0-21,11.66A77.9,77.9,0,0,0,159,105.76a80.77,80.77,0,0,0-10.82,24,88,88,0,0,0-2.9,26.94,98.36,98.36,0,0,0,4.22,23.8,146.82,146.82,0,0,0,8.64,21.68c3.44,7.1,7.28,14,11.25,20.79s8.13,13.67,12.12,20.55,7.81,13.75,11.24,20.88a148.28,148.28,0,0,1,8.62,21.87q.81,2.73,1.48,5.49"/><path class="cls-8" d="M205.56,77.51q-.13,28.6-1.21,57.2"/><path class="cls-8" d="M204.55,145.12a214.5,214.5,0,0,0-.93,27.3"/><path class="cls-8" d="M204.29,189.31c0,34.08-.82,68.45-.6,102.49"/><circle class="cls-9" cx="203.68" cy="345.81" r="17.18"/><path class="cls-10" d="M213.4,340.79c.42,2.17.1,4.41.29,6.61a1.14,1.14,0,0,0,.19.63c.34.4,1,.18,1.44-.06a8.27,8.27,0,0,0,2.24-1.54,5.44,5.44,0,0,0,.66-5.77,12.47,12.47,0,0,0-4-4.61,16.81,16.81,0,0,0-2.89-1.91c-.33-.17-2.27-1.21-2.48-.72s1,1.49,1.27,1.77a10.42,10.42,0,0,1,2,2.39A9.76,9.76,0,0,1,213.4,340.79Z"/><path class="cls-10" d="M191.75,350.61a3.53,3.53,0,0,1,.62,1,2.56,2.56,0,0,1-.09,1.52,8.61,8.61,0,0,1-.83,1.95.72.72,0,0,1-.3.32c-.25.1-.51-.12-.7-.32a12.69,12.69,0,0,1-3.16-7.46,12.46,12.46,0,0,1,.3-3.8c.19-.77.38-2.26,1.41-2.35.43,0,.46.22.43.58a14,14,0,0,0-.07,1.71,12.47,12.47,0,0,0,.6,3.41A11.47,11.47,0,0,0,191.75,350.61Z"/><path class="cls-10" d="M191.07,339.74a11.17,11.17,0,0,1-.42,1.58,2.23,2.23,0,0,0,0,1.59,1.05,1.05,0,0,0,1.36.52,1.44,1.44,0,0,0,.52-.62,3.27,3.27,0,0,0,.45-2.21,1.54,1.54,0,0,0-1.65-1.26"/><ellipse class="cls-8" cx="203.89" cy="308.25" rx="10.4" ry="1.91"/><path class="cls-8" d="M197.62,292.67c-1.17,5.25-2.6,10.46-4.27,15.58"/><path class="cls-8" d="M201.35,291.71a103.1,103.1,0,0,0-3,18.24"/><path class="cls-8" d="M203.12,291.69a166,166,0,0,0-1.25,19.17"/><path class="cls-8" d="M209.09,292.18l4.77,16.29"/><path class="cls-8" d="M207.08,291.63q1.62,9.08,3.44,18.11"/><path class="cls-8" d="M208.17,291.79q1.4,7.51,3.06,15"/><path class="cls-8" d="M204.43,291.74l-.29,14.3"/><path class="cls-8" d="M199.68,292.11c-1,4.84-1.86,9.73-2.51,14.64"/><path class="cls-8" d="M198.47,293.7q-1.51,6.68-2.69,13.43"/><path class="cls-8" d="M201.69,294A122.62,122.62,0,0,0,200,306.53"/><path class="cls-8" d="M206,293.64l1.69,12.92"/><path class="cls-8" d="M205.16,291.71q.76,9.26,1.24,18.57"/><path class="cls-8" d="M198.56,293.76c-1.3,5.3-2.6,10.64-2.85,16.08"/><path class="cls-8" d="M193.44,308.76c-4,11.07-8.08,22.54-7.28,34.29.43,6.3,2.48,12.81,7.19,17a10.9,10.9,0,0,0,3.83,2.34,15.08,15.08,0,0,0,5.28.45c2-.08,4-.22,6-.4a11.9,11.9,0,0,0,4.5-1,9.87,9.87,0,0,0,3.51-3.55c3.42-5.31,4.52-11.85,4.26-18.16s-1.82-12.48-3.37-18.6L214,307.65"/><path class="cls-8" d="M199.19,306.43a93.42,93.42,0,0,0-4.12,30.81c.31,9.33,2.26,19.09,8.39,26.13"/><path class="cls-8" d="M207.66,306.08a105.61,105.61,0,0,1,3.15,38.85c-.66,6.24-1.92,12.52-4.88,18.05"/><path class="cls-8" d="M210.36,310.12c1,7.05,1.62,14.15,2,21.26"/><path class="cls-8" d="M202.39,311.15q.21,8.82.8,17.63"/><path class="cls-8" d="M196.18,310.38a52.8,52.8,0,0,0-3.48,22.73"/><path class="cls-11" d="M214.63,402.62c-1.14,1.48-2.56,2.73-3.68,4.23a6.79,6.79,0,0,0-1.54,5.21c.26,1.22,1,2.3,1.23,3.53.35,2-.67,3.88-.7,5.85a5.88,5.88,0,0,0,1.52,4,1.2,1.2,0,0,0,.67.44,2.29,2.29,0,0,0,.84-.17,2.89,2.89,0,0,1,2.88,1.29c.68.89,1.06,2,1.67,2.9,1.72,2.61,5.09,3.75,8.21,3.63s6.1-1.32,9-2.49l5.57-2.26a5.45,5.45,0,0,0,2.31-1.42c.92-1.12.82-2.73,1.26-4.11.92-2.82,4.07-4.51,4.82-7.38a6.1,6.1,0,0,0-1.44-5.32,11,11,0,0,0-4.79-3,3.14,3.14,0,0,1-1.37-.73,3.54,3.54,0,0,1-.6-1.59c-.72-3-3.16-5.31-5.86-6.79a38.69,38.69,0,0,0-7.86-2.94c-1.34-.39-2.68-.78-4-1.06a7.75,7.75,0,0,0-3.38-.21c-2.09.54-2.1,3.25-2.75,4.9A13.91,13.91,0,0,1,214.63,402.62Z"/><path class="cls-12" d="M234.71,430.61c-1.61-1.52-4.2-.79-6.4-1-4.61-.43-7.51-5-9.69-9.09a11.46,11.46,0,0,1-1.13-2.62,11.6,11.6,0,0,1,0-4.07q.72-5.49,1.43-11c.05-.35.08-.71.11-1.06.15-2-.2-4.19-1.61-5.24a7.28,7.28,0,0,1-1.61,2.66,37.19,37.19,0,0,1-4.68,6.76,8.68,8.68,0,0,0-2.11,4c-.23,1.82,1.16,3.31,1.49,5.05.55,2.89-1.41,5.7-.61,8.5,1,3.45,4.64,2.41,6.52,4.85,1.11,1.44,1.15,3.36,2.66,4.52a8.38,8.38,0,0,0,4.15,1.62c3.39.37,6.64-1.33,9.66-2.63.7-.3,1.4-.59,2.11-.86A2.74,2.74,0,0,0,234.71,430.61Z"/><path class="cls-13" d="M237.62,404.81c.6,1.22,1.06,2.61,2.18,3.37a10.55,10.55,0,0,1,1.66,1c.46.45.59,1.36,0,1.67a1.29,1.29,0,0,1-.87.05,6.3,6.3,0,0,1-3.75-3.06c-.88-1.41-1.46-3-2.34-4.38a12.59,12.59,0,0,0-4.39-4.22,9.77,9.77,0,0,1-1.5-.8c.08-.3,1.14,0,1.31,0a13,13,0,0,1,1.8.68A12.8,12.8,0,0,1,235,401.3,12.1,12.1,0,0,1,237.62,404.81Z"/><path class="cls-12" d="M238.3,423.14a3.47,3.47,0,0,0,3.66.36,8,8,0,0,0,2.9-2.54c.55-.71,1.06-1.45,1.64-2.13s1.34-1.2,1.88-1.9c.26-.35.79-1.23,0-.88a12.12,12.12,0,0,0-2.5,1.7c-1,.79-2,1.63-2.92,2.51a3.89,3.89,0,0,1-1.29.95c-.45.14-.94.09-1.4.23A3.14,3.14,0,0,0,238.3,423.14Z"/><path class="cls-14" d="M209.9,413.14a12,12,0,0,0,2.72,3.76.83.83,0,0,0,.16-1.17,5.21,5.21,0,0,0-1-.9,6.12,6.12,0,0,1-1.45-2.66,4.48,4.48,0,0,1-.28-1.19,4.36,4.36,0,0,1,.78-2.27l3.25-5.66c-2.15.67-3.6,2.66-4.73,4.61a5.41,5.41,0,0,0-.94,2.65c0,2.22,2.3,3.69,3.09,5.76"/><path class="cls-14" d="M227.45,425.25a1.25,1.25,0,0,1-.33,1.41,3.56,3.56,0,0,1-1.36.72l-6.49,2.35a1.09,1.09,0,0,0-.45.24,1,1,0,0,0-.21.4,4.12,4.12,0,0,0-.17,1.56c-.38-.22-.46-.76-.55-1.16a10.78,10.78,0,0,1-.29-1.25,1.53,1.53,0,0,1,.72-1.57,8.26,8.26,0,0,1,2.69-.37,18.15,18.15,0,0,0,3.17-.79A17.42,17.42,0,0,0,227.45,425.25Z"/><path class="cls-14" d="M220.31,406.9c.14-.11.31-.23.47-.18a.57.57,0,0,1,.28.23l1.55,2a.72.72,0,0,1,.15.27c.1.32-.22.63-.55.69a4.12,4.12,0,0,1-1-.06,5.47,5.47,0,0,0-2.13.49,3.26,3.26,0,0,1-1.54.21c-.71-.13,0-.84.27-1.14A16.55,16.55,0,0,1,220.31,406.9Z"/><path class="cls-13" d="M224.61,425.69a49.8,49.8,0,0,1,5.07-3c.3-.13.71-.21.87.06a42.26,42.26,0,0,1-3.73,2.58,18,18,0,0,1-4.13,1.92,10.38,10.38,0,0,1-1.22.31,2.31,2.31,0,0,1-1,.13c.16-.5,1.25-.63,1.66-.78A17.21,17.21,0,0,0,224.61,425.69Z"/><path class="cls-13" d="M219.35,395.92l.88,2.09a5.27,5.27,0,0,1,2.42-.65,1,1,0,0,0,.63-.14.65.65,0,0,0,.06-.86,1.77,1.77,0,0,0-.77-.54c-.41-.17-.82-.33-1.23-.46a2.35,2.35,0,0,0-1.56-.11.91.91,0,0,0-.52,1.28"/><path class="cls-15" d="M202.53,435c-4.76,5.08-6.42,12.29-7.39,19.18a45.23,45.23,0,0,0-.51,5.56c0,1.4.08,2.8.17,4.2a4.63,4.63,0,0,0,.33,1.7,10.28,10.28,0,0,0,1,1.37c.89,1.3,1,3.1,2.21,4.15a11.08,11.08,0,0,0,1.48,1c2.38,1.56,3.18,4.6,4.09,7.29a3.86,3.86,0,0,0,1,1.76c.95.86,2.41.68,3.66.44l13.18-2.45a1.57,1.57,0,0,0,.61-.2,1.67,1.67,0,0,0,.53-.85l1.31-3.6a3.75,3.75,0,0,0,.32-1.38,5.15,5.15,0,0,0-.62-1.88c-1.86-4.45.95-9.89-1.08-14.27-1.06-2.3-3.34-4-3.92-6.44-.29-1.26-.12-2.65-.72-3.79a5,5,0,0,1-.6-1.18c-.23-1,.68-1.92,1.59-2.4a6.24,6.24,0,0,0,2.56-1.69,1.08,1.08,0,0,0,0-1.36,1.28,1.28,0,0,0-.59-.27c-1.49-.35-3.05-.25-4.57-.5A4.72,4.72,0,0,1,212.8,437c-.31-.7-.35-1.49-.68-2.18-.6-1.24-2-1.87-2.76-2.95a12.3,12.3,0,0,1-1.57-4.07,3.27,3.27,0,0,0-.74-1.32c-.42-.44-.37.11-.36.45a7.58,7.58,0,0,1-1,4.5A24,24,0,0,1,202.53,435Z"/><path class="cls-12" d="M234,402.74c1,1.57,1.78,3.3,2.7,4.94a6.58,6.58,0,0,0,2.51,2.81,19.41,19.41,0,0,1,1.85.85,1.47,1.47,0,0,1,.69,1.74c-.36.75-1.45.73-2.23.43a4.23,4.23,0,0,0-2.37-.63,3.54,3.54,0,0,0-1.6,1.15,20.55,20.55,0,0,1-5.67,3.51,2.89,2.89,0,0,1-1.52.4c-.53-.06-1-.55-.93-1.06a22.47,22.47,0,0,0,6.83-3.2,4.47,4.47,0,0,0,1.82-2c.58-1.58-.52-3.23-1.35-4.7s-1.53-3.26-2.41-4.84a11.43,11.43,0,0,0-1.5-2.16c-.25-.28-.12-.34.21-.25a2.55,2.55,0,0,1,1,.65A11.33,11.33,0,0,1,234,402.74Z"/><path class="cls-12" d="M203.3,434.33A119.3,119.3,0,0,0,198,449c-1.6,5.48-2.76,11.55-.39,16.73.5,1.11,1.16,2.14,1.69,3.24a7.64,7.64,0,0,0,.77,1.4,8.49,8.49,0,0,0,1.64,1.4,10.89,10.89,0,0,1,3.87,5.74,4.09,4.09,0,0,0,.48,1.29,3.33,3.33,0,0,0,1,.82l3.1,1.94a14.55,14.55,0,0,1-8.09-.19,4.37,4.37,0,0,1-2.57-1.71,9.23,9.23,0,0,1-.56-1.55c-1-3-4.1-5-5.2-8a12.91,12.91,0,0,1-.62-3.56,56.25,56.25,0,0,1,.34-14.38,34.21,34.21,0,0,1,7.06-15.36A13.79,13.79,0,0,1,204.9,433a4.66,4.66,0,0,0-2.47,3.69"/><path class="cls-12" d="M222.21,467.64l-.75,6.07a5,5,0,0,1-.62,2.19,4.89,4.89,0,0,1-1.21,1.19c-3.48,2.53-8.59,2.9-13.31,3.14A6.5,6.5,0,0,1,206,482q7.13-.56,14.17-1.54a6.58,6.58,0,0,0,2.69-.77,4.56,4.56,0,0,0,1.56-2.1l1.19-2.56a2.54,2.54,0,0,0,.35-1.4,3.2,3.2,0,0,0-.77-1.4,10.27,10.27,0,0,1-2-4.88,10.13,10.13,0,0,1,0-2.58c0-.13.28-1,.14-1s-.55.53-.59.65A16.63,16.63,0,0,0,222.21,467.64Z"/><path class="cls-16" d="M215.15,458.65a2.23,2.23,0,0,1-1,.68,6.73,6.73,0,0,1-1.49,0c-1.45.1-2.36,1.6-3.64,2.3s-2.75.74-3.27,1.94c.62-.52,1.57-.11,2.36-.28a4.47,4.47,0,0,0,1.82-1.26c1.57-1.33,3.72-1.7,5.64-2.46a2.26,2.26,0,0,0,1.74-2,14.17,14.17,0,0,0,.43-4.89,2.1,2.1,0,0,0-1,1.81,5.75,5.75,0,0,1-.61,2.57A6.87,6.87,0,0,1,215.15,458.65Z"/><path class="cls-12" d="M202.6,446.28a3.4,3.4,0,0,0,.7,1.24,1.76,1.76,0,0,0,1.12.84c.49,0,.9-.34,1.34-.57,1.35-.72,3.08-.12,4.51-.69a4.13,4.13,0,0,1-1.85,1.57,1.26,1.26,0,0,1-.52.19c-.31,0-.59-.2-.88-.3-1.19-.4-2.32,1.05-3.56.88-.9-.12-1.45-1.05-1.69-1.93a25.38,25.38,0,0,1-.42-3.38c0-.33,0-.63.41-.57s.55.53.64.89C202.55,445.06,202.44,445.68,202.6,446.28Z"/><path class="cls-12" d="M218.61,442.46c-.5.32-1,.69-1.44,1.06a1.67,1.67,0,0,0-.61.71,1.69,1.69,0,0,0,0,.67l.16,2.26.57-2.22a2.19,2.19,0,0,1,.36-.86c.4-.5,1.12-.56,1.73-.76a3.54,3.54,0,0,0,2-1.78c.09-.17.49-1.1-.08-.89-.17.06-.37.36-.52.48a7.33,7.33,0,0,1-.64.45C219.64,441.89,219.11,442.15,218.61,442.46Z"/><path class="cls-12" d="M219.71,468.94a4.41,4.41,0,0,0,.65-1.21,15,15,0,0,1,2.8-3.84L222,468a3,3,0,0,1-.94,1.75,8,8,0,0,1-1.24.53c-1.49.73-1.78,2.77-3,3.83a6,6,0,0,1-2.46,1l-2.51.63a2.07,2.07,0,0,1-1.64,0,7.44,7.44,0,0,1,1.44-1A8.31,8.31,0,0,1,213,474c.62-.24,1.29-.3,1.91-.53a2.39,2.39,0,0,0,1.34-1.46c.18-.45.12-.95.41-1.36a2.29,2.29,0,0,1,.81-.6A6.3,6.3,0,0,0,219.71,468.94Z"/><path class="cls-14" d="M202.16,447.61a2.06,2.06,0,0,0,.91,1.49,1.93,1.93,0,0,0,1.77-.26,5.44,5.44,0,0,1,1.66-.81,5.55,5.55,0,0,1,1.57.12,1.83,1.83,0,0,0,1.5-.31,10.08,10.08,0,0,1-5.73,2.43,3.85,3.85,0,0,1-2.25-.36,2.58,2.58,0,0,1-1.23-1.83,3.12,3.12,0,0,1,.48-2.18c.21-.32.47-.6.67-.93.05-.09.15-.41.25-.44s.11.28.11.37A10.72,10.72,0,0,0,202.16,447.61Z"/><path class="cls-14" d="M195.09,469.36c.89,1.08,2.32,1.33,3.36,2.22,1.91,1.63,2.05,4.87,3.59,6.93a6.33,6.33,0,0,0,4.17,2.34,13.79,13.79,0,0,0,4.73-.15,31.18,31.18,0,0,1,8.65-.17c-9.76,1.15-17.09,1.37-18.87.58a3.33,3.33,0,0,1-1.91-1.71,10.92,10.92,0,0,1-.05-1.4c-.11-1.45-1.36-2.37-2.34-3.3a11.55,11.55,0,0,1-3-5.21,12.93,12.93,0,0,1-.48-3.1c0-.32-.14-1.06.23-1.13s.55.56.65.87A9.82,9.82,0,0,0,195.09,469.36Z"/><path class="cls-14" d="M220.81,469.9c-.55.47-1.35.52-2,.91-.79.51-1.13,1.48-1.71,2.23-1.4,1.83-4,2.07-6.16,2.88a.59.59,0,0,0-.28.18c-.23.31.25.65.62.75l3,.77a4.09,4.09,0,0,0,1.14.17,3.34,3.34,0,0,0,1.33-.42,18.56,18.56,0,0,0,3-1.85,3.58,3.58,0,0,0,1-1.06,8.21,8.21,0,0,0,.5-2.33,16.3,16.3,0,0,1,1.31-2.93,4.14,4.14,0,0,0,.36-1.59c0-.25,0-.9-.34-.91s-.57.42-.7.62a4,4,0,0,0-.42,1.2A2.66,2.66,0,0,1,220.81,469.9Z"/><path class="cls-13" d="M212.9,445.6c0,.12,0,.27.12.33a.33.33,0,0,0,.29,0c1.49-.54,2.46-2,3.88-2.72,1.05-.53,2.37-.62,3.23-1.5.47-.46,0-.54-.43-.5a17.63,17.63,0,0,0-2.39.44,8.7,8.7,0,0,0-3.07,1A3.73,3.73,0,0,0,212.9,445.6Z"/><path class="cls-13" d="M208.05,464c1.57-1.15,2.25-3.27,3.89-4.34.29-.19.69-.34,1-.12a.87.87,0,0,1,.23.38,4,4,0,0,1-1.07,3.87,9.47,9.47,0,0,1-3.59,2.13,24.17,24.17,0,0,0-3.89,1.62,2.94,2.94,0,0,1-1.89.67,2.44,2.44,0,0,1-1-.53q-.67-.49-1.32-1c-.36-.29-.92-.59-1-1.09a.68.68,0,0,1,.78-.88,11.78,11.78,0,0,1,2,.53,6.17,6.17,0,0,0,2.77-.06A7.57,7.57,0,0,0,208.05,464Z"/><path class="cls-13" d="M205.3,436.17a3.18,3.18,0,0,1,2.46.61,7,7,0,0,1,1.73,1.93c.13.21.35.45.58.36a.46.46,0,0,0,.23-.26,4.68,4.68,0,0,0,0-3.05,2.5,2.5,0,0,0-.24-.76,12.24,12.24,0,0,0-1.16-1.23c-.32-.39-.52-1-.95-1.26-1.07-.69-1.57.66-1.86,1.42Z"/><path class="cls-14" d="M208.15,436.64a2.77,2.77,0,0,1,.63,1.06l1.33,3.21c-.52.13-.93-.44-1.21-.91a5.21,5.21,0,0,0-3.89-2.77,1.06,1.06,0,0,1-.53-.12c-.31-.21-.21-.73.08-.95.54-.42,1.18-.18,1.77-.09A3.22,3.22,0,0,1,208.15,436.64Z"/><path class="cls-12" d="M210.58,465.22a6.39,6.39,0,0,0,2.53-2.72,6.08,6.08,0,0,1-4.34,5.35c-.75.2-1.54.26-2.27.53-.94.36-1.72,1-2.67,1.37a2.34,2.34,0,0,1-1.38.15c-.67-.19-.29-.78,0-1.14a3.83,3.83,0,0,1,1.76-1.26c.94-.35,1.85-.74,2.82-1A15.43,15.43,0,0,0,210.58,465.22Z"/><path class="cls-15" d="M207.44,422.06a1,1,0,0,0-.08-.31c-.16-.27-.54-.27-.84-.2a9.74,9.74,0,0,0-2.79,1.26,4.55,4.55,0,0,0-1.77,1.5,3.82,3.82,0,0,0,.9.46l3.48,1.36c.18.07.4.2.57.06a1.47,1.47,0,0,0,.31-.64,6.26,6.26,0,0,0,.29-1.61A13.19,13.19,0,0,0,207.44,422.06Z"/><path class="cls-17" d="M206.36,426.13l1.31-.06a.76.76,0,0,1-1,.49v-.21"/><path class="cls-17" d="M206.49,421.58a124.31,124.31,0,0,1-.54-14.44"/><path class="cls-17" d="M204.38,362.94l1.5,18.56"/><path class="cls-15" d="M200.1,380.69a9.47,9.47,0,0,1-1.9,2.29c-2.43,2.34-5.09,4.63-6.45,7.73s-1,7.28,1.88,9.11a9,9,0,0,1,1.63,1.07,9.12,9.12,0,0,1,1.28,2.21,7.91,7.91,0,0,0,5.36,3.39,11.4,11.4,0,0,0,8.49-1.23,7.64,7.64,0,0,0,3.6-7.48c-.26-1.46-1-2.8-1.18-4.27-.13-1.17.13-2.36,0-3.53-.59-4.19-6-5.94-7.66-9.85-.42-1-1.06-7.19-3.07-6.18-.86.43-1.07,2-1.14,2.8A10.21,10.21,0,0,1,200.1,380.69Z"/><path class="cls-12" d="M200.54,380.09c-1.19,2.47-3.45,4.26-5.41,6.21s-3.78,4.39-3.65,7.11c.12,2.39,1.69,4.44,3.2,6.32s3,3.78,5.23,4.81a16.39,16.39,0,0,0,4.86,1.18c1.75.24,3.67.45,5.18-.45-.91,1.15-2.61,1.33-4.11,1.42-3.55.19-7.58.22-10.05-2.27-1-1.06-1.87-2.59-3.37-2.8a13.13,13.13,0,0,1-1.54-.1,3,3,0,0,1-1.52-1.28c-2.35-3.29-3.46-7.9-1.22-11.27a3.39,3.39,0,0,1,2.07-1.59,6.75,6.75,0,0,0,1.11-.17,2.86,2.86,0,0,0,1.05-.85,24.91,24.91,0,0,1,5.38-4.47,8,8,0,0,0,1.91-1.39c1.14-1.26,1.16-3.06,1.36-4.64,0-.17.3-2.08.64-1.81.15.12,0,1.25,0,1.45q0,.72-.15,1.44A11,11,0,0,1,200.54,380.09Z"/><path class="cls-12" d="M211.38,393.35c-1.51,1.66-4.39,1.1-6.13,2.51,1.32,0,2.64.17,3.95.06a4.31,4.31,0,0,0,3.38-1.75c-.38,1.46.42,2.95,1.27,4.2.31-.71-.31-1.43-.67-2.11a6.79,6.79,0,0,1-.55-2.9l-.06-1.42a5.17,5.17,0,0,0-.06-1.25c-.27.29-.26.92-.38,1.29A3.75,3.75,0,0,1,211.38,393.35Z"/><path class="cls-14" d="M198.66,404.2a10,10,0,0,0,3.16.47c4.12.17,8.54.22,12-3.07a8.71,8.71,0,0,1-5.32,4.81,15.34,15.34,0,0,1-6.4.23,12.44,12.44,0,0,1-5.21-1.48,7.72,7.72,0,0,1-1.66-1.4c-.24-.27-1.17-1.19-1.08-1.71s.71-.37.93-.3c.56.17,1.05.84,1.54,1.23A7.61,7.61,0,0,0,198.66,404.2Z"/><path class="cls-14" d="M205.76,395.94a9.28,9.28,0,0,1,3.21-.36,4.65,4.65,0,0,0,3.05-.91.41.41,0,0,1,.3-.16.4.4,0,0,1,.22.1c.65.55.48,1.59.84,2.36.16.36.44.65.61,1a.94.94,0,0,1-.12,1.1c-.33-.05-.5-.39-.66-.68A4.65,4.65,0,0,0,212,397a2.66,2.66,0,0,0-1.22-.61,4.92,4.92,0,0,0-1.48.08,6.45,6.45,0,0,1-2.51-.22c-.82-.23-1.76-.62-2.48-.15"/><path class="cls-13" d="M208.87,392.77a6.85,6.85,0,0,0-2.26.64c-.57.36-1,1-1.57,1.26-.34.17-.84.36-.75.74a.47.47,0,0,0,.46.32,1.72,1.72,0,0,0,.59-.16,8.85,8.85,0,0,1,3.21-.66,3.68,3.68,0,0,0,1.75-.25,4.65,4.65,0,0,0,1.52-2.46c.12-.31,0-.5-.33-.5a1.89,1.89,0,0,0-1,.42A5.5,5.5,0,0,1,208.87,392.77Z"/><path class="cls-12" d="M195,389.28c1.62-.2,2.93-1.46,4.53-1.79a4.12,4.12,0,0,1,3.21.71,13.3,13.3,0,0,1-3.59,1.3,10.8,10.8,0,0,0-2.4.59,11.87,11.87,0,0,1-1.92,1,17,17,0,0,1-1.75.17,1.55,1.55,0,0,0-1.35,1,9.21,9.21,0,0,0,4.14,1.08c-.69.6-1.38,1.19-2.08,1.76a3,3,0,0,1-1.13.67,3.13,3.13,0,0,1-1.1,0,3.27,3.27,0,0,1-2.44-1.11,2.49,2.49,0,0,1-.29-1.59,5.49,5.49,0,0,1,1.38-3.11,5.16,5.16,0,0,1,1.32-1.1,1.4,1.4,0,0,1,1.34.11A3.73,3.73,0,0,0,195,389.28Z"/><path class="cls-13" d="M199.11,386.43a4,4,0,0,1,2.07-.32,1.55,1.55,0,0,1,1.33,1.41c-1.64-.52-3.33.49-5,1a16.82,16.82,0,0,1-2.66.47c-.37,0-1,.07-1.05-.44s.24-.5.55-.54a11.26,11.26,0,0,0,3-.84C197.92,386.9,198.51,386.65,199.11,386.43Z"/><path class="cls-14" d="M200.82,388.68a1.2,1.2,0,0,1,1.09,0,1.57,1.57,0,0,1-.89.72,33.82,33.82,0,0,1-7.87,2.83,1.75,1.75,0,0,0-1.22.56,1.22,1.22,0,0,1,.65.21c-.64.25-.81-.21-.85-.76,0-.1,0-.21,0-.3s0-.14.16-.19l.58-.2,1.16-.39,4.63-1.58Z"/><path class="cls-13" d="M203.83,399.84a.65.65,0,0,1,.59.2.49.49,0,0,1-.06.57,1.35,1.35,0,0,1-.5.34l-2.4,1.21a2,2,0,0,1-1.7.29c-.46-.21-.72-.7-1.08-1-.12-.12-.47-.28-.35-.48s.47-.08.65-.06a7.82,7.82,0,0,0,3.15-.67A6.63,6.63,0,0,1,203.83,399.84Z"/><path class="cls-14" d="M212.19,398.53a1.35,1.35,0,0,0-1.11.23.28.28,0,0,0-.09.13c0,.14.15.22.29.25l.5.11a2,2,0,0,1,1.25.63,1.46,1.46,0,0,1-.05,1.57,14,14,0,0,1-1.17,1.38,4.65,4.65,0,0,0-.83,1.51c0,.11-.14.4,0,.5s.33-.07.43-.13a6.58,6.58,0,0,0,1.49-1.49,6.91,6.91,0,0,0,1.22-2.14,2,2,0,0,0-1.55-2.47A2.33,2.33,0,0,0,212.19,398.53Z"/><path class="cls-12" d="M204.73,383.66c.69.15,1.41-.19,2.1-.05a3,3,0,0,1,1.22.71l2.24,1.83a.35.35,0,0,0,0-.42,1,1,0,0,0-.34-.28,20.49,20.49,0,0,1-2.4-2.44,1.86,1.86,0,0,0-.92-.57,2.75,2.75,0,0,0-1.24.13,1.43,1.43,0,0,0-.75.43C204.41,383.25,204.35,383.57,204.73,383.66Z"/><path class="cls-13" d="M206.15,381.64a7,7,0,0,1-1.33,1,.37.37,0,0,1-.36.07c-.16-.08-.15-.31-.11-.49.17-.73.31-1.48.42-2.23,0-.11,0-.31.14-.32s.16.16.19.25a3.2,3.2,0,0,0,.38.87A3.59,3.59,0,0,0,206.15,381.64Z"/><path class="cls-12" d="M199.83,402.38a1.74,1.74,0,0,0,1.53-.48,6.09,6.09,0,0,1,3.12-1.58,5.26,5.26,0,0,1-2.13,2.05l-1.17.74a1.72,1.72,0,0,1-.42.23,1.39,1.39,0,0,1-1.39-.42c-.17-.18-1-1.32-.66-1.48s.39.28.5.42A1.36,1.36,0,0,0,199.83,402.38Z"/><path class="cls-17" d="M200.55,378.8a1.58,1.58,0,0,1,1.1-.57c.34-.07.69-.13,1-.18a2.61,2.61,0,0,1,2,.27"/><path class="cls-17" d="M200.25,379.76a9.43,9.43,0,0,0,4.66-.09"/><path class="cls-17" d="M200.44,379.25l4.58-.35"/><path class="cls-17" d="M202.4,373.81c-.45-3.64.33-7.31,1.24-10.87"/><path class="cls-15" d="M220.28,390.18a.76.76,0,0,0,0-.37.66.66,0,0,0-.7-.3,3,3,0,0,0-1.54.8,11.31,11.31,0,0,0-2.72,3.46l1.58.23a12,12,0,0,1,1.33.24,4.83,4.83,0,0,1,.64.22c.15.06.41.28.58.23s.22-.38.26-.54.11-.51.17-.76c.1-.5.19-1,.26-1.5S220.24,390.75,220.28,390.18Z"/><path class="cls-17" d="M218.34,394.28l1.45-.8"/><path class="cls-17" d="M218.77,394.84a2.62,2.62,0,0,0,1.47-.83"/><path class="cls-17" d="M218,395.34a3.18,3.18,0,0,0,3.32-1.2"/><path class="cls-17" d="M217.46,390.8c-1.86-3.29-2.59-7.09-4-10.62-2.39-6.09-6.68-11.32-8.8-17.51"/><path class="cls-15" d="M123.64,148.74c-2.46,5-4.86,11.29-1.65,15.88a42.69,42.69,0,0,0,3.53,3.72c6.21,6.89,3.41,18,7.37,26.42,2,4.17,5.5,7.36,8.94,10.44l14.63,13.1a14.62,14.62,0,0,0,4.58,3.16c4.75,1.73,9.72-1.68,14.73-2.33,8-1.06,16.24,5,23.85,2.23,5.1-1.86,8.14-7.27,9.13-12.61s.38-10.83.59-16.26a15.4,15.4,0,0,0-.39-5.63c-1.46-4.22-6.53-5.93-9.27-9.47-1.71-2.21-2.41-5-3.51-7.57-2.21-5.2-6.06-9.49-9.3-14.12a68.28,68.28,0,0,1-12.1-42.61c0-.67,0-1.46-.52-1.86a1.8,1.8,0,0,0-1.13-.24c-8.14.11-14,7.51-21,11.61-3.58,2.1-7.58,3.36-11.26,5.26a37,37,0,0,0-19.47,28.44"/><path class="cls-12" d="M130.72,155.82a12.13,12.13,0,0,0,2.81,6.24c1,1,2.27,1.77,3.18,2.87,1.42,1.73,1.77,4.06,2.17,6.26a64.51,64.51,0,0,0,13.57,29.16,12.28,12.28,0,0,0,3.13,2.93,25.06,25.06,0,0,0,3.72,1.48c2.87,1.12,5.35,3.12,8.28,4.1,3.13,1,6.51.83,9.78,1.22,5,.58,9.75,2.56,14.71,3.49s10.58.57,14.3-2.84c1.11,3.76-1.68,7.8-5.26,9.39s-7.7,1.3-11.58.78-7.86-1.23-11.69-.41c-3.43.73-6.54,2.66-10,3.2-6.69,1-12.94-3.24-18.29-7.38-10.34-8-21.05-17.29-23.77-30.06-.75-3.54-.86-7.27-2.3-10.59-1.19-2.74-3.21-5-4.63-7.66-4.3-7.9-2.53-18.15,2.79-25.39,4.24-5.75,10.39-9.79,16.93-12.47.44-.18,1.28-.77,1.39-.2s-.83,1.22-1.08,1.48a37.08,37.08,0,0,0-3.41,3.89,28.19,28.19,0,0,0-4.31,9.22A26.08,26.08,0,0,0,130.72,155.82Z"/><path class="cls-12" d="M167,153.11c-2.21,2.13-5.59,3.45-6.35,6.42a12.53,12.53,0,0,0-5.2,5.2,6.2,6.2,0,0,0,5.88-.76,18.26,18.26,0,0,0,4.26-4.46l3.7-4.86c1.13-1.49,2.46-3.1,4.32-3.33,2.52-.32,4.51,2,6,4.06l5,7.08a5.8,5.8,0,0,0,.81-5.45,20.53,20.53,0,0,0-2.75-5,70.24,70.24,0,0,1-5.24-9.5q-1.12-2.49-2.07-5.06c-.5-1.36-.73-3.44-1.55-4.62-1-1.48-1.5,1.48-1.66,2.24-.55,2.57-.77,5.19-1.07,7.79C170.65,146.51,169.74,150.45,167,153.11Z"/><path class="cls-12" d="M173.53,197.54a8.33,8.33,0,0,0,1.15-1.66c1.87-3.25,3.77-6.6,4.3-10.31,1.35,2.73.75,6,.61,9s.56,6.61,3.29,8c1.47.73,3.63,1,3.93,2.6-1.95,1.16-4.49.35-6.41-.86s-3.65-2.84-5.85-3.42c-3.24-.84-6.73,1-9.89,0-1.46-.5-.59-1.43.52-1.76,1.31-.37,2.89,0,4.24-.07A5.88,5.88,0,0,0,173.53,197.54Z"/><path class="cls-12" d="M203.15,184.58a8.06,8.06,0,0,1,3,6.51,24,24,0,0,1-1.45,7.27,20.61,20.61,0,0,1-1.45-6.08,5.29,5.29,0,0,0-.57-2.56,4.35,4.35,0,0,0-1.57-1.31,25.68,25.68,0,0,0-7.46-2.84c1.17.11,2.86,0,3.18-1.36.22-1-1.1-4.12-.22-4.66s2.27,1.35,2.68,1.89C200.38,182.88,201.74,183.54,203.15,184.58Z"/><path class="cls-13" d="M165.42,198.09a9.33,9.33,0,0,0,7.57-4.58c1-1.74,1.45-3.82,2.74-5.36.33-.39,1-.74,1.29-.34a.89.89,0,0,1,.14.64c-.07,3.13-.44,6.6-2.79,8.67-2.87,2.54-7.26,1.8-11,.91"/><path class="cls-16" d="M170.22,152.61a7.23,7.23,0,0,1,3.42-1.59c3.07-.35,5.45,2.51,7.21,5-3.4.85-6.91-.09-10.34.42a7.37,7.37,0,0,0-4.35,2.11c-.94,1-1.51,3.17-2.57,3.81-.71-1.25.54-3.29,1.25-4.26A26.41,26.41,0,0,1,170.22,152.61Z"/><path class="cls-13" d="M173.1,135.45A45.2,45.2,0,0,1,168.15,150a22.27,22.27,0,0,1,.56-16.8,2.31,2.31,0,0,1,.55-.85c.94-.84,2.48.11,3,1.26s.6,2.54,1.42,3.5"/><path class="cls-13" d="M140.31,131.24a60,60,0,0,0-8.71,8c-1.2,1.35-2.39,3.33-1.37,4.82a104.7,104.7,0,0,0,17.37-17.52c-2.39-.83-5,.66-6.78,2.4s-3.41,3.89-5.75,4.84"/><path class="cls-14" d="M175.11,150.7a3.56,3.56,0,0,1,3.77,1.76,3.56,3.56,0,0,1-3.75,1.22l2.34,2.8c-.05.91-1.42.74-2.3.47a7.62,7.62,0,0,0-5.78.8,16.18,16.18,0,0,0-2.69,1.8c-.37.3-1.53,1.74-2,1.72-.88,0,.07-2.09.28-2.53a14.43,14.43,0,0,1,3.79-4.19C170.56,153,172.69,151,175.11,150.7Z"/><path class="cls-14" d="M142.6,133.4c1-1.17,1.64-2.63,2.84-3.57,2.27-1.77,5.52-1.15,8.31-.43-.15,2-2.45,2.94-4.4,3.28s-4.24.7-5.13,2.46c2,2,5.24,2,8,1.41s5.71-1.42,8.38-.47c-2.45,2.23-6.06,2.52-9.38,2.59a46.5,46.5,0,0,0-9.94.81A14.24,14.24,0,0,0,135,142.7a10,10,0,0,0-2.24,3c-.19.37-.92,2.89-1.3,2.91-1.12,0,0-4.19.15-4.63a12.18,12.18,0,0,1,4.57-5.92C138.32,136.55,140.87,135.47,142.6,133.4Z"/><path class="cls-14" d="M185.38,214.38c3.45.87,6.57,3,10.1,3.33s7.11-1.12,10.42-2.58a13.4,13.4,0,0,1-10,6.05,50.05,50.05,0,0,1-6.24-.21c-6.65-.25-13.14,1.91-19.76,2.61a26.39,26.39,0,0,1-11.41-1.06c-1.89-.67-7.38-3-6.7-5.78.58-2.33,4.85-2.5,6.65-2.45,4,.13,7.53,3.4,11.53,2.19C175.08,214.94,180,213,185.38,214.38Z"/><path class="cls-14" d="M205.35,190.5a7.23,7.23,0,0,1,.61,4.1l-.45,9.79c-2.26-.71-2.37-3.78-2.51-6.15a18.11,18.11,0,0,0-2.06-7.29,16.3,16.3,0,0,1-1.43-2.28c-.35-1.23,1.2-.93,2.08-.66A6.47,6.47,0,0,1,205.35,190.5Z"/><path class="cls-18" d="M119.78,173.36a183.19,183.19,0,0,1,26.08-19.31,267.06,267.06,0,0,1,28.76-15.27,283.83,283.83,0,0,1,32-12.54c11.14-3.57,22.49-6.48,33.94-8.93s23-4.43,34.53-6.15c1.43-.22,2.86-.43,4.3-.63"/><path class="cls-18" d="M122.28,181.08q15.85-7,32.05-13.06t32.49-11q16.37-5,33.05-8.77T253.62,142q17-2.44,34.18-3.41l4.26-.22"/><path class="cls-18" d="M294.81,166.23c-17.94,3.7-36.18,5.82-54.43,8.37-3.39.42-7.21.42-10.61.85-16.12,2.12-32.24,3-48.37,4.24-19.94,1.27-39.46,1.7-59,1.62"/><path class="cls-18" d="M124.79,125a95.11,95.11,0,0,1,11.64.39c15.27,3,28.42,9.33,42.43,14.85C205.59,151.68,230.2,164,255.23,181c1.28.85,2.12.85,3.4,1.7,7.21,5.51,14.85,9.76,20.65,16.05"/><path class="cls-18" d="M260.23,222.18c-6.44-9.16-12.91-18.35-20.24-26.83a142.87,142.87,0,0,0-23-21.27c-9-6.69-18.54-12.74-28.14-18.57s-19.3-11.31-29.37-16.17a224.24,224.24,0,0,0-31-12.37c-1.33-.41-2.66-.81-4-1.19"/><path class="cls-18" d="M121.36,178.34c29.49-19,60.89-33.45,96.11-41.51.42,0,1.27-.85,1.7-.85,15.27-3,29.27-5.51,44.12-6.79,2.13-.42,3.82-.42,5.95-.84L289,129"/><path class="cls-18" d="M219.22,207.2a39,39,0,0,1-.49-16c.68-3.82,1.94-7.68,1.24-11.5-.22-1.19-.59-2.58.2-3.51a106.36,106.36,0,0,0,12.36.75,1.74,1.74,0,0,0,1.1-.23c.9-.66,0-2.06-1-2.6a10.42,10.42,0,0,0-12.56,2.21l1.11-.66a51.26,51.26,0,0,1-9.81,8.43,1.81,1.81,0,0,1-1.29.43c-.84-.18-1-1.35-.72-2.16a7.16,7.16,0,0,1,4.48-4.25,21.14,21.14,0,0,1,6.29-1c5.87,7.85,6.21,20.34,11.92,28.31"/><path class="cls-19" d="M141.61,128.25a129,129,0,0,1,37.85,15.11c.66-2.51-1.9-4.61-4.16-5.87a103.72,103.72,0,0,0-22.12-9.15,35.19,35.19,0,0,1-6.44-2.2c-1.12-.58-2-.84-3.06,0-.63.5-1.21,1.08-1.85,1.57a3.6,3.6,0,0,1-1.71.74,7.06,7.06,0,0,1-1.3,0c-.71,0-1.84-.22-2.33.45s.29,1.67.79,2.16a10.77,10.77,0,0,0,3.53,1.82c3.35,1.39,6.67,2.82,9.94,4.39,9.39,4.49,18.23,10,27.05,15.56l9.62,6a18.87,18.87,0,0,0-2.38-6.33c-1.51-2.29-3.82-3.91-6.07-5.48a159.94,159.94,0,0,0-17-10.79,79.41,79.41,0,0,0-17.18-6.56c-1.1-.27-2.21-.54-3.32-.77"/><path class="cls-19" d="M140.35,159.91c11.28-7.13,23.3-13,35-19.36a6,6,0,0,0,2.68-2.27c.53-1.06.16-2.65-1-2.94a3,3,0,0,0-1.91.41c-4.14,1.9-8.28,3.81-12.39,5.78s-8.24,4-12.28,6.16-8,4.39-11.85,6.81a135.22,135.22,0,0,0-11.21,7.81c-1.78,1.39-3.55,2.81-5.23,4.33a2.21,2.21,0,0,0-1,2.13,7.59,7.59,0,0,0,1.31,2.42,17.91,17.91,0,0,0,1,1.55c1.08-.81,2-1.89,3-2.78s2.11-1.78,3.19-2.64c2.17-1.71,4.41-3.33,6.7-4.87C137.75,161.58,139,160.74,140.35,159.91Z"/><path class="cls-19" d="M125.66,177.26a24.1,24.1,0,0,0,2.69-1.56l2.72-1.55q2.75-1.54,5.52-3c3.69-2,7.41-3.89,11.17-5.73s7.53-3.58,11.35-5.26,7.66-3.28,11.54-4.81,7.82-3,11.77-4.37l1.48-.51a10,10,0,0,0-2.4-3.86,7.38,7.38,0,0,0-1.58.43l-1.57.45c-1.08.31-2.16.63-3.23,1q-3.24,1-6.44,2.13-6.39,2.24-12.58,5T144,161.4q-6,3.18-11.7,6.81c-1.75,1.11-3.49,2.25-5.2,3.42-1,.72-2.43,1.27-2.85,2.56a6.34,6.34,0,0,0-.31,1.93,6.16,6.16,0,0,0,.78,2.67c.24.52.48,1,.67,1.58a22.54,22.54,0,0,0,.59,2.29c.21.45.51.33,1,.35l1.38.05,2.65.09c7.08.23,14.16.44,21.24.51s14.15,0,21.22-.32,14.09-.89,21.09-1.81q3.3-.45,6.6-1c.72-1.61-.4-3.56-2-4.38a10.39,10.39,0,0,0-5.17-.75c-18.42.44-36.82,1.3-55.23,2.17a33.1,33.1,0,0,0-9.72,1.43c17.91-6.18,35.84-12.37,54.15-17.23a8.18,8.18,0,0,0,4.08-1.94c1-1.11,1.25-3.15,0-4-1-.71-2.35-.41-3.51-.07A390.75,390.75,0,0,0,124.88,178"/></g></svg>