<svg xmlns="http://www.w3.org/2000/svg" viewBox="0 0 412 618.07"><defs><style>.cls-1{font-size:314.25px;font-family:Rajdhani-Bold, Rajdhani;font-weight:700;}.cls-2{fill:#be3f49;}.cls-3{fill:#f8c63c;}.cls-4{fill:#f9e4b1;}.cls-5{fill:#f7cb68;}.cls-6{fill:#f1b63e;}.cls-7{fill:#d87c42;}.cls-8{fill:#f9e4af;}.cls-9{fill:#f76e01;}.cls-10{fill:#eb9f08;}.cls-11{fill:#f9120c;}.cls-12{fill:#f90503;}.cls-13{fill:#3d3d3c;}.cls-14{fill:#b7c7c8;}.cls-15{fill:#b2c2c3;}.cls-16{fill:#3c3d3c;}.cls-17{fill:#575756;}.cls-18{fill:#556566;}.cls-19{fill:#c2d2d3;}.cls-20{fill:#d2e2e3;}</style></defs><g id="Layer_2" data-name="Layer 2"><text class="cls-1" transform="translate(-2061.96 -3037.27)"><tspan xml:space="preserve">Sidor att  fixa</tspan><tspan x="-494.14" y="418.99" xml:space="preserve">- Updates from  team</tspan><tspan x="383.21" y="837.99">- Footer</tspan><tspan x="-324.3" y="1256.98">- About the project</tspan><tspan x="261.13" y="2094.97">- Register</tspan><tspan x="439.46" y="2513.96">- E-day</tspan><tspan x="448.42" y="2932.96">- Rules</tspan><tspan x="324.45" y="3351.95">- Actions</tspan></text><path class="cls-2" d="M196.1,450.54a75,75,0,0,0,1.94-8.91c.54-5.42-1.06-10.52-2.94-15.52-.24-.63-.5-1.25-.74-1.87.46-1.78.92-3.57,1.37-5.35,2.26,1.22,3.59,3.32,4.77,5.5a27.16,27.16,0,0,1,2.71,9.79c1.58-3.39,1.64-11.72-.79-16.68.48-1.84,1-3.68,1.43-5.54,1.05-4.68.44-8.93-3.19-12.36-1-1-2-2.05-2.93-3.08a9.4,9.4,0,0,1,.61-1.28c2.58-3.89,6.06-6,10.75-5.74,3.2,2.73,4.1,6.26,2.74,10.74a10.6,10.6,0,0,0-6.3,14.09c1.25,3.25,2.78,6.39,4.12,9.6,2.27,5.42,1.51,10.49-1.73,15.27a45.77,45.77,0,0,1-11.36,11.24c-.12.09-.32.06-.49.08Z"/><path class="cls-3" d="M197.73,396.52c1,1,1.9,2.11,2.93,3.08,3.63,3.43,4.24,7.68,3.19,12.36-.42,1.86-.95,3.7-1.43,5.54-.53,1.23-1.06,2.45-1.6,3.68v-7.11a21.11,21.11,0,0,0-.66-3.2c-.59-1.59-1.27-3.2-3-4l-3.63-2.68q-3.1-3.15-6.2-6.29h0l-.24-.35c-1.55-3.17-2.66-6.47-2.25-10.07.25-2.22.74-4.41,1.12-6.62h0c.09-.2.18-.41.26-.61l0-.64c.34-.54.69-1.07,1-1.6l1.75,0,.18,4.82c-.15.31-.44.63-.43.94a32.59,32.59,0,0,0,.31,5.69,22.06,22.06,0,0,0,4.72,10.19l.11.37.1-.08c-.06-.1-.13-.2-.2-.3-.08-.47-.14-.94-.24-1.4-.71-3.39-1.46-6.77-.9-10.29.28-1.73,1.22-3,2.54-3.34a11.39,11.39,0,0,0-.23,1.52c0,1.81,0,3.62-.05,5.42A8.11,8.11,0,0,0,197.73,396.52Z"/><path class="cls-3" d="M211.83,400.24c1.36-4.48.46-8-2.74-10.74l-4.39-3.15a28,28,0,0,1,5.33.33c4.62.73,8.17,3.39,8.05,9-.08.61-.12,1.22-.24,1.82-.37,1.85-.77,3.68-1.16,5.52-1.48,3.64-3.93,7.07-3.6,11.17a34.9,34.9,0,0,0,2.23,8.4,42.13,42.13,0,0,0,2.59,5.1,10.9,10.9,0,0,1,.45,1.17l0,0A31.51,31.51,0,0,1,210,418.7c-2.35-4.54-1.69-9.08.06-13.62C210.69,403.48,211.25,401.85,211.83,400.24Z"/><path class="cls-2" d="M216.68,403c.39-1.84.79-3.67,1.16-5.52.12-.6.16-1.21.24-1.82,1.77,2.72,2.15,5.85,2.33,9.25,3.9-5.14,6.49-10.43,5.49-16.9a13.86,13.86,0,0,0-3.33-7.45L221.4,378h3.21c5.46,6.55,5.5,13.94,3.16,21.7l-.48,1.64-1.6-1.74-.37,6.52-6.26,10.54-.39-.14c-.11-2.06-.07-4.15-.38-6.17C217.91,407.9,217.23,405.46,216.68,403Z"/><path class="cls-3" d="M195.73,418.89c-.45,1.78-.91,3.57-1.37,5.35-.94,3.52-.46,7,.2,10.49.36,1.91.82,3.8,1.24,5.7l0,0a30.6,30.6,0,0,1-2-3.72c-1.32-3.33-2.51-6.71-3.7-10.09-.89-2.49-.2-4.71,1.22-6.79.24-.34.43-.73.65-1.09.6-.74,1.21-1.47,1.81-2.2l4.12-3.45.27.21Z"/><path class="cls-2" d="M193.76,416.52c-.6.73-1.21,1.46-1.81,2.2-2.42-5.83-5-11.6-7.21-17.5-1.52-4-2.7-8.09-2.2-12.49a17.66,17.66,0,0,1,3.26-8.62l.18.22v.58h0a7.17,7.17,0,0,0-.57.79c-2,3.93-2,8.16-1.57,12.39a40.26,40.26,0,0,0,3.56,12.52C189.08,410.2,190.87,413.73,193.76,416.52Z"/><path class="cls-4" d="M225.32,406.16l.37-6.52,1.6,1.74c.2,1.94.54,3.88.58,5.82.06,3.5-1.21,6.69-2.55,10.18Z"/><path class="cls-5" d="M218.61,429.14l-.3-.27,0,0,.24.32Z"/><path class="cls-5" d="M218.59,429.16l.15.11s-.06,0-.08,0a1.17,1.17,0,0,1,0-.11Z"/><path class="cls-5" d="M195.8,440.43l.12,0-.1-.06Z"/><path class="cls-6" d="M210.61,378.05h4l5.48,3.92.28-.19L219.15,378h2.25l1.17,2.52c.84,4.57-.49,8.9-1.12,13.15a60.56,60.56,0,0,0-1.88-6.66c-1.68-4.17-4.45-7.08-9.24-7.1Z"/><path class="cls-3" d="M219.15,378l1.26,3.73-.28.19L214.65,378l2-.1Z"/><path class="cls-4" d="M210.61,378.05c-.09.63-.18,1.27-.28,1.9a4.82,4.82,0,0,1-4,2.51c-1.63.15-3.26.17-4.89.24a26.63,26.63,0,0,0-3.7.57,12.61,12.61,0,0,0-2.48,1.37c-1.32.3-2.26,1.61-2.54,3.34-.56,3.52.19,6.9.9,10.29.1.46.16.93.24,1.4h0a22.06,22.06,0,0,1-4.72-10.19,32.59,32.59,0,0,1-.31-5.69c0-.31.28-.63.43-.94.33,1,.65,2,1,3.05l2.23-7.87,2.79-.09,2.83.09c2.43,3.06,6.75,3.06,8.42,0Z"/><path class="cls-7" d="M201.43,382.7c1.63-.07,3.26-.09,4.89-.24a4.82,4.82,0,0,0,4-2.51c4.79,0,7.56,2.93,9.24,7.1a60.56,60.56,0,0,1,1.88,6.66c.63-4.25,2-8.58,1.12-13.15A13.86,13.86,0,0,1,225.9,388c1,6.47-1.59,11.76-5.49,16.9-.18-3.4-.56-6.53-2.33-9.25.12-5.59-3.43-8.25-8.05-9a28,28,0,0,0-5.33-.33l4.39,3.15c-4.69-.27-8.17,1.85-10.75,5.74a9.4,9.4,0,0,0-.61,1.28,8.11,8.11,0,0,1-2.76-4.94,4.42,4.42,0,0,0,.32-.61A17.07,17.07,0,0,1,201.43,382.7Z"/><path class="cls-7" d="M193.76,416.52c-2.89-2.79-4.68-6.32-6.34-9.92a40.26,40.26,0,0,1-3.56-12.52c-.45-4.23-.45-8.46,1.57-12.39a7.17,7.17,0,0,1,.57-.79c-.38,2.21-.87,4.4-1.12,6.62-.41,3.6.7,6.9,2.25,10.07l.24.35h0a30.26,30.26,0,0,0,.89,3.13,29.58,29.58,0,0,0,5.63,9l-.32-5.83,3.63,2.68a6.45,6.45,0,0,0,.36,1.5c1.05,1.91,2.17,3.77,3.26,5.66v7.11c.54-1.23,1.07-2.45,1.6-3.68,2.43,5,2.37,13.29.79,16.68a27.16,27.16,0,0,0-2.71-9.79c-1.18-2.18-2.51-4.28-4.77-5.5l2.42-5.61-.27-.21Z"/><path class="cls-6" d="M193.57,404.23c.1,1.89.21,3.78.32,5.83a29.58,29.58,0,0,1-5.63-9,30.26,30.26,0,0,1-.89-3.13Q190.48,401.07,193.57,404.23Z"/><path class="cls-6" d="M201.43,382.7a17.07,17.07,0,0,0-6.14,8.27,4.42,4.42,0,0,1-.32.61c0-1.8,0-3.61.05-5.42a11.39,11.39,0,0,1,.23-1.52,12.61,12.61,0,0,1,2.48-1.37A26.63,26.63,0,0,1,201.43,382.7Z"/><path class="cls-2" d="M200.82,414.07c-1.09-1.89-2.21-3.75-3.26-5.66a6.45,6.45,0,0,1-.36-1.5c1.69.76,2.37,2.37,3,4A21.11,21.11,0,0,1,200.82,414.07Z"/><path class="cls-8" d="M193.85,399.67c.07.1.14.2.2.3l-.1.08-.11-.37Z"/><path class="cls-9" d="M186,380.33l.27,0c-.08.2-.17.41-.26.61C186,380.72,186,380.52,186,380.33Z"/><path class="cls-10" d="M187.37,397.94l-.24-.35Z"/><path class="cls-2" d="M129.09,357.49a34.93,34.93,0,0,1,1.28-3.51,39.5,39.5,0,0,1,2.1-3.47h2.34c-.28.58-.55,1.17-.83,1.76-3.81,4.8-3.5,11.91,1.12,17.61.67-2,1.38-4.15,2.08-6.26l.94,5.42-1.78,10-4.28-7.44c-.13-1.62-.27-3.25-.43-5.16l-1.13,1.35-1.41-5.44Z"/><path class="cls-2" d="M152.77,404.31a27.28,27.28,0,0,1-9.52-10.56,10.86,10.86,0,0,1-.15-8.91c.78-2.09,1.73-4.11,2.59-6.16,2.16-5.21.91-8.95-3.85-11.59-1.46-2.72-.29-6.76,1.94-8.14a8.62,8.62,0,0,1,8,5.24c-.68.76-1.35,1.55-2.06,2.29A8.52,8.52,0,0,0,147.1,374c.32,2,.86,4,1.29,6a17.41,17.41,0,0,0-.67,11.9c.69-4.31,1.88-8.32,5.38-11.08l1,4.31c-2.21,5.5-3.64,11.09-1.87,17.08.2.7.34,1.41.52,2.12Z"/><path class="cls-3" d="M148.39,380c-.43-2-1-4-1.29-6a8.52,8.52,0,0,1,2.59-7.52c.71-.74,1.38-1.53,2.06-2.29.63-1.16,1.26-2.31,1.88-3.47l-.06-5.23a4.83,4.83,0,0,1,1.17,1,7.28,7.28,0,0,1,.63,5c-.21,1.49-.44,3-.65,4.47l.58.19a49.57,49.57,0,0,0,2.48-6.56c.41-1.77.12-3.72.14-5.59l0-3.51,1.41,0,.84,1.4-.07.72.3.55h0c.87,4.15,1,8.23-1.09,12.08l-.23.34h0l-4.38,4.5-2.45,1.8c-1.88,1.17-2.43,3.1-2.67,5.21v5.55Z"/><path class="cls-3" d="M143.78,359c-2.23,1.38-3.4,5.42-1.94,8.14a12.69,12.69,0,0,0,.63,2.33c2.93,6.15,1.5,11.44-2.77,16.18a19.22,19.22,0,0,1-2.68,2.51c1-2.26,2-4.48,2.95-6.77a9.8,9.8,0,0,0-.18-8.22c-.64-1.31-1.12-2.71-1.67-4.08-.31-1.8-.63-3.61-.94-5.42-.44-5.76,5.37-7.44,9.47-6.82Z"/><path class="cls-3" d="M154.11,385.14c-.34-1.44-.68-2.87-1-4.31l-1.65-4.11.26-.19,2.9,2.7,1.36,1.4a6.91,6.91,0,0,1,.8,1.64,10.62,10.62,0,0,1,.54,3.88,31.51,31.51,0,0,1-4.19,10.5,49.29,49.29,0,0,0,1.14-5.71A49,49,0,0,0,154.11,385.14Z"/><path class="cls-2" d="M156,380.63l-1.36-1.4a28.91,28.91,0,0,0,5-8.51,27.38,27.38,0,0,0,2.12-13.3,21.53,21.53,0,0,0-1.33-4.25h0c0-.19,0-.39,0-.59l.16-.15a13.34,13.34,0,0,1,1.54,11.8c-1.76,5.32-3.89,10.5-5.86,15.73C156.14,380.19,156.06,380.41,156,380.63Z"/><path class="cls-4" d="M130.5,367.84l1.13-1.35c.16,1.91.3,3.54.43,5.16v2.19c0,1.86,0,3.73-.09,5.6A16.86,16.86,0,0,1,130.5,367.84Z"/><path class="cls-11" d="M160.08,352.62l.07-.72.4.53-.16.15Z"/><path class="cls-12" d="M152.76,404.34l.17,0,0,.17-.14-.16Z"/><path class="cls-7" d="M143.78,359l2.87-2.15c-4.1-.62-9.91,1.06-9.47,6.82-.7,2.11-1.41,4.23-2.08,6.26-4.62-5.7-4.93-12.81-1.12-17.61a23.57,23.57,0,0,0,.85,9.33c.37-1.35.66-2.7,1.09-4,1.18-3.59,3.61-5.58,6.77-5.62a3.66,3.66,0,0,0,3.17,1.89c1.12.08,2.25.13,3.38.19a12.85,12.85,0,0,1,4.4,6.65l-1.89,3.47A8.62,8.62,0,0,0,143.78,359Z"/><path class="cls-6" d="M142.69,352c-3.16,0-5.59,2-6.77,5.62-.43,1.29-.72,2.64-1.09,4a23.57,23.57,0,0,1-.85-9.33c.28-.59.55-1.18.83-1.76l1.46,0-.77,3.05,4.15-3h2.83Z"/><path class="cls-4" d="M142.69,352l-.21-1.41h3c1.64,2.24,4.27,2.23,6,0l3-.16,1.05.09c.56,1.93,1.11,3.86,1.67,5.8l.79-2.27c0,1.87.27,3.82-.14,5.59a49.57,49.57,0,0,1-2.48,6.56l-.58-.19c.21-1.49.44-3,.65-4.47a7.28,7.28,0,0,0-.63-5,4.83,4.83,0,0,0-1.17-1c-1.2-1.32-2.79-1.29-4.33-1.42-1.13-.06-2.26-.11-3.38-.19A3.66,3.66,0,0,1,142.69,352Z"/><path class="cls-7" d="M160.37,353.17a21.53,21.53,0,0,1,1.33,4.25,27.38,27.38,0,0,1-2.12,13.3,28.91,28.91,0,0,1-5,8.51l-2.9-2.7-.26.19,1.65,4.11c-3.5,2.76-4.69,6.77-5.38,11.08a17.41,17.41,0,0,1,.67-11.9c.4.9.79,1.8,1.16,2.65v-5.55l2.67-5.21,2.45-1.8v4.27a44.3,44.3,0,0,0,2.73-4.26,42.46,42.46,0,0,0,1.65-4.51h0l.23-.34C161.39,361.4,161.24,357.32,160.37,353.17Z"/><path class="cls-6" d="M159.05,365.6a42.46,42.46,0,0,1-1.65,4.51,44.3,44.3,0,0,1-2.73,4.26V370.1Z"/><path class="cls-6" d="M149.24,354.07c1.54.13,3.13.1,4.33,1.42l.06,5.23A12.77,12.77,0,0,0,149.24,354.07Z"/><path class="cls-2" d="M152.22,371.9l-2.67,5.21C149.79,375,150.34,373.07,152.22,371.9Z"/><path class="cls-9" d="M160.08,352.62l.31,0c0,.2,0,.4,0,.59Z"/><path class="cls-10" d="M159.28,365.25l-.23.34Z"/><path class="cls-3" d="M139.65,350.58l-4.15,3,.77-3.05,2.34-.12Z"/><path class="cls-2" d="M265.27,373.1c0,2.39,1,4.45,1.9,6.54.72,1.61,1.43,3.23,2.05,4.88a11.06,11.06,0,0,1-1.25,10.4,31.55,31.55,0,0,1-9,8.85c2.83-6.73,1.36-13.11-1.26-19.41.3-1.35.61-2.69.92-4,.47.28,1.12.44,1.39.86a36.17,36.17,0,0,1,3,5.13,34.53,34.53,0,0,1,1.35,5.13,17.26,17.26,0,0,0,.48-7.95,30,30,0,0,0-1.22-4.06l1.43-6.33Z"/><path class="cls-3" d="M265.08,373.1c-.48,2.11-.95,4.22-1.43,6.33-.41.89-.83,1.78-1.18,2.53v-5.44c-.23-2.14-.83-4.08-2.75-5.3l-2.53-1.85L252.7,365h0l-.25-.35a13.64,13.64,0,0,1-1.73-7.58c.15-1.52.37-3,.56-4.54l.27-1.15.56-.78h1.71c0,.95,0,1.9,0,2.85a32.72,32.72,0,0,0,0,5.05,15.83,15.83,0,0,0,3.3,7.38c-.27-2.49-.65-5-.78-7.58a3.38,3.38,0,0,1,2-3.59c0,1.81-.09,3.62-.14,5.43l2,3.45c.38.42.74.87,1.14,1.26C263.7,367.07,265.46,369.57,265.08,373.1Z"/><path class="cls-3" d="M274.23,368.44c-.89,2.3-2.19,4.53-2.56,6.91a14.08,14.08,0,0,0,.92,6,52.33,52.33,0,0,0,2.63,5.83l-.14.15c-3-2.74-5.76-5.72-6.73-9.95-.61-2.65.11-5.13,1-7.57.4-1.12.83-2.24,1.25-3.35,1-3.59.32-6.1-2.17-8.11l-3.08-2.26c5.07-.36,10.14,1.32,9.84,6.95Z"/><path class="cls-2" d="M274.23,368.44q.5-2.7,1-5.42l2.15,6.21c2.66-3.27,4.33-7.16,3.61-11.71-.27-1.71-1.25-3.3-1.9-4.95L278,350.5h2.63c3.45,4.64,3.48,9.75,2,15.08-.16.55-.31,1.1-.47,1.65L280.89,366c-.15,1.8-.29,3.45-.43,5.1l-4.4,7.35C275.43,375,274.83,371.7,274.23,368.44Z"/><path class="cls-2" d="M268.44,358.33c2.49,2,3.16,4.52,2.17,8.11a8.7,8.7,0,0,0-5.34,6.66h-.19c.38-3.53-1.38-6-3.72-8.25-.4-.39-.76-.84-1.14-1.26A8.64,8.64,0,0,1,268.44,358.33Z"/><path class="cls-3" d="M258.65,380.32c-.31,1.35-.62,2.69-.92,4,.06,2.64,0,5.29.23,7.92.09,1.26.59,2.48.7,3.82a6.79,6.79,0,0,1-.6-1c-1.19-3-2.4-6-3.5-9.05a5.3,5.3,0,0,1,.71-4.91c.23-.36.4-.75.61-1.12.44-.48.88-.95,1.33-1.42l3.07-2.61h0Z"/><path class="cls-2" d="M257.21,378.6c-.45.47-.89.94-1.33,1.42-2-4.87-4-9.7-5.85-14.63-1.54-4.19-1.76-8.46.45-12.55a11.61,11.61,0,0,1,1.08-1.45l-.27,1.15c-2,3.12-1.75,6.61-1.24,10A32.09,32.09,0,0,0,257.21,378.6Z"/><path class="cls-4" d="M280.46,371.06c.14-1.65.28-3.3.43-5.1l1.18,1.27a15.61,15.61,0,0,1-1.7,11.6c.1-2.38.21-4.75.3-7.13A2.39,2.39,0,0,0,280.46,371.06Z"/><path class="cls-5" d="M275.22,387.16l.18.39h0l-.33-.23Z"/><path class="cls-5" d="M275.4,387.55l.2.09-.19-.1Z"/><path class="cls-6" d="M269.62,350.57h4.16l3.14,2.39-.5-2.44,1.53,0,1.11,2.07c-.19,1.35-.36,2.71-.57,4.05s-.47,2.81-.71,4.21c-.57-1.33-.84-2.64-1.29-3.88-1.19-3.26-3.6-5.84-7-5.55Z"/><path class="cls-3" d="M276.42,350.53l.5,2.44-3.14-2.39,1.07-.17Z"/><path class="cls-4" d="M269.62,350.57l-.11.83a4,4,0,0,1-3.54,1.81c-1.15,0-2.29.17-3.44.26l-4.13,1.24a3.38,3.38,0,0,0-2,3.59c.13,2.55.51,5.09.78,7.58a15.83,15.83,0,0,1-3.3-7.38,32.72,32.72,0,0,1,0-5.05l.84,2.3c.5-1.9.95-3.57,1.39-5.23l2.51-.11,2.52.16a3.91,3.91,0,0,0,5.06,0Z"/><path class="cls-7" d="M257.21,378.6a32.09,32.09,0,0,1-7.16-16.09c-.51-3.36-.73-6.85,1.24-10-.19,1.51-.41,3-.56,4.54a13.64,13.64,0,0,0,1.73,7.58l.25.35h0a3.65,3.65,0,0,0,.16,1.12c1,2,2.07,3.95,3.16,5.89a11.68,11.68,0,0,0,1.17,1.46v-4.11l2.54,1.85q1.36,2.65,2.74,5.3V382c.35-.75.77-1.64,1.18-2.53a30,30,0,0,1,1.22,4.06,17.26,17.26,0,0,1-.48,7.95,34.53,34.53,0,0,0-1.35-5.13,36.17,36.17,0,0,0-3-5.13c-.27-.42-.92-.58-1.39-.86l1.62-4.34.14-.11s-.07,0-.08,0a.22.22,0,0,0-.05.11Z"/><path class="cls-7" d="M262.53,353.47c1.15-.09,2.29-.24,3.44-.26a4,4,0,0,0,3.54-1.81c3.38-.29,5.79,2.29,7,5.55.45,1.24.72,2.55,1.29,3.88.24-1.4.49-2.8.71-4.21s.38-2.7.57-4.05c.65,1.65,1.63,3.24,1.9,4.95.72,4.55-.95,8.44-3.61,11.71L275.2,363c.3-5.63-4.77-7.31-9.84-6.95l3.08,2.26a8.64,8.64,0,0,0-8.22,5.26l-2-3.45C258.86,357.36,260.69,355.41,262.53,353.47Z"/><path class="cls-6" d="M257.19,369.37v4.11A11.68,11.68,0,0,1,256,372c-1.09-1.94-2.14-3.91-3.16-5.89a3.65,3.65,0,0,1-.16-1.12Z"/><path class="cls-6" d="M262.53,353.47c-1.84,1.94-3.67,3.89-4.27,6.67.05-1.81.09-3.62.14-5.43Z"/><path class="cls-2" d="M262.47,376.52q-1.38-2.64-2.74-5.3C261.64,372.44,262.24,374.38,262.47,376.52Z"/><path class="cls-10" d="M252.71,365l-.25-.35Z"/><path class="cls-5" d="M260.28,376a.22.22,0,0,1,.05-.11s.06,0,.08,0l-.14.11Z"/><path class="cls-13" d="M267.15,282.32c2,.43,3.23,1.84,4.37,3.34,3,3.95,4.56,8.55,6,13.2a129,129,0,0,1,4.93,26c.83,9.63,1.21,19.29,1.8,28.93a3.67,3.67,0,0,0,.28.87v2l-4.21.24h-2.71L276,357l-1.61-.13c-.1-4.56-.19-9.12-.3-13.69-.07-2.59-.18-5.18-.28-7.77-.19-4.84-.36-9.68-.59-14.52-.15-3.11-.32-6.22-.61-9.32-.4-4.23-.83-8.47-1.44-12.68-.55-3.73-1.29-7.44-2.13-11.12A48.74,48.74,0,0,0,267.15,282.32Z"/><path class="cls-14" d="M145.73,282.08c0-9.09-.25-18.21.13-27.29.35-8.08,1.17-16.16,2.2-24.18a217.49,217.49,0,0,1,11.59-47c3.44-9.4,7.5-18.58,11.29-27.86a59.2,59.2,0,0,0,20.07,8l.16.24c-.62,4.55-1.26,9.09-1.86,13.63q-1,7.45-1.94,14.91c-.45.35-.9.72-1.36,1.06-8.38,6.11-13.4,14.31-14.46,24.61-1.2,11.66,2.43,21.79,11.22,29.73,9,8.14,19.64,10.7,31.5,8.23a36.4,36.4,0,0,0,12.9-5.87,5.86,5.86,0,0,1,.35,1.46q0,43.8,0,87.59a6.51,6.51,0,0,1-.34,1.47c-.56-3.6-1.08-7.21-1.68-10.8-1.56-9.29-3.52-18.49-6.9-27.32-1.82-4.77-3.79-9.51-7.68-13-1.15-1.05-2.78-1.56-4.19-2.32h-2a18.18,18.18,0,0,0-3.14,1.3,18,18,0,0,0-5.47,6.61,72.8,72.8,0,0,0-6.39,16.65c-3.86,14.11-5.67,28.55-7,43.07l-18.5,0c-.46-8.54-.77-17.1-1.41-25.62a150.26,150.26,0,0,0-4.64-27.69c-1.44-5.4-3.12-10.72-6.31-15.4-1.24-1.8-2.67-3.43-4.94-4Z"/><path class="cls-15" d="M227.19,340.82a6.51,6.51,0,0,0,.34-1.47q0-43.8,0-87.59a5.86,5.86,0,0,0-.35-1.46c1.2-1,2.48-2,3.58-3.12,7.69-7.84,11.34-17.18,10.41-28.21a34.28,34.28,0,0,0-9.36-20.87,39.46,39.46,0,0,0-9-6.95,10.15,10.15,0,0,0,.27-2.17c-.19-1.93-.51-3.86-.77-5.79-.44-3.25-.87-6.51-1.32-9.76s-.86-6.31-1.29-9.47a70.39,70.39,0,0,0,20.52-8.13c1.61,3.53,3.42,7,4.8,10.6,3.26,8.52,6.52,17,9.4,25.69a194.93,194.93,0,0,1,8.05,33.53c1.08,7.43,2.15,14.91,2.53,22.4.54,10.65.44,21.33.62,32,0,.68,0,1.35.07,2l-.9.18c-1.35.95-3,1.67-4,2.87-2.74,3.12-4.23,7-5.51,10.86-4.7,14.32-6.32,29.16-7.21,44.11-.3,4.94-.37,9.9-.55,14.84H228.64Q227.92,347.87,227.19,340.82Z"/><path class="cls-16" d="M227.19,340.82q.72,7.05,1.45,14.1c.34,7.34.72,14.67,1,22,.11,2.82,0,5.65,0,8.72H219.14l-2.57-.1c-.1-7.88-.18-15.76-.3-23.64-.07-4.13-.18-8.26-.3-12.38q-.09-3.09-.31-6.18-.53-7.57-1.13-15.16c-.28-3.58-.5-7.16-.93-10.72-.56-4.74-1.21-9.47-2-14.18-.9-5.52-1.72-11.09-4.88-15.93,1.41.76,3,1.27,4.19,2.32,3.89,3.52,5.86,8.26,7.68,13,3.38,8.83,5.34,18,6.9,27.32C226.11,333.61,226.63,337.22,227.19,340.82Z"/><path class="cls-16" d="M182.7,355c1.33-14.52,3.14-29,7-43.07a72.8,72.8,0,0,1,6.39-16.65,18,18,0,0,1,5.47-6.61,18.18,18.18,0,0,1,3.14-1.3,32.35,32.35,0,0,0-2.38,4.55,87.06,87.06,0,0,0-3.68,18.38c-.79,7.26-1.62,14.52-2.27,21.8-.44,4.95-.65,9.93-.9,14.9s-.46,9.87-.57,14.8c-.16,7.54-.21,15.08-.31,22.62,0,.39,0,.77,0,1.16l-2.86.08h-3.48l-1.81,0h-4.82c0-2.82-.1-5.49,0-8.15C181.94,370,182.34,362.49,182.7,355Z"/><path class="cls-13" d="M247.53,354.92c.18-4.94.25-9.9.55-14.84.89-14.95,2.51-29.79,7.21-44.11,1.28-3.9,2.77-7.74,5.51-10.86,1.06-1.2,2.67-1.92,4-2.86a63.44,63.44,0,0,0-2.28,6.31c-2.06,8.28-2.71,16.79-3.48,25.26-.39,4.24-.67,8.5-.86,12.75q-.4,8.7-.58,17.41c-.09,4.29,0,8.57,0,12.86l-2.58.1-2.32.09h-1.77c-.47,0-.93,0-1.4,0C247.13,357,247.59,357.08,247.53,354.92Z"/><path class="cls-13" d="M146.9,282.24c2.27.55,3.7,2.18,4.94,4,3.19,4.68,4.87,10,6.31,15.4a150.26,150.26,0,0,1,4.64,27.69c.64,8.52,1,17.08,1.41,25.62l-.18,2h-4.69l-1.49,0-2.59,0-1.11-.09c-.1-5.24-.16-10.48-.3-15.71-.16-6.15-.37-12.29-.58-18.43-.07-1.87-.14-3.74-.31-5.6-.44-4.71-.84-9.43-1.44-14.12s-1.31-9.38-2.25-14A49.35,49.35,0,0,0,146.9,282.24Z"/><path class="cls-11" d="M185.36,387.25v.65l-.28,0-.19-.22Z"/><path class="cls-17" d="M257.59,356.84c0-4.29-.06-8.57,0-12.86q.18-8.7.58-17.41c.19-4.25.47-8.51.86-12.75.77-8.47,1.42-17,3.48-25.26a63.44,63.44,0,0,1,2.28-6.31l.9-.19,1.43.26a48.74,48.74,0,0,1,1.87,5.41c.84,3.68,1.58,7.39,2.13,11.12.61,4.21,1,8.45,1.44,12.68.29,3.1.46,6.21.61,9.32.23,4.84.4,9.68.59,14.52.1,2.59.21,5.18.28,7.77.11,4.57.2,9.13.3,13.69l-1.11.18H260.19Z"/><path class="cls-16" d="M240.25,155.83A70.39,70.39,0,0,1,219.73,164a1.27,1.27,0,0,0-.28-.06,8.46,8.46,0,0,0,0-1c-1.06-6.11-2-12.26-3.24-18.33-2.26-10.85-4.68-21.67-7.14-32.48-1-4.53-2.3-9-3.47-13.48l.3,0a297.87,297.87,0,0,1,28.26,44.58c2,3.91,3.92,7.9,5.87,11.86A5.44,5.44,0,0,1,240.25,155.83Z"/><path class="cls-17" d="M205.57,98.6c1.17,4.49,2.45,9,3.47,13.48,2.46,10.81,4.88,21.63,7.14,32.48,1.27,6.07,2.18,12.22,3.24,18.33a8.46,8.46,0,0,1,0,1c-3.58.49-7.14,1.18-10.74,1.42A68.92,68.92,0,0,1,191.17,164l-.16-.24a10.24,10.24,0,0,0,.66-1.85c.55-3.3,1-6.62,1.57-9.9,1.16-6.15,2.31-12.31,3.68-18.42,2.16-9.66,4.51-19.28,6.76-28.92.38-1.63.68-3.28,1-4.92Z"/><path class="cls-17" d="M146.9,282.24a49.35,49.35,0,0,1,2.36,6.73c.94,4.63,1.64,9.32,2.25,14s1,9.41,1.44,14.12c.17,1.86.24,3.73.31,5.6.21,6.14.42,12.28.58,18.43.14,5.23.2,10.47.3,15.71L151,357l-6.36,0h-6.15l-1.1-.18c.1-3.06.21-6.13.28-9.2.12-4.51.19-9,.3-13.53.09-3.45.18-6.9.31-10.35.06-1.67.16-3.35.3-5,.36-4.09.69-8.18,1.14-12.27s1-8.34,1.6-12.49a41.61,41.61,0,0,1,3.35-11.69l1.09-.2Z"/><path class="cls-16" d="M204.69,99.75c-.33,1.64-.63,3.29-1,4.92-2.25,9.64-4.6,19.26-6.76,28.92-1.37,6.11-2.52,12.27-3.68,18.42-.62,3.28-1,6.6-1.57,9.9a10.24,10.24,0,0,1-.66,1.85,59.2,59.2,0,0,1-20.07-8,312.37,312.37,0,0,1,31.26-52.87C203,101.84,203.86,100.81,204.69,99.75Z"/><path class="cls-16" d="M144.64,282.28A41.61,41.61,0,0,0,141.29,294c-.62,4.15-1.14,8.32-1.6,12.49s-.78,8.18-1.14,12.27c-.14,1.67-.24,3.35-.3,5-.13,3.45-.22,6.9-.31,10.35-.11,4.51-.18,9-.3,13.53-.07,3.07-.18,6.14-.28,9.2l-2.49.13-1.55,0h-2.48l-3.3-.15c0-1.94,0-3.84,0-5.75.39-16.48,1.71-32.86,5.79-48.9a54,54,0,0,1,5.19-13.86,23.56,23.56,0,0,1,3.3-4.34A11.61,11.61,0,0,1,144.64,282.28Z"/><path class="cls-18" d="M222.84,191.15a39.46,39.46,0,0,1,9,6.95A34.28,34.28,0,0,1,241.16,219c.93,11-2.72,20.37-10.41,28.21-1.1,1.13-2.38,2.08-3.58,3.12a36.4,36.4,0,0,1-12.9,5.87c-11.86,2.47-22.48-.09-31.5-8.23-8.79-7.94-12.42-18.07-11.22-29.73,1.06-10.3,6.08-18.5,14.46-24.61.46-.34.91-.71,1.36-1.06a6.76,6.76,0,0,0,.77-.36,34.67,34.67,0,0,1,24-4.61A39.89,39.89,0,0,1,222.84,191.15ZM206.34,198a24.15,24.15,0,1,0,24.13,24.1A24.22,24.22,0,0,0,206.34,198Z"/><path class="cls-17" d="M194.58,385.55c0-.39,0-.77,0-1.16.1-7.54.15-15.08.31-22.62.11-4.93.33-9.87.57-14.8s.46-10,.9-14.9c.65-7.28,1.48-14.54,2.27-21.8a87.06,87.06,0,0,1,3.68-18.38,32.35,32.35,0,0,1,2.38-4.55h2c3.16,4.84,4,10.41,4.88,15.93.77,4.71,1.42,9.44,2,14.18.43,3.56.65,7.14.93,10.72q.6,7.57,1.13,15.16.22,3.09.31,6.18c.12,4.12.23,8.25.3,12.38.12,7.88.2,15.76.3,23.64l-2.06.1h-17Z"/><path class="cls-19" d="M222.84,191.15a39.89,39.89,0,0,0-10.75-3.58,34.67,34.67,0,0,0-24,4.61,6.76,6.76,0,0,1-.77.36q1-7.46,1.94-14.91c.6-4.54,1.24-9.08,1.86-13.63a68.92,68.92,0,0,0,17.54,1.32c3.6-.24,7.16-.93,10.74-1.42a1.27,1.27,0,0,1,.28.06c.43,3.16.87,6.31,1.29,9.47s.88,6.51,1.32,9.76c.26,1.93.58,3.86.77,5.79A10.15,10.15,0,0,1,222.84,191.15Z"/><path class="cls-20" d="M206.34,198a24.15,24.15,0,1,1-.12,48.3,24.15,24.15,0,1,1,.12-48.3Zm6.64,6.39a11.64,11.64,0,0,0-11.72,11.68,11.82,11.82,0,0,0,12.11,12,12,12,0,0,0,11.64-12C225,210.23,219.88,204,213,204.38Z"/></g></svg>