<svg xmlns="http://www.w3.org/2000/svg" viewBox="0 0 412 618.07"><defs><style>.cls-1{font-size:314.25px;font-family:Rajdhani-Bold, Rajdhani;font-weight:700;}.cls-2{fill:#be3f49;}.cls-3{fill:#f8c63c;}.cls-4{fill:#f9e4b1;}.cls-5{fill:#f7cb68;}.cls-6{fill:#f1b63e;}.cls-7{fill:#d87c42;}.cls-8{fill:#f9e4af;}.cls-9{fill:#f76e01;}.cls-10{fill:#eb9f08;}.cls-11,.cls-13{fill:#b27085;}.cls-12{fill:#d48c9f;}.cls-13{opacity:0.3;}.cls-14{fill:#c77389;}.cls-15{fill:#daa2b1;}.cls-16{fill:#e9b1c0;}.cls-17{fill:#e9b0bf;}.cls-18{fill:#c77188;}</style></defs><g id="Layer_2" data-name="Layer 2"><text class="cls-1" transform="translate(-2061.96 -3037.27)"><tspan xml:space="preserve">Sidor att  fixa</tspan><tspan x="-494.14" y="418.99" xml:space="preserve">- Updates from  team</tspan><tspan x="383.21" y="837.99">- Footer</tspan><tspan x="-324.3" y="1256.98">- About the project</tspan><tspan x="261.13" y="2094.97">- Register</tspan><tspan x="439.46" y="2513.96">- E-day</tspan><tspan x="448.42" y="2932.96">- Rules</tspan><tspan x="324.45" y="3351.95">- Actions</tspan></text><path class="cls-2" d="M204.72,472.46a80.17,80.17,0,0,0,1.47-8.11c.4-4.93-.81-9.58-2.23-14.13-.17-.57-.37-1.13-.56-1.7.35-1.62.7-3.25,1-4.87,1.71,1.11,2.71,3,3.6,5a29,29,0,0,1,2.05,8.91c1.19-3.09,1.24-10.67-.6-15.18.36-1.68.76-3.35,1.08-5,.79-4.27.33-8.13-2.41-11.26-.78-.88-1.48-1.86-2.21-2.8a9.17,9.17,0,0,1,.46-1.17c2-3.54,4.58-5.47,8.11-5.22,2.42,2.48,3.1,5.69,2.07,9.77-4.4,2-6.47,7.47-4.75,12.83.94,3,2.1,5.82,3.11,8.74a16.24,16.24,0,0,1-1.31,13.89,38.91,38.91,0,0,1-8.57,10.24c-.09.08-.25.05-.37.07Z"/><path class="cls-3" d="M206,423.29c.73.94,1.43,1.92,2.21,2.8,2.74,3.13,3.2,7,2.41,11.26-.32,1.69-.72,3.36-1.08,5l-1.2,3.35v-6.48a23,23,0,0,0-.51-2.91c-.44-1.45-.95-2.91-2.23-3.61l-2.74-2.43-4.68-5.73h0l-.18-.32a19.28,19.28,0,0,1-1.7-9.17c.19-2,.56-4,.84-6h0l.2-.56v-.58l.78-1.46h1.33c0,1.46.09,2.92.14,4.39a2.56,2.56,0,0,0-.34.84,35.48,35.48,0,0,0,.24,5.18,22.21,22.21,0,0,0,3.56,9.28l.09.34.07-.07c0-.09-.1-.19-.15-.28-.06-.42-.11-.85-.18-1.27a30.57,30.57,0,0,1-.68-9.36c.21-1.58.92-2.77,1.91-3a13.18,13.18,0,0,0-.17,1.39c0,1.64,0,3.29,0,4.94A7.9,7.9,0,0,0,206,423.29Z"/><path class="cls-3" d="M216.59,426.67c1-4.08.35-7.29-2.07-9.77L211.21,414a17,17,0,0,1,4,.3c3.48.67,6.16,3.09,6.07,8.17-.06.56-.09,1.12-.18,1.67-.28,1.67-.58,3.34-.88,5-1.12,3.31-3,6.43-2.71,10.16a36.71,36.71,0,0,0,1.68,7.65,41.85,41.85,0,0,0,2,4.64c.14.34.22.71.33,1.06l0,0a28.53,28.53,0,0,1-6.27-9.26c-1.78-4.13-1.28-8.27.05-12.4C215.73,429.62,216.15,428.14,216.59,426.67Z"/><path class="cls-2" d="M220.25,429.19c.3-1.68.6-3.35.88-5,.09-.55.12-1.11.18-1.67,1.34,2.48,1.62,5.33,1.76,8.42,2.94-4.68,4.9-9.49,4.14-15.37a13.94,13.94,0,0,0-2.51-6.79l-.89-2.29h2.43c4.12,6,4.15,12.69,2.39,19.74-.13.5-.25,1-.37,1.5l-1.21-1.58c-.1,2.08-.19,4-.28,5.93l-4.72,9.6-.29-.13c-.09-1.87-.06-3.77-.29-5.62C221.18,433.65,220.67,431.43,220.25,429.19Z"/><path class="cls-3" d="M204.44,443.65c-.34,1.62-.69,3.25-1,4.87a25.5,25.5,0,0,0,.16,9.54c.27,1.75.62,3.47.93,5.2l0,0a29.57,29.57,0,0,1-1.54-3.39c-1-3-1.89-6.11-2.8-9.18a7.66,7.66,0,0,1,.93-6.18c.18-.32.32-.66.48-1l1.38-2,3.11-3.14.19.2Q205.36,441.1,204.44,443.65Z"/><path class="cls-2" d="M203,441.49l-1.38,2c-1.82-5.3-3.73-10.56-5.43-15.92a28.55,28.55,0,0,1-1.67-11.38,18.34,18.34,0,0,1,2.46-7.84l.14.2v.53h0a6.44,6.44,0,0,0-.42.72c-1.53,3.57-1.53,7.43-1.19,11.28a42.36,42.36,0,0,0,2.69,11.39C199.42,435.74,200.77,439,203,441.49Z"/><path class="cls-4" d="M226.77,432.06c.09-1.92.18-3.85.28-5.93l1.21,1.58c.15,1.77.41,3.53.44,5.3.05,3.19-.92,6.09-1.93,9.26Z"/><path class="cls-5" d="M221.71,453l-.22-.24,0,0c.07.1.13.2.19.3Z"/><path class="cls-5" d="M221.7,453l.11.1s-.05,0-.06,0a.3.3,0,0,1,0-.1Z"/><path class="cls-5" d="M204.49,463.26l.1,0-.08-.05Z"/><path class="cls-6" d="M215.67,406.47h3.05l4.14,3.56.21-.17-.95-3.39h1.69c.3.76.6,1.53.89,2.29.63,4.16-.37,8.1-.85,12-.45-2-.77-4.11-1.42-6.06-1.26-3.8-3.35-6.45-7-6.46Z"/><path class="cls-3" d="M222.12,406.47l.95,3.39-.21.17-4.14-3.56,1.51-.1Z"/><path class="cls-4" d="M215.67,406.47l-.21,1.74a3.65,3.65,0,0,1-3,2.28c-1.22.14-2.46.15-3.69.22a16.52,16.52,0,0,0-2.79.52,9.24,9.24,0,0,0-1.88,1.24c-1,.28-1.7,1.47-1.91,3a30.57,30.57,0,0,0,.68,9.36c.07.42.12.85.18,1.27h0a22.21,22.21,0,0,1-3.56-9.28,35.48,35.48,0,0,1-.24-5.18,2.56,2.56,0,0,1,.34-.84l.73,2.77,1.68-7.17,2.11-.08,2.14.08c1.83,2.79,5.1,2.79,6.35,0Z"/><path class="cls-7" d="M208.74,410.71c1.23-.07,2.47-.08,3.69-.22a3.65,3.65,0,0,0,3-2.28c3.62,0,5.71,2.66,7,6.46.65,1.95,1,4.07,1.42,6.06.48-3.87,1.48-7.81.85-12a13.94,13.94,0,0,1,2.51,6.79c.76,5.88-1.2,10.69-4.14,15.37-.14-3.09-.42-5.94-1.76-8.42.09-5.08-2.59-7.5-6.07-8.17a17,17,0,0,0-4-.3l3.31,2.87c-3.53-.25-6.16,1.68-8.11,5.22a9.17,9.17,0,0,0-.46,1.17,7.9,7.9,0,0,1-2.08-4.49c.08-.19.18-.37.24-.56A15.54,15.54,0,0,1,208.74,410.71Z"/><path class="cls-7" d="M203,441.49c-2.19-2.53-3.54-5.75-4.79-9a42.36,42.36,0,0,1-2.69-11.39c-.34-3.85-.34-7.71,1.19-11.28a6.44,6.44,0,0,1,.42-.72c-.28,2-.65,4-.84,6a19.28,19.28,0,0,0,1.7,9.17l.18.32h0c.22.95.37,1.94.67,2.85a28.47,28.47,0,0,0,4.25,8.19l-.24-5.31,2.74,2.43a6.4,6.4,0,0,0,.27,1.37c.8,1.74,1.64,3.44,2.47,5.15v6.48l1.2-3.35c1.84,4.51,1.79,12.09.6,15.18a29,29,0,0,0-2.05-8.91c-.89-2-1.89-3.9-3.6-5q.92-2.55,1.82-5.1l-.19-.2Z"/><path class="cls-6" d="M202.81,430.31c.08,1.72.16,3.44.24,5.31a28.47,28.47,0,0,1-4.25-8.19c-.3-.91-.45-1.9-.67-2.85Z"/><path class="cls-6" d="M208.74,410.71a15.54,15.54,0,0,0-4.63,7.53c-.06.19-.16.37-.24.56,0-1.65,0-3.3,0-4.94a13.18,13.18,0,0,1,.17-1.39,9.24,9.24,0,0,1,1.88-1.24A16.52,16.52,0,0,1,208.74,410.71Z"/><path class="cls-2" d="M208.29,439.26c-.83-1.71-1.67-3.41-2.47-5.15a6.4,6.4,0,0,1-.27-1.37c1.28.7,1.79,2.16,2.23,3.61A23,23,0,0,1,208.29,439.26Z"/><path class="cls-8" d="M203,426.15c0,.09.11.19.15.28l-.07.07-.09-.34Z"/><path class="cls-9" d="M197.08,408.55l.21,0-.2.56C197.09,408.9,197.09,408.73,197.08,408.55Z"/><path class="cls-10" d="M198.13,424.58l-.18-.32Z"/><path class="cls-11" d="M213.33,379.16a11.24,11.24,0,0,1,4.82,1.56,19,19,0,0,1,6.57,6.17A32.33,32.33,0,0,1,230.17,399c.91,4.5,1.33,9,2,13.52,0,.14.2.27.3.4v1l-4.64.11h-4.73l-1.78,0c-.11-2.14-.2-4.27-.33-6.4-.08-1.21-.2-2.42-.31-3.63-.21-2.26-.4-4.53-.66-6.79a38.46,38.46,0,0,0-.67-4.35,53.64,53.64,0,0,0-1.59-5.93,36.07,36.07,0,0,0-2.34-5.19A18.1,18.1,0,0,0,213.33,379.16Z"/><path class="cls-11" d="M191.68,413.08c.19-2.31.27-4.62.6-6.93,1-7,2.77-13.92,8-20.61a16,16,0,0,1,6.08-5.07,33,33,0,0,1,4.44-1.34,23.13,23.13,0,0,0-2.52,2.95c-2.27,3.87-3,7.84-3.84,11.8a58.14,58.14,0,0,0-1,6q-.44,4.07-.64,8.13c-.1,2,0,4,0,6l-2.85,0-2.56,0h-2l-1.55,0C191.23,414.05,191.74,414.09,191.68,413.08Z"/><path class="cls-12" d="M202.78,414c0-2-.07-4,0-6q.21-4.07.64-8.13a58.14,58.14,0,0,1,1-6c.86-4,1.57-7.93,3.84-11.8a23.13,23.13,0,0,1,2.52-2.95l1-.09,1.58.12a18.1,18.1,0,0,1,2.07,2.53,36.07,36.07,0,0,1,2.34,5.19,53.64,53.64,0,0,1,1.59,5.93,38.46,38.46,0,0,1,.67,4.35c.26,2.26.45,4.53.66,6.79.11,1.21.23,2.42.31,3.63.13,2.13.22,4.26.33,6.4l-1.23.08H205.65Z"/><path class="cls-13" d="M202.78,414c0-2-.07-4,0-6q.21-4.07.64-8.13a58.14,58.14,0,0,1,1-6c.86-4,1.57-7.93,3.84-11.8a23.13,23.13,0,0,1,2.52-2.95l1-.09,1.58.12a18.1,18.1,0,0,1,2.07,2.53,36.07,36.07,0,0,1,2.34,5.19,53.64,53.64,0,0,1,1.59,5.93,38.46,38.46,0,0,1,.67,4.35c.26,2.26.45,4.53.66,6.79.11,1.21.23,2.42.31,3.63.13,2.13.22,4.26.33,6.4l-1.23.08H205.65Z"/><path class="cls-14" d="M259.58,237.82a8.27,8.27,0,0,1,2,.52c4.05,2.24,7.84,4.86,9.72,9.29,2.27,5.33,4.46,10.7,6.39,16.15a96.16,96.16,0,0,1,2.53,10,82.89,82.89,0,0,0,8,21.57,41.24,41.24,0,0,1,5.18,24.47,47.54,47.54,0,0,1-5,16.3c-4.2,8.45-10.09,15.79-15.33,23.56a103.68,103.68,0,0,0-7.58,12.77,15.79,15.79,0,0,1-3.75,4.51A55.18,55.18,0,0,1,246,387a81.66,81.66,0,0,1-13.48,4.31c-.93.21-1.82.61-2.73.91-3.76.37-7.51.87-11.28,1-4.46.22-8.95.35-13.41.17-3.46-.13-6.9-.79-10.34-1.22A75.75,75.75,0,0,1,180,388c-4.56-2-9.08-4-12.56-7.75a22.73,22.73,0,0,1-2.37-3.06c-1.89-2.86-3.55-5.88-5.6-8.62-2.68-3.6-5.61-7-8.5-10.46-3-3.62-6.09-7.24-9.27-10.73-3.34-3.66-7.06-7-10.23-10.78-4.51-5.39-8.55-11.13-11-17.83a30.23,30.23,0,0,1-.75-19.74,73,73,0,0,0,2.81-10.58,76.27,76.27,0,0,0,.49-11.62c0-5.49-.32-11-.47-16.47a44.71,44.71,0,0,1,2.52-16,18.81,18.81,0,0,1,9.45-11A36.37,36.37,0,0,0,145.88,225c1.2-1.37,2.75-2.42,4-3.73a3.58,3.58,0,0,0,1-2.15,7.53,7.53,0,0,1,2.2-5.13,60,60,0,0,1,12.56-10.21c2.89-1.84,5.81-3.65,8.65-5.58,1.32-.89,2.47-2,3.71-3a11.18,11.18,0,0,1,1.8-1.38,1.7,1.7,0,0,1,2.68,1.38,5.54,5.54,0,0,1-.1,2.26c-.8,2.73-1.81,5.37-4.25,7.13l-1.18.83c4.12,2.82,8.22,5.27,9.11,10.41a14,14,0,0,1-3.85,12.67l2.83,2.61a11.7,11.7,0,0,0,1.09-4c.09-1.21.17-2.43.36-3.63.55-3.53,1.31-7,1.68-10.57a66,66,0,0,0,.14-8.67c-.14-4.19-.59-8.37-.65-12.56A96.5,96.5,0,0,1,189.55,171a39.63,39.63,0,0,0,.47-10.44c-.42-7.3-.45-14.63-.63-21.95a10.62,10.62,0,0,1,.09-1.37c.32-3,1.18-5.69,3.66-7.6a2.87,2.87,0,0,0,1-2.18A38.86,38.86,0,0,1,198,113.64a11.63,11.63,0,0,1,1.49-2.28c2.1-2.33,4.85-2.34,6.95,0a15.2,15.2,0,0,1,3.5,7.59,50.72,50.72,0,0,1,.54,5.22c.07.91,0,1.83,0,2.75a6.41,6.41,0,0,0,2,4.86c4.32,3.82,5.85,9,6.53,14.48.6,4.91.89,9.87,1.18,14.81a22.85,22.85,0,0,1-.4,5,147,147,0,0,0-1.42,31c.35,7.62.52,15.25.78,22.87.12,3.35.26,6.7.35,10.05a23.2,23.2,0,0,1-.2,2.49c.05.23.09.47.14.7l.67-.65a7.23,7.23,0,0,1,5.48-2.85,20.1,20.1,0,0,1,7.67.61,5.86,5.86,0,0,0,1.77.23,9.53,9.53,0,0,1,8.78,4.73c1.38,2.09,2.56,4.3,3.91,6.58,1.68-2.56,4.35-3.32,7.05-4Zm-75.26,60.27c-1.9.1-2,0-2.18-1.29a26.77,26.77,0,0,1-.1-7c.73-4.94,1-9.95,1.44-14.93.33-3.7.69-7.4.91-11.11.24-4.1.36-8.2.47-12.31.07-2.36,0-4.73,0-7.09a24.25,24.25,0,0,0-2.34-10.14,7.78,7.78,0,0,0-2.21-2.84c-3.18-2.53-6.82-3.19-10.86-2.71-4.74.56-8.09,3.24-10.57,6.86-2.94,4.27-4.07,9.26-4.26,14.45a27.36,27.36,0,0,1-.61,5.88c-1.47,5.55-1.4,11.27-2.11,16.9-.37,2.93-.56,5.88-.94,8.81a23.3,23.3,0,0,1-5.62,12,27.3,27.3,0,0,1-3.42,3,1.05,1.05,0,0,1-1.62-.1,1.09,1.09,0,0,1,.19-1.62c.81-.82,1.6-1.64,2.43-2.43a19.41,19.41,0,0,0,5.39-9.62c1.21-4.82,1.26-9.76,1.73-14.66.22-2.26.29-4.54.45-6.81.14-1.81.35-3.62.47-5.44.18-2.57.28-5.15.47-7.72a29.22,29.22,0,0,1,1.81-8.66c1.82-4.69,4.17-8.92,8.73-11.58,5.07-3,10.32-3.85,15.91-1.79a1.9,1.9,0,0,0,2.58-.68,14.76,14.76,0,0,0,2.19-4c.78-3.17.87-6.38-1.8-8.91a46.66,46.66,0,0,0-3.63-3.12c-1.44-1.12-3.55-1.22-4.65-.26-2.7,2.35-5.32,4.77-8.05,7.08-2.91,2.46-6,4.7-9.77,5.64a4.25,4.25,0,0,0-1.79.95c-2.26,2-4.58,4-6.66,6.24a27.28,27.28,0,0,1-9.06,6.43c-3.24,1.4-5.4,3.87-7.37,6.59a11.12,11.12,0,0,0-1.73,3.19,47.57,47.57,0,0,0-2.29,13.41c-.1,6.16.24,12.33.4,18.49a2.19,2.19,0,0,0,0,.68c1.08,3.34.16,6.68-.22,10a57.65,57.65,0,0,1-2.93,11.45,28.84,28.84,0,0,0-1.42,7.11,27.85,27.85,0,0,0,3,14.11,75.22,75.22,0,0,0,13.48,18.84c2.77,2.95,5.71,5.73,8.56,8.61.53.54,1,1.15,1.48,1.73l8.36,9.93c1.17,1.4,2.4,2.75,3.49,4.2q2.73,3.66,5.28,7.44a19.39,19.39,0,0,1,2.21,4,7,7,0,0,0,2.25,3.08,41.68,41.68,0,0,0,9.71,5.94c10.06,4.35,20.72,5.72,31.55,6.09,1.8.06,3.62-.39,5.44-.39a63.13,63.13,0,0,0,9.5-.91,72.41,72.41,0,0,0,23.36-7.38A36.34,36.34,0,0,0,264,367.93c3.58-6,7.56-11.77,11.53-17.52,4.54-6.59,9.22-13.11,12-20.68a45.69,45.69,0,0,0,2.62-10.57,36.22,36.22,0,0,0-2.79-17.84,102.42,102.42,0,0,0-4.43-9.28c-2.4-4.4-3.65-9.19-5-13.93-1.09-3.78-1.57-7.73-2.67-11.51a129.38,129.38,0,0,0-7.35-18.43c-1.54-3.28-4.6-4.95-7.44-6.83a2.61,2.61,0,0,0-.65-.21c-2.83-.92-5.37,0-7.84,1.26a2.06,2.06,0,0,0-.89.68c-1.36,2.62-2.92,5.15-3,8.28a38.46,38.46,0,0,0,1.27,10.14c.95,3.83,2,7.62,2.89,11.47,1.13,5.11,2.15,10.24,3.1,15.38.48,2.6,1.28,5.17,1,7.88-.08.82-.2,1.61-1.23,1.57-.86,0-1-.76-1.06-1.5a33.77,33.77,0,0,0-.31-3.62c-.78-4.24-1.6-8.49-2.47-12.72-.77-3.78-1.47-7.59-2.49-11.31-2-7.21-3.71-14.42-3.45-22a10.44,10.44,0,0,0-.4-2.46c-.56-2.6-2.3-4.6-3.51-6.87a6.76,6.76,0,0,0-5.72-3.6q-2.94-.3-5.84-.82c-4.27-.77-6.76.4-8.87,4.23-1.19,2.15-1.14,4.57-1.21,6.87-.12,3.41.28,6.83.36,10.25s0,7,0,10.53a17.24,17.24,0,0,0,.26,2.48c.66,4.34,1.52,8.66,2,13,.4,4,.35,8,.53,12.07.06,1.36.2,2.72.36,4.07s-.23,1.82-2.07,1.55a13.71,13.71,0,0,1-.55-2.84,120.07,120.07,0,0,0-.95-17.06c-.34-2.55-.73-5.09-1.12-7.64-.22-1.42-.58-2.83-.69-4.25-.23-3-.33-6.07-.49-9.11,0-.37-.09-.75-.14-1.13-.25-1.95-.67-3.89-.73-5.85-.23-7.15-.3-14.31-.5-21.47-.14-5.32.22-10.64-.37-16a113.28,113.28,0,0,1-.5-13.67c.09-8.53-.56-17.08.42-25.59.33-2.86.82-5.71,1-8.57a84.93,84.93,0,0,0,.23-8.88c-.08-2.42-.65-4.81-.77-7.22a31.71,31.71,0,0,0-2.46-10.36,12.41,12.41,0,0,0-1.47-2.2A2.63,2.63,0,0,0,211,138.8c0,2.29,0,4.58,0,6.87-.11,4.06-3.11,6.33-6.23,6.12-1-.06-2,0-3,0a6.93,6.93,0,0,1-6.89-5.27,24.2,24.2,0,0,1-.78-5.15c-.13-2.32,0-4.64,0-7l-.45-.06a12.3,12.3,0,0,0-.94,4.52c0,5,0,9.92,0,14.88a37.83,37.83,0,0,0,.54,6.57c.75,3.83.27,7.57-.4,11.31a73.18,73.18,0,0,0-1.53,14q.18,12.23.46,24.44a29.7,29.7,0,0,1-.81,6.77,71.49,71.49,0,0,0-1.42,9.2,24.32,24.32,0,0,1-1.17,6.24,13.14,13.14,0,0,0-.46,7.78,22.72,22.72,0,0,1,.58,6.32c-.11,3.25-.54,6.49-.87,9.73-.17,1.66-.41,3.31-.6,5-.26,2.25-.55,4.51-.74,6.77-.21,2.57-.31,5.15-.51,7.73-.12,1.66-.34,3.31-.51,5-.27,2.64-.64,5.27-.8,7.91s-.66,5.26,0,7.9A7.16,7.16,0,0,1,184.32,298.09Zm24.87-161.95h-.1a26.18,26.18,0,0,0,0-4.34,53.67,53.67,0,0,1-.81-9.3,15.46,15.46,0,0,0-2.21-8c-.74-1.24-1.49-2.62-3.23-2.51s-2.18,1.47-2.83,2.68A36.79,36.79,0,0,0,196.34,127a43.12,43.12,0,0,0-.32,5.21c0,1,.25,2,.26,2.94.05,2.52,0,5,.06,7.56a13.3,13.3,0,0,0,.45,3.14A4.74,4.74,0,0,0,201,149.5c.9.14,1.81.25,2.71.38,2.81.4,4.8-1.13,5-3.94C208.9,142.67,209,139.4,209.19,136.14Zm-28.85,60.21c-2.16,1.59-4.08,3.05-6,4.45-4.64,3.32-9.79,5.87-14.16,9.6-2.14,1.82-4.54,3.37-6,5.84a6,6,0,0,0-.83,2.09c-.18,1.22.39,1.69,1.59,1.37a18.28,18.28,0,0,0,2.13-.81c3.08-1.29,5.41-3.64,7.91-5.73,3.92-3.25,7.75-6.6,11.67-9.86A10.3,10.3,0,0,0,180.34,196.35Z"/><path class="cls-15" d="M259.58,237.82h-4.72A6.32,6.32,0,0,1,259.58,237.82Z"/><path class="cls-15" d="M220.2,232.54l-.67.65c-.05-.23-.09-.47-.14-.7Z"/><path class="cls-12" d="M184.32,298.09a7.16,7.16,0,0,0,.08-1.74c-.62-2.64-.13-5.28,0-7.9s.53-5.27.8-7.91c.17-1.66.39-3.31.51-5,.2-2.58.3-5.16.51-7.73.19-2.26.48-4.52.74-6.77.19-1.66.43-3.31.6-5,.33-3.24.76-6.48.87-9.73a22.72,22.72,0,0,0-.58-6.32,13.14,13.14,0,0,1,.46-7.78,24.32,24.32,0,0,0,1.17-6.24,71.49,71.49,0,0,1,1.42-9.2,29.7,29.7,0,0,0,.81-6.77q-.27-12.21-.46-24.44a73.18,73.18,0,0,1,1.53-14c.67-3.74,1.15-7.48.4-11.31a37.83,37.83,0,0,1-.54-6.57c-.07-5,0-9.92,0-14.88a12.3,12.3,0,0,1,.94-4.52l.45.06c0,2.32-.09,4.64,0,7a24.2,24.2,0,0,0,.78,5.15,6.93,6.93,0,0,0,6.89,5.27c1,0,2-.05,3,0,3.12.21,6.12-2.06,6.23-6.12.06-2.29,0-4.58,0-6.87a2.63,2.63,0,0,1,1.14-2.61,12.41,12.41,0,0,1,1.47,2.2,31.71,31.71,0,0,1,2.46,10.36c.12,2.41.69,4.8.77,7.22a84.93,84.93,0,0,1-.23,8.88c-.21,2.86-.7,5.71-1,8.57-1,8.51-.33,17.06-.42,25.59a113.28,113.28,0,0,0,.5,13.67c.59,5.34.23,10.66.37,16,.2,7.16.27,14.32.5,21.47.06,2,.48,3.9.73,5.85,0,.38.12.76.14,1.13.16,3,.26,6.08.49,9.11.11,1.42.47,2.83.69,4.25.39,2.55.78,5.09,1.12,7.64a120.07,120.07,0,0,1,.95,17.06,13.71,13.71,0,0,0,.55,2.84c1.84.27,2.24-.07,2.07-1.55s-.3-2.71-.36-4.07c-.18-4-.13-8.07-.53-12.07-.44-4.37-1.3-8.69-2-13a17.24,17.24,0,0,1-.26-2.48c0-3.51,0-7,0-10.53s-.48-6.84-.36-10.25c.07-2.3,0-4.72,1.21-6.87,2.11-3.83,4.6-5,8.87-4.23q2.89.52,5.84.82a6.76,6.76,0,0,1,5.72,3.6c1.21,2.27,3,4.27,3.51,6.87a10.44,10.44,0,0,1,.4,2.46c-.26,7.54,1.48,14.75,3.45,22,1,3.72,1.72,7.53,2.49,11.31.87,4.23,1.69,8.48,2.47,12.72a33.77,33.77,0,0,1,.31,3.62c0,.74.2,1.46,1.06,1.5,1,0,1.15-.75,1.23-1.57.27-2.71-.53-5.28-1-7.88-1-5.14-2-10.27-3.1-15.38-.85-3.85-1.94-7.64-2.89-11.47A38.46,38.46,0,0,1,248,251.35c.07-3.13,1.63-5.66,3-8.28a2.06,2.06,0,0,1,.89-.68c2.47-1.3,5-2.18,7.84-1.26a2.61,2.61,0,0,1,.65.21c2.84,1.88,5.9,3.55,7.44,6.83a129.38,129.38,0,0,1,7.35,18.43c1.1,3.78,1.58,7.73,2.67,11.51,1.36,4.74,2.61,9.53,5,13.93a102.42,102.42,0,0,1,4.43,9.28,36.22,36.22,0,0,1,2.79,17.84,45.69,45.69,0,0,1-2.62,10.57c-2.76,7.57-7.44,14.09-12,20.68-4,5.75-7.95,11.52-11.53,17.52a36.34,36.34,0,0,1-14.54,13.77,72.41,72.41,0,0,1-23.36,7.38,63.13,63.13,0,0,1-9.5.91c-1.82,0-3.64.45-5.44.39-10.83-.37-21.49-1.74-31.55-6.09a41.68,41.68,0,0,1-9.71-5.94,7,7,0,0,1-2.25-3.08,19.39,19.39,0,0,0-2.21-4q-2.55-3.78-5.28-7.44c-1.09-1.45-2.32-2.8-3.49-4.2l-8.36-9.93c-.49-.58-.95-1.19-1.48-1.73-2.85-2.88-5.79-5.66-8.56-8.61a75.22,75.22,0,0,1-13.48-18.84,27.85,27.85,0,0,1-3-14.11,28.84,28.84,0,0,1,1.42-7.11,57.65,57.65,0,0,0,2.93-11.45c.38-3.28,1.3-6.62.22-10a2.19,2.19,0,0,1,0-.68c-.16-6.16-.5-12.33-.4-18.49a47.57,47.57,0,0,1,2.29-13.41,11.12,11.12,0,0,1,1.73-3.19c2-2.72,4.13-5.19,7.37-6.59a27.28,27.28,0,0,0,9.06-6.43c2.08-2.22,4.4-4.2,6.66-6.24a4.25,4.25,0,0,1,1.79-.95c3.81-.94,6.86-3.18,9.77-5.64,2.73-2.31,5.35-4.73,8.05-7.08,1.1-1,3.21-.86,4.65.26a46.66,46.66,0,0,1,3.63,3.12c2.67,2.53,2.58,5.74,1.8,8.91a14.76,14.76,0,0,1-2.19,4,1.9,1.9,0,0,1-2.58.68C172.31,224.11,167.06,225,162,228c-4.56,2.66-6.91,6.89-8.73,11.58a29.22,29.22,0,0,0-1.81,8.66c-.19,2.57-.29,5.15-.47,7.72-.12,1.82-.33,3.63-.47,5.44-.16,2.27-.23,4.55-.45,6.81-.47,4.9-.52,9.84-1.73,14.66a19.41,19.41,0,0,1-5.39,9.62c-.83.79-1.62,1.61-2.43,2.43a1.09,1.09,0,0,0-.19,1.62,1.05,1.05,0,0,0,1.62.1,27.3,27.3,0,0,0,3.42-3,23.3,23.3,0,0,0,5.62-12c.38-2.93.57-5.88.94-8.81.71-5.63.64-11.35,2.11-16.9a27.36,27.36,0,0,0,.61-5.88c.19-5.19,1.32-10.18,4.26-14.45,2.48-3.62,5.83-6.3,10.57-6.86,4-.48,7.68.18,10.86,2.71a7.78,7.78,0,0,1,2.21,2.84,24.25,24.25,0,0,1,2.34,10.14c0,2.36.05,4.73,0,7.09-.11,4.11-.23,8.21-.47,12.31-.22,3.71-.58,7.41-.91,11.11-.44,5-.71,10-1.44,14.93a26.77,26.77,0,0,0,.1,7C182.29,298.12,182.42,298.19,184.32,298.09Zm9.26,28.74c1.62,2,3.86,2.48,6.13,2.61,1.49.09,3-.4,4.51-.36a15.41,15.41,0,0,0,5.3-1.17c1.21-.4,2.45-.75,3.62-1.24a11.21,11.21,0,0,0,1.92-1.46c-1-.37-1.53-.75-2-.71a8.11,8.11,0,0,0-2.86.64,19.74,19.74,0,0,1-6.3,1.74c-2.79.36-5.41.54-8-.78A1.53,1.53,0,0,0,193.58,326.83ZM175.8,325a11.76,11.76,0,0,1-2.41,1.52c-4,1.23-8.13,2.12-12.17-.08a8.57,8.57,0,0,0-1.84-.87,1.38,1.38,0,0,0-1.18.35,1.57,1.57,0,0,0-.07,1.23,1.47,1.47,0,0,0,.78.79c2.1.86,4.07,2,6.46,2.08a24.79,24.79,0,0,0,8.72-1.44,11.22,11.22,0,0,0,2.62-1.71c.15-.11.18-.39.33-.72Zm74.53.9c-1.31-1.11-1.51-1.23-2.38-.53a10.42,10.42,0,0,1-4.79,1.88c-.59.12-1.18.28-1.76.46a7.42,7.42,0,0,1-6.75-.7,4,4,0,0,0-1.9-.6,1.27,1.27,0,0,0-1,.72,1.24,1.24,0,0,0,.35,1.17c2.91,1.52,5.87,2.88,9.3,1.84,1.45-.44,2.94-.72,4.39-1.15A7.72,7.72,0,0,0,250.33,325.86Zm-52.7-144.25c1.31,2,1.52,2.5,1.75,4.06,1.77,0,3.58.05,5.39,0,.38,0,.74-.53,1.11-.82-.33-.32-.61-.86-1-.94-1.46-.31-2.95-.46-5-.75,2.09-.44,3.68-.82,5.3-1.09.81-.14,1.6-.23,1.53-1.26-.06-.86-.77-1.09-1.51-1A24.8,24.8,0,0,0,197.63,181.61Zm82.08,141.05c-.91.44-1.84.92-2.81,1.34-2.83,1.24-5.69,1.5-8.5-.07-.69-.38-1.29-.54-1.77.18s0,1.3.53,1.75a6.27,6.27,0,0,0,1,.48c2.85,1.47,5.77.81,8.64.15a9.28,9.28,0,0,0,3-1.57C280.7,324.3,280.9,323.48,279.71,322.66ZM196.62,230c1.26,1.47,2.49,1,3.56,1,2.79-.06,5.59-.26,8.38-.43a10.36,10.36,0,0,0,1.28-.21c0-1.8-.05-2.06-1.35-2q-5,.1-10,.49C197.91,228.85,197.35,229.51,196.62,230Zm4.7-3.05c1.41-.29,3.26-.63,5.08-1.06.29-.07.73-.57.68-.74a1.51,1.51,0,0,0-.8-.91,3.91,3.91,0,0,0-1.57-.07c-1.34.12-2.67.32-4,.44-.9.08-2.05-.08-2,1.24S200,226.84,201.32,226.94Zm1.08,7.23a7.62,7.62,0,0,0,2,0,1.45,1.45,0,0,0,.91-1.05,1.42,1.42,0,0,0-.92-1,19.81,19.81,0,0,0-3.85,0,1.38,1.38,0,0,0-.9,1.05c0,.36.52.9.93,1A6,6,0,0,0,202.4,234.17Z"/><path class="cls-16" d="M209.19,136.14c-.16,3.26-.29,6.53-.5,9.8-.17,2.81-2.16,4.34-5,3.94-.9-.13-1.81-.24-2.71-.38a4.74,4.74,0,0,1-4.22-3.62,13.3,13.3,0,0,1-.45-3.14c-.07-2.52,0-5-.06-7.56,0-1-.28-2-.26-2.94a43.12,43.12,0,0,1,.32-5.21A36.79,36.79,0,0,1,200,114.61c.65-1.21,1.21-2.58,2.83-2.68s2.49,1.27,3.23,2.51a15.46,15.46,0,0,1,2.21,8,53.67,53.67,0,0,0,.81,9.3,26.18,26.18,0,0,1,0,4.34Z"/><path class="cls-17" d="M180.34,196.35a10.3,10.3,0,0,1-3.76,7c-3.92,3.26-7.75,6.61-11.67,9.86-2.5,2.09-4.83,4.44-7.91,5.73a18.28,18.28,0,0,1-2.13.81c-1.2.32-1.77-.15-1.59-1.37a6,6,0,0,1,.83-2.09c1.49-2.47,3.89-4,6-5.84,4.37-3.73,9.52-6.28,14.16-9.6C176.26,199.4,178.18,197.94,180.34,196.35Z"/><path class="cls-18" d="M193.58,326.83a1.53,1.53,0,0,1,2.31-.73c2.58,1.32,5.2,1.14,8,.78a19.74,19.74,0,0,0,6.3-1.74,8.11,8.11,0,0,1,2.86-.64c.49,0,1,.34,2,.71a11.21,11.21,0,0,1-1.92,1.46c-1.17.49-2.41.84-3.62,1.24a15.41,15.41,0,0,1-5.3,1.17c-1.5,0-3,.45-4.51.36C197.44,329.31,195.2,328.87,193.58,326.83Z"/><path class="cls-18" d="M175.8,325l1.24,1.15c-.15.33-.18.61-.33.72a11.22,11.22,0,0,1-2.62,1.71,24.79,24.79,0,0,1-8.72,1.44c-2.39-.06-4.36-1.22-6.46-2.08a1.47,1.47,0,0,1-.78-.79,1.57,1.57,0,0,1,.07-1.23,1.38,1.38,0,0,1,1.18-.35,8.57,8.57,0,0,1,1.84.87c4,2.2,8.12,1.31,12.17.08A11.76,11.76,0,0,0,175.8,325Z"/><path class="cls-18" d="M250.33,325.86a7.72,7.72,0,0,1-4.54,3.09c-1.45.43-2.94.71-4.39,1.15-3.43,1-6.39-.32-9.3-1.84a1.24,1.24,0,0,1-.35-1.17,1.27,1.27,0,0,1,1-.72,4,4,0,0,1,1.9.6,7.42,7.42,0,0,0,6.75.7c.58-.18,1.17-.34,1.76-.46a10.42,10.42,0,0,0,4.79-1.88C248.82,324.63,249,324.75,250.33,325.86Z"/><path class="cls-18" d="M197.63,181.61a24.8,24.8,0,0,1,7.61-1.87c.74-.06,1.45.17,1.51,1,.07,1-.72,1.12-1.53,1.26-1.62.27-3.21.65-5.3,1.09,2,.29,3.51.44,5,.75.38.08.66.62,1,.94-.37.29-.73.8-1.11.82-1.81.09-3.62,0-5.39,0C199.15,184.11,198.94,183.61,197.63,181.61Z"/><path class="cls-18" d="M279.71,322.66c1.19.82,1,1.64.1,2.26a9.28,9.28,0,0,1-3,1.57c-2.87.66-5.79,1.32-8.64-.15a6.27,6.27,0,0,1-1-.48c-.56-.45-1-1-.53-1.75s1.08-.56,1.77-.18c2.81,1.57,5.67,1.31,8.5.07C277.87,323.58,278.8,323.1,279.71,322.66Z"/><path class="cls-18" d="M196.62,230c.73-.48,1.29-1.14,1.89-1.19q5-.39,10-.49c1.3,0,1.38.23,1.35,2a10.36,10.36,0,0,1-1.28.21c-2.79.17-5.59.37-8.38.43C199.11,231,197.88,231.46,196.62,230Z"/><path class="cls-18" d="M201.32,226.94c-1.32-.1-2.5.18-2.59-1.1s1.06-1.16,2-1.24c1.35-.12,2.68-.32,4-.44a3.91,3.91,0,0,1,1.57.07,1.51,1.51,0,0,1,.8.91c0,.17-.39.67-.68.74C204.58,226.31,202.73,226.65,201.32,226.94Z"/><path class="cls-14" d="M202.4,234.17a6,6,0,0,1-1.8,0c-.41-.14-.93-.68-.93-1a1.38,1.38,0,0,1,.9-1.05,19.81,19.81,0,0,1,3.85,0,1.42,1.42,0,0,1,.92,1,1.45,1.45,0,0,1-.91,1.05A7.62,7.62,0,0,1,202.4,234.17Z"/></g></svg>