<svg xmlns="http://www.w3.org/2000/svg" viewBox="0 0 412 618.07"><defs><style>.cls-1{font-size:314.25px;font-family:Rajdhani-Bold, Rajdhani;font-weight:700;}.cls-2{fill:#7c5100;}.cls-3{fill:#4b3100;}.cls-4{fill:#b09766;}.cls-5{fill:#f4f4f4;}.cls-6{fill:none;stroke:#242328;stroke-miterlimit:10;stroke-width:0.49px;}</style></defs><g id="Layer_2" data-name="Layer 2"><text class="cls-1" transform="translate(-2061.96 -3037.27)"><tspan xml:space="preserve">Sidor att  fixa</tspan><tspan x="-494.14" y="418.99" xml:space="preserve">- Updates from  team</tspan><tspan x="383.21" y="837.99">- Footer</tspan><tspan x="-324.3" y="1256.98">- About the project</tspan><tspan x="261.13" y="2094.97">- Register</tspan><tspan x="439.46" y="2513.96">- E-day</tspan><tspan x="448.42" y="2932.96">- Rules</tspan><tspan x="324.45" y="3351.95">- Actions</tspan></text><path class="cls-2" d="M91.13,201.26a153.9,153.9,0,0,1,197.24-32.12l-4.33,3c9.74,2.5,19.28,7.26,25.35,15.27s7.94,19.68,2.7,28.26c-1.17,1.91-2.69,3.72-3.07,5.93-.49,3,1.16,6.23-.22,8.9-1.56,3-6.49,4.12-6.39,7.52a9.51,9.51,0,0,0,.88,2.85c2.7,7.5-5.48,14.12-12.49,17.93A49.54,49.54,0,0,1,265,287.63c2.52-1.95,6.32.82,6.91,3.94s-.67,6.27-1,9.43.69,7.06,3.77,7.88l-5.44,6.26c3.8-.14,6.46,4.36,5.75,8.1s-3.64,6.63-6.67,8.94c5.37.24,9.59,6.36,7.9,11.46-.94,2.83-3.23,5-5.43,7L244,375a13.5,13.5,0,0,0-5.08,10.84c.05,1.75.44,3.53,0,5.21-1,3.62-5.2,5.08-8.75,6.3a64.26,64.26,0,0,0-19.74,11.06,6.34,6.34,0,0,0-2,2.29c-.6,1.37-.23,2.94-.31,4.44-.13,2.35-1.37,4.52-1.65,6.86-.42,3.44,1.28,6.74,2.89,9.81s3.25,6.41,2.71,9.84-4.33,6.48-7.43,4.92c.23-1.48-1.59-2.5-3.09-2.42s-2.95.78-4.45.66c-3.32-.26-4.83-5.41-2.18-7.42-4.14,1-9.85,1.18-11.21-2.85-.61-1.8,0-3.75.13-5.65a10.82,10.82,0,0,0-9.23-11,25.85,25.85,0,0,1,6.24-10.06c-4.52-.88-6.19-7.06-4.2-11.21s6.24-6.67,10.25-8.94c-2.32-.71-3.26-3.7-2.58-6s2.5-4.11,4.24-5.79l18-17.25c-3.42-.17-7.09-.43-9.73-2.6s-3.24-7-.28-8.73c-2.75-.63-5.62-1.32-7.75-3.17s-3.2-5.25-1.57-7.55c-4.83.35-10,.6-14.11-2s-5.78-9.28-1.94-12.23l-18.17-6.34a10.25,10.25,0,0,1-4.16-2.24c-2.06-2.15-1.8-5.77-.21-8.29s4.18-4.2,6.69-5.8a14.7,14.7,0,0,1-14.88,8.65,38.07,38.07,0,0,1,13.93-15.2,43.17,43.17,0,0,0-14.13,10.57l9.79-14a27.14,27.14,0,0,1-15.55-2,7.7,7.7,0,0,1-4-3.33c-.77-1.62-.2-3.95,1.5-4.48a8.72,8.72,0,0,1-8.53-14.72c-4-5.4-13.83-4.53-16.45-10.7-.66-1.54-.7-3.28-1.28-4.85-1.18-3.19-4.31-5.14-7.14-7s-5.77-4.32-6.17-7.7S96,227.9,98.67,230c-2.16-2.69-1.85-6.72-.19-9.73s4.41-5.25,7.1-7.4c-3.46,2.15-7.55-3.24-6-7s5.84-5.46,9.69-6.78c6.75-2.32,13.67-4.37,20.3-7a16.7,16.7,0,0,1-6.91-3c-1.5-1.08-2.7-2-4.64-1.51-2.86.72-5.75,2.8-8.37,4.15l-8.62,4.41Z"/><path class="cls-3" d="M270.12,185.44l-11.29,4.13a8.07,8.07,0,0,1,6.75,3.11,3.41,3.41,0,0,0-3.66,3.78,35.88,35.88,0,0,1,14.25,6.13,38.85,38.85,0,0,1-26.85,10.06l27.31.74a15.66,15.66,0,0,1-8.72,7.37,8.81,8.81,0,0,0,8,3.53c-3.67,2.54-1.87,9.54,2.56,10-2.66,1.41-5.48,3-6.9,5.64s-.59,6.72,2.31,7.55l-17.15,10.18,6.3,3.68a2.79,2.79,0,0,0,4.54,1.15,14.2,14.2,0,0,0,4.66,4.56,14.59,14.59,0,0,1-14.51,6c1.45-.16,1.45,2.34.26,3.18s-2.87,1-3.72,2.18c-1.77,2.45,1.81,5.21,4.69,6.12a4.88,4.88,0,0,0,1.86,9.54,5.18,5.18,0,0,0,1.42,10.23c-2.53,2.55-4.78,7.45-1.54,9a5.11,5.11,0,0,0-3.08,3.33l4.2,2a4.28,4.28,0,0,0-3.13,6l-8.63,4.57a72.07,72.07,0,0,1,14.89.8,9.54,9.54,0,0,0-3.07,5.17l4.48.32-3.19,2.79c1.45.62,2,2.47,1.78,4-.49,3.86-4,6.53-7.14,8.75l-13,9.07c-.44-1.12-2.28.45-1.52,1.37s2.28.57,3.26-.13a71,71,0,0,1-20.28,28.49c-9.59,8.11-22.6,16-22.38,28.52,2.63-9,11-15.46,20.16-17.49,5.45-1.21,11.46-1.15,16-4.41,6.33-4.57,7.12-13.59,11.3-20.17,3.6-5.67,9.56-9.31,15.3-12.79s11.66-7.22,15.09-13,3.42-14.16-1.83-18.33l-4-.56c5.85-4.24,4.25-15.06-2.57-17.42l6.64-1.23c-3.43-1.3-4.52-5.71-4-9.35s2.06-7.13,2-10.8-2.86-7.73-6.5-7.27a30.36,30.36,0,0,0,22.52-24.34,14.61,14.61,0,0,0,14.88-23.56c5.44-2.69,7.63-10.38,4.43-15.53,3.18-7,11.52-11.42,12.21-19,.41-4.52-2.1-8.72-4.51-12.55-3.56-5.67-7.37-11.57-13.24-14.8-6.5-3.57-14.32-3.27-21.49-2.84,3.4-.06,6.91.09,10.29-.24-7.88-7.24-16.88-9.9-27.41-9.54-2.13.07-16.63.66-16.12,4.73.12,1,1.61,1.48,2.35,1.77,3.42,1.33,7.19,1.87,10.7,2.91-5.39.32-12.08,2.8-14.94,7.74a34.89,34.89,0,0,0,9.42,3.54c1.6.43,3.23.78,4.87,1C266.53,185.08,269,185.85,270.12,185.44Z"/><path class="cls-3" d="M88.62,203A68.59,68.59,0,0,1,120,190.73a4.8,4.8,0,0,1-3,1.74,17.35,17.35,0,0,1,10.4-.47q-11.77,3-23.31,6.76c-3.47,1.14-7.27,2.63-8.84,5.93s1.37,8.36,4.81,7.1q-5,3.75-9.62,7.89a4.1,4.1,0,0,0,4.26,2.48,24.24,24.24,0,0,0-3.93,24.47c4,9.84,14.06,15.76,23.78,20.12-5.08.89-6.69,8.11-4,12.47s8,6.36,12.9,7.86c-4.73,2.37-3.85,10.17.52,13.16s10.25,2.37,15.33.87a7.27,7.27,0,0,0-5.73,8.63,7.13,7.13,0,0,0,9.21,4.62c-3.65,2.68-1.71,9.06,2.34,11.07s8.88,1.08,13.3.09c-2.21,5.23-3.84,12.53,1,15.55s11.34-1.8,16.92-.33a5,5,0,1,0,5,8.3c-2.53,3.46,0,8.72,3.9,10.53s8.4,1.2,12.63.55a149,149,0,0,0-17.43,11.6,9.92,9.92,0,0,0,5.55,3.69c-2.46,1.28-5,2.67-6.53,5s-1.36,6,1,7.42c-4.07,2.11-8,5-9.86,9.21s-1,9.85,2.88,12.28c-2,2.39-4.12,4.89-4.93,7.93s.07,6.76,2.83,8.25c2.3,1.25,5.31.71,7.45,2.19,4.59,3.17,2.59,13.23,8.16,13.43a57.74,57.74,0,0,0-5-24.88,15,15,0,0,0,.51-16.24,6.59,6.59,0,0,1,5.48-1.16,25.66,25.66,0,0,0,3.93-17.42l12.84-11a5.49,5.49,0,0,0-3.84,1.32l9-9.81c1.34-1.46,2.76-3.11,2.85-5.09s-2-4.07-3.79-3.17l2.72-4.12a18,18,0,0,0-11.84-3.49c1.74-.95,1.55-3.72.13-5.1s-3.5-1.74-5.46-2l2.29-5c-5.37,2.34-12.45-1.51-13.4-7.3a11.26,11.26,0,0,1,8.73-.37,6,6,0,0,1-6.08,2.09c2.84-3.22.78-9.25-3.43-10.06a4,4,0,0,0,4.62-2.88A129.72,129.72,0,0,0,158.9,311l7.66-4.33-9.6-.82a71.16,71.16,0,0,1,22.37.76c2.52-2.21.5-6.76-2.66-7.87s-6.6,0-9.84.83-7,1.35-9.67-.65l7.24-8.11-9.63-.59c3.33.08,5.66-4.53,3.61-7.17s-7.08-1.55-7.84,1.7c2.62,0,1.55-4.37-.6-5.86-4.15-2.89-9.47-4.24-12.64-8.17s-1.21-11.88,3.77-11.11a80.56,80.56,0,0,1-13.8-3c3.16.21,3.44-5.06,1-7.1s-5.94-2.46-8.24-4.63c-2.58-2.41-3-6.33-4.89-9.31s-7.23-4.33-8.44-1c5.4-3.48,4.43-13.22-1.56-15.55,6.32,2.52,14-4.68,11.93-11.15a12.56,12.56,0,0,0,14.43-19.93c-2-2.19-4.8-3.66-6.4-6.17a11.62,11.62,0,0,0-9,1.78c.24-.17-.24-3.55-.36-4-.32-1.19-.68-1.89-1.91-1.58-2.14.54-5,3.88-6.69,5.3a121.94,121.94,0,0,0-12.35,12.13Q91.59,199.08,88.62,203Z"/><path class="cls-4" d="M140.75,181.36a2.18,2.18,0,0,1,3-.37c.81.81-.08,2.61-1.14,2.18l10.3-2.41-7.4,6.64,9.24-.26a112.88,112.88,0,0,1-15.09,11.37l8,.35-5.92,7.32,8.24-1a7,7,0,0,1-2.23,3.15l9.72-2.78-8.79,7,5.5.29q-9.93,9.09-20.61,17.34l17.92-6.56-5.8,5.2a79.44,79.44,0,0,1,26.71-5.2,38.16,38.16,0,0,0-11.05,6.76l13.84-3-5.64,4.31a6.11,6.11,0,0,1,4.71-.23l-23,17.52,17.28-3.5-2.74,2.68,6.63-1.28-5.86,4.26,5.42-.25-5.53,6.37,11.36.08a38.24,38.24,0,0,0-9,7.3l4.24-.86a13.11,13.11,0,0,0-4.23,4.91,56.93,56.93,0,0,1,21.89-3.53l-7.58,6.38,9.8-2.44a33.08,33.08,0,0,0-7.76,6.88l12.15-.62-7.48,5.24,6,1.83-3,3.26a17,17,0,0,1,7.21.86,5.35,5.35,0,0,0-3,4.56l7.81,1a66.94,66.94,0,0,0-12.63,8.22l12-.1-8.39,8.12,9.58-.61a32.21,32.21,0,0,0-8.09,5.69l7.16.16a7.38,7.38,0,0,0-3.51,3.85,28.4,28.4,0,0,0,8.31,2l-5.14,4.15a4,4,0,0,1,3.11.5c.81.71.52,2.46-.56,2.41l7.78,0c-2.8.28-3.09,4.74-1,6.56s5.23,1.8,8,2,6,1.08,7.12,3.66l-15,4.92,9.81,1.39-4.65,3.74a17.1,17.1,0,0,0,7.39,2.68L223.43,354l-.08,6.88-4.76,3a8.73,8.73,0,0,1-7,6.32l3.84.94a60.27,60.27,0,0,0-14.31,10.28l10.47,2.1-16.69,11.37,5.38.65-10.48,11.17a6.16,6.16,0,0,0,6.07,2.21,30.51,30.51,0,0,0-4.12,9.62l7,6.15-2.23,4.51a6.86,6.86,0,0,0,5.13,2.3,35.92,35.92,0,0,0,0,11.66,3.92,3.92,0,0,1,2.77,3.79c3.05-1.27,3.29-6.38.37-7.94l.94-5.82a24.35,24.35,0,0,1-4.12-5.45l1.73-3.47c-2.12-.11-3.13-3.39-1.45-4.67l-4.62-2.1a6.84,6.84,0,0,0,1.81-9.84c1.59-.41,3.31-.92,4.23-2.27s.25-3.75-1.39-3.76l19.85-16.4c.88-.72,1.86-1.77,1.47-2.84s-2.57-.08-1.67.62l16.58-11.31A33.3,33.3,0,0,0,223,374.43a72.65,72.65,0,0,0,12.48-6.76,20.45,20.45,0,0,0-9.43,1.51l11.32-8.75a23.81,23.81,0,0,0-9.22,1l4-4.36c-.34,1.23-2.51.39-2.46-.88s1.25-2.16,2.35-2.81a103.92,103.92,0,0,1,24.69-10.77l-22.56,5.72a5.72,5.72,0,0,0,3.65-6.31l-5,.77a15.1,15.1,0,0,0,5.57-4l-6.58-1.49,4-6.39a13,13,0,0,1-8.58-2.67l4.76-5.75-13.54-4.37,7.95-4.9-12.55-.94,18-5.89-17.31-1.1a15.43,15.43,0,0,1,8.28-3.83,16.26,16.26,0,0,0-6.53.8,13.57,13.57,0,0,0,8.93-3.25L213.73,298a85.81,85.81,0,0,0,15.9-3.64A88.89,88.89,0,0,1,210.5,293l14-6.17A78.68,78.68,0,0,0,205.71,283l19.16-2.16c-.71,1.05-2.45-.49-1.93-1.64s2-1.49,3.22-1.67,2.69-.45,3.28-1.57l-9.54,0a46.7,46.7,0,0,0,9.08-8.17,134.77,134.77,0,0,0-20.28-3.09l5.07-1.47-18.92-1.83,12.4-5.39-16.54-2.44a156.2,156.2,0,0,0,26-2.42,30,30,0,0,1-10.52-.57,56.47,56.47,0,0,0,17.64-2.67,97.32,97.32,0,0,0-17.57-2.55l3.83-2a38.31,38.31,0,0,0-12-3.38l5.35-3.79-12.89-3.22,6.93-1.87-6.58-1.39a20.59,20.59,0,0,0,11.19-3.54l-11.43-3.28c-1.17-.33-2.57-.91-2.73-2.12s2.29-1.63,2-.43L179.48,219a22,22,0,0,0,10.32-4.66,59.57,59.57,0,0,0-14.25-1.73l8.86-4.1a5.74,5.74,0,0,0-4.89-.15,110.16,110.16,0,0,0,28.17-5.76l-7.76-.33c.21,1.09,2.15.07,1.76-1s-1.71-1.32-2.82-1.43l-9.78-1a12.69,12.69,0,0,0,8.95-2.14l-7.39-1.64c1.09-1.56,3.47-.62,5.37-.56s3.27-3.35,1.38-3.18a10.67,10.67,0,0,0,8.53-4.81,75.84,75.84,0,0,0-28-1.82L185.7,180l-6.37-3.07a54.29,54.29,0,0,0,12-4.48,6.52,6.52,0,0,0-3.79-.62A38.32,38.32,0,0,0,198.08,168l-5-1.22,3.4-4.63a7.47,7.47,0,0,1-5-2.28l3.33-4.49c-.81.92-2.35-.27-2.47-1.48s.39-2.47,0-3.64c-.71-2.26-3.86-2.34-6.2-1.92a183.8,183.8,0,0,0-61.63,23.14l23.77-4.32a74.66,74.66,0,0,0-16.17,6.76c3-.47,7.92-2.28,10.79-.75C146.06,174.76,141.88,179.38,140.75,181.36Z"/><path class="cls-5" d="M341.17,209.82c2.44,1.39,5.14,3.42,5,6.22a6.27,6.27,0,0,1-2,3.91c-5.81,5.94-15.2,6-23.49,5.56,4.15-.1,9.26-1.72,9.81-5.84s-4-7-7.89-8.66a352.82,352.82,0,0,0-70.17-21.14c-1.08-.21-3.23-.13-2.09-1.26.89-.89,3.77-.92,4.93-1,5.12-.44,10.59.75,15.67,1.4a265.33,265.33,0,0,1,34.34,6.47,153.92,153.92,0,0,1,32.13,12.28C338.64,208.41,339.91,209.1,341.17,209.82Z"/><path class="cls-5" d="M66.56,250a6.66,6.66,0,0,0-.48,4.7c1.36,3.59,6.56,3,10.19,1.79a7.1,7.1,0,0,1-6.67-.17c.63-6.07,4.24-11.52,8.84-15.52S88.57,234,94.1,231.44A396.16,396.16,0,0,1,141,213.17c3.55-1.12,7.13-2.15,10.69-3.24a18.83,18.83,0,0,0,3.89-1.34c1.35-.78,1.23-.89-.29-1-2.74-.22-5.81.55-8.49,1-4.54.73-9,1.62-13.53,2.62-10,2.22-20.09,4.81-29.56,8.78-12.67,5.33-27.59,13.53-35,25.63A28.42,28.42,0,0,0,66.56,250Z"/><path class="cls-5" d="M147.81,263.24a89.25,89.25,0,0,0-37,12.82c-6.66,4.14-13.42,10.65-12.39,18.42a2.34,2.34,0,0,0,.76,1.67,2.44,2.44,0,0,0,1.71.27A23.88,23.88,0,0,0,113,291.66c-3,.57-7.2.4-7.79-2.6-.46-2.34,1.89-4.2,4-5.4a254.71,254.71,0,0,1,46-21.07,68.12,68.12,0,0,0-19.33,3"/><path class="cls-5" d="M236.27,275.66c-38.71-7.19-80.8,8.55-105.31,39.36-2.49,3.13-4.93,6.92-4.17,10.85s6.67,6.41,8.86,3.06c-1.21,2-4.7.49-5-1.81s1.25-4.41,2.86-6.09c6.59-6.88,15-11.76,23.21-16.51C183.9,288.9,214,273.2,245,278a57.54,57.54,0,0,0-23.67-1.79"/><path class="cls-5" d="M298.87,308.79c1.13,2.48-1.2,6.18-3.72,5.15.3.6,1.34.1,1.33-.57s-.6-1.17-1.15-1.56c-10.57-7.32-24.34-6.73-36.61-6.63-2.39,0-6.27.88-8.46-.11.8-1.08,3.18-1.37,4.43-1.68a48.29,48.29,0,0,1,8.12-1.35,91.17,91.17,0,0,1,26.11,1.62C292.31,304.41,297.24,305.23,298.87,308.79Z"/><path class="cls-5" d="M271.59,263.33a68,68,0,0,1,27.32,3.6c4.31,1.5,9.09,4.27,9.4,8.82a2.58,2.58,0,0,1-.61,2.09,3.17,3.17,0,0,1-2.33.54l-7.33-.23a9.1,9.1,0,0,0,4.35-3.66,64.29,64.29,0,0,0-51.12-8.43"/><path class="cls-5" d="M319.61,248l-7.25,1.86a6.27,6.27,0,0,0,2.05-2.69,86.45,86.45,0,0,0-50.76-4.49c4.43-.95,8.58-2.61,13.12-3.26a56.75,56.75,0,0,1,10.57-.7c7.05.32,14.83.12,21.56,2.29A22.26,22.26,0,0,1,319.61,248Z"/><path class="cls-5" d="M172.68,172a94.22,94.22,0,0,1,74.25-1.13c-30.11-3-61.9-5.82-89.41,6.79"/><path class="cls-5" d="M290.19,220.88a55.22,55.22,0,0,0-46.94,1.6,121.43,121.43,0,0,1,58,4.06,45.52,45.52,0,0,0-31.89-8.19"/><path class="cls-5" d="M232.56,332.91a102.19,102.19,0,0,0-54.23,22.66c-3.89,3.21-7.67,6.91-9.23,11.7a5.19,5.19,0,0,0-.29,2.72c.71,3.27,5.35,3.27,8.6,2.49a9.3,9.3,0,0,1-4.15.64,3.17,3.17,0,0,1-2.8-2.72,4,4,0,0,1,.56-1.87c1.91-3.62,5.34-6.14,8.71-8.46,18.74-12.91,39.38-23.83,61.8-27.7a168.67,168.67,0,0,0-23.2,2.21"/><path class="cls-5" d="M285.7,351.08c1.16,1.89,1.75,4.33.76,6.31-1.3,2.59-4.58,3.32-7.45,3.76,2.73-.42,2.85-4.33,1.85-6.18-1.56-2.86-5.33-4.36-8.16-5.6-6-2.64-12.8-4.51-19.42-4.26-1.83.07-3.67.32-5.5.37a74.22,74.22,0,0,1,16.75-1.87c5.08-.11,10.44.13,15.12,2.3A13.77,13.77,0,0,1,285.7,351.08Z"/><path class="cls-5" d="M225.21,381.47a34.15,34.15,0,0,1,28.13,2.63c1.57.92,3.2,2.17,3.44,4a4.47,4.47,0,0,1-2.46,4.21,13,13,0,0,1-5,1.29c1.81.76,3.64-1.65,3.13-3.54s-2.34-3.08-4.08-4a48,48,0,0,0-35.3-3.36"/><path class="cls-5" d="M160.7,404.83A12.67,12.67,0,0,0,157,410a5.44,5.44,0,0,0,1.42,5.9c1.7,1.32,4.71.75,5.35-1.31-2.25,1.17-4.94-1.57-4.67-4.09s2.35-4.44,4.4-5.93a43.7,43.7,0,0,1,23.41-7.9c1.22-.06,2.76-.25,1.6-1.86-.93-1.28-3.2-.62-4.54-.47a42.35,42.35,0,0,0-11.74,3.1A40.36,40.36,0,0,0,160.7,404.83Z"/><path class="cls-5" d="M194.37,417.24c6.41-1.67,13.36-3.31,19.48-.77a6.33,6.33,0,0,1,3.36,2.66,4,4,0,0,1-5.87,5c1.5.73,3.23-1.13,3-2.78s-1.67-2.85-3.1-3.72A22.21,22.21,0,0,0,187,418.8"/><path class="cls-5" d="M189.83,427.8c-4.46.23-9.08.87-12.8,3.34s-6.24,7.23-4.84,11.47l4.41-.45c-1.42.79-3.26-.74-3.34-2.37s.94-3.1,2-4.33c4-4.61,10.57-8.26,16.06-5.61"/><path class="cls-5" d="M199.6,435.28a33,33,0,0,0-9.69,3.09,9.53,9.53,0,0,0-4.49,3.85c-.91,1.79-.54,4.35,1.23,5.28A3.15,3.15,0,0,0,191,445L189,444.6a17.62,17.62,0,0,1,18.2-9.19"/><path class="cls-5" d="M201.86,400.78c4.91-.9,10.09-1.3,14.79.4s8.74,6,8.84,10.95C217.39,403,203,400.37,192.14,406"/><path class="cls-5" d="M101.54,252.23A37,37,0,0,1,118,246.32a70.22,70.22,0,0,0-9.37,4.21,31.11,31.11,0,0,0-7.76,5.54c-.46.47-2.16,3.17-2.68,3.06-1.16-.23-.32-2.85-.09-3.37A8.85,8.85,0,0,1,101.54,252.23Z"/><path class="cls-5" d="M136.19,235.91a32.7,32.7,0,0,1,27.42-10.42,16.63,16.63,0,0,1,8.47,3c-7.5.14-15,.28-22.38,1.79s-14.55,4.5-20,9.66"/><path class="cls-6" d="M202.16,219.37c14.05-4.22,28.2-8.46,42.79-10s29.82-.17,43,6.34"/><path class="cls-6" d="M96.32,277.83A76.38,76.38,0,0,1,134,253.63"/><path class="cls-6" d="M114.75,268.47a71.83,71.83,0,0,1,47.68-14.07"/><path class="cls-6" d="M123.07,318.05c-.61-11.37,7.34-21.39,16-28.84a114.36,114.36,0,0,1,62.05-27"/><path class="cls-6" d="M189.75,294.31a99.33,99.33,0,0,1,53.71-14.48"/><path class="cls-6" d="M215.33,159.38A136.44,136.44,0,0,1,277.94,176"/><path class="cls-6" d="M169.88,189.91A218.54,218.54,0,0,0,117,210.37"/><path class="cls-6" d="M111.84,186.46a105.91,105.91,0,0,1,31.82-14"/><path class="cls-6" d="M136.83,301.07a68.86,68.86,0,0,1,25.27-16.31"/><path class="cls-6" d="M158.2,325.5c7.52-9.36,19.52-13.66,30.89-17.53"/><path class="cls-6" d="M176,340.24a44,44,0,0,1,23.18-14.71"/><path class="cls-6" d="M186.34,338.25a57.43,57.43,0,0,1,23.77-13.77,102,102,0,0,1,27.37-4"/><path class="cls-6" d="M197.41,360.66q16-6.56,31.34-14.61"/><path class="cls-6" d="M185,375.2c5.52,2.5,12,2.36,17.79.7s11.14-4.74,16.23-8"/><path class="cls-6" d="M295.08,260c-21.63-15.15-52.1-16.5-75-3.31"/><path class="cls-6" d="M223.22,205.21a175.74,175.74,0,0,0-49.58,21.23"/><path class="cls-6" d="M172.94,410.34a43.9,43.9,0,0,1,16.5-1.86"/><path class="cls-6" d="M169.21,423.47a31.76,31.76,0,0,1,21-11.2"/><path class="cls-6" d="M180.8,390.4c8.12-2.81,16.94-2.48,25.53-2.12,5.62.24,11.65.63,16.07,4.11"/><path class="cls-6" d="M237.45,388.22a88.53,88.53,0,0,0-32.63-4.93"/><path class="cls-6" d="M251,373.29a118.29,118.29,0,0,0-37.9,2"/><path class="cls-6" d="M177.14,427.66a23.47,23.47,0,0,1,17.18-6"/><path class="cls-6" d="M182.73,438.86a22.7,22.7,0,0,1,14.59-9.05"/><path class="cls-6" d="M256.6,365.28A62.31,62.31,0,0,0,216.44,363"/><path class="cls-6" d="M252.81,369.51A62.79,62.79,0,0,0,220.2,368"/></g></svg>